<svg width="334" height="256" viewBox="0 0 334 256" fill="none" xmlns="http://www.w3.org/2000/svg">
<g clip-path="url(#clip0_2_1710)">
<path opacity="0.5" d="M324.785 0H6.98972C3.1294 0 0 3.12942 0 6.98975V249.01C0 252.87 3.1294 256 6.98972 256H324.785C328.645 256 331.774 252.87 331.774 249.01V6.98975C331.774 3.12942 328.645 0 324.785 0Z" fill="#F1F0EE"/>
<path opacity="0.3" d="M76.802 133.426L68.7215 133.427C62.4239 133.427 56.1972 134.757 50.4493 137.33C41.262 141.445 34.5697 149.672 32.412 159.504L31.2358 164.864L31.0955 166.006C29.2639 180.899 36.9725 195.34 50.3652 202.106M50.3652 202.106L49.2171 196.382M50.3652 202.106L45.1174 203.799" stroke="#333333" stroke-width="1.3" stroke-linecap="round" stroke-dasharray="4 4"/>
<path d="M57.3477 195.584C57.3477 188.798 62.8493 183.296 69.6357 183.296H263.171C269.957 183.296 275.459 188.798 275.459 195.584V218.112C275.459 224.898 269.957 230.4 263.171 230.4H69.6357C62.8493 230.4 57.3477 224.898 57.3477 218.112V195.584Z" fill="#8082EF"/>
<path d="M106.985 203.924C106.403 203.924 105.863 203.817 105.363 203.604C104.871 203.391 104.445 203.096 104.085 202.719C103.733 202.334 103.475 201.888 103.311 201.38L104.699 200.778C104.921 201.302 105.24 201.716 105.658 202.019C106.076 202.314 106.547 202.461 107.071 202.461C107.366 202.461 107.62 202.416 107.833 202.326C108.054 202.228 108.222 202.097 108.337 201.933C108.46 201.769 108.521 201.572 108.521 201.343C108.521 201.073 108.439 200.852 108.275 200.68C108.12 200.499 107.882 200.36 107.563 200.262L105.805 199.696C105.093 199.475 104.556 199.144 104.196 198.701C103.835 198.259 103.655 197.739 103.655 197.141C103.655 196.616 103.782 196.153 104.036 195.752C104.298 195.351 104.658 195.039 105.117 194.818C105.584 194.589 106.117 194.474 106.715 194.474C107.264 194.474 107.767 194.572 108.226 194.769C108.685 194.957 109.078 195.224 109.406 195.568C109.742 195.904 109.991 196.301 110.155 196.76L108.779 197.374C108.599 196.915 108.328 196.563 107.968 196.317C107.608 196.063 107.19 195.936 106.715 195.936C106.436 195.936 106.19 195.986 105.977 196.084C105.764 196.174 105.596 196.305 105.474 196.477C105.359 196.641 105.302 196.837 105.302 197.067C105.302 197.321 105.383 197.546 105.547 197.743C105.711 197.931 105.961 198.079 106.297 198.185L107.98 198.713C108.709 198.951 109.254 199.279 109.615 199.696C109.983 200.114 110.168 200.63 110.168 201.245C110.168 201.769 110.032 202.232 109.762 202.633C109.492 203.035 109.119 203.35 108.644 203.579C108.169 203.809 107.616 203.924 106.985 203.924ZM113.505 203.924C113.038 203.924 112.632 203.846 112.288 203.69C111.944 203.534 111.678 203.313 111.49 203.027C111.301 202.732 111.207 202.392 111.207 202.007C111.207 201.638 111.289 201.31 111.453 201.024C111.617 200.729 111.87 200.483 112.215 200.286C112.559 200.09 112.993 199.95 113.517 199.869L115.704 199.512V200.741L113.824 201.06C113.505 201.118 113.267 201.22 113.112 201.368C112.956 201.515 112.878 201.708 112.878 201.945C112.878 202.175 112.964 202.359 113.136 202.498C113.316 202.629 113.538 202.695 113.8 202.695C114.136 202.695 114.43 202.625 114.684 202.486C114.947 202.338 115.147 202.138 115.287 201.884C115.434 201.63 115.508 201.351 115.508 201.048V199.328C115.508 199.041 115.393 198.804 115.164 198.615C114.942 198.419 114.648 198.32 114.279 198.32C113.935 198.32 113.628 198.414 113.357 198.603C113.095 198.783 112.903 199.025 112.78 199.328L111.465 198.689C111.596 198.337 111.801 198.034 112.079 197.78C112.366 197.517 112.702 197.313 113.087 197.165C113.472 197.018 113.89 196.944 114.34 196.944C114.889 196.944 115.373 197.046 115.79 197.251C116.208 197.448 116.532 197.726 116.761 198.087C116.999 198.439 117.117 198.853 117.117 199.328V203.776H115.594V202.633L115.938 202.609C115.766 202.895 115.561 203.137 115.323 203.334C115.086 203.522 114.815 203.67 114.512 203.776C114.209 203.874 113.873 203.924 113.505 203.924ZM120.501 203.776L117.871 197.091H119.628L121.533 202.351H120.882L122.799 197.091H124.556L121.926 203.776H120.501ZM128.495 203.924C127.807 203.924 127.205 203.768 126.689 203.457C126.173 203.145 125.771 202.723 125.484 202.191C125.198 201.658 125.054 201.069 125.054 200.421C125.054 199.75 125.198 199.156 125.484 198.64C125.779 198.115 126.177 197.702 126.676 197.399C127.184 197.096 127.75 196.944 128.372 196.944C128.896 196.944 129.355 197.03 129.748 197.202C130.15 197.374 130.49 197.612 130.768 197.915C131.047 198.218 131.26 198.566 131.407 198.959C131.555 199.344 131.628 199.762 131.628 200.213C131.628 200.327 131.62 200.446 131.604 200.569C131.596 200.692 131.575 200.798 131.542 200.888H126.381V199.66H130.633L129.871 200.237C129.945 199.86 129.925 199.524 129.81 199.23C129.703 198.935 129.523 198.701 129.269 198.529C129.023 198.357 128.724 198.271 128.372 198.271C128.036 198.271 127.737 198.357 127.475 198.529C127.213 198.693 127.012 198.939 126.873 199.266C126.742 199.586 126.693 199.975 126.726 200.434C126.693 200.843 126.746 201.208 126.885 201.527C127.033 201.839 127.246 202.08 127.524 202.252C127.811 202.424 128.139 202.51 128.507 202.51C128.876 202.51 129.187 202.433 129.441 202.277C129.703 202.121 129.908 201.912 130.056 201.65L131.358 202.289C131.227 202.609 131.022 202.891 130.744 203.137C130.465 203.383 130.133 203.575 129.748 203.715C129.372 203.854 128.954 203.924 128.495 203.924ZM135.168 203.776V194.622H136.84V198.615H140.735V194.622H142.418V203.776H140.735V200.09H136.84V203.776H135.168ZM147.314 203.924C146.659 203.924 146.061 203.772 145.52 203.469C144.987 203.166 144.561 202.752 144.242 202.228C143.931 201.704 143.775 201.106 143.775 200.434C143.775 199.762 143.931 199.164 144.242 198.64C144.561 198.115 144.987 197.702 145.52 197.399C146.052 197.096 146.65 196.944 147.314 196.944C147.969 196.944 148.563 197.096 149.096 197.399C149.628 197.702 150.05 198.115 150.361 198.64C150.681 199.156 150.841 199.754 150.841 200.434C150.841 201.106 150.681 201.704 150.361 202.228C150.042 202.752 149.616 203.166 149.083 203.469C148.551 203.772 147.961 203.924 147.314 203.924ZM147.314 202.449C147.674 202.449 147.99 202.363 148.26 202.191C148.539 202.019 148.756 201.781 148.911 201.478C149.075 201.167 149.157 200.819 149.157 200.434C149.157 200.041 149.075 199.696 148.911 199.402C148.756 199.098 148.539 198.861 148.26 198.689C147.99 198.509 147.674 198.419 147.314 198.419C146.945 198.419 146.622 198.509 146.343 198.689C146.065 198.861 145.844 199.098 145.68 199.402C145.524 199.696 145.446 200.041 145.446 200.434C145.446 200.819 145.524 201.167 145.68 201.478C145.844 201.781 146.065 202.019 146.343 202.191C146.622 202.363 146.945 202.449 147.314 202.449ZM154.445 203.924C153.929 203.924 153.478 203.809 153.093 203.579C152.717 203.35 152.426 203.031 152.221 202.621C152.024 202.211 151.926 201.732 151.926 201.183V197.091H153.536V201.048C153.536 201.327 153.589 201.572 153.696 201.785C153.81 201.99 153.97 202.154 154.175 202.277C154.388 202.392 154.625 202.449 154.887 202.449C155.15 202.449 155.383 202.392 155.588 202.277C155.793 202.154 155.952 201.986 156.067 201.773C156.182 201.56 156.239 201.306 156.239 201.011V197.091H157.849V203.776H156.325V202.461L156.46 202.695C156.305 203.104 156.047 203.412 155.686 203.616C155.334 203.821 154.92 203.924 154.445 203.924ZM159.345 203.776V197.091H160.856V198.578L160.733 198.357C160.889 197.857 161.131 197.509 161.458 197.313C161.794 197.116 162.196 197.018 162.663 197.018H163.056V198.443H162.478C162.02 198.443 161.651 198.586 161.372 198.873C161.094 199.152 160.955 199.545 160.955 200.053V203.776H159.345ZM166.484 203.924C165.771 203.924 165.149 203.756 164.616 203.42C164.092 203.076 163.732 202.613 163.535 202.031L164.739 201.454C164.911 201.831 165.149 202.125 165.452 202.338C165.763 202.551 166.107 202.658 166.484 202.658C166.779 202.658 167.013 202.592 167.185 202.461C167.357 202.33 167.443 202.158 167.443 201.945C167.443 201.814 167.406 201.708 167.332 201.626C167.267 201.536 167.172 201.462 167.049 201.405C166.935 201.339 166.808 201.286 166.669 201.245L165.575 200.938C165.01 200.774 164.58 200.524 164.285 200.188C163.998 199.852 163.855 199.455 163.855 198.996C163.855 198.586 163.957 198.23 164.162 197.927C164.375 197.616 164.666 197.374 165.034 197.202C165.411 197.03 165.841 196.944 166.324 196.944C166.955 196.944 167.512 197.096 167.996 197.399C168.479 197.702 168.823 198.128 169.028 198.677L167.799 199.254C167.684 198.951 167.492 198.709 167.221 198.529C166.951 198.349 166.648 198.259 166.312 198.259C166.042 198.259 165.829 198.32 165.673 198.443C165.518 198.566 165.44 198.726 165.44 198.922C165.44 199.045 165.472 199.152 165.538 199.242C165.604 199.332 165.694 199.406 165.808 199.463C165.931 199.52 166.07 199.574 166.226 199.623L167.295 199.942C167.844 200.106 168.266 200.352 168.561 200.68C168.864 201.007 169.016 201.409 169.016 201.884C169.016 202.285 168.909 202.642 168.696 202.953C168.483 203.256 168.188 203.493 167.811 203.666C167.434 203.838 166.992 203.924 166.484 203.924ZM172.572 203.776V194.622H175.558C176.524 194.622 177.364 194.818 178.077 195.211C178.798 195.596 179.355 196.133 179.748 196.821C180.141 197.501 180.338 198.292 180.338 199.193C180.338 200.086 180.141 200.88 179.748 201.577C179.355 202.265 178.798 202.805 178.077 203.199C177.364 203.584 176.524 203.776 175.558 203.776H172.572ZM174.243 202.302H175.595C176.217 202.302 176.754 202.175 177.204 201.921C177.663 201.658 178.019 201.298 178.273 200.839C178.527 200.372 178.654 199.823 178.654 199.193C178.654 198.554 178.527 198.005 178.273 197.546C178.019 197.087 177.663 196.731 177.204 196.477C176.754 196.223 176.217 196.096 175.595 196.096H174.243V202.302ZM183.536 203.924C183.069 203.924 182.663 203.846 182.319 203.69C181.975 203.534 181.709 203.313 181.521 203.027C181.332 202.732 181.238 202.392 181.238 202.007C181.238 201.638 181.32 201.31 181.484 201.024C181.648 200.729 181.901 200.483 182.246 200.286C182.59 200.09 183.024 199.95 183.548 199.869L185.735 199.512V200.741L183.855 201.06C183.536 201.118 183.298 201.22 183.143 201.368C182.987 201.515 182.909 201.708 182.909 201.945C182.909 202.175 182.995 202.359 183.167 202.498C183.347 202.629 183.569 202.695 183.831 202.695C184.167 202.695 184.461 202.625 184.715 202.486C184.978 202.338 185.178 202.138 185.318 201.884C185.465 201.63 185.539 201.351 185.539 201.048V199.328C185.539 199.041 185.424 198.804 185.195 198.615C184.973 198.419 184.679 198.32 184.31 198.32C183.966 198.32 183.659 198.414 183.388 198.603C183.126 198.783 182.934 199.025 182.811 199.328L181.496 198.689C181.627 198.337 181.832 198.034 182.11 197.78C182.397 197.517 182.733 197.313 183.118 197.165C183.503 197.018 183.921 196.944 184.371 196.944C184.92 196.944 185.404 197.046 185.821 197.251C186.239 197.448 186.563 197.726 186.792 198.087C187.03 198.439 187.148 198.853 187.148 199.328V203.776H185.625V202.633L185.969 202.609C185.797 202.895 185.592 203.137 185.354 203.334C185.117 203.522 184.846 203.67 184.543 203.776C184.24 203.874 183.904 203.924 183.536 203.924ZM188.636 203.776V197.091H190.246V203.776H188.636ZM188.636 196.342V194.622H190.246V196.342H188.636ZM191.733 203.776V194.474H193.343V203.776H191.733ZM195.639 206.479C195.459 206.479 195.283 206.463 195.111 206.43C194.939 206.406 194.783 206.357 194.644 206.283V204.943C194.751 204.968 194.878 204.993 195.025 205.017C195.181 205.042 195.324 205.054 195.455 205.054C195.824 205.054 196.09 204.968 196.254 204.796C196.426 204.632 196.577 204.411 196.708 204.132L197.151 203.1L197.126 204.452L194.214 197.091H195.947L197.986 202.523H197.372L199.399 197.091H201.144L198.232 204.452C198.06 204.878 197.851 205.242 197.605 205.546C197.36 205.849 197.073 206.078 196.745 206.234C196.426 206.398 196.057 206.479 195.639 206.479Z" fill="white"/>
<path opacity="0.8" d="M103.767 219.136V210.744H109.083V211.758H104.87V214.473H108.689V215.487H104.87V219.136H103.767ZM109.869 219.136V213.065H110.894V214.18L110.781 214.022C110.923 213.677 111.141 213.421 111.434 213.256C111.727 213.083 112.084 212.997 112.504 212.997H112.876V213.988H112.347C111.919 213.988 111.574 214.124 111.31 214.394C111.047 214.657 110.916 215.032 110.916 215.52V219.136H109.869ZM116.6 219.271C116.015 219.271 115.492 219.132 115.035 218.854C114.576 218.577 114.215 218.197 113.953 217.717C113.69 217.228 113.559 216.685 113.559 216.084C113.559 215.475 113.686 214.935 113.942 214.462C114.204 213.988 114.557 213.617 115.001 213.346C115.451 213.069 115.954 212.93 116.51 212.93C116.961 212.93 117.358 213.013 117.704 213.177C118.056 213.335 118.353 213.553 118.594 213.831C118.842 214.101 119.029 214.412 119.157 214.766C119.292 215.111 119.36 215.471 119.36 215.847C119.36 215.93 119.352 216.023 119.337 216.129C119.329 216.226 119.318 216.32 119.304 216.41H114.325V215.509H118.695L118.2 215.915C118.267 215.524 118.23 215.175 118.087 214.867C117.944 214.559 117.734 214.315 117.456 214.135C117.178 213.955 116.862 213.865 116.51 213.865C116.157 213.865 115.834 213.955 115.542 214.135C115.249 214.315 115.019 214.574 114.854 214.912C114.697 215.243 114.632 215.637 114.663 216.095C114.632 216.538 114.7 216.928 114.866 217.266C115.038 217.597 115.278 217.856 115.587 218.043C115.902 218.224 116.243 218.314 116.612 218.314C117.017 218.314 117.358 218.22 117.637 218.032C117.914 217.845 118.139 217.604 118.312 217.311L119.191 217.762C119.07 218.039 118.883 218.295 118.628 218.528C118.38 218.753 118.083 218.933 117.738 219.068C117.4 219.204 117.02 219.271 116.6 219.271ZM123.518 219.271C122.933 219.271 122.412 219.132 121.953 218.854C121.495 218.577 121.135 218.197 120.871 217.717C120.609 217.228 120.477 216.685 120.477 216.084C120.477 215.475 120.605 214.935 120.86 214.462C121.123 213.988 121.477 213.617 121.919 213.346C122.37 213.069 122.873 212.93 123.428 212.93C123.879 212.93 124.277 213.013 124.622 213.177C124.976 213.335 125.273 213.553 125.512 213.831C125.76 214.101 125.948 214.412 126.075 214.766C126.211 215.111 126.278 215.471 126.278 215.847C126.278 215.93 126.271 216.023 126.256 216.129C126.248 216.226 126.237 216.32 126.222 216.41H121.243V215.509H125.614L125.118 215.915C125.186 215.524 125.149 215.175 125.005 214.867C124.863 214.559 124.653 214.315 124.375 214.135C124.097 213.955 123.782 213.865 123.428 213.865C123.076 213.865 122.753 213.955 122.46 214.135C122.167 214.315 121.938 214.574 121.773 214.912C121.615 215.243 121.551 215.637 121.581 216.095C121.551 216.538 121.619 216.928 121.784 217.266C121.957 217.597 122.198 217.856 122.505 218.043C122.82 218.224 123.162 218.314 123.53 218.314C123.935 218.314 124.277 218.22 124.555 218.032C124.833 217.845 125.059 217.604 125.231 217.311L126.109 217.762C125.989 218.039 125.802 218.295 125.546 218.528C125.298 218.753 125.002 218.933 124.656 219.068C124.318 219.204 123.939 219.271 123.518 219.271ZM132.059 219.204C131.465 219.204 131.007 219.035 130.684 218.697C130.369 218.359 130.211 217.882 130.211 217.266V214.067H129.107V213.065H129.333C129.603 213.065 129.817 212.982 129.975 212.817C130.132 212.652 130.211 212.434 130.211 212.164V211.668H131.259V213.065H132.622V214.067H131.259V217.232C131.259 217.435 131.289 217.611 131.349 217.762C131.417 217.912 131.525 218.032 131.676 218.122C131.825 218.205 132.025 218.246 132.273 218.246C132.325 218.246 132.388 218.242 132.464 218.235C132.546 218.228 132.622 218.22 132.689 218.212V219.136C132.591 219.159 132.483 219.174 132.363 219.181C132.242 219.196 132.14 219.204 132.059 219.204ZM136.686 219.271C136.1 219.271 135.578 219.132 135.12 218.854C134.663 218.577 134.302 218.197 134.039 217.717C133.776 217.228 133.645 216.685 133.645 216.084C133.645 215.475 133.773 214.935 134.028 214.462C134.291 213.988 134.643 213.617 135.087 213.346C135.537 213.069 136.04 212.93 136.596 212.93C137.046 212.93 137.445 213.013 137.79 213.177C138.143 213.335 138.439 213.553 138.68 213.831C138.928 214.101 139.115 214.412 139.243 214.766C139.378 215.111 139.446 215.471 139.446 215.847C139.446 215.93 139.439 216.023 139.423 216.129C139.416 216.226 139.405 216.32 139.389 216.41H134.411V215.509H138.781L138.285 215.915C138.353 215.524 138.315 215.175 138.173 214.867C138.031 214.559 137.82 214.315 137.542 214.135C137.265 213.955 136.949 213.865 136.596 213.865C136.243 213.865 135.92 213.955 135.627 214.135C135.334 214.315 135.105 214.574 134.94 214.912C134.782 215.243 134.719 215.637 134.749 216.095C134.719 216.538 134.786 216.928 134.951 217.266C135.124 217.597 135.364 217.856 135.672 218.043C135.988 218.224 136.33 218.314 136.697 218.314C137.103 218.314 137.445 218.22 137.722 218.032C138 217.845 138.225 217.604 138.398 217.311L139.277 217.762C139.157 218.039 138.968 218.295 138.714 218.528C138.466 218.753 138.169 218.933 137.824 219.068C137.486 219.204 137.107 219.271 136.686 219.271ZM142.515 219.271C142.116 219.271 141.763 219.2 141.456 219.057C141.155 218.907 140.918 218.704 140.746 218.449C140.573 218.186 140.487 217.886 140.487 217.548C140.487 217.225 140.555 216.935 140.69 216.681C140.832 216.417 141.05 216.196 141.343 216.016C141.643 215.836 142.019 215.708 142.47 215.633L144.722 215.261V216.14L142.706 216.478C142.315 216.545 142.03 216.669 141.85 216.849C141.677 217.03 141.591 217.251 141.591 217.514C141.591 217.762 141.688 217.969 141.884 218.134C142.087 218.298 142.337 218.381 142.638 218.381C143.021 218.381 143.351 218.303 143.63 218.145C143.914 217.98 144.137 217.758 144.294 217.48C144.459 217.203 144.542 216.895 144.542 216.557V215.013C144.542 214.683 144.418 214.416 144.17 214.214C143.93 214.004 143.61 213.898 143.213 213.898C142.867 213.898 142.56 213.988 142.289 214.169C142.026 214.342 141.831 214.574 141.704 214.867L140.791 214.394C140.904 214.116 141.084 213.869 141.332 213.651C141.58 213.425 141.868 213.249 142.199 213.121C142.529 212.993 142.875 212.93 143.235 212.93C143.7 212.93 144.11 213.02 144.463 213.2C144.816 213.373 145.09 213.617 145.286 213.932C145.488 214.24 145.59 214.601 145.59 215.013V219.136H144.565V217.987L144.756 218.055C144.628 218.295 144.455 218.505 144.238 218.686C144.02 218.866 143.765 219.008 143.472 219.114C143.179 219.219 142.86 219.271 142.515 219.271ZM147.214 219.136V213.065H148.239V214.304L148.092 214.112C148.242 213.729 148.482 213.436 148.813 213.234C149.143 213.031 149.515 212.93 149.928 212.93C150.401 212.93 150.825 213.061 151.201 213.324C151.584 213.587 151.846 213.932 151.99 214.36L151.697 214.371C151.854 213.898 152.121 213.542 152.496 213.301C152.871 213.054 153.288 212.93 153.747 212.93C154.167 212.93 154.547 213.027 154.884 213.222C155.23 213.418 155.504 213.688 155.707 214.033C155.909 214.379 156.011 214.77 156.011 215.205V219.136H154.952V215.543C154.952 215.205 154.892 214.919 154.772 214.687C154.651 214.454 154.486 214.274 154.276 214.146C154.073 214.011 153.833 213.943 153.555 213.943C153.285 213.943 153.04 214.011 152.823 214.146C152.612 214.274 152.443 214.457 152.316 214.698C152.195 214.93 152.136 215.212 152.136 215.543V219.136H151.077V215.543C151.077 215.205 151.017 214.919 150.897 214.687C150.776 214.454 150.611 214.274 150.401 214.146C150.199 214.011 149.958 213.943 149.681 213.943C149.41 213.943 149.165 214.011 148.948 214.146C148.737 214.274 148.568 214.457 148.441 214.698C148.321 214.93 148.261 215.212 148.261 215.543V219.136H147.214ZM160.087 219.136V214.067H158.927V213.065H160.087V212.637C160.087 212.202 160.182 211.833 160.369 211.533C160.565 211.233 160.82 211.003 161.135 210.846C161.457 210.688 161.815 210.609 162.205 210.609C162.288 210.609 162.378 210.616 162.475 210.632C162.581 210.639 162.667 210.65 162.734 210.666V211.6C162.674 211.585 162.603 211.578 162.52 211.578C162.437 211.571 162.374 211.567 162.329 211.567C161.984 211.567 161.698 211.65 161.473 211.814C161.255 211.979 161.146 212.254 161.146 212.637V213.065H162.588V214.067H161.146V219.136H160.087ZM166.52 219.271C165.934 219.271 165.405 219.136 164.932 218.866C164.459 218.588 164.083 218.208 163.805 217.728C163.527 217.248 163.389 216.703 163.389 216.095C163.389 215.487 163.524 214.946 163.794 214.473C164.072 214 164.448 213.624 164.921 213.346C165.394 213.069 165.926 212.93 166.52 212.93C167.106 212.93 167.635 213.069 168.108 213.346C168.581 213.617 168.953 213.988 169.223 214.462C169.501 214.935 169.64 215.479 169.64 216.095C169.64 216.71 169.497 217.259 169.212 217.739C168.926 218.212 168.548 218.588 168.075 218.866C167.609 219.136 167.09 219.271 166.52 219.271ZM166.52 218.257C166.895 218.257 167.233 218.163 167.534 217.976C167.841 217.788 168.082 217.529 168.255 217.199C168.435 216.868 168.525 216.5 168.525 216.095C168.525 215.682 168.435 215.318 168.255 215.002C168.082 214.68 167.841 214.424 167.534 214.236C167.233 214.041 166.895 213.943 166.52 213.943C166.137 213.943 165.791 214.041 165.484 214.236C165.183 214.424 164.943 214.68 164.763 215.002C164.583 215.318 164.493 215.682 164.493 216.095C164.493 216.5 164.583 216.868 164.763 217.199C164.943 217.529 165.183 217.788 165.484 217.976C165.791 218.163 166.137 218.257 166.52 218.257ZM171.006 219.136V213.065H172.031V214.18L171.919 214.022C172.061 213.677 172.279 213.421 172.572 213.256C172.865 213.083 173.221 212.997 173.642 212.997H174.014V213.988H173.484C173.056 213.988 172.711 214.124 172.448 214.394C172.185 214.657 172.054 215.032 172.054 215.52V219.136H171.006ZM176.891 219.136V210.609H177.939V214.247L177.747 214.146C177.898 213.763 178.137 213.466 178.468 213.256C178.806 213.038 179.2 212.93 179.651 212.93C180.086 212.93 180.473 213.027 180.811 213.222C181.156 213.418 181.426 213.688 181.622 214.033C181.825 214.379 181.926 214.77 181.926 215.205V219.136H180.867V215.543C180.867 215.205 180.804 214.919 180.676 214.687C180.556 214.454 180.387 214.274 180.169 214.146C179.951 214.011 179.7 213.943 179.414 213.943C179.137 213.943 178.885 214.011 178.66 214.146C178.434 214.274 178.258 214.457 178.13 214.698C178.002 214.93 177.939 215.212 177.939 215.543V219.136H176.891ZM183.425 219.136V213.065H184.473V219.136H183.425ZM183.425 212.096V210.744H184.473V212.096H183.425ZM188.993 221.614C188.565 221.614 188.167 221.547 187.799 221.411C187.438 221.276 187.127 221.089 186.864 220.848C186.609 220.616 186.413 220.341 186.278 220.026L187.258 219.575C187.364 219.861 187.562 220.101 187.855 220.296C188.156 220.499 188.531 220.6 188.981 220.6C189.328 220.6 189.639 220.533 189.916 220.398C190.202 220.27 190.427 220.075 190.592 219.812C190.758 219.557 190.84 219.245 190.84 218.877V217.514L191.031 217.717C190.822 218.129 190.517 218.445 190.119 218.663C189.729 218.881 189.297 218.99 188.824 218.99C188.253 218.99 187.742 218.859 187.292 218.595C186.841 218.325 186.489 217.961 186.233 217.503C185.978 217.037 185.85 216.523 185.85 215.96C185.85 215.389 185.978 214.874 186.233 214.416C186.489 213.959 186.838 213.598 187.281 213.335C187.731 213.065 188.242 212.93 188.812 212.93C189.286 212.93 189.714 213.038 190.097 213.256C190.488 213.466 190.799 213.759 191.031 214.135L190.874 214.416V213.065H191.899V218.877C191.899 219.402 191.775 219.872 191.527 220.285C191.279 220.698 190.934 221.021 190.491 221.254C190.056 221.494 189.556 221.614 188.993 221.614ZM188.914 217.976C189.274 217.976 189.598 217.886 189.883 217.706C190.175 217.525 190.409 217.285 190.581 216.985C190.754 216.676 190.84 216.335 190.84 215.96C190.84 215.592 190.754 215.254 190.581 214.946C190.409 214.638 190.175 214.394 189.883 214.214C189.598 214.033 189.274 213.943 188.914 213.943C188.546 213.943 188.212 214.033 187.911 214.214C187.611 214.394 187.375 214.638 187.202 214.946C187.037 215.246 186.954 215.584 186.954 215.96C186.954 216.335 187.037 216.676 187.202 216.985C187.375 217.285 187.607 217.525 187.9 217.706C188.201 217.886 188.539 217.976 188.914 217.976ZM193.523 219.136V210.609H194.57V214.247L194.379 214.146C194.529 213.763 194.77 213.466 195.1 213.256C195.438 213.038 195.832 212.93 196.283 212.93C196.719 212.93 197.105 213.027 197.443 213.222C197.789 213.418 198.059 213.688 198.254 214.033C198.456 214.379 198.558 214.77 198.558 215.205V219.136H197.499V215.543C197.499 215.205 197.436 214.919 197.308 214.687C197.188 214.454 197.019 214.274 196.801 214.146C196.584 214.011 196.332 213.943 196.046 213.943C195.768 213.943 195.517 214.011 195.291 214.146C195.066 214.274 194.89 214.457 194.762 214.698C194.635 214.93 194.57 215.212 194.57 215.543V219.136H193.523ZM200.136 216.579V215.622H204.36V216.579H200.136ZM207.742 219.136L205.365 213.065H206.537L208.44 218.201H208.035L209.95 213.065H211.121L208.733 219.136H207.742ZM213.618 219.271C213.219 219.271 212.867 219.2 212.559 219.057C212.259 218.907 212.022 218.704 211.849 218.449C211.676 218.186 211.59 217.886 211.59 217.548C211.59 217.225 211.658 216.935 211.793 216.681C211.935 216.417 212.153 216.196 212.446 216.016C212.746 215.836 213.122 215.708 213.573 215.633L215.825 215.261V216.14L213.809 216.478C213.419 216.545 213.133 216.669 212.953 216.849C212.78 217.03 212.694 217.251 212.694 217.514C212.694 217.762 212.791 217.969 212.987 218.134C213.19 218.298 213.442 218.381 213.742 218.381C214.125 218.381 214.455 218.303 214.733 218.145C215.019 217.98 215.24 217.758 215.397 217.48C215.562 217.203 215.645 216.895 215.645 216.557V215.013C215.645 214.683 215.521 214.416 215.274 214.214C215.033 214.004 214.714 213.898 214.316 213.898C213.971 213.898 213.663 213.988 213.392 214.169C213.129 214.342 212.935 214.574 212.807 214.867L211.894 214.394C212.007 214.116 212.187 213.869 212.435 213.651C212.683 213.425 212.972 213.249 213.302 213.121C213.633 212.993 213.978 212.93 214.339 212.93C214.805 212.93 215.213 213.02 215.566 213.2C215.92 213.373 216.193 213.617 216.389 213.932C216.591 214.24 216.693 214.601 216.693 215.013V219.136H215.668V217.987L215.859 218.055C215.731 218.295 215.559 218.505 215.341 218.686C215.123 218.866 214.868 219.008 214.575 219.114C214.282 219.219 213.963 219.271 213.618 219.271ZM218.317 219.136V210.609H219.364V219.136H218.317ZM223.142 219.271C222.706 219.271 222.311 219.17 221.959 218.967C221.613 218.764 221.343 218.483 221.148 218.122C220.96 217.755 220.867 217.334 220.867 216.861V213.065H221.914V216.748C221.914 217.048 221.974 217.311 222.094 217.537C222.221 217.762 222.394 217.938 222.612 218.066C222.838 218.194 223.093 218.257 223.378 218.257C223.663 218.257 223.915 218.194 224.133 218.066C224.358 217.938 224.53 217.755 224.651 217.514C224.778 217.273 224.843 216.989 224.843 216.658V213.065H225.902V219.136H224.877V217.953L225.045 218.055C224.902 218.438 224.658 218.738 224.313 218.956C223.975 219.166 223.584 219.271 223.142 219.271ZM230.317 219.271C229.731 219.271 229.21 219.132 228.751 218.854C228.294 218.577 227.933 218.197 227.67 217.717C227.408 217.228 227.276 216.685 227.276 216.084C227.276 215.475 227.404 214.935 227.659 214.462C227.922 213.988 228.275 213.617 228.718 213.346C229.168 213.069 229.672 212.93 230.227 212.93C230.677 212.93 231.076 213.013 231.421 213.177C231.774 213.335 232.071 213.553 232.311 213.831C232.559 214.101 232.747 214.412 232.874 214.766C233.009 215.111 233.077 215.471 233.077 215.847C233.077 215.93 233.07 216.023 233.054 216.129C233.047 216.226 233.036 216.32 233.02 216.41H228.042V215.509H232.412L231.916 215.915C231.984 215.524 231.947 215.175 231.804 214.867C231.662 214.559 231.452 214.315 231.173 214.135C230.896 213.955 230.58 213.865 230.227 213.865C229.875 213.865 229.551 213.955 229.258 214.135C228.965 214.315 228.737 214.574 228.571 214.912C228.413 215.243 228.35 215.637 228.38 216.095C228.35 216.538 228.418 216.928 228.582 217.266C228.755 217.597 228.996 217.856 229.303 218.043C229.619 218.224 229.961 218.314 230.328 218.314C230.734 218.314 231.076 218.22 231.353 218.032C231.632 217.845 231.857 217.604 232.029 217.311L232.908 217.762C232.788 218.039 232.601 218.295 232.345 218.528C232.097 218.753 231.801 218.933 231.455 219.068C231.117 219.204 230.738 219.271 230.317 219.271ZM237.787 219.136L235.703 213.065H236.863L238.519 218.145L238.114 218.134L239.736 213.065H240.727L242.349 218.134L241.943 218.145L243.611 213.065H244.759L242.676 219.136H241.673L240.074 214.067H240.389L238.79 219.136H237.787ZM248.469 219.271C247.884 219.271 247.354 219.136 246.881 218.866C246.408 218.588 246.032 218.208 245.755 217.728C245.477 217.248 245.338 216.703 245.338 216.095C245.338 215.487 245.473 214.946 245.743 214.473C246.021 214 246.397 213.624 246.87 213.346C247.343 213.069 247.876 212.93 248.469 212.93C249.055 212.93 249.585 213.069 250.058 213.346C250.531 213.617 250.902 213.988 251.173 214.462C251.45 214.935 251.589 215.479 251.589 216.095C251.589 216.71 251.447 217.259 251.161 217.739C250.876 218.212 250.497 218.588 250.024 218.866C249.558 219.136 249.04 219.271 248.469 219.271ZM248.469 218.257C248.845 218.257 249.183 218.163 249.483 217.976C249.791 217.788 250.031 217.529 250.204 217.199C250.384 216.868 250.474 216.5 250.474 216.095C250.474 215.682 250.384 215.318 250.204 215.002C250.031 214.68 249.791 214.424 249.483 214.236C249.183 214.041 248.845 213.943 248.469 213.943C248.086 213.943 247.741 214.041 247.433 214.236C247.133 214.424 246.892 214.68 246.712 215.002C246.532 215.318 246.442 215.682 246.442 216.095C246.442 216.5 246.532 216.868 246.712 217.199C246.892 217.529 247.133 217.788 247.433 217.976C247.741 218.163 248.086 218.257 248.469 218.257ZM252.955 219.136V213.065H253.981V214.18L253.868 214.022C254.011 213.677 254.228 213.421 254.521 213.256C254.814 213.083 255.171 212.997 255.591 212.997H255.963V213.988H255.434C255.006 213.988 254.66 214.124 254.397 214.394C254.135 214.657 254.003 215.032 254.003 215.52V219.136H252.955ZM256.894 219.136V210.609H257.941V216.455L257.513 216.354L260.735 213.065H262.075L259.744 215.509L262.233 219.136H260.994L258.719 215.847L259.372 215.813L257.603 217.66L257.941 216.895V219.136H256.894Z" fill="white"/>
<path d="M81.1242 193.536C73.7331 193.536 67.6857 199.526 67.6857 206.848C67.6857 214.169 73.7331 220.16 81.1242 220.16C88.5154 220.16 94.5628 214.169 94.5628 206.848C94.5628 199.526 88.5154 193.536 81.1242 193.536ZM85.8277 209.51C85.4246 210.176 84.6183 210.309 83.9463 210.043L80.4523 208.046C80.0492 207.78 79.7803 207.38 79.7803 206.848V200.192C79.7803 199.393 80.3179 198.861 81.1242 198.861C81.9305 198.861 82.4681 199.393 82.4681 200.192V206.049L85.2901 207.646C85.9621 208.046 86.0964 208.845 85.8277 209.51Z" fill="white"/>
<g filter="url(#filter0_d_2_1710)">
<path d="M229.379 109.568H109.571C96.5641 109.568 86.0195 120.112 86.0195 133.12C86.0195 146.127 96.5641 156.672 109.571 156.672H229.379C242.386 156.672 252.931 146.127 252.931 133.12C252.931 120.112 242.386 109.568 229.379 109.568Z" fill="white"/>
<path d="M229.379 110.336H109.571C96.9882 110.336 86.7875 120.537 86.7875 133.12C86.7875 145.703 96.9882 155.904 109.571 155.904H229.379C241.962 155.904 252.163 145.703 252.163 133.12C252.163 120.537 241.962 110.336 229.379 110.336Z" stroke="url(#paint0_linear_2_1710)" stroke-width="1.5"/>
</g>
<path d="M145.543 137.361C144.928 137.361 144.381 137.253 143.904 137.034C143.426 136.816 143.054 136.503 142.787 136.099C142.52 135.694 142.382 135.212 142.374 134.654H143.916C143.916 134.937 143.981 135.191 144.111 135.419C144.248 135.637 144.434 135.811 144.669 135.941C144.912 136.07 145.203 136.135 145.543 136.135C145.835 136.135 146.086 136.091 146.296 136.001C146.515 135.904 146.681 135.771 146.795 135.601C146.916 135.423 146.977 135.216 146.977 134.982C146.977 134.714 146.911 134.495 146.782 134.325C146.661 134.147 146.491 133.997 146.273 133.877C146.053 133.755 145.802 133.649 145.519 133.56C145.236 133.463 144.936 133.362 144.621 133.257C143.948 133.03 143.442 132.743 143.102 132.395C142.762 132.039 142.592 131.564 142.592 130.974C142.592 130.48 142.71 130.055 142.945 129.699C143.179 129.342 143.508 129.067 143.929 128.872C144.358 128.671 144.851 128.569 145.41 128.569C145.977 128.569 146.47 128.671 146.892 128.872C147.321 129.075 147.657 129.359 147.9 129.722C148.151 130.079 148.281 130.508 148.288 131.01H146.733C146.725 130.8 146.669 130.605 146.563 130.427C146.459 130.24 146.304 130.091 146.103 129.977C145.908 129.856 145.669 129.796 145.386 129.796C145.143 129.788 144.924 129.828 144.729 129.917C144.544 129.998 144.393 130.12 144.281 130.281C144.175 130.435 144.122 130.63 144.122 130.864C144.122 131.091 144.171 131.281 144.269 131.435C144.374 131.581 144.524 131.707 144.718 131.811C144.912 131.909 145.139 132.002 145.398 132.091C145.657 132.18 145.94 132.277 146.248 132.383C146.669 132.52 147.05 132.69 147.39 132.893C147.738 133.087 148.013 133.342 148.215 133.658C148.418 133.973 148.519 134.383 148.519 134.884C148.519 135.322 148.405 135.73 148.179 136.111C147.952 136.483 147.62 136.787 147.183 137.021C146.746 137.249 146.2 137.361 145.543 137.361ZM152.79 137.361C152.191 137.361 151.653 137.228 151.174 136.961C150.705 136.686 150.337 136.309 150.069 135.831C149.81 135.346 149.681 134.795 149.681 134.18C149.681 133.54 149.81 132.982 150.069 132.503C150.337 132.018 150.705 131.637 151.174 131.362C151.653 131.087 152.195 130.949 152.803 130.949C153.563 130.949 154.202 131.152 154.72 131.556C155.239 131.954 155.571 132.499 155.717 133.196H154.187C154.106 132.889 153.935 132.646 153.676 132.468C153.425 132.289 153.126 132.2 152.778 132.2C152.478 132.2 152.202 132.277 151.952 132.431C151.709 132.584 151.514 132.808 151.369 133.098C151.232 133.39 151.162 133.743 151.162 134.155C151.162 134.472 151.203 134.75 151.284 134.994C151.365 135.237 151.479 135.442 151.624 135.612C151.778 135.775 151.952 135.9 152.146 135.989C152.341 136.078 152.551 136.123 152.778 136.123C153.012 136.123 153.223 136.086 153.41 136.014C153.603 135.933 153.765 135.815 153.895 135.661C154.032 135.508 154.13 135.326 154.187 135.115H155.717C155.571 135.795 155.239 136.341 154.72 136.754C154.202 137.16 153.559 137.361 152.79 137.361ZM157.122 137.216V128.472H158.579V132.043C158.782 131.71 159.057 131.447 159.405 131.253C159.753 131.05 160.146 130.949 160.583 130.949C161.085 130.949 161.511 131.055 161.859 131.265C162.207 131.467 162.47 131.771 162.647 132.176C162.834 132.573 162.927 133.071 162.927 133.67V137.216H161.482V133.803C161.482 133.277 161.368 132.876 161.142 132.601C160.923 132.325 160.587 132.188 160.133 132.188C159.842 132.188 159.579 132.261 159.345 132.406C159.109 132.544 158.923 132.747 158.786 133.013C158.649 133.273 158.579 133.593 158.579 133.973V137.216H157.122ZM167.341 137.361C166.734 137.361 166.199 137.232 165.738 136.973C165.277 136.706 164.916 136.333 164.657 135.856C164.398 135.378 164.268 134.828 164.268 134.204C164.268 133.556 164.394 132.99 164.645 132.503C164.904 132.018 165.265 131.637 165.726 131.362C166.195 131.087 166.738 130.949 167.354 130.949C167.953 130.949 168.475 131.083 168.92 131.35C169.366 131.618 169.71 131.977 169.952 132.431C170.195 132.876 170.317 133.378 170.317 133.937C170.317 134.018 170.317 134.107 170.317 134.204C170.317 134.302 170.309 134.402 170.292 134.507H165.313V133.573H168.848C168.831 133.127 168.682 132.779 168.398 132.528C168.114 132.269 167.762 132.14 167.341 132.14C167.041 132.14 166.767 132.209 166.516 132.346C166.264 132.484 166.066 132.69 165.92 132.965C165.774 133.233 165.702 133.573 165.702 133.985V134.337C165.702 134.718 165.77 135.046 165.909 135.322C166.054 135.597 166.249 135.807 166.491 135.953C166.742 136.091 167.022 136.159 167.329 136.159C167.669 136.159 167.948 136.086 168.167 135.941C168.394 135.795 168.56 135.601 168.665 135.357H170.147C170.033 135.738 169.847 136.082 169.588 136.391C169.329 136.69 169.009 136.928 168.628 137.106C168.248 137.276 167.818 137.361 167.341 137.361ZM174.382 137.361C173.816 137.361 173.31 137.224 172.865 136.949C172.419 136.673 172.071 136.293 171.82 135.807C171.577 135.322 171.456 134.771 171.456 134.155C171.456 133.54 171.582 132.994 171.832 132.516C172.083 132.03 172.431 131.649 172.877 131.374C173.331 131.091 173.841 130.949 174.407 130.949C174.869 130.949 175.269 131.038 175.609 131.216C175.957 131.386 176.233 131.629 176.435 131.945V128.472H177.892V137.216H176.581L176.435 136.329C176.305 136.507 176.148 136.677 175.961 136.839C175.775 136.994 175.553 137.119 175.294 137.216C175.034 137.313 174.73 137.361 174.382 137.361ZM174.686 136.099C175.034 136.099 175.342 136.018 175.609 135.856C175.876 135.686 176.083 135.455 176.228 135.164C176.374 134.872 176.448 134.536 176.448 134.155C176.448 133.775 176.374 133.439 176.228 133.148C176.083 132.856 175.876 132.629 175.609 132.468C175.342 132.306 175.034 132.225 174.686 132.225C174.355 132.225 174.055 132.306 173.787 132.468C173.52 132.629 173.31 132.856 173.156 133.148C173.01 133.439 172.937 133.775 172.937 134.155C172.937 134.536 173.01 134.872 173.156 135.164C173.31 135.455 173.52 135.686 173.787 135.856C174.055 136.018 174.355 136.099 174.686 136.099ZM181.785 137.361C181.291 137.361 180.865 137.264 180.51 137.071C180.162 136.868 179.894 136.568 179.708 136.171C179.522 135.767 179.428 135.268 179.428 134.677V131.095H180.886V134.532C180.886 135.058 180.995 135.459 181.213 135.734C181.441 136.001 181.781 136.135 182.234 136.135C182.525 136.135 182.784 136.066 183.011 135.929C183.246 135.791 183.428 135.593 183.557 135.334C183.695 135.067 183.764 134.743 183.764 134.362V131.095H185.221V137.216H183.934L183.824 136.196C183.639 136.552 183.368 136.835 183.011 137.046C182.663 137.257 182.254 137.361 181.785 137.361ZM186.843 137.216V128.472H188.3V137.216H186.843ZM192.793 137.361C192.185 137.361 191.651 137.232 191.19 136.973C190.728 136.706 190.368 136.333 190.109 135.856C189.85 135.378 189.72 134.828 189.72 134.204C189.72 133.556 189.846 132.99 190.096 132.503C190.355 132.018 190.716 131.637 191.178 131.362C191.647 131.087 192.189 130.949 192.805 130.949C193.404 130.949 193.926 131.083 194.372 131.35C194.817 131.618 195.161 131.977 195.404 132.431C195.646 132.876 195.768 133.378 195.768 133.937C195.768 134.018 195.768 134.107 195.768 134.204C195.768 134.302 195.76 134.402 195.744 134.507H190.764V133.573H194.299C194.283 133.127 194.133 132.779 193.849 132.528C193.566 132.269 193.213 132.14 192.793 132.14C192.493 132.14 192.218 132.209 191.967 132.346C191.715 132.484 191.518 132.69 191.371 132.965C191.226 133.233 191.153 133.573 191.153 133.985V134.337C191.153 134.718 191.222 135.046 191.36 135.322C191.505 135.597 191.7 135.807 191.943 135.953C192.194 136.091 192.473 136.159 192.78 136.159C193.12 136.159 193.4 136.086 193.619 135.941C193.845 135.795 194.011 135.601 194.117 135.357H195.598C195.485 135.738 195.298 136.082 195.039 136.391C194.78 136.69 194.461 136.928 194.08 137.106C193.7 137.276 193.271 137.361 192.793 137.361ZM203.904 137.361C203.062 137.361 202.333 137.179 201.718 136.816C201.111 136.443 200.642 135.929 200.31 135.272C199.985 134.609 199.823 133.844 199.823 132.978C199.823 132.103 199.985 131.338 200.31 130.682C200.642 130.018 201.111 129.5 201.718 129.127C202.333 128.756 203.062 128.569 203.904 128.569C204.917 128.569 205.742 128.82 206.382 129.322C207.021 129.815 207.427 130.516 207.596 131.423H205.993C205.879 130.945 205.649 130.569 205.301 130.294C204.953 130.018 204.484 129.881 203.892 129.881C203.358 129.881 202.896 130.006 202.507 130.257C202.127 130.5 201.831 130.856 201.621 131.326C201.419 131.788 201.317 132.338 201.317 132.978C201.317 133.617 201.419 134.167 201.621 134.629C201.831 135.083 202.127 135.435 202.507 135.686C202.896 135.929 203.358 136.05 203.892 136.05C204.484 136.05 204.953 135.925 205.301 135.674C205.649 135.415 205.879 135.058 205.993 134.605H207.596C207.435 135.463 207.029 136.139 206.382 136.633C205.742 137.119 204.917 137.361 203.904 137.361ZM211.014 137.361C210.512 137.361 210.095 137.276 209.763 137.106C209.431 136.936 209.184 136.71 209.022 136.426C208.86 136.143 208.779 135.836 208.779 135.504C208.779 135.115 208.876 134.779 209.071 134.495C209.273 134.213 209.569 133.993 209.957 133.84C210.346 133.678 210.823 133.597 211.39 133.597H212.933C212.933 133.273 212.889 133.006 212.799 132.795C212.71 132.576 212.572 132.414 212.386 132.31C212.2 132.204 211.961 132.151 211.67 132.151C211.338 132.151 211.055 132.228 210.82 132.383C210.585 132.528 210.439 132.754 210.383 133.063H208.949C208.998 132.625 209.144 132.253 209.386 131.945C209.629 131.629 209.95 131.386 210.346 131.216C210.75 131.038 211.192 130.949 211.67 130.949C212.244 130.949 212.734 131.05 213.139 131.253C213.544 131.447 213.852 131.73 214.062 132.103C214.281 132.468 214.39 132.909 214.39 133.427V137.216H213.152L213.005 136.232C212.924 136.394 212.819 136.544 212.69 136.681C212.568 136.82 212.427 136.94 212.265 137.046C212.103 137.143 211.917 137.22 211.706 137.276C211.504 137.334 211.273 137.361 211.014 137.361ZM211.342 136.208C211.577 136.208 211.783 136.167 211.961 136.086C212.147 135.997 212.305 135.876 212.435 135.722C212.572 135.56 212.678 135.382 212.75 135.187C212.823 134.994 212.872 134.787 212.897 134.569V134.544H211.548C211.264 134.544 211.03 134.58 210.844 134.654C210.657 134.727 210.524 134.828 210.443 134.957C210.362 135.079 210.321 135.224 210.321 135.394C210.321 135.564 210.362 135.71 210.443 135.831C210.524 135.953 210.642 136.046 210.795 136.111C210.949 136.176 211.131 136.208 211.342 136.208ZM215.947 137.216V128.472H217.404V137.216H215.947ZM219.03 137.216V128.472H220.489V137.216H219.03ZM224.556 137.361C224.013 137.361 223.539 137.276 223.135 137.106C222.738 136.928 222.422 136.686 222.187 136.378C221.96 136.062 221.827 135.701 221.786 135.297H223.244C223.284 135.467 223.357 135.625 223.462 135.771C223.568 135.908 223.709 136.018 223.887 136.099C224.074 136.18 224.293 136.22 224.544 136.22C224.786 136.22 224.985 136.188 225.139 136.123C225.292 136.05 225.406 135.957 225.479 135.844C225.551 135.73 225.588 135.609 225.588 135.479C225.588 135.285 225.535 135.135 225.429 135.03C225.325 134.924 225.17 134.843 224.969 134.787C224.774 134.722 224.54 134.661 224.264 134.605C223.972 134.548 223.69 134.48 223.414 134.398C223.147 134.31 222.904 134.2 222.685 134.07C222.475 133.941 222.305 133.775 222.175 133.573C222.053 133.37 221.993 133.123 221.993 132.832C221.993 132.476 222.086 132.155 222.272 131.873C222.467 131.589 222.741 131.366 223.098 131.204C223.462 131.034 223.895 130.949 224.397 130.949C225.11 130.949 225.677 131.115 226.098 131.447C226.527 131.771 226.778 132.228 226.851 132.82H225.466C225.426 132.593 225.313 132.418 225.126 132.298C224.94 132.168 224.693 132.103 224.386 132.103C224.069 132.103 223.827 132.164 223.657 132.285C223.495 132.399 223.414 132.553 223.414 132.747C223.414 132.876 223.462 132.99 223.56 133.087C223.665 133.183 223.815 133.269 224.009 133.342C224.204 133.407 224.442 133.471 224.726 133.536C225.178 133.625 225.58 133.73 225.928 133.852C226.276 133.973 226.552 134.151 226.753 134.387C226.956 134.621 227.058 134.953 227.058 135.382C227.066 135.771 226.964 136.115 226.753 136.414C226.552 136.714 226.264 136.949 225.891 137.119C225.518 137.28 225.074 137.361 224.556 137.361Z" fill="#333333"/>
<g filter="url(#filter1_d_2_1710)">
<g filter="url(#filter2_d_2_1710)">
<path d="M91.1417 132.964C91.1417 122.306 99.7828 113.664 110.442 113.664C121.102 113.664 129.742 122.306 129.742 132.964C129.742 143.624 121.102 152.265 110.442 152.265C99.7828 152.265 91.1417 143.624 91.1417 132.964Z" fill="#333333"/>
</g>
<path d="M116.445 141.411C115.69 141.466 114.608 141.27 112.954 140.497C110.943 139.554 109.376 138.661 107.315 136.883C105.327 135.166 104.338 134.033 102.91 131.827C101.296 129.337 101.44 127.96 101.67 127.359C101.943 126.641 102.39 126.192 102.978 125.735C103.312 125.48 103.668 125.256 104.044 125.066C104.081 125.047 104.116 125.028 104.148 125.011C104.333 124.912 104.614 124.76 104.992 124.873C105.243 124.947 105.476 125.12 105.844 125.433C106.597 126.076 107.67 127.551 108.08 128.284C108.355 128.777 108.537 129.104 108.564 129.483C108.597 129.925 108.398 130.284 108.155 130.672C108.11 130.745 108.064 130.815 108.02 130.883C107.753 131.291 107.697 131.408 107.753 131.605C107.869 131.999 108.599 133.148 109.734 134.127C110.868 135.105 112.073 135.624 112.481 135.681C112.693 135.71 112.803 135.634 113.18 135.3C113.234 135.253 113.289 135.203 113.348 135.154C113.738 134.817 114.048 134.575 114.481 134.545H114.483C114.86 134.517 115.194 134.657 115.748 134.888C116.47 135.189 118.13 136.022 118.879 136.675C119.243 136.993 119.449 137.198 119.558 137.435C119.724 137.795 119.615 138.093 119.543 138.292C119.531 138.326 119.517 138.362 119.504 138.403C119.369 138.8 119.198 139.185 118.992 139.552C118.625 140.197 118.243 140.704 117.571 141.078C117.226 141.273 116.841 141.387 116.445 141.411Z" fill="white"/>
</g>
<path opacity="0.3" d="M231.939 57.3442L234.494 58.8995C248.476 67.4126 254.913 84.3179 250.135 99.9749L248.685 104.723M248.685 104.723L246.697 101.106M248.685 104.723L253.443 102.83M174.591 52.7362H144.385M174.591 52.7362C175.444 50.1762 178.175 44.6466 182.271 43.0082M174.591 52.7362C175.786 56.1495 179.097 63.181 182.783 64.0002" stroke="#333333" stroke-width="1.3" stroke-linecap="round" stroke-dasharray="4 4"/>
<g filter="url(#filter3_d_2_1710)">
<path d="M273.956 25.6H196.578C190.09 25.6 184.831 30.8595 184.831 37.3473C184.831 43.8352 190.09 49.0947 196.578 49.0947H273.956C280.444 49.0947 285.703 43.8352 285.703 37.3473C285.703 30.8595 280.444 25.6 273.956 25.6Z" fill="white"/>
<path d="M197.212 46.3959C202.298 46.3959 206.42 42.2736 206.42 37.1885C206.42 32.1034 202.298 27.9811 197.212 27.9811C192.127 27.9811 188.005 32.1034 188.005 37.1885C188.005 42.2736 192.127 46.3959 197.212 46.3959Z" fill="#ECECEC"/>
<path fill-rule="evenodd" clip-rule="evenodd" d="M194.196 35.9187C194.196 35.1608 194.497 34.4341 195.033 33.8981C195.569 33.3622 196.296 33.0612 197.054 33.0612C197.811 33.0612 198.539 33.3622 199.074 33.8981C199.61 34.4341 199.911 35.1608 199.911 35.9187C199.911 36.6765 199.61 37.4034 199.074 37.9392C198.539 38.4751 197.811 38.7761 197.054 38.7761C196.296 38.7761 195.569 38.4751 195.033 37.9392C194.497 37.4034 194.196 36.6765 194.196 35.9187ZM191.815 44.8753C191.836 43.5002 192.397 42.1886 193.377 41.2238C194.357 40.2589 195.678 39.7181 197.054 39.7181C198.429 39.7181 199.749 40.2589 200.729 41.2238C201.709 42.1886 202.27 43.5002 202.292 44.8753C202.294 44.9679 202.268 45.0589 202.219 45.1373C202.17 45.2157 202.098 45.278 202.014 45.3166C200.458 46.0298 198.766 46.7155 197.054 46.7136C195.284 46.7136 193.604 46.01 192.092 45.3166C192.008 45.278 191.938 45.2157 191.888 45.1373C191.839 45.0589 191.814 44.9679 191.815 44.8753Z" fill="white"/>
<path opacity="0.5" d="M209.595 34.5203C209.595 33.6421 210.307 32.9301 211.186 32.9301H288.649C289.527 32.9301 290.239 33.6421 290.239 34.5203C290.239 35.3986 289.527 36.1105 288.649 36.1105H211.186C210.307 36.1105 209.595 35.3986 209.595 34.5203Z" fill="#D9D9D9"/>
<path opacity="0.5" d="M209.595 40.1742C209.595 39.2961 210.307 38.5841 211.186 38.5841H260.502C261.381 38.5841 262.092 39.2961 262.092 40.1742C262.092 41.0525 261.381 41.7645 260.502 41.7645H211.186C210.307 41.7645 209.595 41.0525 209.595 40.1742Z" fill="#D9D9D9"/>
<path d="M278.015 55.296H197.06C190.557 55.296 185.285 60.5682 185.285 67.072C185.285 73.5757 190.557 78.8479 197.06 78.8479H278.015C284.519 78.8479 289.791 73.5757 289.791 67.072C289.791 60.5682 284.519 55.296 278.015 55.296Z" fill="white"/>
<path d="M197.667 76.1205C202.752 76.1205 206.875 71.9982 206.875 66.9131C206.875 61.828 202.752 57.7057 197.667 57.7057C192.582 57.7057 188.46 61.828 188.46 66.9131C188.46 71.9982 192.582 76.1205 197.667 76.1205Z" fill="#BFBFBF"/>
<path fill-rule="evenodd" clip-rule="evenodd" d="M194.65 65.6432C194.65 64.8854 194.952 64.1586 195.487 63.6227C196.023 63.0868 196.75 62.7858 197.507 62.7858C198.265 62.7858 198.992 63.0868 199.528 63.6227C200.064 64.1586 200.366 64.8854 200.366 65.6432C200.366 66.4011 200.064 67.1279 199.528 67.6638C198.992 68.1997 198.265 68.5007 197.507 68.5007C196.75 68.5007 196.023 68.1997 195.487 67.6638C194.952 67.1279 194.65 66.4011 194.65 65.6432ZM192.27 74.5998C192.291 73.2247 192.852 71.9132 193.832 70.9483C194.812 69.9835 196.132 69.4427 197.507 69.4427C198.883 69.4427 200.203 69.9835 201.183 70.9483C202.163 71.9132 202.724 73.2247 202.745 74.5998C202.747 74.6924 202.722 74.7835 202.673 74.8618C202.624 74.9402 202.553 75.0025 202.468 75.0411C200.911 75.7543 199.22 76.4401 197.507 76.4382C195.738 76.4382 194.058 75.7346 192.547 75.0411C192.463 75.0025 192.391 74.9402 192.342 74.8618C192.293 74.7835 192.268 74.6924 192.27 74.5998Z" fill="white"/>
<path opacity="0.5" d="M210.049 64.245C210.049 63.3667 210.761 62.6547 211.639 62.6547H275.854C276.732 62.6547 277.444 63.3667 277.444 64.245C277.444 65.1232 276.732 65.8352 275.854 65.8352H211.639C210.761 65.8352 210.049 65.1232 210.049 64.245Z" fill="#D9D9D9"/>
<path opacity="0.5" d="M210.049 69.8991C210.049 69.0208 210.761 68.3089 211.639 68.3089H252.332C253.21 68.3089 253.922 69.0208 253.922 69.8991C253.922 70.7772 253.21 71.4892 252.332 71.4892H211.639C210.761 71.4892 210.049 70.7772 210.049 69.8991Z" fill="#D9D9D9"/>
<path d="M278.015 25.6H197.06C190.557 25.6 185.285 30.8723 185.285 37.376C185.285 43.8797 190.557 49.152 197.06 49.152H278.015C284.519 49.152 289.791 43.8797 289.791 37.376C289.791 30.8723 284.519 25.6 278.015 25.6Z" fill="white"/>
<path d="M197.667 46.4248C202.752 46.4248 206.875 42.3025 206.875 37.2174C206.875 32.1323 202.752 28.01 197.667 28.01C192.582 28.01 188.46 32.1323 188.46 37.2174C188.46 42.3025 192.582 46.4248 197.667 46.4248Z" fill="#BFBFBF"/>
<path fill-rule="evenodd" clip-rule="evenodd" d="M194.65 35.9473C194.65 35.1894 194.952 34.4626 195.487 33.9267C196.023 33.3909 196.75 33.0898 197.507 33.0898C198.265 33.0898 198.992 33.3909 199.528 33.9267C200.064 34.4626 200.366 35.1894 200.366 35.9473C200.366 36.7051 200.064 37.4319 199.528 37.9678C198.992 38.5037 198.265 38.8047 197.507 38.8047C196.75 38.8047 196.023 38.5037 195.487 37.9678C194.952 37.4319 194.65 36.7051 194.65 35.9473ZM192.27 44.9038C192.291 43.5288 192.852 42.2172 193.832 41.2523C194.812 40.2875 196.132 39.7467 197.507 39.7467C198.883 39.7467 200.203 40.2875 201.183 41.2523C202.163 42.2172 202.724 43.5288 202.745 44.9038C202.747 44.9965 202.722 45.0875 202.673 45.1658C202.624 45.2443 202.553 45.3065 202.468 45.3451C200.911 46.0583 199.22 46.7441 197.507 46.7422C195.738 46.7422 194.058 46.0386 192.547 45.3451C192.463 45.3065 192.391 45.2443 192.342 45.1658C192.293 45.0875 192.268 44.9965 192.27 44.9038Z" fill="white"/>
<path opacity="0.5" d="M210.049 34.549C210.049 33.6707 210.761 32.9588 211.639 32.9588H275.854C276.732 32.9588 277.444 33.6707 277.444 34.549C277.444 35.4272 276.732 36.1392 275.854 36.1392H211.639C210.761 36.1392 210.049 35.4272 210.049 34.549Z" fill="#D9D9D9"/>
<path opacity="0.5" d="M210.049 40.2028C210.049 39.3246 210.761 38.6127 211.639 38.6127H252.332C253.21 38.6127 253.922 39.3246 253.922 40.2028C253.922 41.081 253.21 41.793 252.332 41.793H211.639C210.761 41.793 210.049 41.081 210.049 40.2028Z" fill="#D9D9D9"/>
</g>
<path d="M29.6979 46.0799C29.6979 40.4245 34.2825 35.8399 39.9379 35.8399H128.001C133.657 35.8399 138.241 40.4245 138.241 46.0799V57.3439C138.241 62.9992 133.657 67.5839 128.001 67.5839H39.9379C34.2825 67.5839 29.6979 62.9992 29.6979 57.3439V46.0799Z" fill="#333333"/>
<path fill-rule="evenodd" clip-rule="evenodd" d="M43.0811 47.1086L47.0865 47.1049C51.0374 47.1011 50.0717 47.1049 50.34 47.1805C50.4878 47.2259 50.7327 47.3203 50.8844 47.3959C51.0672 47.4866 51.2577 47.6302 51.4716 47.8381C51.7205 48.0763 51.8216 48.2085 51.9499 48.4617C52.0394 48.6394 52.1366 48.9002 52.1677 49.0476C52.2144 49.263 52.226 49.7431 52.226 51.6556C52.226 53.568 52.2144 54.048 52.1677 54.2635C52.1366 54.4072 52.0394 54.6717 51.9499 54.8493C51.8216 55.1026 51.7166 55.2349 51.4716 55.4767C51.2227 55.7149 51.0866 55.8169 50.8261 55.9416C50.6433 56.0286 50.3711 56.1231 50.2234 56.1533C49.9978 56.1987 50.3996 56.21 44.0338 56.21L42.8672 56.7769C42.0312 57.1852 41.6617 57.3439 41.5645 57.3439C41.4906 57.3439 41.3584 57.3099 41.2729 57.2683C41.1691 57.2179 41.0913 57.1423 41.0395 57.0415C40.9618 56.8942 40.9618 56.8148 40.9618 53.0994C40.9618 49.9207 40.9733 49.2706 41.02 49.0476C41.0512 48.9002 41.1483 48.6394 41.2378 48.4617C41.3662 48.2085 41.4672 48.0763 41.7162 47.8381C41.9144 47.6454 42.1244 47.4866 42.2839 47.4034C42.4239 47.3316 42.6571 47.2371 42.8089 47.1918L43.0811 47.1086ZM43.6255 50.0681C43.54 50.1172 43.4388 50.2155 43.4039 50.2835C43.3688 50.3516 43.3377 50.465 43.3338 50.533C43.3338 50.6011 43.3688 50.7182 43.4078 50.7976C43.4505 50.8769 43.5438 50.9752 43.6294 51.0206L43.781 51.1075C50.3335 51.1075 49.3911 51.1075 49.5428 51.0319C49.6465 50.9815 49.7243 50.9059 49.7762 50.8051C49.8189 50.722 49.8539 50.6048 49.8539 50.5405C49.8539 50.4801 49.8189 50.3591 49.7762 50.2759C49.7243 50.1752 49.6465 50.0996 49.5428 50.0492C49.3911 49.9773 50.3336 49.9737 47.0943 49.9737H43.781L43.6255 50.0681ZM43.6255 52.3359C43.54 52.3888 43.4388 52.4871 43.4039 52.5551C43.3688 52.6232 43.3377 52.7327 43.3338 52.8008C43.3338 52.8688 43.3688 52.9897 43.4078 53.0653C43.4505 53.1485 43.5438 53.243 43.6294 53.2921L43.781 53.3753C50.3335 53.3791 49.3911 53.3753 49.5428 53.3035C49.6465 53.2531 49.7243 53.1774 49.7762 53.0767C49.8189 52.9935 49.8539 52.8726 49.8539 52.8121C49.8539 52.7479 49.8189 52.6307 49.7762 52.5476C49.7243 52.4467 49.6465 52.3711 49.5428 52.3208C49.3911 52.2452 50.3336 52.2452 47.0943 52.2452H43.781L43.6255 52.3359Z" fill="white"/>
<path d="M58.9969 55.2959L61.689 47.4917H63.5326L66.2248 55.2959H64.6745L64.1193 53.6198H61.1024L60.5367 55.2959H58.9969ZM61.511 52.3628H63.7108L62.4118 48.4764H62.8099L61.511 52.3628ZM68.9081 55.4217C68.4682 55.4217 68.0841 55.3239 67.7558 55.1283C67.4346 54.9328 67.1867 54.6604 67.0121 54.3112C66.8445 53.9621 66.7607 53.5535 66.7607 53.0856V49.5973H68.1329V52.9704C68.1329 53.2078 68.1783 53.4173 68.2691 53.5989C68.3669 53.7734 68.5031 53.9131 68.6777 54.0179C68.8593 54.1157 69.0618 54.1646 69.2852 54.1646C69.5087 54.1646 69.7078 54.1157 69.8823 54.0179C70.0569 53.9131 70.1931 53.77 70.2909 53.5884C70.3887 53.4068 70.4375 53.1904 70.4375 52.939V49.5973H71.8098V55.2959H70.5109V54.175L70.6261 54.3741C70.4935 54.7233 70.2734 54.9851 69.9661 55.1597C69.6659 55.3343 69.3132 55.4217 68.9081 55.4217ZM75.6834 55.3588C75.0408 55.3588 74.5415 55.1842 74.1854 54.835C73.8362 54.4789 73.6616 53.9795 73.6616 53.337V50.8229H72.6769V49.5973H72.7817C73.061 49.5973 73.2775 49.5239 73.4311 49.3773C73.5848 49.2307 73.6616 49.0177 73.6616 48.7383V48.2983H75.0339V49.5973H76.3433V50.8229H75.0339V53.2637C75.0339 53.4522 75.0653 53.6129 75.1282 53.7456C75.198 53.8782 75.3028 53.9795 75.4424 54.0493C75.5891 54.1191 75.7741 54.1541 75.9976 54.1541C76.0465 54.1541 76.1024 54.1506 76.1652 54.1436C76.235 54.1366 76.3014 54.1297 76.3642 54.1226V55.2959C76.2664 55.3098 76.1547 55.3239 76.0291 55.3378C75.9033 55.3518 75.7881 55.3588 75.6834 55.3588ZM80.148 55.4217C79.5893 55.4217 79.0794 55.2924 78.6185 55.0341C78.1646 54.7756 77.8015 54.423 77.5291 53.976C77.2638 53.5291 77.1311 53.0193 77.1311 52.4466C77.1311 51.8739 77.2638 51.3642 77.5291 50.9172C77.8015 50.4702 78.1646 50.1176 78.6185 49.8592C79.0725 49.6007 79.5823 49.4716 80.148 49.4716C80.7067 49.4716 81.2129 49.6007 81.6669 49.8592C82.1208 50.1176 82.4805 50.4702 82.7459 50.9172C83.0182 51.3571 83.1544 51.867 83.1544 52.4466C83.1544 53.0193 83.0182 53.5291 82.7459 53.976C82.4735 54.423 82.1104 54.7756 81.6564 55.0341C81.2025 55.2924 80.6997 55.4217 80.148 55.4217ZM80.148 54.1646C80.4553 54.1646 80.7241 54.0913 80.9546 53.9445C81.1921 53.7979 81.3771 53.5954 81.5098 53.337C81.6495 53.0716 81.7193 52.7748 81.7193 52.4466C81.7193 52.1114 81.6495 51.8181 81.5098 51.5666C81.3771 51.3083 81.1921 51.1057 80.9546 50.9591C80.7241 50.8055 80.4553 50.7286 80.148 50.7286C79.8337 50.7286 79.5579 50.8055 79.3204 50.9591C79.083 51.1057 78.8944 51.3083 78.7547 51.5666C78.622 51.8181 78.5558 52.1114 78.5558 52.4466C78.5558 52.7748 78.622 53.0716 78.7547 53.337C78.8944 53.5954 79.083 53.7979 79.3204 53.9445C79.5579 54.0913 79.8337 54.1646 80.148 54.1646ZM84.4779 53.0542V51.8495H88.93V53.0542H84.4779ZM92.2047 55.4217C91.8066 55.4217 91.461 55.3553 91.1676 55.2226C90.8743 55.0899 90.6473 54.9014 90.4868 54.6569C90.3261 54.4056 90.2458 54.1157 90.2458 53.7875C90.2458 53.4732 90.3156 53.1939 90.4553 52.9494C90.595 52.698 90.8115 52.4885 91.1047 52.3209C91.3981 52.1533 91.7682 52.0346 92.2152 51.9647L94.0797 51.6609V52.7085L92.4771 52.9809C92.2047 53.0297 92.0022 53.1171 91.8695 53.2427C91.7367 53.3684 91.6705 53.5326 91.6705 53.735C91.6705 53.9306 91.7438 54.0877 91.8904 54.2065C92.044 54.3182 92.2327 54.3741 92.4561 54.3741C92.7424 54.3741 92.9938 54.3147 93.2104 54.196C93.4338 54.0703 93.6049 53.8992 93.7236 53.6827C93.8493 53.4662 93.9122 53.2288 93.9122 52.9704V51.5038C93.9122 51.2594 93.8144 51.0569 93.6188 50.8962C93.4303 50.7286 93.1789 50.6448 92.8647 50.6448C92.5713 50.6448 92.3095 50.7251 92.079 50.8858C91.8555 51.0394 91.6914 51.2454 91.5866 51.5038L90.4658 50.9591C90.5775 50.6587 90.7521 50.4004 90.9895 50.1839C91.234 49.9605 91.5203 49.7859 91.8486 49.6601C92.1768 49.5344 92.5329 49.4716 92.917 49.4716C93.385 49.4716 93.7969 49.5589 94.1531 49.7335C94.5093 49.9011 94.7852 50.1385 94.9807 50.4457C95.1832 50.7461 95.2845 51.0987 95.2845 51.5038V55.2959H93.9855V54.3217L94.2788 54.3008C94.1322 54.5452 93.9576 54.7512 93.755 54.9188C93.5525 55.0794 93.3221 55.2051 93.0636 55.2959C92.8053 55.3797 92.519 55.4217 92.2047 55.4217ZM96.5528 55.2959V49.5973H97.8413V50.7181L97.7365 50.5191C97.8692 50.1769 98.0857 49.9185 98.386 49.7439C98.6932 49.5623 99.0494 49.4716 99.4545 49.4716C99.8735 49.4716 100.244 49.5623 100.565 49.7439C100.893 49.9256 101.148 50.1804 101.33 50.5086C101.511 50.8298 101.602 51.2035 101.602 51.6295V55.2959H100.23V51.9543C100.23 51.7028 100.181 51.4863 100.083 51.3048C99.9852 51.1232 99.849 50.9835 99.6744 50.8858C99.5068 50.781 99.3079 50.7286 99.0774 50.7286C98.8539 50.7286 98.6549 50.781 98.4803 50.8858C98.3057 50.9835 98.1695 51.1232 98.0717 51.3048C97.974 51.4863 97.9251 51.7028 97.9251 51.9543V55.2959H96.5528ZM104.931 55.4217C104.323 55.4217 103.792 55.2785 103.338 54.9921C102.892 54.6988 102.585 54.3043 102.417 53.8084L103.443 53.316C103.59 53.6373 103.792 53.8887 104.051 54.0703C104.316 54.2519 104.609 54.3427 104.931 54.3427C105.183 54.3427 105.381 54.2868 105.528 54.175C105.674 54.0633 105.748 53.9167 105.748 53.735C105.748 53.6233 105.716 53.5326 105.654 53.4628C105.597 53.3859 105.517 53.3231 105.413 53.2741C105.315 53.2183 105.206 53.1729 105.087 53.1379L104.156 52.8761C103.673 52.7364 103.307 52.5234 103.056 52.2371C102.811 51.9507 102.689 51.6121 102.689 51.221C102.689 50.8718 102.776 50.568 102.951 50.3097C103.133 50.0442 103.38 49.8382 103.695 49.6916C104.016 49.5449 104.383 49.4716 104.795 49.4716C105.332 49.4716 105.807 49.6007 106.219 49.8592C106.632 50.1176 106.924 50.4807 107.1 50.9486L106.052 51.441C105.954 51.1825 105.79 50.9766 105.559 50.8229C105.329 50.6693 105.07 50.5925 104.784 50.5925C104.554 50.5925 104.372 50.6448 104.24 50.7496C104.106 50.8543 104.04 50.9905 104.04 51.1581C104.04 51.2629 104.069 51.3536 104.124 51.4305C104.18 51.5073 104.257 51.5702 104.354 51.619C104.46 51.6679 104.578 51.7134 104.711 51.7552L105.622 52.0276C106.09 52.1673 106.449 52.3768 106.701 52.6562C106.959 52.9355 107.088 53.2776 107.088 53.6827C107.088 54.0249 106.998 54.3287 106.816 54.5941C106.635 54.8524 106.384 55.055 106.062 55.2016C105.741 55.3482 105.364 55.4217 104.931 55.4217ZM109.476 55.2959L107.517 49.5973H108.963L110.398 53.9237L109.895 53.9131L111.425 49.5973H112.639L114.159 53.9131L113.656 53.9237L115.091 49.5973H116.537L114.578 55.2959H113.352L111.802 50.781H112.263L110.692 55.2959H109.476ZM119.889 55.4217C119.302 55.4217 118.789 55.289 118.349 55.0235C117.909 54.7582 117.567 54.3985 117.323 53.9445C117.078 53.4906 116.957 52.9878 116.957 52.4361C116.957 51.8635 117.078 51.3571 117.323 50.9172C117.574 50.4702 117.913 50.1176 118.339 49.8592C118.772 49.6007 119.253 49.4716 119.785 49.4716C120.231 49.4716 120.622 49.5449 120.957 49.6916C121.3 49.8382 121.59 50.0408 121.827 50.2991C122.064 50.5576 122.246 50.8543 122.371 51.1896C122.497 51.5178 122.561 51.8739 122.561 52.258C122.561 52.3558 122.554 52.4571 122.539 52.5618C122.532 52.6666 122.515 52.7573 122.487 52.8342H118.087V51.7867H121.712L121.063 52.279C121.125 51.9578 121.108 51.6714 121.011 51.42C120.919 51.1686 120.766 50.9695 120.549 50.8229C120.34 50.6763 120.085 50.6029 119.785 50.6029C119.498 50.6029 119.243 50.6763 119.02 50.8229C118.797 50.9626 118.625 51.1721 118.507 51.4514C118.394 51.7238 118.353 52.0555 118.381 52.4466C118.353 52.7958 118.398 53.1065 118.517 53.3789C118.643 53.6443 118.824 53.8503 119.062 53.997C119.306 54.1436 119.585 54.2169 119.899 54.2169C120.214 54.2169 120.479 54.1506 120.696 54.0179C120.919 53.8853 121.093 53.7072 121.219 53.4836L122.329 54.0284C122.218 54.3008 122.044 54.5416 121.806 54.7512C121.569 54.9607 121.286 55.1248 120.957 55.2436C120.637 55.3623 120.28 55.4217 119.889 55.4217ZM123.6 55.2959V49.5973H124.889V50.8648L124.784 50.6763C124.917 50.2503 125.123 49.9534 125.402 49.7859C125.689 49.6183 126.031 49.5344 126.429 49.5344H126.764V50.7496H126.272C125.881 50.7496 125.566 50.8718 125.329 51.1163C125.091 51.3536 124.973 51.6889 124.973 52.1218V55.2959H123.6Z" fill="white"/>
</g>
<defs>
<filter id="filter0_d_2_1710" x="43.1797" y="94.9662" width="252.591" height="132.784" filterUnits="userSpaceOnUse" color-interpolation-filters="sRGB">
<feFlood flood-opacity="0" result="BackgroundImageFix"/>
<feColorMatrix in="SourceAlpha" type="matrix" values="0 0 0 0 0 0 0 0 0 0 0 0 0 0 0 0 0 0 127 0" result="hardAlpha"/>
<feOffset dy="28.1976"/>
<feGaussianBlur stdDeviation="21.389"/>
<feComposite in2="hardAlpha" operator="out"/>
<feColorMatrix type="matrix" values="0 0 0 0 0 0 0 0 0 0 0 0 0 0 0 0 0 0 0.1 0"/>
<feBlend mode="normal" in2="BackgroundImageFix" result="effect1_dropShadow_2_1710"/>
<feBlend mode="normal" in="SourceGraphic" in2="effect1_dropShadow_2_1710" result="shape"/>
</filter>
<filter id="filter1_d_2_1710" x="71.5806" y="96.4884" width="77.7228" height="77.7228" filterUnits="userSpaceOnUse" color-interpolation-filters="sRGB">
<feFlood flood-opacity="0" result="BackgroundImageFix"/>
<feColorMatrix in="SourceAlpha" type="matrix" values="0 0 0 0 0 0 0 0 0 0 0 0 0 0 0 0 0 0 127 0" result="hardAlpha"/>
<feOffset dy="2.38205"/>
<feGaussianBlur stdDeviation="9.7664"/>
<feComposite in2="hardAlpha" operator="out"/>
<feColorMatrix type="matrix" values="0 0 0 0 1 0 0 0 0 0.380392 0 0 0 0 0.278431 0 0 0 0.05 0"/>
<feBlend mode="normal" in2="BackgroundImageFix" result="effect1_dropShadow_2_1710"/>
<feBlend mode="normal" in="SourceGraphic" in2="effect1_dropShadow_2_1710" result="shape"/>
</filter>
<filter id="filter2_d_2_1710" x="65.0522" y="104.772" width="90.7797" height="90.7797" filterUnits="userSpaceOnUse" color-interpolation-filters="sRGB">
<feFlood flood-opacity="0" result="BackgroundImageFix"/>
<feColorMatrix in="SourceAlpha" type="matrix" values="0 0 0 0 0 0 0 0 0 0 0 0 0 0 0 0 0 0 127 0" result="hardAlpha"/>
<feOffset dy="17.1724"/>
<feGaussianBlur stdDeviation="13.0259"/>
<feComposite in2="hardAlpha" operator="out"/>
<feColorMatrix type="matrix" values="0 0 0 0 0 0 0 0 0 0 0 0 0 0 0 0 0 0 0.1 0"/>
<feBlend mode="normal" in2="BackgroundImageFix" result="effect1_dropShadow_2_1710"/>
<feBlend mode="normal" in="SourceGraphic" in2="effect1_dropShadow_2_1710" result="shape"/>
</filter>
<filter id="filter3_d_2_1710" x="142.77" y="11.5797" width="189.529" height="137.37" filterUnits="userSpaceOnUse" color-interpolation-filters="sRGB">
<feFlood flood-opacity="0" result="BackgroundImageFix"/>
<feColorMatrix in="SourceAlpha" type="matrix" values="0 0 0 0 0 0 0 0 0 0 0 0 0 0 0 0 0 0 127 0" result="hardAlpha"/>
<feOffset dy="28"/>
<feGaussianBlur stdDeviation="21"/>
<feComposite in2="hardAlpha" operator="out"/>
<feColorMatrix type="matrix" values="0 0 0 0 0 0 0 0 0 0 0 0 0 0 0 0 0 0 0.1 0"/>
<feBlend mode="normal" in2="BackgroundImageFix" result="effect1_dropShadow_2_1710"/>
<feBlend mode="normal" in="SourceGraphic" in2="effect1_dropShadow_2_1710" result="shape"/>
</filter>
<linearGradient id="paint0_linear_2_1710" x1="94.8741" y1="112.839" x2="114.582" y2="56.1363" gradientUnits="userSpaceOnUse">
<stop stop-color="#FF7860"/>
<stop offset="0.273855" stop-color="#E9A183"/>
<stop offset="0.532302" stop-color="#AE5EE1"/>
<stop offset="0.779838" stop-color="#AE5EE1"/>
<stop offset="1" stop-color="#F41D51"/>
</linearGradient>
<clipPath id="clip0_2_1710">
<rect width="333.34" height="255.63" fill="white" transform="scale(1.00145)"/>
</clipPath>
</defs>
</svg>
