<svg width="14" height="16" viewBox="0 0 14 16" fill="none" xmlns="http://www.w3.org/2000/svg">
<path d="M8.73934 11.1072V12.991C8.73934 13.3899 8.61898 13.5893 8.37827 13.5893C8.23635 13.5893 8.09747 13.5238 7.96164 13.3929V10.7053C8.09747 10.5744 8.23635 10.5089 8.37827 10.5089C8.61898 10.5089 8.73934 10.7083 8.73934 11.1072ZM11.8685 11.1161V11.5268H11.0352V11.1161C11.0352 10.7113 11.1741 10.5089 11.4519 10.5089C11.7296 10.5089 11.8685 10.7113 11.8685 11.1161ZM2.92545 9.16964H3.91603V8.33033H1.02761V9.16964H1.99967V14.25H2.92545V9.16964ZM5.59169 14.25H6.41562V9.83928H5.59169V13.2143C5.40653 13.4643 5.23064 13.5893 5.06399 13.5893C4.9529 13.5893 4.8881 13.5268 4.86958 13.4018C4.86341 13.384 4.86033 13.2797 4.86033 13.0893V9.83928H4.03639V13.3303C4.03639 13.6221 4.06107 13.8393 4.11044 13.9821C4.18451 14.2024 4.36349 14.3125 4.6474 14.3125C4.94364 14.3125 5.25841 14.1309 5.59169 13.7679V14.25ZM9.5633 12.9286V11.1696C9.5633 10.7351 9.53548 10.4405 9.47991 10.2857C9.37503 9.95234 9.15589 9.78572 8.82265 9.78572C8.51402 9.78572 8.22705 9.9464 7.96164 10.2678V8.33033H7.13773V14.25H7.96164V13.8214C8.23939 14.1488 8.52637 14.3125 8.82265 14.3125C9.15589 14.3125 9.37503 14.1488 9.47991 13.8214C9.53548 13.6607 9.5633 13.3631 9.5633 12.9286ZM12.6924 12.8393V12.7232H11.85C11.85 13.0268 11.8438 13.2083 11.8314 13.2678C11.7882 13.4822 11.6647 13.5893 11.4611 13.5893C11.1772 13.5893 11.0352 13.384 11.0352 12.9732V12.1965H12.6924V11.2768C12.6924 10.8065 12.6091 10.4613 12.4424 10.2411C12.2017 9.93749 11.8746 9.78572 11.4611 9.78572C11.0414 9.78572 10.7112 9.93749 10.4705 10.2411C10.2977 10.4613 10.2113 10.8065 10.2113 11.2768V12.8214C10.2113 13.2917 10.3008 13.6369 10.4798 13.8571C10.7205 14.1607 11.0537 14.3125 11.4796 14.3125C11.924 14.3125 12.2573 14.1548 12.4795 13.8393C12.5905 13.6786 12.6553 13.5178 12.6739 13.3571C12.6862 13.3036 12.6924 13.1309 12.6924 12.8393ZM7.06367 4.6875V2.8125C7.06367 2.40178 6.93098 2.19643 6.66559 2.19643C6.4002 2.19643 6.2675 2.40178 6.2675 2.8125V4.6875C6.2675 5.10417 6.4002 5.3125 6.66559 5.3125C6.93098 5.3125 7.06367 5.10417 7.06367 4.6875ZM13.72 11.3929C13.72 12.7857 13.6397 13.8274 13.4793 14.5178C13.3929 14.8691 13.2139 15.1637 12.9424 15.4018C12.6708 15.6399 12.356 15.7768 11.9981 15.8125C10.8624 15.9375 9.14972 16 6.86 16C4.57025 16 2.85756 15.9375 1.72194 15.8125C1.36397 15.7768 1.04767 15.6399 0.773023 15.4018C0.498376 15.1637 0.320936 14.8691 0.240701 14.5178C0.0802338 13.8512 0 12.8095 0 11.3929C0 9.99996 0.0802338 8.95836 0.240701 8.26785C0.327108 7.91669 0.506091 7.62206 0.77765 7.38393C1.04921 7.14583 1.36706 7.00595 1.7312 6.96428C2.86065 6.84524 4.57025 6.78572 6.86 6.78572C9.14972 6.78572 10.8624 6.84524 11.9981 6.96428C12.356 7.00595 12.6723 7.14583 12.947 7.38393C13.2217 7.62206 13.399 7.91669 13.4793 8.26785C13.6397 8.93452 13.72 9.97619 13.72 11.3929ZM4.48075 0H5.42505L4.30486 3.5625V5.98214H3.37908V3.5625C3.29268 3.12202 3.10443 2.49107 2.81436 1.66964C2.586 1.05655 2.38541 0.5 2.2126 0H3.19392L3.85123 2.34822L4.48075 0ZM7.90615 2.97321V4.53571C7.90615 5.01785 7.81971 5.36905 7.64692 5.58928C7.41238 5.89286 7.08527 6.04464 6.66559 6.04464C6.25207 6.04464 5.92805 5.89286 5.69353 5.58928C5.52071 5.3631 5.4343 5.0119 5.4343 4.53571V2.97321C5.4343 2.49702 5.52071 2.14881 5.69353 1.92857C5.92805 1.625 6.25207 1.47321 6.66559 1.47321C7.08527 1.47321 7.41238 1.625 7.64692 1.92857C7.81971 2.14881 7.90615 2.49702 7.90615 2.97321ZM11.0075 1.52678V5.98214H10.165V5.49107C9.83793 5.86012 9.52008 6.04464 9.21146 6.04464C8.9276 6.04464 8.74551 5.93452 8.66525 5.71429C8.61586 5.57143 8.59124 5.34822 8.59124 5.04464V1.52678H9.43364V4.80357C9.43364 5 9.43677 5.10417 9.44294 5.11607C9.46146 5.24703 9.52625 5.3125 9.63731 5.3125C9.80393 5.3125 9.97985 5.18452 10.165 4.92857V1.52678H11.0075Z" fill="#8B8B8B"/>
</svg>
