<svg width="36" height="33" viewBox="0 0 36 33" fill="none" xmlns="http://www.w3.org/2000/svg">
<g clip-path="url(#clip0_2_1932)">
<path d="M11.8951 19.0515C13.4709 19.0515 14.7483 17.774 14.7483 16.1981C14.7483 14.6222 13.4709 13.3447 11.8951 13.3447C10.3193 13.3447 9.04187 14.6222 9.04187 16.1981C9.04187 17.774 10.3193 19.0515 11.8951 19.0515Z" fill="#8082EF"/>
<path d="M19.7682 19.0515C21.3439 19.0515 22.6214 17.774 22.6214 16.1981C22.6214 14.6222 21.3439 13.3447 19.7682 13.3447C18.1924 13.3447 16.9149 14.6222 16.9149 16.1981C16.9149 17.774 18.1924 19.0515 19.7682 19.0515Z" fill="#8082EF"/>
<path d="M16.2029 0.905679C18.9273 0.745382 21.2529 0.9178 24.0064 1.97054C29.7218 4.15567 31.5721 7.46751 32.9386 9.74478C33.3869 10.4921 34.3787 12.9961 34.3805 13.0003C30.8386 14.4159 34.1647 13.057 31.1569 14.2857C30.4787 14.5528 30.4624 14.5694 30.4624 14.5694C30.5168 14.9155 30.5676 15.979 30.5676 16.4518L30.5674 16.5475C30.5586 17.9188 30.3634 19.2459 30.0058 20.5047C29.6155 21.9619 29.002 23.3566 28.1817 24.6376C26.7874 26.8148 24.8445 28.5866 22.5485 29.775C20.2524 30.9634 17.6839 31.5263 15.1014 31.4073C12.5188 31.2884 10.013 30.4916 7.83586 29.0972C5.65875 27.7027 3.88699 25.7598 2.69873 23.4635C2.37652 22.8409 2.10045 22.1982 1.87132 21.5407C1.30062 19.9822 0.984445 18.301 0.973344 16.5475L0.973022 16.4518C0.973022 8.3109 7.7164 1.45563 16.1041 0.91179L16.2029 0.905679ZM22.2507 6.56343C20.3922 5.85289 18.8467 5.69142 16.7012 5.80268L16.4916 5.81433C10.4708 6.16858 5.88982 11.065 5.88982 16.4518C5.88983 21.9089 10.3135 26.3328 15.7703 26.3328C21.2271 26.3328 25.6508 21.9089 25.6508 16.4518C25.6508 16.3383 25.6428 16.0507 25.6255 15.7234C25.6174 15.5691 25.6085 15.4344 25.6005 15.334C25.5982 15.3048 25.5961 15.2825 25.5947 15.2664L25.3608 13.7794C25.1843 13.1988 24.9548 12.6334 24.6738 12.0904L27.5776 10.5875C27.5983 10.5724 27.6184 10.5582 27.6375 10.5447C27.3247 10.0951 26.99 9.67427 26.5788 9.25152C25.7553 8.40481 24.4991 7.43849 22.3535 6.60313L22.2507 6.56343Z" fill="#1D1D1D" stroke="#1D1D1D" stroke-width="1.2"/>
</g>
<defs>
<clipPath id="clip0_2_1932">
<rect width="36" height="32.11" fill="white"/>
</clipPath>
</defs>
</svg>
