<svg width="32" height="29" viewBox="0 0 32 29" fill="none" xmlns="http://www.w3.org/2000/svg">
<g clip-path="url(#clip0_2_931)">
<path d="M6.13971 16.4103C5.64943 16.1402 5.04908 16.4948 5.04908 17.0546V21.5869C5.04908 21.8549 5.19491 22.1019 5.4297 22.2312L15.461 27.7584C15.6821 27.8801 15.9501 27.8801 16.1711 27.7584L26.2024 22.2312C26.4371 22.1019 26.583 21.8549 26.583 21.5869V17.0546C26.583 16.4948 25.9826 16.1402 25.4924 16.4103L16.1711 21.5463C15.9501 21.6681 15.6821 21.6681 15.461 21.5463L6.13971 16.4103ZM16.5258 0.390524C16.0839 0.147169 15.5482 0.147169 15.1063 0.390524L1.23662 8.02899C0.221259 8.58818 0.221256 10.0473 1.23662 10.6065L15.1063 18.245C15.5482 18.4884 16.0839 18.4884 16.5258 18.245L30.3954 10.6065C31.4108 10.0473 31.4108 8.58818 30.3954 8.02899L16.5258 0.390524Z" fill="white"/>
</g>
<defs>
<clipPath id="clip0_2_931">
<rect width="32" height="28.69" fill="white"/>
</clipPath>
</defs>
</svg>
