<svg width="334" height="258" viewBox="0 0 334 258" fill="none" xmlns="http://www.w3.org/2000/svg">
<g clip-path="url(#clip0_2_1657)">
<mask id="mask0_2_1657" style="mask-type:luminance" maskUnits="userSpaceOnUse" x="0" y="0" width="334" height="258">
<path d="M326.959 0H7.0408C3.15228 0 0 3.15226 0 7.04077V250.674C0 254.562 3.15228 257.715 7.0408 257.715H326.959C330.848 257.715 334 254.562 334 250.674V7.04077C334 3.15226 330.848 0 326.959 0Z" fill="white"/>
</mask>
<g mask="url(#mask0_2_1657)">
<path opacity="0.5" d="M326.963 0H7.03661C3.1504 0 0 3.15038 0 7.03657V250.678C0 254.564 3.1504 257.715 7.03661 257.715H326.963C330.85 257.715 334 254.564 334 250.678V7.03657C334 3.15038 330.85 0 326.963 0Z" fill="#F1F0EE"/>
<path opacity="0.3" d="M76.7995 130.403L70.8078 131.281C61.0821 132.703 52.2658 137.784 46.1579 145.485C44.6004 147.449 43.3032 149.606 42.2984 151.903L40.2038 156.69L39.0072 167.608C37.2703 183.458 46.1426 198.568 60.8297 204.774L72.676 209.78M72.676 209.78L70.6143 204.11M72.676 209.78L68.0371 212.872" stroke="#333333" stroke-width="1.3" stroke-linecap="round" stroke-dasharray="4 4"/>
<path d="M239.161 184.524H96.9012C90.0693 184.524 84.5309 190.062 84.5309 196.894V219.573C84.5309 226.405 90.0693 231.943 96.9012 231.943H239.161C245.993 231.943 251.531 226.405 251.531 219.573V196.894C251.531 190.062 245.993 184.524 239.161 184.524Z" fill="#8082EF"/>
<path d="M221.779 214.198C221.27 215.309 219.573 217.903 214.805 217.903C214.566 217.903 214.336 217.808 214.167 217.639C213.998 217.47 213.903 217.24 213.903 217.001C213.903 212.232 216.497 210.535 217.608 210.027C217.717 209.978 217.832 209.951 217.951 209.947C218.069 209.943 218.188 209.961 218.298 210.004C218.409 210.045 218.511 210.108 218.598 210.188C218.685 210.269 218.755 210.366 218.803 210.474C218.853 210.582 218.88 210.698 218.885 210.817C218.889 210.934 218.869 211.053 218.828 211.164C218.787 211.275 218.724 211.377 218.642 211.463C218.562 211.55 218.465 211.62 218.357 211.669C217.632 211.999 216.032 213.062 215.75 216.056C218.743 215.774 219.809 214.174 220.137 213.45C220.187 213.341 220.257 213.245 220.343 213.164C220.43 213.083 220.532 213.02 220.642 212.979C220.754 212.937 220.871 212.918 220.99 212.922C221.108 212.926 221.225 212.954 221.333 213.003C221.44 213.052 221.537 213.122 221.619 213.208C221.699 213.295 221.762 213.397 221.803 213.508C221.845 213.619 221.864 213.737 221.86 213.856C221.856 213.973 221.828 214.09 221.779 214.198ZM235.536 197.962C235.509 197.522 235.321 197.107 235.01 196.796C234.699 196.484 234.284 196.297 233.844 196.27C232.425 196.186 228.801 196.316 225.794 199.323L220.218 204.903C220.134 204.986 220.034 205.053 219.925 205.099C219.816 205.144 219.698 205.168 219.579 205.168C219.34 205.168 219.11 205.073 218.941 204.904C218.771 204.735 218.676 204.505 218.676 204.266C218.676 204.027 218.771 203.797 218.94 203.628L221.935 200.632C221.998 200.569 222.04 200.489 222.058 200.401C222.074 200.314 222.066 200.224 222.032 200.141C221.998 200.06 221.94 199.989 221.866 199.939C221.793 199.89 221.706 199.863 221.616 199.863H218.678C218.44 199.862 218.205 199.907 217.986 199.998C217.766 200.089 217.566 200.222 217.399 200.391L213.531 204.261C213.294 204.498 213.127 204.796 213.051 205.122C212.973 205.448 212.989 205.789 213.095 206.108C213.201 206.425 213.394 206.708 213.652 206.922C213.91 207.137 214.222 207.276 214.554 207.322L218.892 207.928L223.876 212.913L224.481 217.253C224.529 217.584 224.667 217.897 224.881 218.155C225.097 218.411 225.379 218.604 225.698 218.709C225.882 218.771 226.077 218.803 226.272 218.803C226.509 218.803 226.743 218.757 226.962 218.666C227.181 218.575 227.379 218.443 227.546 218.275L231.416 214.407C231.584 214.239 231.717 214.04 231.808 213.821C231.899 213.601 231.945 213.365 231.944 213.128V210.19C231.944 210.1 231.917 210.014 231.868 209.94C231.818 209.865 231.747 209.808 231.665 209.774C231.582 209.74 231.492 209.73 231.405 209.748C231.317 209.765 231.237 209.809 231.174 209.872L228.178 212.866C228.09 212.954 227.985 213.023 227.87 213.068C227.754 213.114 227.632 213.135 227.507 213.13C227.383 213.126 227.262 213.096 227.15 213.043C227.038 212.989 226.939 212.913 226.858 212.819C226.709 212.64 226.635 212.412 226.647 212.18C226.66 211.948 226.759 211.729 226.926 211.567L232.481 206.012C235.49 203.004 235.62 199.38 235.536 197.96V197.962Z" fill="white"/>
<path d="M101.082 206.32C100.505 206.32 99.9692 206.213 99.4743 205.999C98.9795 205.776 98.5589 205.475 98.2126 205.096C97.8662 204.716 97.6105 204.279 97.4456 203.785L98.6826 203.265C98.9053 203.834 99.2311 204.271 99.6599 204.576C100.089 204.881 100.584 205.034 101.144 205.034C101.474 205.034 101.763 204.984 102.01 204.886C102.258 204.778 102.447 204.63 102.579 204.44C102.72 204.251 102.79 204.032 102.79 203.785C102.79 203.446 102.695 203.178 102.505 202.98C102.315 202.783 102.035 202.626 101.664 202.51L99.932 201.966C99.2393 201.752 98.7115 201.426 98.3486 200.989C97.9858 200.544 97.8043 200.024 97.8043 199.43C97.8043 198.911 97.9322 198.457 98.1878 198.069C98.4435 197.674 98.794 197.364 99.2393 197.142C99.6929 196.919 100.208 196.808 100.786 196.808C101.338 196.808 101.841 196.907 102.295 197.105C102.748 197.294 103.136 197.558 103.458 197.896C103.787 198.234 104.027 198.626 104.175 199.071L102.963 199.603C102.781 199.117 102.497 198.742 102.109 198.478C101.73 198.214 101.289 198.082 100.786 198.082C100.48 198.082 100.212 198.135 99.9815 198.243C99.7506 198.342 99.5692 198.49 99.4372 198.688C99.3135 198.878 99.2517 199.1 99.2517 199.356C99.2517 199.653 99.3465 199.917 99.5362 200.148C99.7259 200.379 100.015 200.552 100.402 200.667L102.01 201.174C102.744 201.397 103.297 201.719 103.668 202.139C104.039 202.552 104.225 203.067 104.225 203.686C104.225 204.197 104.088 204.65 103.816 205.046C103.552 205.442 103.185 205.756 102.715 205.986C102.245 206.209 101.701 206.32 101.082 206.32ZM108.622 206.246C107.921 206.246 107.377 206.048 106.989 205.652C106.602 205.257 106.408 204.7 106.408 203.982V200.741H105.233V199.48H105.418C105.732 199.48 105.975 199.389 106.148 199.208C106.321 199.026 106.408 198.779 106.408 198.465V197.946H107.806V199.48H109.327V200.741H107.806V203.921C107.806 204.152 107.843 204.349 107.917 204.514C107.991 204.671 108.111 204.795 108.276 204.886C108.441 204.968 108.655 205.009 108.919 205.009C108.985 205.009 109.059 205.005 109.142 204.997C109.224 204.989 109.303 204.98 109.377 204.972V206.172C109.261 206.189 109.134 206.205 108.993 206.222C108.853 206.238 108.729 206.246 108.622 206.246ZM110.741 206.172V199.48H112.077V200.828L111.953 200.63C112.101 200.193 112.341 199.88 112.67 199.69C113 199.492 113.396 199.393 113.858 199.393H114.266V200.667H113.685C113.223 200.667 112.848 200.812 112.559 201.1C112.279 201.381 112.139 201.785 112.139 202.312V206.172H110.741ZM117.226 206.32C116.772 206.32 116.372 206.242 116.026 206.085C115.688 205.92 115.424 205.698 115.234 205.417C115.045 205.129 114.95 204.791 114.95 204.403C114.95 204.04 115.028 203.714 115.185 203.426C115.35 203.137 115.601 202.894 115.939 202.696C116.277 202.498 116.702 202.358 117.213 202.275L119.539 201.892V202.993L117.486 203.352C117.114 203.418 116.842 203.537 116.669 203.71C116.496 203.875 116.409 204.09 116.409 204.354C116.409 204.609 116.504 204.82 116.694 204.984C116.892 205.141 117.143 205.22 117.448 205.22C117.828 205.22 118.158 205.137 118.438 204.972C118.727 204.807 118.949 204.589 119.106 204.316C119.263 204.036 119.341 203.727 119.341 203.389V201.669C119.341 201.339 119.217 201.071 118.97 200.865C118.731 200.651 118.409 200.544 118.005 200.544C117.634 200.544 117.308 200.642 117.028 200.84C116.756 201.03 116.554 201.278 116.422 201.583L115.259 201.001C115.383 200.671 115.585 200.383 115.865 200.135C116.145 199.88 116.471 199.682 116.842 199.542C117.222 199.401 117.622 199.331 118.042 199.331C118.57 199.331 119.036 199.43 119.44 199.628C119.852 199.826 120.17 200.102 120.393 200.457C120.624 200.803 120.739 201.207 120.739 201.669V206.172H119.403V204.96L119.688 204.997C119.531 205.269 119.329 205.504 119.081 205.702C118.842 205.9 118.566 206.052 118.253 206.16C117.947 206.267 117.605 206.32 117.226 206.32ZM122.374 206.172V199.48H123.772V206.172H122.374ZM122.374 198.564V196.956H123.772V198.564H122.374ZM128.634 208.893C128.148 208.893 127.698 208.815 127.286 208.658C126.874 208.502 126.519 208.283 126.222 208.003C125.925 207.731 125.703 207.409 125.554 207.038L126.841 206.506C126.956 206.819 127.166 207.079 127.472 207.285C127.785 207.492 128.168 207.595 128.622 207.595C128.977 207.595 129.294 207.525 129.575 207.384C129.855 207.252 130.078 207.054 130.243 206.791C130.407 206.535 130.49 206.226 130.49 205.863V204.354L130.737 204.638C130.506 205.067 130.185 205.393 129.772 205.615C129.368 205.838 128.911 205.949 128.399 205.949C127.781 205.949 127.224 205.805 126.729 205.516C126.235 205.228 125.843 204.832 125.554 204.329C125.274 203.826 125.134 203.261 125.134 202.634C125.134 201.999 125.274 201.434 125.554 200.939C125.843 200.445 126.23 200.053 126.717 199.764C127.204 199.476 127.76 199.331 128.387 199.331C128.898 199.331 129.352 199.443 129.748 199.665C130.152 199.88 130.482 200.193 130.737 200.605L130.552 200.952V199.48H131.875V205.863C131.875 206.44 131.735 206.955 131.455 207.409C131.183 207.871 130.803 208.234 130.317 208.498C129.83 208.762 129.269 208.893 128.634 208.893ZM128.56 204.65C128.931 204.65 129.261 204.564 129.55 204.391C129.838 204.209 130.065 203.97 130.23 203.673C130.403 203.368 130.49 203.026 130.49 202.646C130.49 202.267 130.403 201.925 130.23 201.62C130.057 201.315 129.826 201.075 129.537 200.902C129.249 200.721 128.923 200.63 128.56 200.63C128.181 200.63 127.843 200.721 127.546 200.902C127.249 201.075 127.014 201.315 126.841 201.62C126.676 201.917 126.593 202.259 126.593 202.646C126.593 203.018 126.676 203.356 126.841 203.661C127.014 203.966 127.249 204.209 127.546 204.391C127.843 204.564 128.181 204.65 128.56 204.65ZM133.512 206.172V196.808H134.91V200.791L134.688 200.618C134.853 200.197 135.116 199.88 135.479 199.665C135.842 199.443 136.263 199.331 136.741 199.331C137.236 199.331 137.673 199.438 138.052 199.653C138.432 199.867 138.729 200.164 138.943 200.544C139.157 200.923 139.265 201.356 139.265 201.842V206.172H137.879V202.226C137.879 201.888 137.813 201.603 137.681 201.372C137.558 201.133 137.384 200.952 137.162 200.828C136.939 200.696 136.683 200.63 136.395 200.63C136.114 200.63 135.859 200.696 135.628 200.828C135.405 200.952 135.228 201.133 135.096 201.372C134.972 201.611 134.91 201.896 134.91 202.226V206.172H133.512ZM143.655 206.246C142.954 206.246 142.41 206.048 142.022 205.652C141.635 205.257 141.441 204.7 141.441 203.982V200.741H140.266V199.48H140.451C140.765 199.48 141.008 199.389 141.181 199.208C141.354 199.026 141.441 198.779 141.441 198.465V197.946H142.839V199.48H144.36V200.741H142.839V203.921C142.839 204.152 142.876 204.349 142.95 204.514C143.024 204.671 143.144 204.795 143.309 204.886C143.474 204.968 143.688 205.009 143.952 205.009C144.018 205.009 144.092 205.005 144.175 204.997C144.257 204.989 144.335 204.98 144.41 204.972V206.172C144.294 206.189 144.166 206.205 144.026 206.222C143.886 206.238 143.762 206.246 143.655 206.246ZM148.072 206.172V196.956H151.957C152.534 196.956 153.033 197.059 153.453 197.265C153.874 197.463 154.196 197.752 154.418 198.131C154.641 198.502 154.752 198.944 154.752 199.455C154.752 199.9 154.637 200.308 154.406 200.68C154.183 201.042 153.833 201.331 153.355 201.546V200.927C153.775 201.092 154.117 201.302 154.381 201.558C154.645 201.805 154.835 202.086 154.95 202.399C155.074 202.712 155.136 203.042 155.136 203.389C155.136 204.255 154.851 204.935 154.282 205.43C153.722 205.925 152.95 206.172 151.969 206.172H148.072ZM149.532 204.873H152.08C152.567 204.873 152.955 204.741 153.243 204.477C153.532 204.205 153.676 203.846 153.676 203.401C153.676 202.947 153.532 202.589 153.243 202.325C152.955 202.053 152.567 201.917 152.08 201.917H149.532V204.873ZM149.532 200.63H151.994C152.39 200.63 152.707 200.519 152.946 200.296C153.185 200.065 153.305 199.764 153.305 199.393C153.305 199.022 153.185 198.733 152.946 198.527C152.707 198.321 152.39 198.218 151.994 198.218H149.532V200.63ZM159.729 206.32C159.086 206.32 158.496 206.168 157.96 205.863C157.433 205.558 157.012 205.141 156.699 204.613C156.385 204.086 156.229 203.488 156.229 202.82C156.229 202.143 156.385 201.546 156.699 201.026C157.012 200.498 157.433 200.086 157.96 199.789C158.488 199.484 159.078 199.331 159.729 199.331C160.389 199.331 160.979 199.484 161.498 199.789C162.026 200.086 162.443 200.498 162.748 201.026C163.061 201.546 163.218 202.143 163.218 202.82C163.218 203.496 163.061 204.098 162.748 204.626C162.434 205.154 162.014 205.57 161.486 205.875C160.958 206.172 160.373 206.32 159.729 206.32ZM159.729 205.022C160.125 205.022 160.476 204.927 160.781 204.737C161.086 204.547 161.325 204.288 161.498 203.958C161.68 203.62 161.771 203.24 161.771 202.82C161.771 202.399 161.68 202.024 161.498 201.694C161.325 201.364 161.086 201.104 160.781 200.915C160.476 200.725 160.125 200.63 159.729 200.63C159.342 200.63 158.991 200.725 158.678 200.915C158.373 201.104 158.129 201.364 157.948 201.694C157.775 202.024 157.688 202.399 157.688 202.82C157.688 203.24 157.775 203.62 157.948 203.958C158.129 204.288 158.373 204.547 158.678 204.737C158.991 204.927 159.342 205.022 159.729 205.022ZM167.811 206.32C167.168 206.32 166.578 206.168 166.042 205.863C165.515 205.558 165.094 205.141 164.781 204.613C164.467 204.086 164.311 203.488 164.311 202.82C164.311 202.143 164.467 201.546 164.781 201.026C165.094 200.498 165.515 200.086 166.042 199.789C166.57 199.484 167.16 199.331 167.811 199.331C168.471 199.331 169.061 199.484 169.58 199.789C170.108 200.086 170.525 200.498 170.83 201.026C171.143 201.546 171.3 202.143 171.3 202.82C171.3 203.496 171.143 204.098 170.83 204.626C170.516 205.154 170.096 205.57 169.568 205.875C169.04 206.172 168.455 206.32 167.811 206.32ZM167.811 205.022C168.207 205.022 168.558 204.927 168.863 204.737C169.168 204.547 169.407 204.288 169.58 203.958C169.762 203.62 169.852 203.24 169.852 202.82C169.852 202.399 169.762 202.024 169.58 201.694C169.407 201.364 169.168 201.104 168.863 200.915C168.558 200.725 168.207 200.63 167.811 200.63C167.424 200.63 167.073 200.725 166.76 200.915C166.455 201.104 166.211 201.364 166.03 201.694C165.857 202.024 165.77 202.399 165.77 202.82C165.77 203.24 165.857 203.62 166.03 203.958C166.211 204.288 166.455 204.547 166.76 204.737C167.073 204.927 167.424 205.022 167.811 205.022ZM175.139 206.32C174.454 206.32 173.852 206.151 173.333 205.813C172.821 205.475 172.463 205.022 172.256 204.453L173.333 203.945C173.514 204.325 173.762 204.626 174.075 204.848C174.397 205.071 174.751 205.182 175.139 205.182C175.469 205.182 175.737 205.108 175.943 204.96C176.149 204.811 176.252 204.609 176.252 204.354C176.252 204.189 176.207 204.057 176.116 203.958C176.025 203.851 175.91 203.764 175.77 203.698C175.638 203.632 175.502 203.582 175.361 203.55L174.31 203.253C173.733 203.088 173.3 202.84 173.011 202.51C172.731 202.172 172.59 201.781 172.59 201.335C172.59 200.931 172.694 200.581 172.9 200.284C173.106 199.979 173.39 199.744 173.753 199.579C174.116 199.414 174.524 199.331 174.978 199.331C175.588 199.331 176.133 199.484 176.611 199.789C177.089 200.086 177.427 200.502 177.625 201.038L176.549 201.546C176.417 201.224 176.207 200.968 175.918 200.779C175.638 200.589 175.32 200.494 174.966 200.494C174.66 200.494 174.417 200.568 174.236 200.717C174.054 200.857 173.964 201.042 173.964 201.273C173.964 201.43 174.005 201.562 174.087 201.669C174.17 201.768 174.277 201.851 174.409 201.917C174.541 201.974 174.677 202.024 174.817 202.065L175.906 202.387C176.458 202.543 176.883 202.791 177.18 203.129C177.477 203.459 177.625 203.855 177.625 204.316C177.625 204.712 177.518 205.063 177.304 205.368C177.097 205.665 176.809 205.9 176.438 206.073C176.067 206.238 175.634 206.32 175.139 206.32ZM181.89 206.246C181.189 206.246 180.645 206.048 180.257 205.652C179.869 205.257 179.676 204.7 179.676 203.982V200.741H178.5V199.48H178.686C178.999 199.48 179.243 199.389 179.416 199.208C179.589 199.026 179.676 198.779 179.676 198.465V197.946H181.073V199.48H182.595V200.741H181.073V203.921C181.073 204.152 181.111 204.349 181.185 204.514C181.259 204.671 181.379 204.795 181.544 204.886C181.708 204.968 181.923 205.009 182.187 205.009C182.253 205.009 182.327 205.005 182.409 204.997C182.492 204.989 182.57 204.98 182.644 204.972V206.172C182.529 206.189 182.401 206.205 182.261 206.222C182.121 206.238 181.997 206.246 181.89 206.246ZM102.146 220.752C101.495 220.752 100.889 220.633 100.328 220.394C99.7754 220.155 99.2929 219.825 98.8806 219.404C98.4765 218.975 98.159 218.472 97.928 217.895C97.6971 217.318 97.5817 216.683 97.5817 215.99C97.5817 215.305 97.693 214.675 97.9157 214.097C98.1466 213.512 98.4682 213.009 98.8806 212.588C99.2929 212.159 99.7754 211.829 100.328 211.598C100.88 211.359 101.487 211.24 102.146 211.24C102.798 211.24 103.379 211.351 103.891 211.574C104.41 211.796 104.847 212.089 105.202 212.452C105.556 212.807 105.812 213.194 105.969 213.615L104.658 214.233C104.46 213.739 104.142 213.339 103.705 213.033C103.276 212.72 102.757 212.563 102.146 212.563C101.536 212.563 100.996 212.708 100.526 212.996C100.056 213.285 99.6888 213.685 99.4249 214.196C99.1692 214.708 99.0414 215.305 99.0414 215.99C99.0414 216.674 99.1692 217.276 99.4249 217.796C99.6888 218.307 100.056 218.707 100.526 218.996C100.996 219.276 101.536 219.417 102.146 219.417C102.757 219.417 103.276 219.264 103.705 218.959C104.142 218.654 104.46 218.254 104.658 217.759L105.969 218.377C105.812 218.79 105.556 219.177 105.202 219.54C104.847 219.903 104.41 220.196 103.891 220.418C103.379 220.641 102.798 220.752 102.146 220.752ZM110.442 220.752C109.798 220.752 109.209 220.6 108.673 220.295C108.145 219.99 107.724 219.573 107.411 219.045C107.098 218.518 106.941 217.92 106.941 217.252C106.941 216.575 107.098 215.978 107.411 215.458C107.724 214.93 108.145 214.518 108.673 214.221C109.201 213.916 109.79 213.763 110.442 213.763C111.101 213.763 111.691 213.916 112.211 214.221C112.738 214.518 113.155 214.93 113.46 215.458C113.773 215.978 113.93 216.575 113.93 217.252C113.93 217.928 113.773 218.53 113.46 219.058C113.147 219.586 112.726 220.002 112.198 220.307C111.67 220.604 111.085 220.752 110.442 220.752ZM110.442 219.454C110.838 219.454 111.188 219.359 111.493 219.169C111.798 218.979 112.037 218.72 112.211 218.39C112.392 218.052 112.483 217.672 112.483 217.252C112.483 216.831 112.392 216.456 112.211 216.126C112.037 215.796 111.798 215.536 111.493 215.347C111.188 215.157 110.838 215.062 110.442 215.062C110.054 215.062 109.704 215.157 109.39 215.347C109.085 215.536 108.842 215.796 108.66 216.126C108.487 216.456 108.401 216.831 108.401 217.252C108.401 217.672 108.487 218.052 108.66 218.39C108.842 218.72 109.085 218.979 109.39 219.169C109.704 219.359 110.054 219.454 110.442 219.454ZM115.295 220.604V213.912H116.631V215.223L116.47 215.05C116.635 214.629 116.899 214.312 117.262 214.097C117.625 213.875 118.045 213.763 118.524 213.763C119.018 213.763 119.456 213.87 119.835 214.085C120.214 214.299 120.511 214.596 120.726 214.976C120.94 215.355 121.047 215.792 121.047 216.287V220.604H119.662V216.658C119.662 216.32 119.6 216.035 119.476 215.804C119.353 215.565 119.175 215.384 118.944 215.26C118.722 215.128 118.466 215.062 118.177 215.062C117.889 215.062 117.629 215.128 117.398 215.26C117.175 215.384 117.002 215.565 116.878 215.804C116.755 216.044 116.693 216.328 116.693 216.658V220.604H115.295ZM124.365 220.604L121.742 213.912H123.264L125.28 219.367H124.723L126.74 213.912H128.274L125.639 220.604H124.365ZM132.244 220.752C131.576 220.752 130.983 220.6 130.463 220.295C129.952 219.981 129.552 219.561 129.263 219.033C128.975 218.497 128.83 217.899 128.83 217.239C128.83 216.563 128.975 215.965 129.263 215.446C129.56 214.926 129.956 214.518 130.451 214.221C130.946 213.916 131.506 213.763 132.133 213.763C132.636 213.763 133.086 213.85 133.482 214.023C133.877 214.196 134.211 214.435 134.484 214.741C134.756 215.037 134.962 215.38 135.102 215.767C135.25 216.155 135.325 216.567 135.325 217.004C135.325 217.111 135.321 217.223 135.312 217.338C135.304 217.454 135.288 217.561 135.263 217.66H129.931V216.547H134.471L133.803 217.054C133.886 216.65 133.857 216.291 133.717 215.978C133.585 215.656 133.378 215.404 133.098 215.223C132.826 215.033 132.504 214.938 132.133 214.938C131.762 214.938 131.432 215.033 131.144 215.223C130.855 215.404 130.632 215.668 130.476 216.015C130.319 216.353 130.257 216.765 130.29 217.252C130.249 217.705 130.311 218.101 130.476 218.439C130.649 218.777 130.888 219.041 131.193 219.231C131.506 219.421 131.861 219.515 132.257 219.515C132.661 219.515 133.003 219.425 133.284 219.243C133.572 219.062 133.799 218.827 133.964 218.538L135.102 219.095C134.97 219.408 134.764 219.693 134.484 219.948C134.211 220.196 133.881 220.394 133.494 220.542C133.115 220.682 132.698 220.752 132.244 220.752ZM136.69 220.604V213.912H138.026V215.26L137.902 215.062C138.05 214.625 138.289 214.312 138.619 214.122C138.949 213.924 139.345 213.825 139.807 213.825H140.215V215.099H139.634C139.172 215.099 138.797 215.244 138.508 215.532C138.228 215.813 138.087 216.217 138.087 216.745V220.604H136.69ZM143.645 220.752C142.96 220.752 142.358 220.583 141.839 220.245C141.327 219.907 140.969 219.454 140.763 218.885L141.839 218.377C142.02 218.757 142.268 219.058 142.581 219.28C142.903 219.503 143.257 219.614 143.645 219.614C143.975 219.614 144.243 219.54 144.449 219.392C144.655 219.243 144.758 219.041 144.758 218.786C144.758 218.621 144.713 218.489 144.622 218.39C144.531 218.283 144.416 218.196 144.276 218.13C144.144 218.064 144.008 218.015 143.867 217.982L142.816 217.685C142.239 217.52 141.806 217.272 141.517 216.942C141.237 216.604 141.097 216.213 141.097 215.767C141.097 215.363 141.2 215.013 141.406 214.716C141.612 214.411 141.896 214.176 142.259 214.011C142.622 213.846 143.03 213.763 143.484 213.763C144.094 213.763 144.639 213.916 145.117 214.221C145.595 214.518 145.933 214.934 146.131 215.47L145.055 215.978C144.923 215.656 144.713 215.4 144.424 215.211C144.144 215.021 143.826 214.926 143.472 214.926C143.166 214.926 142.923 215 142.742 215.149C142.56 215.289 142.47 215.474 142.47 215.705C142.47 215.862 142.511 215.994 142.593 216.101C142.676 216.2 142.783 216.283 142.915 216.349C143.047 216.406 143.183 216.456 143.323 216.497L144.412 216.819C144.964 216.975 145.389 217.223 145.686 217.561C145.983 217.891 146.131 218.287 146.131 218.748C146.131 219.144 146.024 219.495 145.81 219.8C145.603 220.097 145.315 220.332 144.944 220.505C144.573 220.67 144.14 220.752 143.645 220.752ZM147.501 220.604V213.912H148.899V220.604H147.501ZM147.501 212.996V211.388H148.899V212.996H147.501ZM153.762 220.752C153.118 220.752 152.529 220.6 151.993 220.295C151.465 219.99 151.044 219.573 150.731 219.045C150.418 218.518 150.261 217.92 150.261 217.252C150.261 216.575 150.418 215.978 150.731 215.458C151.044 214.93 151.465 214.518 151.993 214.221C152.521 213.916 153.11 213.763 153.762 213.763C154.421 213.763 155.011 213.916 155.531 214.221C156.058 214.518 156.475 214.93 156.78 215.458C157.093 215.978 157.25 216.575 157.25 217.252C157.25 217.928 157.093 218.53 156.78 219.058C156.467 219.586 156.046 220.002 155.518 220.307C154.991 220.604 154.405 220.752 153.762 220.752ZM153.762 219.454C154.158 219.454 154.508 219.359 154.813 219.169C155.118 218.979 155.357 218.72 155.531 218.39C155.712 218.052 155.803 217.672 155.803 217.252C155.803 216.831 155.712 216.456 155.531 216.126C155.357 215.796 155.118 215.536 154.813 215.347C154.508 215.157 154.158 215.062 153.762 215.062C153.374 215.062 153.024 215.157 152.71 215.347C152.405 215.536 152.162 215.796 151.98 216.126C151.807 216.456 151.721 216.831 151.721 217.252C151.721 217.672 151.807 218.052 151.98 218.39C152.162 218.72 152.405 218.979 152.71 219.169C153.024 219.359 153.374 219.454 153.762 219.454ZM158.615 220.604V213.912H159.951V215.223L159.79 215.05C159.955 214.629 160.219 214.312 160.582 214.097C160.945 213.875 161.365 213.763 161.844 213.763C162.339 213.763 162.776 213.87 163.155 214.085C163.534 214.299 163.831 214.596 164.046 214.976C164.26 215.355 164.367 215.792 164.367 216.287V220.604H162.982V216.658C162.982 216.32 162.92 216.035 162.796 215.804C162.673 215.565 162.495 215.384 162.264 215.26C162.042 215.128 161.786 215.062 161.497 215.062C161.209 215.062 160.949 215.128 160.718 215.26C160.495 215.384 160.322 215.565 160.198 215.804C160.075 216.044 160.013 216.328 160.013 216.658V220.604H158.615ZM168.162 220.604V211.388H171.514C172.133 211.388 172.677 211.504 173.147 211.735C173.617 211.957 173.984 212.287 174.248 212.724C174.52 213.153 174.656 213.668 174.656 214.27C174.656 214.905 174.495 215.45 174.174 215.903C173.86 216.357 173.436 216.687 172.9 216.893L175.027 220.604H173.37L171.106 216.584L172.059 217.14H169.622V220.604H168.162ZM169.622 215.841H171.539C171.877 215.841 172.17 215.776 172.417 215.644C172.665 215.512 172.854 215.33 172.986 215.099C173.127 214.86 173.197 214.58 173.197 214.258C173.197 213.936 173.127 213.66 172.986 213.429C172.854 213.19 172.665 213.009 172.417 212.885C172.17 212.753 171.877 212.687 171.539 212.687H169.622V215.841ZM178.124 220.752C177.671 220.752 177.271 220.674 176.924 220.517C176.586 220.353 176.322 220.13 176.133 219.849C175.943 219.561 175.848 219.223 175.848 218.835C175.848 218.472 175.926 218.146 176.083 217.858C176.248 217.569 176.499 217.326 176.838 217.128C177.176 216.93 177.6 216.79 178.112 216.707L180.437 216.324V217.425L178.384 217.784C178.013 217.85 177.741 217.969 177.567 218.142C177.394 218.307 177.308 218.522 177.308 218.786C177.308 219.041 177.403 219.252 177.592 219.417C177.79 219.573 178.042 219.652 178.347 219.652C178.726 219.652 179.056 219.569 179.336 219.404C179.625 219.239 179.848 219.021 180.004 218.748C180.161 218.468 180.239 218.159 180.239 217.821V216.101C180.239 215.771 180.116 215.503 179.868 215.297C179.629 215.083 179.308 214.976 178.903 214.976C178.532 214.976 178.207 215.075 177.926 215.272C177.654 215.462 177.452 215.71 177.32 216.015L176.157 215.433C176.281 215.103 176.483 214.815 176.763 214.567C177.044 214.312 177.37 214.114 177.741 213.974C178.12 213.833 178.52 213.763 178.941 213.763C179.468 213.763 179.934 213.862 180.338 214.06C180.751 214.258 181.068 214.534 181.291 214.889C181.522 215.235 181.637 215.639 181.637 216.101V220.604H180.301V219.392L180.586 219.429C180.429 219.701 180.227 219.936 179.98 220.134C179.741 220.332 179.464 220.484 179.151 220.592C178.846 220.699 178.503 220.752 178.124 220.752ZM186.045 220.678C185.344 220.678 184.8 220.48 184.412 220.084C184.025 219.689 183.831 219.132 183.831 218.415V215.173H182.656V213.912H182.841C183.155 213.912 183.398 213.821 183.571 213.64C183.744 213.458 183.831 213.211 183.831 212.897V212.378H185.229V213.912H186.75V215.173H185.229V218.353C185.229 218.584 185.266 218.781 185.34 218.946C185.414 219.103 185.534 219.227 185.699 219.318C185.864 219.4 186.078 219.441 186.342 219.441C186.408 219.441 186.482 219.437 186.565 219.429C186.647 219.421 186.726 219.412 186.8 219.404V220.604C186.684 220.621 186.557 220.637 186.416 220.654C186.276 220.67 186.153 220.678 186.045 220.678ZM191.185 220.752C190.517 220.752 189.923 220.6 189.404 220.295C188.893 219.981 188.493 219.561 188.204 219.033C187.915 218.497 187.771 217.899 187.771 217.239C187.771 216.563 187.915 215.965 188.204 215.446C188.501 214.926 188.897 214.518 189.391 214.221C189.886 213.916 190.447 213.763 191.074 213.763C191.577 213.763 192.026 213.85 192.422 214.023C192.818 214.196 193.152 214.435 193.424 214.741C193.696 215.037 193.903 215.38 194.043 215.767C194.191 216.155 194.265 216.567 194.265 217.004C194.265 217.111 194.261 217.223 194.253 217.338C194.245 217.454 194.228 217.561 194.204 217.66H188.872V216.547H193.412L192.744 217.054C192.826 216.65 192.797 216.291 192.657 215.978C192.525 215.656 192.319 215.404 192.039 215.223C191.767 215.033 191.445 214.938 191.074 214.938C190.703 214.938 190.373 215.033 190.084 215.223C189.796 215.404 189.573 215.668 189.416 216.015C189.26 216.353 189.198 216.765 189.231 217.252C189.189 217.705 189.251 218.101 189.416 218.439C189.589 218.777 189.829 219.041 190.134 219.231C190.447 219.421 190.802 219.515 191.198 219.515C191.602 219.515 191.944 219.425 192.224 219.243C192.513 219.062 192.74 218.827 192.905 218.538L194.043 219.095C193.911 219.408 193.705 219.693 193.424 219.948C193.152 220.196 192.822 220.394 192.435 220.542C192.055 220.682 191.639 220.752 191.185 220.752ZM198.103 220.752C197.419 220.752 196.817 220.583 196.297 220.245C195.786 219.907 195.427 219.454 195.221 218.885L196.297 218.377C196.479 218.757 196.726 219.058 197.039 219.28C197.361 219.503 197.716 219.614 198.103 219.614C198.433 219.614 198.701 219.54 198.907 219.392C199.114 219.243 199.217 219.041 199.217 218.786C199.217 218.621 199.171 218.489 199.081 218.39C198.99 218.283 198.874 218.196 198.734 218.13C198.602 218.064 198.466 218.015 198.326 217.982L197.275 217.685C196.697 217.52 196.264 217.272 195.976 216.942C195.695 216.604 195.555 216.213 195.555 215.767C195.555 215.363 195.658 215.013 195.864 214.716C196.07 214.411 196.355 214.176 196.718 214.011C197.081 213.846 197.489 213.763 197.943 213.763C198.553 213.763 199.097 213.916 199.575 214.221C200.054 214.518 200.392 214.934 200.59 215.47L199.514 215.978C199.382 215.656 199.171 215.4 198.883 215.211C198.602 215.021 198.285 214.926 197.93 214.926C197.625 214.926 197.382 215 197.2 215.149C197.019 215.289 196.928 215.474 196.928 215.705C196.928 215.862 196.969 215.994 197.052 216.101C197.134 216.2 197.242 216.283 197.373 216.349C197.505 216.406 197.641 216.456 197.782 216.497L198.87 216.819C199.423 216.975 199.848 217.223 200.144 217.561C200.441 217.891 200.59 218.287 200.59 218.748C200.59 219.144 200.483 219.495 200.268 219.8C200.062 220.097 199.773 220.332 199.402 220.505C199.031 220.67 198.598 220.752 198.103 220.752Z" fill="white"/>
<g filter="url(#filter0_d_2_1657)">
<path d="M227.821 110.302H108.241C95.1462 110.302 84.5309 120.917 84.5309 134.012C84.5309 147.106 95.1462 157.721 108.241 157.721H227.821C240.916 157.721 251.531 147.106 251.531 134.012C251.531 120.917 240.916 110.302 227.821 110.302Z" fill="white"/>
<path d="M227.821 111.075H108.241C95.5732 111.075 85.3041 121.344 85.3041 134.012C85.3041 146.679 95.5732 156.948 108.241 156.948H227.821C240.489 156.948 250.758 146.679 250.758 134.012C250.758 121.344 240.489 111.075 227.821 111.075Z" stroke="url(#paint0_linear_2_1657)" stroke-width="1.5"/>
</g>
<path d="M136.942 138.135V129.577H140.011C140.687 129.577 141.246 129.695 141.686 129.932C142.135 130.159 142.464 130.47 142.676 130.86C142.896 131.244 143.007 131.68 143.007 132.169C143.007 132.625 142.9 133.049 142.688 133.441C142.477 133.831 142.146 134.146 141.698 134.382C141.25 134.618 140.675 134.736 139.974 134.736H138.409V138.135H136.942ZM141.405 138.135L139.608 134.357H141.196L143.08 138.135H141.405ZM138.409 133.648H139.913C140.459 133.648 140.858 133.518 141.111 133.257C141.372 132.988 141.503 132.638 141.503 132.206C141.503 131.782 141.376 131.444 141.123 131.191C140.871 130.93 140.468 130.8 139.913 130.8H138.409V133.648ZM146.99 138.282C146.379 138.282 145.84 138.152 145.377 137.891C144.912 137.622 144.549 137.247 144.288 136.766C144.027 136.285 143.897 135.731 143.897 135.103C143.897 134.451 144.023 133.881 144.276 133.391C144.536 132.902 144.899 132.519 145.364 132.242C145.836 131.965 146.383 131.826 147.002 131.826C147.605 131.826 148.131 131.961 148.579 132.23C149.028 132.499 149.374 132.861 149.619 133.318C149.863 133.766 149.986 134.271 149.986 134.834C149.986 134.916 149.986 135.005 149.986 135.103C149.986 135.201 149.977 135.302 149.961 135.409H144.949V134.467H148.506C148.49 134.019 148.339 133.668 148.054 133.416C147.768 133.155 147.414 133.025 146.99 133.025C146.689 133.025 146.412 133.094 146.159 133.232C145.906 133.372 145.706 133.579 145.56 133.856C145.413 134.125 145.339 134.467 145.339 134.883V135.237C145.339 135.621 145.409 135.951 145.548 136.228C145.694 136.505 145.89 136.717 146.134 136.864C146.387 137.002 146.668 137.071 146.977 137.071C147.32 137.071 147.601 136.998 147.822 136.852C148.05 136.704 148.217 136.509 148.323 136.264H149.814C149.7 136.648 149.512 136.994 149.252 137.304C148.991 137.605 148.669 137.845 148.286 138.025C147.903 138.196 147.471 138.282 146.99 138.282ZM153.394 138.282C152.888 138.282 152.469 138.196 152.135 138.025C151.801 137.854 151.551 137.626 151.389 137.34C151.226 137.055 151.144 136.746 151.144 136.412C151.144 136.02 151.242 135.682 151.438 135.396C151.641 135.112 151.939 134.891 152.331 134.736C152.721 134.574 153.203 134.492 153.773 134.492H155.325C155.325 134.165 155.281 133.897 155.191 133.685C155.102 133.464 154.963 133.301 154.776 133.196C154.588 133.09 154.347 133.037 154.054 133.037C153.72 133.037 153.435 133.114 153.199 133.269C152.962 133.416 152.815 133.644 152.759 133.954H151.315C151.365 133.514 151.511 133.139 151.756 132.829C152 132.511 152.323 132.266 152.721 132.095C153.129 131.916 153.573 131.826 154.054 131.826C154.633 131.826 155.126 131.928 155.534 132.132C155.941 132.327 156.251 132.613 156.462 132.988C156.683 133.355 156.792 133.799 156.792 134.321V138.135H155.546L155.399 137.144C155.317 137.307 155.212 137.459 155.081 137.597C154.958 137.736 154.816 137.858 154.653 137.964C154.49 138.062 154.303 138.139 154.09 138.196C153.887 138.254 153.654 138.282 153.394 138.282ZM153.725 137.121C153.961 137.121 154.168 137.08 154.347 136.998C154.535 136.908 154.694 136.786 154.824 136.631C154.963 136.468 155.069 136.289 155.142 136.093C155.215 135.898 155.265 135.69 155.289 135.47V135.446H153.932C153.646 135.446 153.41 135.482 153.222 135.556C153.035 135.629 152.901 135.731 152.819 135.861C152.738 135.984 152.697 136.13 152.697 136.301C152.697 136.472 152.738 136.619 152.819 136.741C152.901 136.864 153.019 136.957 153.174 137.023C153.329 137.088 153.512 137.121 153.725 137.121ZM158.36 138.135V129.333H159.827V138.135H158.36ZM166.492 138.135V130.762H163.972V129.577H170.465V130.762H167.946V138.135H166.492ZM171.686 138.135V131.974H173.153V138.135H171.686ZM172.42 130.995C172.151 130.995 171.926 130.914 171.747 130.751C171.576 130.58 171.49 130.372 171.49 130.127C171.49 129.875 171.576 129.671 171.747 129.516C171.926 129.353 172.151 129.271 172.42 129.271C172.689 129.271 172.909 129.353 173.08 129.516C173.259 129.671 173.349 129.875 173.349 130.127C173.349 130.372 173.259 130.58 173.08 130.751C172.909 130.914 172.689 130.995 172.42 130.995ZM174.849 138.135V131.974H176.145L176.267 132.817C176.462 132.507 176.719 132.266 177.038 132.095C177.363 131.916 177.734 131.826 178.15 131.826C178.46 131.826 178.736 131.868 178.982 131.949C179.234 132.03 179.454 132.153 179.641 132.316C179.837 132.479 179.996 132.682 180.119 132.927C180.347 132.585 180.645 132.316 181.01 132.12C181.377 131.924 181.777 131.826 182.209 131.826C182.723 131.826 183.159 131.932 183.518 132.145C183.876 132.348 184.148 132.654 184.336 133.061C184.524 133.461 184.617 133.954 184.617 134.541V138.135H183.163V134.687C183.163 134.165 183.057 133.766 182.844 133.489C182.633 133.212 182.319 133.074 181.903 133.074C181.618 133.074 181.365 133.143 181.146 133.282C180.933 133.42 180.766 133.624 180.644 133.893C180.522 134.154 180.461 134.476 180.461 134.859V138.135H179.005V134.687C179.005 134.165 178.9 133.766 178.688 133.489C178.476 133.212 178.158 133.074 177.734 133.074C177.465 133.074 177.221 133.143 177 133.282C176.789 133.42 176.622 133.624 176.499 133.893C176.377 134.154 176.316 134.476 176.316 134.859V138.135H174.849ZM189.053 138.282C188.442 138.282 187.904 138.152 187.439 137.891C186.974 137.622 186.612 137.247 186.351 136.766C186.091 136.285 185.96 135.731 185.96 135.103C185.96 134.451 186.086 133.881 186.339 133.391C186.6 132.902 186.963 132.519 187.427 132.242C187.9 131.965 188.446 131.826 189.065 131.826C189.669 131.826 190.194 131.961 190.642 132.23C191.09 132.499 191.437 132.861 191.682 133.318C191.926 133.766 192.048 134.271 192.048 134.834C192.048 134.916 192.048 135.005 192.048 135.103C192.048 135.201 192.04 135.302 192.024 135.409H187.011V134.467H190.569C190.552 134.019 190.402 133.668 190.116 133.416C189.832 133.155 189.477 133.025 189.053 133.025C188.751 133.025 188.474 133.094 188.221 133.232C187.969 133.372 187.769 133.579 187.622 133.856C187.476 134.125 187.403 134.467 187.403 134.883V135.237C187.403 135.621 187.472 135.951 187.61 136.228C187.756 136.505 187.952 136.717 188.197 136.864C188.45 137.002 188.731 137.071 189.041 137.071C189.383 137.071 189.665 136.998 189.884 136.852C190.112 136.704 190.28 136.509 190.385 136.264H191.877C191.763 136.648 191.576 136.994 191.315 137.304C191.054 137.605 190.732 137.845 190.349 138.025C189.966 138.196 189.534 138.282 189.053 138.282ZM200.166 138.282C199.359 138.282 198.65 138.098 198.038 137.732C197.435 137.365 196.966 136.856 196.632 136.203C196.298 135.544 196.131 134.773 196.131 133.893C196.131 133.021 196.302 132.25 196.645 131.582C196.987 130.906 197.475 130.38 198.111 130.005C198.756 129.621 199.518 129.431 200.398 129.431C201.393 129.431 202.215 129.671 202.868 130.151C203.528 130.624 203.955 131.284 204.151 132.132H202.501C202.378 131.709 202.138 131.378 201.779 131.142C201.421 130.906 200.957 130.787 200.386 130.787C199.807 130.787 199.309 130.914 198.894 131.167C198.487 131.411 198.172 131.77 197.953 132.242C197.74 132.707 197.635 133.261 197.635 133.904C197.635 134.549 197.74 135.103 197.953 135.567C198.172 136.032 198.483 136.387 198.882 136.631C199.282 136.868 199.75 136.986 200.288 136.986C201.087 136.986 201.69 136.762 202.098 136.314C202.505 135.865 202.745 135.283 202.818 134.565H200.606V133.453H204.298V138.135H202.953L202.831 136.961C202.643 137.238 202.428 137.48 202.183 137.683C201.938 137.878 201.649 138.029 201.314 138.135C200.989 138.233 200.606 138.282 200.166 138.282ZM208.118 138.282C207.621 138.282 207.193 138.184 206.835 137.989C206.484 137.785 206.215 137.483 206.027 137.084C205.84 136.676 205.746 136.174 205.746 135.58V131.974H207.213V135.433C207.213 135.963 207.323 136.366 207.544 136.643C207.772 136.913 208.114 137.047 208.571 137.047C208.864 137.047 209.125 136.977 209.353 136.839C209.589 136.7 209.773 136.501 209.904 136.24C210.042 135.971 210.111 135.646 210.111 135.262V131.974H211.578V138.135H210.282L210.173 137.108C209.985 137.467 209.712 137.752 209.353 137.964C209.003 138.176 208.591 138.282 208.118 138.282ZM213.271 138.135V131.974H214.738V138.135H213.271ZM214.005 130.995C213.736 130.995 213.513 130.914 213.333 130.751C213.162 130.58 213.077 130.372 213.077 130.127C213.077 129.875 213.162 129.671 213.333 129.516C213.513 129.353 213.736 129.271 214.005 129.271C214.274 129.271 214.494 129.353 214.665 129.516C214.844 129.671 214.934 129.875 214.934 130.127C214.934 130.372 214.844 130.58 214.665 130.751C214.494 130.914 214.274 130.995 214.005 130.995ZM219.173 138.282C218.602 138.282 218.093 138.143 217.644 137.866C217.196 137.589 216.845 137.206 216.593 136.717C216.348 136.228 216.226 135.673 216.226 135.054C216.226 134.434 216.353 133.885 216.605 133.403C216.858 132.915 217.208 132.531 217.657 132.254C218.113 131.97 218.627 131.826 219.197 131.826C219.662 131.826 220.066 131.916 220.408 132.095C220.759 132.266 221.035 132.511 221.239 132.829V129.333H222.706V138.135H221.385L221.239 137.242C221.109 137.422 220.949 137.593 220.763 137.756C220.575 137.911 220.35 138.037 220.089 138.135C219.829 138.233 219.524 138.282 219.173 138.282ZM219.478 137.01C219.829 137.01 220.139 136.929 220.408 136.766C220.677 136.595 220.884 136.362 221.031 136.069C221.178 135.775 221.251 135.437 221.251 135.054C221.251 134.671 221.178 134.333 221.031 134.04C220.884 133.746 220.677 133.518 220.408 133.355C220.139 133.192 219.829 133.111 219.478 133.111C219.144 133.111 218.843 133.192 218.574 133.355C218.305 133.518 218.093 133.746 217.938 134.04C217.792 134.333 217.717 134.671 217.717 135.054C217.717 135.437 217.792 135.775 217.938 136.069C218.093 136.362 218.305 136.595 218.574 136.766C218.843 136.929 219.144 137.01 219.478 137.01ZM227.223 138.282C226.612 138.282 226.075 138.152 225.61 137.891C225.145 137.622 224.782 137.247 224.521 136.766C224.26 136.285 224.13 135.731 224.13 135.103C224.13 134.451 224.256 133.881 224.509 133.391C224.77 132.902 225.132 132.519 225.597 132.242C226.071 131.965 226.616 131.826 227.235 131.826C227.839 131.826 228.364 131.961 228.813 132.23C229.261 132.499 229.607 132.861 229.852 133.318C230.096 133.766 230.219 134.271 230.219 134.834C230.219 134.916 230.219 135.005 230.219 135.103C230.219 135.201 230.211 135.302 230.194 135.409H225.182V134.467H228.739C228.723 134.019 228.572 133.668 228.287 133.416C228.001 133.155 227.648 133.025 227.223 133.025C226.922 133.025 226.645 133.094 226.392 133.232C226.14 133.372 225.94 133.579 225.793 133.856C225.646 134.125 225.573 134.467 225.573 134.883V135.237C225.573 135.621 225.642 135.951 225.781 136.228C225.927 136.505 226.123 136.717 226.367 136.864C226.62 137.002 226.901 137.071 227.212 137.071C227.554 137.071 227.834 136.998 228.055 136.852C228.283 136.704 228.45 136.509 228.556 136.264H230.048C229.933 136.648 229.746 136.994 229.485 137.304C229.224 137.605 228.902 137.845 228.52 138.025C228.136 138.196 227.704 138.282 227.223 138.282Z" fill="#333333"/>
<g filter="url(#filter1_d_2_1657)">
<g filter="url(#filter2_d_2_1657)">
<path d="M89.6852 133.855C89.6852 123.125 98.3842 114.425 109.115 114.425C119.846 114.425 128.545 123.125 128.545 133.855C128.545 144.586 119.846 153.284 109.115 153.284C98.3842 153.284 89.6852 144.586 89.6852 133.855Z" fill="#333333"/>
</g>
<mask id="mask1_2_1657" style="mask-type:luminance" maskUnits="userSpaceOnUse" x="98" y="123" width="20" height="20">
<path d="M117.95 123.703H98.963V142.652H117.95V123.703Z" fill="white"/>
</mask>
<g mask="url(#mask1_2_1657)">
<path fill-rule="evenodd" clip-rule="evenodd" d="M108.274 123.71L112.086 123.707C115.847 123.703 115.903 123.707 116.158 123.781C116.299 123.825 116.532 123.917 116.676 123.991C116.85 124.08 117.032 124.221 117.235 124.424C117.472 124.657 117.568 124.787 117.69 125.036C117.775 125.209 117.868 125.464 117.897 125.609C117.942 125.82 117.953 126.29 117.953 128.162C117.953 130.035 117.942 130.505 117.897 130.717C117.868 130.857 117.775 131.116 117.69 131.29C117.568 131.538 117.468 131.667 117.235 131.904C116.999 132.137 116.869 132.237 116.62 132.36C116.447 132.444 116.187 132.537 116.047 132.567C115.833 132.611 115.24 132.623 109.181 132.623L108.071 133.177C107.275 133.577 106.924 133.733 106.831 133.733C106.761 133.733 106.635 133.699 106.553 133.659C106.455 133.609 106.38 133.535 106.331 133.436C106.258 133.292 106.258 133.214 106.258 129.577C106.258 126.463 106.268 125.827 106.312 125.609C106.342 125.464 106.435 125.209 106.521 125.036C106.642 124.787 106.738 124.657 106.975 124.424C107.164 124.236 107.364 124.08 107.515 123.999C107.649 123.928 107.871 123.836 108.015 123.791L108.274 123.71ZM108.793 126.608C108.711 126.656 108.615 126.753 108.581 126.819C108.548 126.886 108.518 126.996 108.515 127.063C108.515 127.13 108.548 127.245 108.585 127.322C108.626 127.4 108.715 127.496 108.797 127.541L108.941 127.626C115.177 127.626 115.255 127.626 115.4 127.552C115.498 127.502 115.572 127.428 115.621 127.33C115.661 127.249 115.695 127.133 115.695 127.071C115.695 127.012 115.661 126.893 115.621 126.812C115.572 126.713 115.498 126.639 115.4 126.59C115.255 126.519 115.177 126.516 112.094 126.516H108.941L108.793 126.608ZM108.793 128.829C108.711 128.881 108.615 128.977 108.581 129.044C108.548 129.11 108.518 129.218 108.515 129.284C108.515 129.351 108.548 129.469 108.585 129.544C108.626 129.625 108.715 129.717 108.797 129.765L108.941 129.847C115.177 129.851 115.255 129.847 115.4 129.777C115.498 129.727 115.572 129.653 115.621 129.554C115.661 129.472 115.695 129.354 115.695 129.295C115.695 129.232 115.661 129.118 115.621 129.036C115.572 128.937 115.498 128.863 115.4 128.814C115.255 128.739 115.177 128.739 112.094 128.739H108.941L108.793 128.829ZM105.125 130.417L105.147 131.993C105.166 133.54 105.166 133.57 105.255 133.77C105.299 133.885 105.383 134.04 105.443 134.122C105.499 134.203 105.625 134.343 105.725 134.429C105.825 134.517 105.979 134.625 106.072 134.669C106.165 134.71 106.321 134.769 106.424 134.795C106.524 134.821 106.683 134.843 106.775 134.843C106.868 134.843 107.042 134.825 107.164 134.799C107.315 134.769 107.715 134.592 109.44 133.733L115.603 133.752L115.647 134.047C115.677 134.247 115.691 135.043 115.691 136.508C115.695 138.27 115.684 138.744 115.64 139.044C115.607 139.247 115.533 139.561 115.473 139.74C115.41 139.917 115.31 140.166 115.247 140.294C115.181 140.42 115.044 140.65 114.944 140.802C114.84 140.957 114.614 141.223 114.441 141.397C114.263 141.575 113.989 141.805 113.826 141.916C113.664 142.023 113.397 142.175 113.234 142.252C113.071 142.326 112.786 142.43 112.605 142.478C112.419 142.53 112.194 142.589 112.094 142.612C111.972 142.641 110.902 142.652 108.478 142.652C106.054 142.652 104.984 142.641 104.859 142.612C104.762 142.589 104.533 142.53 104.351 142.478C104.166 142.43 103.885 142.326 103.722 142.252C103.559 142.175 103.293 142.023 103.13 141.912C102.967 141.805 102.689 141.572 102.515 141.397C102.341 141.223 102.112 140.957 102.012 140.802C101.908 140.65 101.775 140.42 101.708 140.294C101.646 140.166 101.546 139.917 101.483 139.74C101.424 139.561 101.35 139.258 101.32 139.062C101.272 138.774 101.261 138.318 101.261 136.527C101.261 134.736 101.272 134.28 101.32 133.992C101.35 133.799 101.424 133.496 101.483 133.319C101.546 133.14 101.646 132.889 101.708 132.763C101.775 132.633 101.908 132.407 102.012 132.253C102.116 132.1 102.341 131.834 102.515 131.657C102.689 131.483 102.959 131.257 103.111 131.153C103.263 131.053 103.493 130.917 103.619 130.854C103.747 130.787 103.996 130.687 104.173 130.627C104.355 130.564 104.64 130.494 104.813 130.465L105.125 130.417ZM105.21 135.15C105.158 135.25 105.147 135.383 105.147 135.946C105.143 136.538 105.155 136.642 105.213 136.761C105.255 136.842 105.346 136.934 105.428 136.982C105.506 137.027 105.625 137.064 105.691 137.068C105.758 137.068 105.876 137.034 105.958 136.994C106.057 136.944 106.13 136.87 106.179 136.771C106.246 136.638 106.254 136.549 106.254 135.957C106.254 135.365 106.246 135.272 106.179 135.143C106.13 135.044 106.057 134.97 105.958 134.921C105.876 134.88 105.758 134.846 105.691 134.846C105.625 134.846 105.502 134.888 105.421 134.936C105.339 134.988 105.246 135.083 105.21 135.15ZM110.762 135.15C110.71 135.25 110.699 135.383 110.699 135.946C110.695 136.538 110.706 136.642 110.766 136.761C110.806 136.842 110.899 136.934 110.98 136.982C111.057 137.027 111.176 137.064 111.243 137.068C111.309 137.068 111.428 137.034 111.509 136.994C111.608 136.944 111.682 136.87 111.732 136.771C111.798 136.638 111.805 136.549 111.805 135.957C111.805 135.365 111.798 135.272 111.732 135.143C111.682 135.044 111.608 134.97 111.509 134.921C111.428 134.88 111.309 134.846 111.243 134.846C111.176 134.846 111.054 134.888 110.973 134.936C110.892 134.988 110.799 135.083 110.762 135.15ZM107.086 138.267C107.005 138.318 106.912 138.414 106.875 138.481C106.842 138.548 106.812 138.658 106.812 138.721C106.809 138.788 106.842 138.907 106.879 138.981C106.919 139.063 107.012 139.154 107.094 139.203C107.231 139.284 107.264 139.284 108.467 139.288C109.626 139.288 109.707 139.284 109.844 139.214C109.942 139.165 110.016 139.09 110.066 138.991C110.106 138.91 110.14 138.792 110.14 138.733C110.14 138.67 110.106 138.555 110.066 138.474C110.016 138.375 109.942 138.301 109.844 138.251C109.707 138.181 109.621 138.178 108.467 138.178H107.234L107.086 138.267ZM100.169 133.81C100.187 133.81 100.198 133.836 100.187 133.873C100.176 133.91 100.161 135.002 100.158 136.305C100.15 137.608 100.158 138.796 100.173 138.944C100.191 139.091 100.191 139.21 100.176 139.21C100.161 139.21 100.054 139.166 99.9394 139.11C99.8209 139.054 99.6506 138.94 99.5581 138.858C99.4656 138.774 99.3361 138.625 99.2731 138.525C99.2065 138.425 99.1214 138.233 99.077 138.1C99.0029 137.874 98.9993 137.781 98.9993 136.527C98.9993 135.553 99.014 135.146 99.0511 135.009C99.077 134.909 99.1362 134.743 99.1843 134.639C99.2324 134.539 99.3731 134.355 99.4989 134.232C99.621 134.11 99.8135 133.966 99.9245 133.91C100.039 133.855 100.147 133.81 100.169 133.81ZM116.761 133.807C116.783 133.807 116.899 133.855 117.013 133.91C117.127 133.966 117.297 134.08 117.394 134.162C117.486 134.247 117.616 134.395 117.679 134.495C117.742 134.595 117.83 134.788 117.875 134.917C117.946 135.146 117.953 135.239 117.949 136.489C117.949 137.471 117.938 137.874 117.902 138.007C117.875 138.111 117.793 138.3 117.727 138.43C117.657 138.563 117.516 138.744 117.413 138.837C117.309 138.933 117.127 139.054 117.013 139.11C116.899 139.166 116.79 139.21 116.776 139.21C116.761 139.21 116.761 139.091 116.776 138.944C116.794 138.796 116.802 137.608 116.794 136.305C116.787 135.002 116.769 133.91 116.75 133.873C116.727 133.829 116.732 133.807 116.761 133.807ZM100.676 127.075C100.772 127.075 100.939 127.089 101.046 127.115C101.153 127.138 101.331 127.196 101.442 127.249C101.56 127.303 101.742 127.438 101.871 127.57C101.997 127.696 102.134 127.882 102.19 127.996C102.241 128.111 102.304 128.288 102.327 128.396C102.349 128.503 102.367 128.669 102.367 128.766C102.367 128.862 102.345 129.025 102.319 129.125C102.293 129.228 102.23 129.395 102.182 129.495C102.13 129.598 101.99 129.784 101.868 129.905C101.745 130.028 101.56 130.168 101.257 130.309V131.383L101.057 131.678C100.95 131.841 100.794 132.104 100.717 132.263C100.583 132.526 100.561 132.549 100.424 132.581C100.343 132.604 100.247 132.63 100.213 132.641C100.15 132.66 100.147 132.589 100.147 130.309L99.9024 130.18C99.7543 130.105 99.584 129.977 99.4841 129.865C99.3916 129.761 99.2731 129.595 99.2251 129.495C99.1769 129.395 99.114 129.228 99.0881 129.125C99.0585 129.025 99.0363 128.862 99.0363 128.766C99.0363 128.669 99.0548 128.503 99.077 128.396C99.1029 128.288 99.1621 128.111 99.2139 127.996C99.2694 127.878 99.4027 127.7 99.5359 127.57C99.658 127.448 99.8431 127.308 99.9431 127.259C100.047 127.212 100.213 127.149 100.313 127.126C100.417 127.1 100.58 127.078 100.676 127.075Z" fill="white"/>
</g>
</g>
<path opacity="0.3" d="M275.9 83.9627C288.762 97.9584 284.697 120.367 267.736 128.952L259.778 132.981M259.778 132.981L260.778 127.927M259.778 132.981L264.932 134.011" stroke="#333333" stroke-width="1.3" stroke-linecap="round" stroke-dasharray="4 4"/>
<path opacity="0.3" d="M176.792 52.3952H146.384M176.792 52.3952C177.651 49.818 180.4 44.2515 184.524 42.6021M176.792 52.3952C177.994 55.8314 181.328 62.91 185.039 63.7347" stroke="#333333" stroke-width="1.3" stroke-linecap="round" stroke-dasharray="4 4"/>
<g filter="url(#filter3_d_2_1657)">
<path d="M288.671 25.7715H197.897C191.366 25.7715 186.071 31.0662 186.071 37.5975C186.071 44.1289 191.366 49.4236 197.897 49.4236H288.671C295.202 49.4236 300.497 44.1289 300.497 37.5975C300.497 31.0662 295.202 25.7715 288.671 25.7715Z" fill="white"/>
<path d="M198.536 46.7069C203.655 46.7069 207.805 42.557 207.805 37.4378C207.805 32.3186 203.655 28.1687 198.536 28.1687C193.416 28.1687 189.266 32.3186 189.266 37.4378C189.266 42.557 193.416 46.7069 198.536 46.7069Z" fill="#ECECEC"/>
<path fill-rule="evenodd" clip-rule="evenodd" d="M195.499 36.1592C195.499 35.3963 195.802 34.6647 196.342 34.1251C196.881 33.5857 197.613 33.2826 198.376 33.2826C199.139 33.2826 199.871 33.5857 200.41 34.1251C200.949 34.6647 201.252 35.3963 201.252 36.1592C201.252 36.9222 200.949 37.6539 200.41 38.1933C199.871 38.7328 199.139 39.0358 198.376 39.0358C197.613 39.0358 196.881 38.7328 196.342 38.1933C195.802 37.6539 195.499 36.9222 195.499 36.1592ZM193.102 45.1758C193.123 43.7915 193.688 42.4712 194.675 41.4999C195.661 40.5285 196.991 39.9841 198.376 39.9841C199.76 39.9841 201.089 40.5285 202.076 41.4999C203.062 42.4712 203.627 43.7915 203.649 45.1758C203.651 45.269 203.625 45.3607 203.576 45.4396C203.526 45.5185 203.454 45.5813 203.369 45.6201C201.802 46.3381 200.099 47.0284 198.376 47.0264C196.594 47.0264 194.903 46.3181 193.381 45.6201C193.297 45.5813 193.225 45.5185 193.176 45.4396C193.126 45.3607 193.101 45.269 193.102 45.1758Z" fill="white"/>
<path opacity="0.5" d="M211.001 34.7516C211.001 33.8675 211.718 33.1507 212.602 33.1507H290.585C291.47 33.1507 292.186 33.8675 292.186 34.7516C292.186 35.6357 291.47 36.3524 290.585 36.3524H212.602C211.718 36.3524 211.001 35.6357 211.001 34.7516Z" fill="#D9D9D9"/>
<path opacity="0.5" d="M211.001 40.4433C211.001 39.5593 211.718 38.8425 212.602 38.8425H262.25C263.134 38.8425 263.851 39.5593 263.851 40.4433C263.851 41.3275 263.134 42.0443 262.25 42.0443H212.602C211.718 42.0443 211.001 41.3275 211.001 40.4433Z" fill="#D9D9D9"/>
<path d="M293.281 55.6663H198.441C191.894 55.6663 186.586 60.9739 186.586 67.5212C186.586 74.0685 191.894 79.3761 198.441 79.3761H293.281C299.828 79.3761 305.136 74.0685 305.136 67.5212C305.136 60.9739 299.828 55.6663 293.281 55.6663Z" fill="white"/>
<path d="M199.051 76.6303C204.17 76.6303 208.32 72.4804 208.32 67.3613C208.32 62.2421 204.17 58.0922 199.051 58.0922C193.932 58.0922 189.782 62.2421 189.782 67.3613C189.782 72.4804 193.932 76.6303 199.051 76.6303Z" fill="#BFBFBF"/>
<path fill-rule="evenodd" clip-rule="evenodd" d="M196.014 66.0832C196.014 65.3202 196.317 64.5885 196.857 64.0491C197.396 63.5096 198.128 63.2066 198.891 63.2066C199.654 63.2066 200.386 63.5096 200.925 64.0491C201.464 64.5885 201.767 65.3202 201.767 66.0832C201.767 66.8461 201.464 67.5777 200.925 68.1173C200.386 68.6567 199.654 68.9598 198.891 68.9598C198.128 68.9598 197.396 68.6567 196.857 68.1173C196.317 67.5777 196.014 66.8461 196.014 66.0832ZM193.617 75.0997C193.639 73.7155 194.204 72.3951 195.19 71.4238C196.177 70.4525 197.507 69.9081 198.891 69.9081C200.276 69.9081 201.605 70.4525 202.591 71.4238C203.578 72.3951 204.143 73.7155 204.164 75.0997C204.166 75.193 204.141 75.2846 204.091 75.3635C204.042 75.4425 203.969 75.5051 203.885 75.544C202.318 76.262 200.615 76.9524 198.891 76.9504C197.11 76.9504 195.418 76.2421 193.897 75.544C193.812 75.5051 193.741 75.4425 193.691 75.3635C193.642 75.2846 193.616 75.193 193.617 75.0997Z" fill="white"/>
<path opacity="0.5" d="M211.517 64.6754C211.517 63.7912 212.233 63.0745 213.118 63.0745H277.763C278.648 63.0745 279.364 63.7912 279.364 64.6754C279.364 65.5595 278.648 66.2762 277.763 66.2762H213.118C212.233 66.2762 211.517 65.5595 211.517 64.6754Z" fill="#D9D9D9"/>
<path opacity="0.5" d="M211.517 70.3671C211.517 69.4829 212.233 68.7662 213.118 68.7662H254.083C254.968 68.7662 255.684 69.4829 255.684 70.3671C255.684 71.2511 254.968 71.9679 254.083 71.9679H213.118C212.233 71.9679 211.517 71.2511 211.517 70.3671Z" fill="#D9D9D9"/>
<path d="M293.06 61.9488C293.009 61.9058 292.947 61.8758 292.881 61.8615C292.815 61.847 292.747 61.8488 292.681 61.8663C292.616 61.8838 292.556 61.9167 292.506 61.9623C292.456 62.0078 292.418 62.0645 292.395 62.1278L291.236 65.2992L289.962 64.0703C289.919 64.0289 289.868 63.9971 289.812 63.9769C289.755 63.9567 289.697 63.9484 289.637 63.9529C289.577 63.9573 289.519 63.9742 289.467 64.0024C289.415 64.0308 289.369 64.0698 289.333 64.117C288.192 65.6069 287.611 67.1056 287.611 68.5714C287.611 69.7967 288.1 70.9717 288.97 71.8381C289.84 72.7044 291.02 73.1912 292.25 73.1912C293.48 73.1912 294.66 72.7044 295.53 71.8381C296.401 70.9717 296.889 69.7967 296.889 68.5714C296.889 65.4504 294.212 62.9016 293.06 61.9488Z" fill="#BFBFBF"/>
<path d="M293.281 25.7715H198.441C191.894 25.7715 186.586 31.0791 186.586 37.6263C186.586 44.1736 191.894 49.4812 198.441 49.4812H293.281C299.828 49.4812 305.136 44.1736 305.136 37.6263C305.136 31.0791 299.828 25.7715 293.281 25.7715Z" fill="white"/>
<path d="M199.051 46.7357C204.17 46.7357 208.32 42.5858 208.32 37.4666C208.32 32.3475 204.17 28.1975 199.051 28.1975C193.932 28.1975 189.782 32.3475 189.782 37.4666C189.782 42.5858 193.932 46.7357 199.051 46.7357Z" fill="#BFBFBF"/>
<path fill-rule="evenodd" clip-rule="evenodd" d="M196.014 36.1881C196.014 35.4252 196.317 34.6934 196.857 34.154C197.396 33.6145 198.128 33.3115 198.891 33.3115C199.654 33.3115 200.386 33.6145 200.925 34.154C201.464 34.6934 201.767 35.4252 201.767 36.1881C201.767 36.951 201.464 37.6826 200.925 38.2222C200.386 38.7616 199.654 39.0647 198.891 39.0647C198.128 39.0647 197.396 38.7616 196.857 38.2222C196.317 37.6826 196.014 36.951 196.014 36.1881ZM193.617 45.2046C193.639 43.8204 194.204 42.5 195.19 41.5287C196.177 40.5574 197.507 40.013 198.891 40.013C200.276 40.013 201.605 40.5574 202.591 41.5287C203.578 42.5 204.143 43.8204 204.164 45.2046C204.166 45.2979 204.141 45.3895 204.091 45.4684C204.042 45.5474 203.969 45.61 203.885 45.6489C202.318 46.3669 200.615 47.0573 198.891 47.0553C197.11 47.0553 195.418 46.347 193.897 45.6489C193.812 45.61 193.741 45.5474 193.691 45.4684C193.642 45.3895 193.616 45.2979 193.617 45.2046Z" fill="white"/>
<path opacity="0.5" d="M211.517 34.7805C211.517 33.8964 212.233 33.1796 213.118 33.1796H277.763C278.648 33.1796 279.364 33.8964 279.364 34.7805C279.364 35.6646 278.648 36.3814 277.763 36.3814H213.118C212.233 36.3814 211.517 35.6646 211.517 34.7805Z" fill="#D9D9D9"/>
<path opacity="0.5" d="M211.517 40.4722C211.517 39.588 212.233 38.8714 213.118 38.8714H254.083C254.968 38.8714 255.684 39.588 255.684 40.4722C255.684 41.3563 254.968 42.073 254.083 42.073H213.118C212.233 42.073 211.517 41.3563 211.517 40.4722Z" fill="#D9D9D9"/>
<path d="M293.06 32.0537C293.009 32.0107 292.947 31.9807 292.881 31.9664C292.815 31.9519 292.747 31.9537 292.681 31.9712C292.616 31.9887 292.556 32.0216 292.506 32.0672C292.456 32.1127 292.418 32.1694 292.395 32.2327L291.236 35.4041L289.962 34.1752C289.919 34.1338 289.868 34.102 289.812 34.0818C289.755 34.0616 289.697 34.0533 289.637 34.0578C289.577 34.0622 289.519 34.0791 289.467 34.1073C289.415 34.1357 289.369 34.1747 289.333 34.2219C288.192 35.7118 287.611 37.2105 287.611 38.6763C287.611 39.9016 288.1 41.0766 288.97 41.943C289.84 42.8093 291.02 43.2961 292.25 43.2961C293.48 43.2961 294.66 42.8093 295.53 41.943C296.401 41.0766 296.889 39.9016 296.889 38.6763C296.889 35.5553 294.212 33.0065 293.06 32.0537Z" fill="#BFBFBF"/>
</g>
<path d="M26.8025 38.1419C26.8025 32.4486 31.4179 27.8333 37.1111 27.8333H150.506C156.2 27.8333 160.815 32.4486 160.815 38.1419V65.9751C160.815 71.6684 156.2 76.2837 150.506 76.2837H37.1111C31.4179 76.2837 26.8025 71.6683 26.8025 65.9751V38.1419Z" fill="#333333"/>
<path d="M48.1333 41.4132C48.038 41.334 47.925 41.2788 47.804 41.2524C47.6828 41.2259 47.5572 41.229 47.4375 41.2613C47.3178 41.2937 47.2077 41.3543 47.1163 41.438C47.025 41.5218 46.9551 41.6263 46.9126 41.7428L44.7864 47.581L42.4514 45.3185C42.373 45.2425 42.2794 45.1839 42.1767 45.1467C42.074 45.1095 41.9645 45.0944 41.8556 45.1026C41.7467 45.1107 41.6407 45.1417 41.5447 45.1938C41.4487 45.2459 41.3648 45.3177 41.2985 45.4046C39.2052 48.1473 38.142 50.9064 38.142 53.6047C38.142 55.8603 39.038 58.0235 40.633 59.6184C42.2279 61.2134 44.3913 62.1093 46.6469 62.1093C48.9025 62.1093 51.0658 61.2134 52.6607 59.6184C54.2557 58.0235 55.1518 55.8603 55.1518 53.6047C55.1518 47.8593 50.2431 43.1672 48.1333 41.4132Z" fill="url(#paint1_linear_2_1657)"/>
<path d="M68.8916 48.5864C68.2717 48.5864 67.6934 48.4768 67.1567 48.2575C66.6199 48.0383 66.1513 47.7321 65.7506 47.339C65.3499 46.946 65.0362 46.4848 64.8094 45.9556C64.5901 45.4188 64.4805 44.8405 64.4805 44.2207C64.4805 43.5932 64.5901 43.0149 64.8094 42.4857C65.0286 41.9566 65.3385 41.4954 65.7392 41.1023C66.1399 40.7093 66.6085 40.4068 67.1453 40.1952C67.6821 39.9759 68.2641 39.8663 68.8916 39.8663C69.5191 39.8663 70.1011 39.9759 70.6379 40.1952C71.1747 40.4144 71.6433 40.7206 72.044 41.1137C72.4447 41.4992 72.7546 41.9566 72.9738 42.4857C73.2006 43.0149 73.314 43.5932 73.314 44.2207C73.314 44.8405 73.2006 45.4188 72.9738 45.9556C72.747 46.4848 72.4333 46.946 72.0326 47.339C71.6319 47.7321 71.1633 48.0383 70.6265 48.2575C70.0974 48.4768 69.5191 48.5864 68.8916 48.5864ZM68.8916 47.1803C69.3074 47.1803 69.6892 47.1084 70.0369 46.9648C70.3846 46.8136 70.6871 46.6058 70.9441 46.3412C71.2087 46.0765 71.409 45.7628 71.545 45.4C71.6886 45.0371 71.7605 44.644 71.7605 44.2207C71.7605 43.7973 71.6886 43.408 71.545 43.0527C71.409 42.6898 71.2087 42.3762 70.9441 42.1115C70.6871 41.8394 70.3846 41.6315 70.0369 41.4879C69.6892 41.3443 69.3074 41.2724 68.8916 41.2724C68.4834 41.2724 68.1054 41.3443 67.7576 41.4879C67.4099 41.6315 67.1038 41.8394 66.8391 42.1115C66.5822 42.3762 66.3818 42.6898 66.2382 43.0527C66.0946 43.408 66.0227 43.7973 66.0227 44.2207C66.0227 44.644 66.0946 45.0371 66.2382 45.4C66.3818 45.7628 66.5822 46.0765 66.8391 46.3412C67.1038 46.6058 67.4099 46.8136 67.7576 46.9648C68.1054 47.1084 68.4834 47.1803 68.8916 47.1803ZM70.842 49.4708L68.2112 45.0711H69.8214L72.4862 49.4708H70.842ZM76.7604 48.5864C76.2841 48.5864 75.8684 48.4805 75.513 48.2689C75.1653 48.0572 74.897 47.7624 74.7079 47.3844C74.5265 47.0064 74.4358 46.5641 74.4358 46.0577V42.2816H75.9213V45.9329C75.9213 46.1899 75.9704 46.4167 76.0687 46.6133C76.1746 46.8023 76.322 46.9535 76.5109 47.0669C76.7075 47.1727 76.9268 47.2256 77.1686 47.2256C77.4106 47.2256 77.626 47.1727 77.815 47.0669C78.004 46.9535 78.1514 46.7985 78.2572 46.602C78.3631 46.4054 78.416 46.1711 78.416 45.8989V42.2816H79.9014V48.4503H78.4953V47.237L78.6201 47.4524C78.4765 47.8304 78.2383 48.1139 77.9057 48.3029C77.5806 48.4918 77.1989 48.5864 76.7604 48.5864ZM83.1533 48.5864C82.7224 48.5864 82.3482 48.5145 82.0307 48.3709C81.7132 48.2273 81.4675 48.0232 81.2936 47.7586C81.1198 47.4864 81.0328 47.1727 81.0328 46.8174C81.0328 46.4772 81.1085 46.1749 81.2596 45.9103C81.4108 45.6381 81.6451 45.4113 81.9626 45.2299C82.2802 45.0485 82.6809 44.9199 83.1646 44.8443L85.1831 44.5155V45.6494L83.4481 45.9443C83.1533 45.9972 82.9341 46.0917 82.7904 46.2278C82.6468 46.3638 82.575 46.5414 82.575 46.7607C82.575 46.9723 82.6544 47.1424 82.8131 47.271C82.9795 47.3919 83.1836 47.4524 83.4254 47.4524C83.7354 47.4524 84.0076 47.3882 84.2419 47.2596C84.4838 47.1236 84.6691 46.9383 84.7975 46.704C84.9336 46.4697 85.0016 46.2126 85.0016 45.9329V44.3454C85.0016 44.0808 84.8959 43.8616 84.6841 43.6877C84.48 43.5063 84.2079 43.4156 83.8677 43.4156C83.5502 43.4156 83.2667 43.5025 83.0172 43.6764C82.7754 43.8427 82.5977 44.0657 82.4843 44.3454L81.2709 43.7558C81.392 43.4307 81.5809 43.151 81.8379 42.9166C82.1025 42.6747 82.4125 42.4857 82.7678 42.3497C83.1231 42.2136 83.5086 42.1456 83.9244 42.1456C84.4309 42.1456 84.8769 42.2401 85.2625 42.429C85.648 42.6105 85.9466 42.8675 86.1583 43.2001C86.3775 43.5252 86.4871 43.907 86.4871 44.3454V48.4503H85.081V47.3957L85.3985 47.373C85.2398 47.6377 85.0508 47.8606 84.8315 48.0421C84.6124 48.216 84.3629 48.352 84.0831 48.4503C83.8035 48.541 83.4935 48.5864 83.1533 48.5864ZM87.8601 48.4503V39.8663H89.3456V48.4503H87.8601ZM90.7172 48.4503V42.2816H92.2026V48.4503H90.7172ZM90.7172 41.5899V40.0024H92.2026V41.5899H90.7172ZM94.2886 48.4503V43.6083H93.2V42.2816H94.2886V42.0775C94.2886 41.6088 94.383 41.2119 94.5721 40.8869C94.7686 40.5542 95.0407 40.301 95.3885 40.1271C95.7362 39.9532 96.1483 39.8663 96.6245 39.8663C96.7152 39.8663 96.8135 39.8739 96.9194 39.889C97.0328 39.8965 97.1272 39.9079 97.2028 39.923V41.2044C97.1272 41.1892 97.0554 41.1817 96.9874 41.1817C96.9269 41.1742 96.8702 41.1704 96.8173 41.1704C96.4846 41.1704 96.2277 41.2459 96.0462 41.3972C95.8648 41.5408 95.7741 41.7675 95.7741 42.0775V42.2816H97.1462V43.6083H95.7741V48.4503H94.2886ZM98.9292 50.945C98.763 50.945 98.6004 50.9298 98.4416 50.8996C98.2829 50.8769 98.1393 50.8316 98.0107 50.7635V49.5275C98.109 49.5502 98.2262 49.5729 98.3623 49.5956C98.5059 49.6183 98.6382 49.6296 98.7591 49.6296C99.0993 49.6296 99.345 49.5502 99.4962 49.3915C99.655 49.2402 99.7949 49.0361 99.9158 48.7791L100.324 47.8266L100.301 49.074L97.6139 42.2816H99.2127L101.095 47.2937H100.528L102.399 42.2816H104.009L101.322 49.074C101.163 49.467 100.97 49.8035 100.744 50.0832C100.517 50.3628 100.252 50.5746 99.9498 50.7182C99.655 50.8694 99.3148 50.945 98.9292 50.945ZM109.222 48.4503L106.274 40.0024H107.952L110.265 46.9988H109.936L112.25 40.0024H113.928L110.991 48.4503H109.222ZM114.748 48.4503V42.2816H116.233V48.4503H114.748ZM114.748 41.5899V40.0024H116.233V41.5899H114.748ZM119.951 48.5864C119.294 48.5864 118.719 48.4314 118.228 48.1214C117.744 47.8039 117.411 47.3769 117.23 46.8401L118.341 46.3071C118.5 46.6548 118.719 46.927 118.999 47.1236C119.286 47.3202 119.604 47.4184 119.951 47.4184C120.223 47.4184 120.439 47.3579 120.598 47.237C120.756 47.1161 120.836 46.9573 120.836 46.7607C120.836 46.6398 120.802 46.5414 120.734 46.4659C120.673 46.3827 120.586 46.3147 120.473 46.2618C120.367 46.2013 120.25 46.1522 120.121 46.1144L119.112 45.8309C118.591 45.6796 118.194 45.4491 117.922 45.1392C117.657 44.8292 117.525 44.4626 117.525 44.0392C117.525 43.6612 117.62 43.3324 117.808 43.0527C118.005 42.7654 118.273 42.5424 118.613 42.3837C118.961 42.2249 119.358 42.1456 119.804 42.1456C120.386 42.1456 120.9 42.2854 121.346 42.5651C121.792 42.8448 122.11 43.238 122.299 43.7444L121.165 44.2774C121.058 43.9977 120.881 43.7746 120.632 43.6083C120.382 43.4421 120.103 43.3589 119.793 43.3589C119.543 43.3589 119.346 43.4156 119.203 43.529C119.06 43.6424 118.987 43.7898 118.987 43.9712C118.987 44.0846 119.017 44.1828 119.078 44.266C119.139 44.3492 119.221 44.4173 119.328 44.4701C119.441 44.523 119.57 44.5722 119.713 44.6176L120.7 44.9124C121.206 45.0636 121.596 45.2904 121.868 45.5927C122.147 45.8951 122.287 46.2656 122.287 46.704C122.287 47.0744 122.189 47.4032 121.992 47.6905C121.796 47.9702 121.523 48.1895 121.176 48.3482C120.829 48.507 120.42 48.5864 119.951 48.5864ZM123.429 48.4503V42.2816H124.915V48.4503H123.429ZM123.429 41.5899V40.0024H124.915V41.5899H123.429ZM129.098 48.5183C128.402 48.5183 127.862 48.3294 127.477 47.9514C127.098 47.5658 126.91 47.0253 126.91 46.3298V43.6083H125.844V42.2816H125.957C126.259 42.2816 126.494 42.2023 126.66 42.0435C126.826 41.8847 126.91 41.6541 126.91 41.3518V40.8755H128.395V42.2816H129.813V43.6083H128.395V46.2504C128.395 46.4545 128.429 46.6285 128.497 46.7721C128.572 46.9157 128.686 47.0253 128.837 47.1009C128.996 47.1765 129.196 47.2143 129.438 47.2143C129.491 47.2143 129.552 47.2105 129.62 47.203C129.695 47.1954 129.767 47.1878 129.835 47.1803V48.4503C129.729 48.4654 129.608 48.4805 129.472 48.4956C129.336 48.5108 129.212 48.5183 129.098 48.5183ZM133.931 48.5864C133.327 48.5864 132.774 48.4465 132.275 48.1668C131.785 47.8871 131.391 47.5053 131.096 47.0215C130.809 46.5377 130.665 45.9858 130.665 45.366C130.665 44.7461 130.809 44.1942 131.096 43.7104C131.391 43.2266 131.785 42.8448 132.275 42.5651C132.767 42.2854 133.319 42.1456 133.931 42.1456C134.536 42.1456 135.084 42.2854 135.575 42.5651C136.067 42.8448 136.457 43.2266 136.743 43.7104C137.038 44.1867 137.185 44.7385 137.185 45.366C137.185 45.9858 137.038 46.5377 136.743 47.0215C136.448 47.5053 136.056 47.8871 135.564 48.1668C135.073 48.4465 134.529 48.5864 133.931 48.5864ZM133.931 47.2256C134.264 47.2256 134.555 47.1463 134.804 46.9875C135.062 46.8287 135.262 46.6095 135.405 46.3298C135.557 46.0425 135.632 45.7213 135.632 45.366C135.632 45.0031 135.557 44.6856 135.405 44.4134C135.262 44.1338 135.062 43.9145 134.804 43.7558C134.555 43.5895 134.264 43.5063 133.931 43.5063C133.591 43.5063 133.293 43.5895 133.035 43.7558C132.778 43.9145 132.574 44.1338 132.423 44.4134C132.279 44.6856 132.207 45.0031 132.207 45.366C132.207 45.7213 132.279 46.0425 132.423 46.3298C132.574 46.6095 132.778 46.8287 133.035 46.9875C133.293 47.1463 133.591 47.2256 133.931 47.2256ZM138.312 48.4503V42.2816H139.707V43.6537L139.593 43.4496C139.737 42.9885 139.96 42.6672 140.262 42.4857C140.573 42.3043 140.943 42.2136 141.374 42.2136H141.737V43.529H141.204C140.78 43.529 140.44 43.6612 140.183 43.9258C139.926 44.1828 139.798 44.5457 139.798 45.0144V48.4503H138.312ZM144.9 48.5864C144.243 48.5864 143.668 48.4314 143.177 48.1214C142.693 47.8039 142.36 47.3769 142.179 46.8401L143.29 46.3071C143.449 46.6548 143.668 46.927 143.948 47.1236C144.235 47.3202 144.553 47.4184 144.9 47.4184C145.172 47.4184 145.388 47.3579 145.547 47.237C145.705 47.1161 145.785 46.9573 145.785 46.7607C145.785 46.6398 145.751 46.5414 145.683 46.4659C145.623 46.3827 145.535 46.3147 145.422 46.2618C145.317 46.2013 145.199 46.1522 145.07 46.1144L144.061 45.8309C143.54 45.6796 143.143 45.4491 142.871 45.1392C142.607 44.8292 142.474 44.4626 142.474 44.0392C142.474 43.6612 142.569 43.3324 142.757 43.0527C142.954 42.7654 143.222 42.5424 143.562 42.3837C143.911 42.2249 144.308 42.1456 144.753 42.1456C145.335 42.1456 145.85 42.2854 146.295 42.5651C146.741 42.8448 147.059 43.238 147.248 43.7444L146.114 44.2774C146.008 43.9977 145.83 43.7746 145.581 43.6083C145.331 43.4421 145.052 43.3589 144.742 43.3589C144.492 43.3589 144.296 43.4156 144.152 43.529C144.009 43.6424 143.936 43.7898 143.936 43.9712C143.936 44.0846 143.967 44.1828 144.027 44.266C144.088 44.3492 144.171 44.4173 144.277 44.4701C144.39 44.523 144.519 44.5722 144.662 44.6176L145.649 44.9124C146.156 45.0636 146.545 45.2904 146.817 45.5927C147.097 45.8951 147.236 46.2656 147.236 46.704C147.236 47.0744 147.138 47.4032 146.941 47.6905C146.746 47.9702 146.473 48.1895 146.125 48.3482C145.778 48.507 145.369 48.5864 144.9 48.5864ZM64.73 63.9132V55.4653H66.2722V59.1506H69.8668V55.4653H71.4203V63.9132H69.8668V60.5113H66.2722V63.9132H64.73ZM75.938 64.0492C75.3332 64.0492 74.7813 63.9094 74.2824 63.6297C73.791 63.35 73.3979 62.9682 73.1031 62.4844C72.8158 62.0006 72.6722 61.4487 72.6722 60.8288C72.6722 60.209 72.8158 59.6571 73.1031 59.1733C73.3979 58.6895 73.791 58.3077 74.2824 58.028C74.7737 57.7483 75.3256 57.6084 75.938 57.6084C76.5427 57.6084 77.0908 57.7483 77.5822 58.028C78.0735 58.3077 78.4629 58.6895 78.7502 59.1733C79.045 59.6495 79.1924 60.2014 79.1924 60.8288C79.1924 61.4487 79.045 62.0006 78.7502 62.4844C78.4553 62.9682 78.0622 63.35 77.5709 63.6297C77.0794 63.9094 76.5351 64.0492 75.938 64.0492ZM75.938 62.6885C76.2705 62.6885 76.5616 62.6091 76.8111 62.4504C77.0681 62.2916 77.2684 62.0724 77.4121 61.7927C77.5632 61.5054 77.6389 61.1842 77.6389 60.8288C77.6389 60.466 77.5632 60.1485 77.4121 59.8763C77.2684 59.5967 77.0681 59.3774 76.8111 59.2186C76.5616 59.0524 76.2705 58.9692 75.938 58.9692C75.5978 58.9692 75.2991 59.0524 75.0422 59.2186C74.7851 59.3774 74.5809 59.5967 74.4298 59.8763C74.2861 60.1485 74.2144 60.466 74.2144 60.8288C74.2144 61.1842 74.2861 61.5054 74.4298 61.7927C74.5809 62.0724 74.7851 62.2916 75.0422 62.4504C75.2991 62.6091 75.5978 62.6885 75.938 62.6885ZM83.0203 63.9812C82.3249 63.9812 81.7843 63.7923 81.3988 63.4142C81.0209 63.0287 80.8318 62.4882 80.8318 61.7927V59.0712H79.7659V57.7445H79.8793C80.1817 57.7445 80.416 57.6651 80.5823 57.5064C80.7487 57.3476 80.8318 57.117 80.8318 56.8147V56.3384H82.3173V57.7445H83.7347V59.0712H82.3173V61.7133C82.3173 61.9174 82.3513 62.0913 82.4193 62.2349C82.495 62.3785 82.6084 62.4882 82.7595 62.5638C82.9183 62.6393 83.1187 62.6772 83.3605 62.6772C83.4135 62.6772 83.4739 62.6734 83.5419 62.6658C83.6176 62.6583 83.6894 62.6507 83.7574 62.6432V63.9132C83.6516 63.9283 83.5306 63.9434 83.3945 63.9585C83.2584 63.9737 83.1337 63.9812 83.0203 63.9812ZM87.0325 63.9132V55.4653H88.5747V62.5524H92.192V63.9132H87.0325ZM95.9903 64.0492C95.3553 64.0492 94.7997 63.9056 94.3234 63.6183C93.8472 63.331 93.4768 62.9418 93.2122 62.4504C92.9476 61.959 92.8153 61.4147 92.8153 60.8175C92.8153 60.1976 92.9476 59.6495 93.2122 59.1733C93.4843 58.6895 93.851 58.3077 94.3121 58.028C94.7808 57.7483 95.3025 57.6084 95.8769 57.6084C96.3608 57.6084 96.7841 57.6878 97.147 57.8466C97.5175 58.0053 97.8312 58.2246 98.0882 58.5043C98.3452 58.7839 98.5417 59.1052 98.6778 59.4681C98.8139 59.8234 98.8819 60.209 98.8819 60.6247C98.8819 60.7306 98.8744 60.8402 98.8592 60.9536C98.8517 61.067 98.8328 61.1652 98.8025 61.2484H94.04V60.1145H97.9634L97.2604 60.6474C97.3284 60.2997 97.3095 59.9897 97.2037 59.7176C97.1054 59.4454 96.9392 59.23 96.7047 59.0712C96.4779 58.9125 96.2021 58.8331 95.8769 58.8331C95.5671 58.8331 95.2911 58.9125 95.0492 59.0712C94.8073 59.2225 94.6221 59.4492 94.4935 59.7516C94.3726 60.0464 94.3273 60.4055 94.3575 60.8288C94.3273 61.2069 94.3764 61.5432 94.5049 61.8381C94.6409 62.1254 94.8375 62.3483 95.0945 62.5071C95.3591 62.6658 95.6615 62.7452 96.0017 62.7452C96.3419 62.7452 96.6292 62.6734 96.8635 62.5298C97.1054 62.3862 97.2944 62.1934 97.4305 61.9514L98.6324 62.5411C98.5115 62.8359 98.3226 63.0967 98.0655 63.3235C97.8085 63.5503 97.5023 63.7279 97.147 63.8565C96.7993 63.985 96.4137 64.0492 95.9903 64.0492ZM101.857 64.0492C101.426 64.0492 101.052 63.9774 100.734 63.8338C100.417 63.6902 100.171 63.4861 99.9972 63.2215C99.8233 62.9493 99.7364 62.6356 99.7364 62.2803C99.7364 61.9401 99.812 61.6378 99.9632 61.3731C100.114 61.101 100.349 60.8742 100.666 60.6928C100.984 60.5113 101.384 60.3828 101.868 60.3072L103.886 59.9784V61.1123L102.152 61.4072C101.857 61.46 101.638 61.5546 101.494 61.6906C101.35 61.8267 101.279 62.0043 101.279 62.2236C101.279 62.4352 101.358 62.6053 101.517 62.7339C101.683 62.8548 101.887 62.9153 102.129 62.9153C102.439 62.9153 102.711 62.8511 102.945 62.7225C103.187 62.5865 103.373 62.4012 103.501 62.1669C103.637 61.9326 103.705 61.6755 103.705 61.3958V59.8083C103.705 59.5437 103.6 59.3245 103.387 59.1506C103.183 58.9692 102.911 58.8785 102.571 58.8785C102.254 58.8785 101.97 58.9654 101.721 59.1393C101.479 59.3055 101.301 59.5286 101.188 59.8083L99.9745 59.2186C100.095 58.8936 100.285 58.6138 100.542 58.3795C100.806 58.1376 101.116 57.9486 101.471 57.8126C101.827 57.6765 102.212 57.6084 102.628 57.6084C103.135 57.6084 103.58 57.703 103.966 57.8919C104.351 58.0734 104.65 58.3304 104.862 58.663C105.081 58.988 105.19 59.3699 105.19 59.8083V63.9132H103.784V62.8586L104.102 62.8359C103.943 63.1005 103.754 63.3235 103.535 63.505C103.316 63.6789 103.066 63.8149 102.787 63.9132C102.507 64.0039 102.197 64.0492 101.857 64.0492ZM109.432 64.0492C108.836 64.0492 108.303 63.9094 107.834 63.6297C107.364 63.3424 106.994 62.9531 106.722 62.4617C106.45 61.9703 106.314 61.426 106.314 60.8288C106.314 60.224 106.45 59.6797 106.722 59.196C106.994 58.7122 107.364 58.3266 107.834 58.0393C108.31 57.752 108.839 57.6084 109.421 57.6084C109.89 57.6084 110.306 57.703 110.668 57.8919C111.038 58.0734 111.33 58.3304 111.542 58.663L111.315 58.9692V55.3292H112.8V63.9132H111.394V62.7225L111.553 63.0174C111.342 63.35 111.047 63.607 110.668 63.7884C110.29 63.9623 109.879 64.0492 109.432 64.0492ZM109.591 62.6885C109.931 62.6885 110.23 62.6091 110.487 62.4504C110.744 62.2916 110.945 62.0724 111.088 61.7927C111.24 61.513 111.315 61.1917 111.315 60.8288C111.315 60.4735 111.24 60.156 111.088 59.8763C110.945 59.589 110.744 59.3661 110.487 59.2073C110.23 59.0485 109.931 58.9692 109.591 58.9692C109.258 58.9692 108.96 59.0524 108.695 59.2186C108.43 59.3774 108.223 59.5967 108.072 59.8763C107.928 60.1485 107.856 60.466 107.856 60.8288C107.856 61.1917 107.928 61.513 108.072 61.7927C108.223 62.0724 108.43 62.2916 108.695 62.4504C108.96 62.6091 109.258 62.6885 109.591 62.6885ZM116.53 64.0492C115.872 64.0492 115.297 63.8943 114.806 63.5843C114.322 63.2668 113.99 62.8397 113.808 62.303L114.92 61.77C115.078 62.1177 115.297 62.3899 115.577 62.5865C115.864 62.783 116.181 62.8813 116.53 62.8813C116.802 62.8813 117.018 62.8208 117.176 62.6999C117.335 62.5789 117.414 62.4202 117.414 62.2236C117.414 62.1027 117.38 62.0043 117.312 61.9288C117.252 61.8456 117.165 61.7775 117.052 61.7247C116.945 61.6641 116.828 61.6151 116.7 61.5772L115.691 61.2938C115.169 61.1425 114.772 60.912 114.5 60.6021C114.235 60.2921 114.103 59.9255 114.103 59.5021C114.103 59.1241 114.197 58.7953 114.387 58.5156C114.583 58.2283 114.852 58.0053 115.192 57.8466C115.539 57.6878 115.936 57.6084 116.382 57.6084C116.964 57.6084 117.478 57.7483 117.925 58.028C118.37 58.3077 118.688 58.7008 118.877 59.2073L117.743 59.7403C117.637 59.4606 117.46 59.2375 117.21 59.0712C116.961 58.905 116.68 58.8218 116.371 58.8218C116.122 58.8218 115.925 58.8785 115.781 58.9919C115.637 59.1052 115.566 59.2527 115.566 59.4341C115.566 59.5475 115.596 59.6457 115.657 59.7289C115.717 59.8121 115.8 59.8801 115.906 59.933C116.02 59.9859 116.147 60.0351 116.292 60.0804L117.278 60.3753C117.784 60.5265 118.174 60.7533 118.446 61.0556C118.726 61.358 118.866 61.7285 118.866 62.1669C118.866 62.5373 118.767 62.8661 118.571 63.1534C118.374 63.4331 118.102 63.6524 117.755 63.8111C117.406 63.9699 116.998 64.0492 116.53 64.0492Z" fill="white"/>
</g>
</g>
<defs>
<filter id="filter0_d_2_1657" x="41.6656" y="95.6918" width="252.731" height="133.15" filterUnits="userSpaceOnUse" color-interpolation-filters="sRGB">
<feFlood flood-opacity="0" result="BackgroundImageFix"/>
<feColorMatrix in="SourceAlpha" type="matrix" values="0 0 0 0 0 0 0 0 0 0 0 0 0 0 0 0 0 0 127 0" result="hardAlpha"/>
<feOffset dy="28.1976"/>
<feGaussianBlur stdDeviation="21.389"/>
<feComposite in2="hardAlpha" operator="out"/>
<feColorMatrix type="matrix" values="0 0 0 0 0 0 0 0 0 0 0 0 0 0 0 0 0 0 0.1 0"/>
<feBlend mode="normal" in2="BackgroundImageFix" result="effect1_dropShadow_2_1657"/>
<feBlend mode="normal" in="SourceGraphic" in2="effect1_dropShadow_2_1657" result="shape"/>
</filter>
<filter id="filter1_d_2_1657" x="70.1125" y="97.2394" width="78.0048" height="78.0047" filterUnits="userSpaceOnUse" color-interpolation-filters="sRGB">
<feFlood flood-opacity="0" result="BackgroundImageFix"/>
<feColorMatrix in="SourceAlpha" type="matrix" values="0 0 0 0 0 0 0 0 0 0 0 0 0 0 0 0 0 0 127 0" result="hardAlpha"/>
<feOffset dy="2.38205"/>
<feGaussianBlur stdDeviation="9.7664"/>
<feComposite in2="hardAlpha" operator="out"/>
<feColorMatrix type="matrix" values="0 0 0 0 1 0 0 0 0 0.380392 0 0 0 0 0.278431 0 0 0 0.05 0"/>
<feBlend mode="normal" in2="BackgroundImageFix" result="effect1_dropShadow_2_1657"/>
<feBlend mode="normal" in="SourceGraphic" in2="effect1_dropShadow_2_1657" result="shape"/>
</filter>
<filter id="filter2_d_2_1657" x="63.5802" y="105.528" width="91.0694" height="91.0693" filterUnits="userSpaceOnUse" color-interpolation-filters="sRGB">
<feFlood flood-opacity="0" result="BackgroundImageFix"/>
<feColorMatrix in="SourceAlpha" type="matrix" values="0 0 0 0 0 0 0 0 0 0 0 0 0 0 0 0 0 0 127 0" result="hardAlpha"/>
<feOffset dy="17.1724"/>
<feGaussianBlur stdDeviation="13.0259"/>
<feComposite in2="hardAlpha" operator="out"/>
<feColorMatrix type="matrix" values="0 0 0 0 0 0 0 0 0 0 0 0 0 0 0 0 0 0 0.1 0"/>
<feBlend mode="normal" in2="BackgroundImageFix" result="effect1_dropShadow_2_1657"/>
<feBlend mode="normal" in="SourceGraphic" in2="effect1_dropShadow_2_1657" result="shape"/>
</filter>
<filter id="filter3_d_2_1657" x="143.985" y="11.7429" width="203.236" height="137.776" filterUnits="userSpaceOnUse" color-interpolation-filters="sRGB">
<feFlood flood-opacity="0" result="BackgroundImageFix"/>
<feColorMatrix in="SourceAlpha" type="matrix" values="0 0 0 0 0 0 0 0 0 0 0 0 0 0 0 0 0 0 127 0" result="hardAlpha"/>
<feOffset dy="28"/>
<feGaussianBlur stdDeviation="21"/>
<feComposite in2="hardAlpha" operator="out"/>
<feColorMatrix type="matrix" values="0 0 0 0 0 0 0 0 0 0 0 0 0 0 0 0 0 0 0.1 0"/>
<feBlend mode="normal" in2="BackgroundImageFix" result="effect1_dropShadow_2_1657"/>
<feBlend mode="normal" in="SourceGraphic" in2="effect1_dropShadow_2_1657" result="shape"/>
</filter>
<linearGradient id="paint0_linear_2_1657" x1="93.3902" y1="113.594" x2="113.326" y2="56.5883" gradientUnits="userSpaceOnUse">
<stop stop-color="#FF7860"/>
<stop offset="0.273855" stop-color="#E9A183"/>
<stop offset="0.532302" stop-color="#AE5EE1"/>
<stop offset="0.779838" stop-color="#AE5EE1"/>
<stop offset="1" stop-color="#F41D51"/>
</linearGradient>
<linearGradient id="paint1_linear_2_1657" x1="38.142" y1="36.7581" x2="61.3466" y2="70.3383" gradientUnits="userSpaceOnUse">
<stop offset="0.175295" stop-color="#FF0F65"/>
<stop offset="0.412259" stop-color="#FF6B5F"/>
<stop offset="0.479632" stop-color="#E46C8B"/>
<stop offset="0.545288" stop-color="#A860EC"/>
<stop offset="0.621356" stop-color="#AD5EE3"/>
<stop offset="0.694281" stop-color="#BE55BF"/>
<stop offset="0.762671" stop-color="#D5458A"/>
<stop offset="0.910453" stop-color="#F91748"/>
</linearGradient>
<clipPath id="clip0_2_1657">
<rect width="333.32" height="257.19" fill="white" transform="scale(1.00204)"/>
</clipPath>
</defs>
</svg>
