<svg width="48" height="48" viewBox="0 0 48 48" fill="none" xmlns="http://www.w3.org/2000/svg">
<g clip-path="url(#clip0_2_849)">
<path d="M48 24C48 10.7452 37.2548 0 24 0C10.7452 0 0 10.7452 0 24C0 37.2548 10.7452 48 24 48C37.2548 48 48 37.2548 48 24Z" fill="#1D1D1D"/>
<path d="M32.1352 20.7296C33.7174 20.7296 35 19.447 35 17.8648C35 16.2826 33.7174 15 32.1352 15H15.8648C14.2826 15 13 16.2826 13 17.8648C13 19.447 14.2826 20.7296 15.8648 20.7296H32.1352ZM32.1606 33C33.7287 33 35 31.7287 35 30.1606C35 28.5924 33.7287 27.3211 32.1606 27.3211H15.8394C14.2713 27.3211 13 28.5924 13 30.1606C13 31.7287 14.2713 33 15.8394 33H32.1606Z" fill="white"/>
</g>
<defs>
<clipPath id="clip0_2_849">
<rect width="48" height="48" fill="white"/>
</clipPath>
</defs>
</svg>
