<svg width="56" height="55" viewBox="0 0 56 55" fill="none" xmlns="http://www.w3.org/2000/svg">
<g clip-path="url(#clip0_2_893)">
<path fill-rule="evenodd" clip-rule="evenodd" d="M31.8489 0.000996574C32.2974 -0.0108123 33.1824 0.0836586 33.7958 0.213557C34.4095 0.343453 35.2827 0.579632 35.7429 0.756764C36.1913 0.922089 36.8638 1.22912 37.2178 1.42987C37.5718 1.63062 38.1618 2.02032 38.5158 2.29192C38.8698 2.56352 39.4834 3.13034 39.861 3.54366C40.2385 3.95698 40.7224 4.5356 40.9112 4.83082C41.1118 5.12605 41.4894 5.81097 41.7371 6.36598C41.9968 6.921 42.3036 7.79486 42.4215 8.31444C42.5395 8.83403 42.6693 9.50714 42.7636 10.381H43.4718C43.8611 10.381 44.569 10.4518 45.0411 10.5463C45.5012 10.6408 46.3154 10.877 46.8347 11.0777C47.3538 11.2785 48.1444 11.6682 48.6046 11.9398C49.0529 12.2114 49.8436 12.8372 50.3627 13.3332C50.8701 13.8174 51.5663 14.644 51.9203 15.1636C52.2626 15.6832 52.6991 16.4744 52.8879 16.9349C53.0766 17.3836 53.3246 18.1277 53.4542 18.5881C53.6195 19.214 53.6667 19.8281 53.6667 21.1271C53.6785 22.5324 53.6312 23.0164 53.407 23.8195C53.2655 24.3509 52.9823 25.1421 52.7817 25.579C52.5811 26.0277 52.1917 26.7244 51.9084 27.1496C51.6254 27.5747 51.0589 28.2597 50.6459 28.673C50.233 29.0862 49.5839 29.6531 49.1946 29.9365C48.8052 30.2081 48.0382 30.6568 47.4836 30.9166C46.929 31.1765 46.0322 31.5071 45.4776 31.6369C44.5926 31.8613 44.0499 31.9087 40.8758 31.9558C37.9022 32.0149 37.2532 31.9913 37.1353 31.8613C37.0172 31.7315 37.0527 31.5543 37.6308 30.22L38.6928 29.9837C39.2709 29.8539 39.9436 29.6295 40.1678 29.4759C40.3919 29.3225 40.6988 29.0272 40.8522 28.8028C41.0999 28.425 41.1235 28.2597 41.1235 26.7954C41.1235 25.331 41.0999 25.1657 40.8522 24.7996C40.6988 24.5753 40.451 24.2918 40.2857 24.1737C40.1206 24.0556 39.4598 23.8195 38.8107 23.6542C38.1618 23.5006 37.6191 23.3472 37.6072 23.3353C37.6072 23.3236 37.4538 23.0047 36.9819 21.9536L37.6308 20.9144C38.0084 20.3123 38.3152 19.6864 38.3507 19.4148C38.3978 19.155 38.3624 18.7534 38.2916 18.529C38.209 18.2575 37.7723 17.7261 37.0172 16.9703C36.0615 16.0374 35.7782 15.8249 35.3889 15.754C35.1057 15.695 34.7281 15.7186 34.4449 15.8131C34.1853 15.8957 33.5717 16.2146 32.2029 17.1002L31.4949 16.8168C31.1056 16.6633 30.7516 16.4389 30.7043 16.3209C30.6571 16.2028 30.5273 15.6832 30.4094 15.1636C30.3031 14.644 30.1025 14.0654 29.961 13.8764C29.8312 13.6875 29.5716 13.4159 29.3946 13.286C29.0878 13.0616 28.8991 13.038 27.3061 13.038C25.7013 13.038 25.5243 13.0616 25.2175 13.286C25.0405 13.4277 24.7927 13.6639 24.6746 13.8174C24.5567 13.9709 24.3325 14.6322 24.1672 15.2817C24.014 15.9312 23.8487 16.4862 23.8132 16.5216C23.7661 16.557 23.4357 16.6987 22.4092 17.1002L21.5242 16.5334C21.0404 16.2146 20.4268 15.8957 20.1671 15.8131C19.8841 15.7186 19.5063 15.695 19.2233 15.754C18.8338 15.8249 18.5506 16.0374 17.5949 16.9703C16.8397 17.7261 16.4031 18.2575 16.3205 18.529C16.2497 18.7534 16.2143 19.155 16.2615 19.4148C16.2969 19.6864 16.6037 20.324 17.6303 21.9536L17.3235 22.6267C17.1582 23.0047 16.9577 23.3472 16.8869 23.3944C16.8043 23.4298 16.2969 23.5716 15.7423 23.6778C15.1877 23.7959 14.5859 23.9967 14.3853 24.1383C14.1965 24.2683 13.9133 24.5634 13.7717 24.7878C13.5121 25.1657 13.4885 25.3192 13.4885 26.7954C13.4885 28.2597 13.5121 28.425 13.7599 28.8028C13.9133 29.0272 14.2201 29.3225 14.4443 29.4759C14.6685 29.6295 15.3293 29.8539 16.9812 30.22L17.2999 30.9521C17.5594 31.5543 17.5949 31.7315 17.4769 31.8613C17.3588 31.9913 16.6509 32.0149 13.5003 31.9558C10.102 31.9087 9.55922 31.8732 8.69783 31.6488C8.15504 31.5188 7.38806 31.2473 6.98687 31.0701C6.57387 30.8812 5.92488 30.527 5.5355 30.279C5.14611 30.0309 4.48533 29.5114 4.07234 29.1098C3.65935 28.7084 3.09295 28.0706 2.82155 27.681C2.53836 27.2913 2.10178 26.5236 1.84218 25.9687C1.58259 25.4137 1.27579 24.587 1.15779 24.1383C0.992598 23.5242 0.933598 22.8985 0.933598 21.6585C0.945399 20.3004 0.992598 19.84 1.20499 19.0604C1.35839 18.5409 1.65338 17.738 1.86578 17.2892C2.08997 16.8286 2.59736 16.0138 3.01036 15.4706C3.47054 14.8566 4.13132 14.1834 4.70952 13.7229C5.2287 13.3096 6.07829 12.7664 6.59748 12.5184C7.11667 12.2586 7.83645 11.9752 8.19044 11.8689C8.54445 11.7626 9.31143 11.6209 10.9162 11.3848L11.2466 10.6172C11.4236 10.1921 11.7776 9.53076 12.0254 9.15286C12.285 8.76317 12.8278 8.14911 13.2171 7.79486C13.6183 7.42878 14.2319 6.95642 14.5741 6.75567C14.9281 6.54312 15.6125 6.22427 16.0963 6.04715C16.8987 5.75192 17.1346 5.7283 18.6923 5.7283C20.2145 5.71648 20.4975 5.75192 22.1142 6.30694L22.5271 5.59841C22.7396 5.2087 23.0581 4.70092 23.2351 4.47655C23.4004 4.25218 23.8606 3.7208 24.2735 3.30748C24.6746 2.89416 25.3237 2.33915 25.713 2.05574C26.1024 1.78413 26.7397 1.39444 27.1291 1.2055C27.5184 1.00475 28.1792 0.733146 28.604 0.591441C29.0289 0.461543 29.7368 0.272601 30.1969 0.17813C30.6454 0.0954675 31.3887 0.0128055 31.8489 0.000996574ZM28.073 6.05894C27.6127 6.29512 27.1055 6.61396 26.9402 6.75567C26.7751 6.89737 26.5744 7.13355 26.5036 7.28708C26.4211 7.42878 26.3621 7.65314 26.3621 7.78305C26.3621 7.91293 26.4919 8.14911 26.657 8.31444C26.834 8.49157 27.0818 8.60966 27.2825 8.60966C27.4595 8.60966 27.8724 8.40892 28.25 8.14911C28.604 7.88933 29.1113 7.60591 29.371 7.51145C29.6306 7.41696 30.138 7.31069 30.492 7.26345C30.846 7.21622 31.4949 7.23983 31.9434 7.31069C32.3799 7.36973 33.0407 7.54687 33.4183 7.68857C33.7841 7.83028 34.3623 8.16093 34.6808 8.43253C35.0112 8.70413 35.4714 9.21191 35.7192 9.56618C35.9907 9.94406 36.2856 10.5936 36.4509 11.184C36.7104 12.0342 36.793 12.1759 37.1353 12.3413C37.4657 12.5066 37.56 12.5184 37.8669 12.3767C38.0556 12.2822 38.2797 12.0697 38.3624 11.9161C38.4805 11.68 38.4686 11.4674 38.3388 10.877C38.2444 10.4755 37.9967 9.81417 37.8078 9.41267C37.6072 8.99935 37.1942 8.34987 36.8874 7.96018C36.557 7.55868 35.9435 6.99185 35.4361 6.64939C34.9523 6.33056 34.2207 5.94085 33.7958 5.79915C33.3711 5.65744 32.6514 5.49212 32.2029 5.42128C31.7427 5.36223 31.1881 5.31498 30.9639 5.31498C30.7398 5.31498 30.1733 5.38584 29.725 5.46851C29.2295 5.56297 28.5687 5.79915 28.073 6.05894ZM6.30248 18.5881C6.05469 19.1078 5.7951 19.8164 5.7243 20.1587C5.65351 20.4895 5.5945 21.1626 5.5945 21.6349C5.5945 22.0953 5.67709 22.8039 5.78329 23.1936C5.87769 23.5833 6.12548 24.2447 6.32608 24.6698C6.56208 25.1538 6.98687 25.7326 7.47065 26.2285C8.06064 26.8308 8.33204 27.0314 8.57984 27.0314C8.75684 27.0314 9.04003 26.9135 9.20523 26.7718C9.41762 26.5907 9.52775 26.3741 9.53561 26.1223C9.54742 25.8388 9.44123 25.6381 9.12262 25.2956C8.88662 25.0476 8.52084 24.6107 8.32024 24.3154C8.10785 24.0203 7.82466 23.4063 7.69486 22.9575C7.50605 22.3316 7.45886 21.9183 7.50605 21.2452C7.54145 20.5838 7.64765 20.1706 7.91904 19.592C8.10785 19.1668 8.47363 18.5881 8.70963 18.293C8.94563 17.9977 9.18162 17.6553 9.20523 17.5253C9.24063 17.3955 9.21702 17.1592 9.14622 16.9939C9.07543 16.8286 8.88662 16.6279 8.72144 16.557C8.55624 16.4744 8.30845 16.4035 8.16685 16.4035C8.01345 16.4035 7.68305 16.6397 7.32906 17.0294C6.99868 17.3836 6.56208 18.045 6.30248 18.5881ZM4.06053 40.3046C4.48533 40.3282 5.06352 40.4464 5.3585 40.5764C5.65351 40.6943 6.14909 41.0368 6.46768 41.3321C6.77447 41.6155 7.17567 42.1232 7.34087 42.4421C7.56506 42.8908 7.64767 43.2688 7.69486 43.9772C7.73026 44.7567 7.69486 45.04 7.47065 45.6304C7.28187 46.1029 6.99868 46.5398 6.59748 46.9413C6.19628 47.3427 5.78329 47.6261 5.3349 47.7914C4.87471 47.9686 4.37913 48.0513 3.85994 48.0513C3.39974 48.0513 2.79796 47.9686 2.46756 47.8505C2.10178 47.7207 1.62978 47.4137 1.22859 47.0357C0.839201 46.6696 0.46161 46.1856 0.284612 45.7957C0.0486176 45.2762 -0.0103811 44.9811 0.00141864 44.1544C0.00141864 43.316 0.0486176 43.0561 0.308212 42.5602C0.473409 42.2413 0.756602 41.7926 0.945399 41.5682C1.1342 41.3557 1.52359 41.0368 1.81857 40.8715C2.11358 40.6943 2.56197 40.4935 2.82155 40.4109C3.09295 40.3282 3.62395 40.281 4.06053 40.3046ZM27.4831 46.4335C28.073 46.4571 28.4979 46.5516 28.9579 46.776C29.3593 46.9649 29.8312 47.331 30.1733 47.7207C30.5037 48.0749 30.846 48.6181 30.9875 48.9959C31.1764 49.5037 31.2117 49.8345 31.1764 50.5312C31.1409 51.1453 31.0347 51.5821 30.846 51.9482C30.6926 52.2435 30.4684 52.6332 30.3267 52.8102C30.1852 52.9874 29.8667 53.2827 29.607 53.4716C29.3474 53.6488 28.8283 53.9203 28.4624 54.062C28.0848 54.1919 27.5775 54.31 27.3414 54.31C27.0936 54.31 26.5744 54.1919 26.1851 54.062C25.7956 53.9203 25.2647 53.6605 25.005 53.4716C24.7456 53.2827 24.4269 52.9874 24.2853 52.8102C24.1436 52.6332 23.9195 52.2435 23.7661 51.9482C23.5774 51.5821 23.4711 51.1453 23.4357 50.5312C23.4004 49.8345 23.4357 49.5037 23.6362 48.9959C23.7661 48.6417 24.0729 48.1103 24.3325 47.8152C24.5803 47.5199 24.9933 47.1538 25.2529 46.9885C25.5007 46.8349 25.9255 46.6343 26.1851 46.5516C26.4447 46.4688 27.0229 46.4099 27.4831 46.4335ZM28.427 14.9274L28.7338 16.2264C28.8991 16.9349 29.0996 17.6435 29.1704 17.797C29.2647 17.9624 29.5363 18.1277 29.9374 18.2458C30.2678 18.352 30.8577 18.6 31.2353 18.7772C31.6011 18.9661 32.0378 19.1195 32.2029 19.1195C32.3682 19.1195 33.0643 18.7653 34.9995 17.5253L35.7546 18.293C36.1677 18.7181 36.5098 19.0842 36.5098 19.1195C36.5098 19.155 36.1677 19.7335 35.7429 20.4185C35.318 21.1035 34.9759 21.7766 34.9759 21.93C34.9759 22.0718 35.1293 22.4969 35.318 22.8749C35.495 23.2408 35.7429 23.8312 35.849 24.1737C35.9671 24.5634 36.1322 24.8351 36.3092 24.9295C36.4509 25.0004 37.147 25.2012 39.1649 25.6852V27.9172L37.9848 28.1888C37.3359 28.3424 36.6751 28.5194 36.5098 28.5784C36.3447 28.6375 36.1558 28.8028 36.0733 28.9445C36.0024 29.0981 35.7429 29.6886 35.5069 30.279C35.2708 30.8576 35.0467 31.4716 35.0112 31.6369C34.964 31.8613 35.1529 32.2629 36.5453 34.5301L34.9876 36.0652L34.0673 35.4867C33.5599 35.1678 32.9463 34.79 32.7103 34.66C32.3446 34.4475 32.2265 34.4356 31.9434 34.5537C31.7664 34.6247 31.1881 34.8607 30.669 35.0615C30.1497 35.2742 29.607 35.4985 29.4536 35.5812C29.3119 35.652 29.1349 35.8409 29.076 36.0062C29.017 36.1716 28.8519 36.8093 28.7221 37.4233C28.5804 38.0374 28.4388 38.5806 28.3917 38.6397C28.3445 38.6869 27.8252 38.7105 26.1851 38.6633L25.9726 37.7185C25.8428 37.199 25.7013 36.573 25.6422 36.337C25.5833 36.0888 25.4416 35.8056 25.3354 35.711C25.2175 35.6048 24.6746 35.3449 24.12 35.1325C23.5655 34.9081 22.9401 34.66 22.7277 34.5773C22.3737 34.4239 22.2912 34.4356 21.9018 34.66C21.6657 34.79 21.0521 35.1678 19.6244 36.0652L18.0432 34.4829L18.8457 33.243C19.2822 32.558 19.6361 31.8613 19.6361 31.696C19.6361 31.5307 19.4827 31.0938 19.294 30.7278C19.1052 30.3498 18.881 29.8065 18.7866 29.5233C18.704 29.2398 18.5389 28.909 18.4327 28.7911C18.3147 28.6611 18.1023 28.543 17.9606 28.5077C17.8073 28.4722 17.1818 28.3305 15.4473 27.9172V25.6852L16.7453 25.3782C17.4533 25.2012 18.1613 25.0004 18.3147 24.9295C18.4798 24.8351 18.6449 24.5634 18.7631 24.1737C18.8693 23.8312 19.117 23.2408 19.294 22.8749C19.4827 22.4969 19.6361 22.0718 19.6361 21.93C19.6361 21.7766 19.294 21.1035 18.8693 20.4185C18.4444 19.7335 18.1023 19.155 18.1023 19.1195C18.1023 19.0842 18.4444 18.7181 19.6244 17.5253L20.6628 18.1867C21.2291 18.5528 21.8191 18.9189 21.9725 18.9897C22.1142 19.0604 22.3384 19.1195 22.4682 19.1195C22.5979 19.1195 23.0109 18.9661 23.3885 18.7772C23.7544 18.6 24.3442 18.352 24.6865 18.2458C25.1348 18.1041 25.3473 17.9741 25.4652 17.738C25.5479 17.5489 25.7368 16.8759 25.89 16.2264C26.0317 15.5769 26.1732 14.9983 26.2087 14.951C26.2441 14.9038 26.7514 14.8802 28.427 14.9274ZM25.005 22.0127C24.4976 22.2607 23.9313 22.6505 23.5538 23.0402C23.1643 23.418 22.7513 24.0084 22.4918 24.5398C22.0669 25.4018 22.0552 25.4609 22.0552 26.7835C22.0552 28.0942 22.0788 28.1888 22.4445 28.98C22.6688 29.4287 23.0109 30.0192 23.2234 30.279C23.4357 30.5387 23.9195 30.9638 24.3089 31.2118C24.6865 31.4716 25.3118 31.7786 25.6894 31.8968C26.1024 32.0266 26.7278 32.1093 27.3061 32.1093C27.8843 32.1093 28.5096 32.0266 28.9344 31.8968C29.3002 31.7786 29.9256 31.4716 30.3031 31.2118C30.6926 30.9638 31.1764 30.5387 31.3887 30.279C31.6011 30.0192 31.9079 29.5468 32.0614 29.2161C32.2265 28.8973 32.4271 28.3659 32.5097 28.0353C32.5923 27.7045 32.6278 27.0079 32.604 26.441C32.5569 25.579 32.4861 25.3074 32.1204 24.5517C31.8489 23.9967 31.4596 23.4298 31.0583 23.0402C30.669 22.6386 30.1025 22.2489 29.548 21.9774C28.7456 21.5875 28.5687 21.5522 27.542 21.5285C26.9284 21.5049 26.2913 21.5285 26.126 21.564C25.9609 21.5875 25.4535 21.8002 25.005 22.0127ZM20.5447 40.9542C20.5802 44.1898 20.5802 44.2134 20.0492 44.7567L9.60641 44.7448V43.9772C9.60641 43.552 9.58282 43.1271 9.54742 43.0325C9.50021 42.8789 10.0548 42.8553 18.6923 42.8553V37.7775L19.3648 37.8485C19.7424 37.8839 20.1554 37.8721 20.2852 37.8011C20.5211 37.6949 20.5211 37.7185 20.5447 40.9542ZM34.0202 37.6713L34.4095 37.8011C34.6219 37.8721 35.0467 37.8957 35.9199 37.7775V42.8553H40.5218C44.5573 42.8553 45.1119 42.8789 45.0647 43.0325C45.0293 43.1271 45.0057 43.552 45.0057 44.7448H34.5629L34.2915 44.4733C34.0319 44.2134 34.0202 44.1898 34.0202 40.9423V37.6713ZM50.9646 40.3046C51.4012 40.3282 51.9322 40.4464 52.3215 40.6353C52.6873 40.7888 53.1593 41.084 53.3834 41.2848C53.6195 41.4738 53.9854 41.9815 54.2095 42.3949C54.5871 43.0916 54.6224 43.2333 54.6224 44.1544C54.6224 44.9928 54.5752 45.2643 54.3156 45.8076C54.1505 46.1618 53.7846 46.6815 53.4897 46.9649C53.2064 47.2365 52.7345 47.5908 52.4396 47.7324C52.0737 47.9096 51.6371 48.0041 50.9646 48.0277C50.2094 48.0632 49.8907 48.0158 49.3126 47.8033C48.8288 47.6261 48.4276 47.3546 48.0146 46.9413C47.6134 46.5398 47.3302 46.1029 47.1532 45.6304C46.9173 45.04 46.8818 44.7567 46.929 43.9772C46.9645 43.2688 47.047 42.8908 47.283 42.4421C47.4483 42.1115 47.8259 41.6273 48.1208 41.3438C48.4276 41.0723 48.8288 40.7653 49.0176 40.6707C49.2182 40.5764 49.5722 40.4464 49.82 40.3756C50.0677 40.3165 50.5751 40.281 50.9646 40.3046ZM26.3621 40.6117H28.25V44.5676H26.3621V40.6117ZM27.3061 23.3708C27.9432 23.3708 28.2028 23.4298 28.84 23.7486C29.2766 23.9729 29.7721 24.339 29.9963 24.6107C30.2088 24.8704 30.4684 25.3192 30.5628 25.6145C30.6571 25.9096 30.7398 26.441 30.7398 26.7954C30.7398 27.1496 30.6571 27.681 30.5628 27.9763C30.4684 28.2714 30.1852 28.7437 29.9374 29.0272C29.6897 29.3106 29.253 29.6886 28.9579 29.8539C28.4979 30.1254 28.309 30.1609 27.3061 30.1609C26.3149 30.1609 26.126 30.1254 25.6541 29.8539C25.3709 29.6886 24.9225 29.3106 24.6865 29.0272C24.4387 28.7437 24.1555 28.2359 24.0493 27.9172C23.9195 27.5275 23.8723 27.0669 23.9078 26.5591C23.9431 26.0513 24.0612 25.5909 24.2499 25.2129C24.4033 24.8942 24.722 24.4807 24.9461 24.28C25.182 24.0794 25.6305 23.7959 25.949 23.6423C26.3738 23.4534 26.7632 23.3708 27.3061 23.3708Z" fill="white"/>
</g>
<defs>
<clipPath id="clip0_2_893">
<rect width="56" height="54.31" fill="white"/>
</clipPath>
</defs>
</svg>
