<svg width="29" height="27" viewBox="0 0 29 27" fill="none" xmlns="http://www.w3.org/2000/svg">
<g clip-path="url(#clip0_2_1981)">
<mask id="mask0_2_1981" style="mask-type:luminance" maskUnits="userSpaceOnUse" x="0" y="0" width="28" height="27">
<path d="M27.0525 0H0V27.0001H27.0525V0Z" fill="white"/>
</mask>
<g mask="url(#mask0_2_1981)">
<path fill-rule="evenodd" clip-rule="evenodd" d="M13.2633 0.0105545L18.695 0.00528108C24.0528 7.62861e-06 24.1318 0.00528108 24.4957 0.11075C24.696 0.174032 25.0283 0.305868 25.234 0.411337C25.4818 0.5379 25.7402 0.738291 26.0303 1.02833C26.3678 1.36056 26.5049 1.54514 26.6788 1.89845C26.8002 2.1463 26.9319 2.51018 26.9741 2.71584C27.0375 3.01643 27.0533 3.68615 27.0533 6.35453C27.0533 9.02289 27.0375 9.69262 26.9741 9.99321C26.9319 10.1936 26.8002 10.5627 26.6788 10.8106C26.5049 11.1639 26.3625 11.3484 26.0303 11.6859C25.6928 12.0183 25.5082 12.1606 25.1549 12.3346C24.907 12.4559 24.5378 12.5878 24.3375 12.6299C24.0316 12.6933 23.1879 12.709 14.5554 12.709L12.9733 13.5C11.8395 14.0696 11.3386 14.2911 11.2068 14.2911C11.1066 14.2911 10.9273 14.2436 10.8113 14.1856C10.6706 14.1153 10.5652 14.0099 10.4949 13.8692C10.3894 13.6636 10.3894 13.5528 10.3894 8.36899C10.3894 3.934 10.4052 3.02697 10.4685 2.71584C10.5107 2.51018 10.6425 2.1463 10.7638 1.89845C10.9378 1.54514 11.0749 1.36056 11.4124 1.02833C11.6814 0.759385 11.9661 0.5379 12.1823 0.421884C12.3722 0.321689 12.6886 0.189852 12.8942 0.12657L13.2633 0.0105545ZM14.0017 4.13968C13.8857 4.20822 13.7485 4.34534 13.7011 4.44026C13.6536 4.53518 13.6114 4.69338 13.6061 4.78831C13.6061 4.88323 13.6536 5.04671 13.7064 5.15745C13.7644 5.26819 13.891 5.40531 14.007 5.46859L14.2126 5.58988C23.0982 5.58988 23.209 5.58988 23.4147 5.48441C23.5553 5.41409 23.6607 5.30862 23.731 5.168C23.7891 5.05198 23.8365 4.8885 23.8365 4.79885C23.8365 4.71448 23.7891 4.54573 23.731 4.42971C23.6607 4.28909 23.5553 4.18362 23.4147 4.11331C23.209 4.01311 23.0982 4.00784 18.7055 4.00784H14.2126L14.0017 4.13968ZM14.0017 7.30375C13.8857 7.37758 13.7485 7.51469 13.7011 7.60961C13.6536 7.70454 13.6114 7.85746 13.6061 7.95238C13.6061 8.0473 13.6536 8.21605 13.7064 8.32152C13.7644 8.43754 13.891 8.56938 14.007 8.63793L14.2126 8.75395C23.0982 8.75923 23.209 8.75395 23.4147 8.65376C23.5553 8.58344 23.6607 8.47798 23.731 8.33735C23.7891 8.22133 23.8365 8.05258 23.8365 7.9682C23.8365 7.87855 23.7891 7.71508 23.731 7.59907C23.6607 7.45844 23.5553 7.35297 23.4147 7.28266C23.209 7.17719 23.0982 7.17719 18.7055 7.17719H14.2126L14.0017 7.30375ZM8.77574 9.56606L8.80738 11.8125C8.83374 14.0168 8.83374 14.059 8.9603 14.3438C9.02358 14.5073 9.14488 14.7287 9.22925 14.8448C9.30835 14.9608 9.48764 15.1612 9.63003 15.2825C9.77241 15.409 9.99388 15.562 10.1257 15.6253C10.2576 15.6833 10.479 15.7677 10.6267 15.8046C10.7691 15.8415 10.9958 15.8731 11.1277 15.8731C11.2595 15.8731 11.5073 15.8468 11.6814 15.8099C11.8976 15.7677 12.4671 15.5146 14.9245 14.2911L23.7047 14.3174L23.7679 14.7393C23.8101 15.0241 23.8312 16.1578 23.8312 18.2462C23.8365 20.7563 23.8207 21.4313 23.7574 21.8585C23.71 22.1485 23.6044 22.5968 23.5201 22.8499C23.4304 23.1031 23.2881 23.4563 23.1984 23.6409C23.1035 23.8202 22.9084 24.1472 22.766 24.3634C22.6184 24.5849 22.2966 24.9646 22.0488 25.2124C21.7957 25.4656 21.4054 25.7925 21.1735 25.9507C20.9414 26.1037 20.5617 26.3199 20.3297 26.4306C20.0976 26.536 19.6916 26.6837 19.4332 26.7522C19.1695 26.8261 18.8479 26.9105 18.7055 26.9421C18.5315 26.9843 17.0075 27.0001 13.5535 27.0001C10.0994 27.0001 8.57535 26.9843 8.39605 26.9421C8.25895 26.9105 7.93199 26.8261 7.6736 26.7522C7.40993 26.6837 7.00916 26.536 6.77713 26.4306C6.5451 26.3199 6.16541 26.1037 5.93339 25.9454C5.70136 25.7925 5.30586 25.4603 5.058 25.2124C4.81015 24.9646 4.48321 24.5849 4.34082 24.3634C4.19316 24.1472 4.00332 23.8202 3.90841 23.6409C3.81876 23.4563 3.67638 23.1031 3.58673 22.8499C3.50236 22.5968 3.39689 22.1644 3.3547 21.8849C3.28614 21.4735 3.27033 20.8249 3.27033 18.2725C3.27033 15.7202 3.28614 15.0715 3.3547 14.6602C3.39689 14.386 3.50236 13.9536 3.58673 13.7005C3.67638 13.4474 3.81876 13.0887 3.90841 12.9094C4.00332 12.7249 4.19316 12.4031 4.34082 12.1817C4.48847 11.9655 4.81015 11.5858 5.058 11.3327C5.30586 11.0848 5.69081 10.7631 5.90702 10.6155C6.12323 10.4731 6.45017 10.278 6.62947 10.1883C6.81404 10.0934 7.16735 9.95102 7.42047 9.86665C7.67887 9.777 8.08493 9.6768 8.33277 9.63461L8.77574 9.56606ZM8.89702 16.3108C8.8232 16.4532 8.80738 16.6431 8.80738 17.4446C8.8021 18.2884 8.81792 18.436 8.9023 18.6047C8.9603 18.7208 9.09214 18.8527 9.20816 18.9212C9.31889 18.9844 9.48764 19.0372 9.58256 19.0425C9.67748 19.0425 9.84623 18.995 9.96225 18.9371C10.1029 18.8667 10.2083 18.7612 10.2787 18.6206C10.3736 18.4308 10.3841 18.3042 10.3841 17.4605C10.3841 16.6167 10.3736 16.4849 10.2787 16.3003C10.2083 16.1596 10.1029 16.0542 9.96225 15.9839C9.84623 15.9259 9.67748 15.8784 9.58256 15.8784C9.48764 15.8784 9.31363 15.9364 9.19761 16.005C9.0816 16.0788 8.94976 16.2159 8.89702 16.3108ZM16.807 16.3108C16.7332 16.4532 16.7175 16.6431 16.7175 17.4446C16.7122 18.2884 16.728 18.436 16.8123 18.6047C16.8704 18.7208 17.0022 18.8527 17.1182 18.9212C17.2289 18.9844 17.3977 19.0372 17.4926 19.0425C17.5876 19.0425 17.7563 18.995 17.8723 18.9371C18.0129 18.8667 18.1184 18.7612 18.1888 18.6206C18.2836 18.4308 18.2942 18.3042 18.2942 17.4605C18.2942 16.6167 18.2836 16.4849 18.1888 16.3003C18.1184 16.1596 18.0129 16.0542 17.8723 15.9839C17.7563 15.9259 17.5876 15.8784 17.4926 15.8784C17.3977 15.8784 17.2237 15.9364 17.1076 16.005C16.9917 16.0788 16.8598 16.2159 16.807 16.3108ZM11.5707 20.7511C11.4546 20.8249 11.3227 20.9621 11.2701 21.0569C11.2226 21.1518 11.1804 21.31 11.1804 21.3997C11.1751 21.4946 11.2226 21.6634 11.2754 21.7688C11.3333 21.8849 11.4652 22.0168 11.5811 22.0853C11.7763 22.2013 11.8238 22.2013 13.5376 22.2065C15.1882 22.2065 15.3042 22.2013 15.4992 22.1011C15.6399 22.0308 15.7454 21.9253 15.8157 21.7847C15.8738 21.6687 15.9211 21.4999 15.9211 21.4156C15.9211 21.3259 15.8738 21.1624 15.8157 21.0464C15.7454 20.9058 15.6399 20.8003 15.4992 20.73C15.3042 20.6297 15.1829 20.6246 13.5376 20.6246H11.7816L11.5707 20.7511ZM1.71468 14.4018C1.74105 14.4018 1.75687 14.4387 1.74105 14.4915C1.72522 14.5442 1.70413 16.0999 1.69886 17.9562C1.68831 19.8124 1.69886 21.5052 1.71996 21.7162C1.74632 21.9271 1.74632 22.0958 1.72522 22.0958C1.70413 22.0958 1.55121 22.0325 1.38773 21.9534C1.21898 21.8743 0.976408 21.7109 0.844573 21.5949C0.712739 21.4735 0.52817 21.2625 0.438523 21.1202C0.343602 20.9778 0.222314 20.7036 0.159033 20.5137C0.0535659 20.1921 0.0482926 20.0603 0.0482926 18.2725C0.0482926 16.8856 0.0693861 16.3056 0.12212 16.1105C0.159033 15.9681 0.243407 15.7308 0.311962 15.5831C0.380515 15.4407 0.580904 15.1771 0.760199 15.003C0.934221 14.829 1.20844 14.6233 1.36663 14.5442C1.53012 14.4652 1.68304 14.4018 1.71468 14.4018ZM25.3553 14.3965C25.3869 14.3965 25.5503 14.4652 25.7138 14.5442C25.8773 14.6233 26.1199 14.7868 26.2569 14.9028C26.3888 15.0241 26.5734 15.235 26.6631 15.3774C26.7527 15.5199 26.8793 15.794 26.9425 15.9786C27.0427 16.3056 27.0533 16.4374 27.048 18.2199C27.048 19.6172 27.0322 20.1921 26.9794 20.3819C26.9425 20.5296 26.8265 20.7985 26.7316 20.9831C26.6314 21.173 26.431 21.4313 26.2834 21.5632C26.1357 21.7003 25.8773 21.8743 25.7138 21.9534C25.5503 22.0325 25.3975 22.0958 25.3763 22.0958C25.3553 22.0958 25.3553 21.9271 25.3763 21.7162C25.4027 21.5052 25.4132 19.8124 25.4027 17.9562C25.3922 16.0999 25.3658 14.5442 25.3394 14.4915C25.3078 14.4281 25.3131 14.3965 25.3553 14.3965ZM2.43714 4.80413C2.57424 4.80413 2.81154 4.82522 2.96448 4.86213C3.1174 4.89378 3.37052 4.97815 3.52872 5.05198C3.69747 5.13109 3.95587 5.32093 4.14044 5.51078C4.31973 5.69007 4.51484 5.95375 4.59394 6.11722C4.66777 6.2807 4.75743 6.53382 4.78906 6.68675C4.82071 6.83969 4.84706 7.07699 4.84706 7.2141C4.84706 7.3512 4.81543 7.58324 4.77852 7.72563C4.7416 7.87329 4.65196 8.11058 4.5834 8.25297C4.50957 8.40063 4.30919 8.6643 4.13516 8.83833C3.96114 9.01235 3.69747 9.21274 3.26505 9.41314V10.9424L2.98029 11.3643C2.82736 11.5964 2.60589 11.9708 2.49514 12.1975C2.3053 12.5719 2.27365 12.6036 2.07855 12.6511C1.96253 12.6827 1.82543 12.7196 1.77796 12.7355C1.68831 12.7618 1.68304 12.6616 1.68304 9.41314L1.335 9.22856C1.12406 9.12309 0.881487 8.93852 0.739105 8.78032C0.607271 8.63266 0.438523 8.39536 0.369968 8.25297C0.301415 8.11058 0.211767 7.87329 0.174854 7.72563C0.132667 7.58324 0.101026 7.3512 0.101026 7.2141C0.101026 7.07699 0.127393 6.83969 0.159033 6.68675C0.195948 6.53382 0.280322 6.2807 0.354149 6.11722C0.433249 5.94847 0.623091 5.69534 0.812932 5.51078C0.986954 5.33675 1.25062 5.13635 1.393 5.06781C1.54066 4.99925 1.77796 4.9096 1.92034 4.87796C2.068 4.84104 2.30002 4.8094 2.43714 4.80413Z" fill="white"/>
</g>
</g>
<defs>
<clipPath id="clip0_2_1981">
<rect width="28.01" height="26.89" fill="white" transform="scale(1.00409)"/>
</clipPath>
</defs>
</svg>
