<svg width="38" height="38" viewBox="0 0 38 38" fill="none" xmlns="http://www.w3.org/2000/svg">
<g clip-path="url(#clip0_2_163)">
<path d="M38 19C38 29.4934 29.4934 38 19 38C8.50659 38 0 29.4934 0 19C0 8.50659 8.50659 0 19 0C29.4934 0 38 8.50659 38 19Z" fill="#8082EF" fill-opacity="0.2"/>
<path d="M28.4629 26.4624C28.3361 27.0075 28.0369 27.4973 27.6098 27.8589C27.133 28.3439 26.5639 28.7285 25.936 28.9898C25.3081 29.2513 24.6342 29.3842 23.9542 29.3808H23.6141C22.2025 29.3073 20.8189 28.9581 19.5415 28.3529C19.2318 28.2076 18.9306 28.0717 18.5725 27.9064C17.0753 27.0609 15.7012 26.0141 14.4884 24.7952C12.9119 23.3167 11.6201 21.5615 10.677 19.6167C10.1578 18.5559 9.80804 17.4201 9.64056 16.2509C9.40648 15.0325 9.54489 13.772 10.0377 12.6333C10.3441 12.1164 10.7194 11.6435 11.153 11.2273C11.3509 11.0113 11.5904 10.8373 11.8572 10.7157C12.1239 10.5941 12.4123 10.5274 12.7053 10.5195C13.0247 10.5534 13.3343 10.6505 13.6156 10.8056C13.897 10.9605 14.1447 11.1701 14.344 11.422C14.7905 11.916 15.313 12.391 15.788 12.8945L16.3998 13.4968C16.7608 13.8132 16.9841 14.2587 17.0202 14.7375C17.0211 15.1783 16.8587 15.603 16.5642 15.9307C16.3787 16.1606 16.1815 16.3807 15.9733 16.59L15.769 16.8038C15.6501 16.9144 15.5573 17.05 15.4973 17.2009C15.4479 17.3472 15.4308 17.503 15.4498 17.6569C15.6056 18.0787 15.8498 18.4625 16.1671 18.7817C16.6611 19.4505 17.1361 20.0328 17.67 20.7216C18.5907 21.7841 19.6824 22.6853 20.9 23.3882C21.0168 23.4832 21.1565 23.5469 21.3066 23.5725C21.4396 23.5925 21.5735 23.5725 21.6942 23.5136C22.0641 23.3157 22.3932 23.0494 22.6641 22.7289C23.0061 22.3071 23.502 22.0392 24.0416 21.9813C24.3006 21.9823 24.5568 22.0351 24.795 22.1368C25.0332 22.2384 25.2487 22.3868 25.4286 22.5731C25.6502 22.7645 25.8602 22.968 26.0585 23.184L26.3492 23.4946L26.6503 23.7853C26.8337 23.9696 27.0085 24.1349 27.1823 24.3287C27.4989 24.6011 27.7934 24.8953 28.0658 25.2113C28.3442 25.5666 28.4848 26.0112 28.4629 26.4624Z" fill="#8082EF"/>
</g>
<defs>
<clipPath id="clip0_2_163">
<rect width="38" height="38" fill="white"/>
</clipPath>
</defs>
</svg>
