<svg width="56" height="56" viewBox="0 0 56 56" fill="none" xmlns="http://www.w3.org/2000/svg">
<g clip-path="url(#clip0_2_423)">
<path d="M56 28C56 12.536 43.464 0 28 0C12.536 0 0 12.536 0 28C0 43.464 12.536 56 28 56C43.464 56 56 43.464 56 28Z" fill="#333333"/>
<path d="M26.4962 20C19.6247 21.3333 19 28 19 28M19 28V32.2519C19 32.9471 19 33.2947 19.0574 33.5838C19.2937 34.7751 20.2249 35.7063 21.4162 35.9426C21.7053 36 22.0529 36 22.7481 36C23.4434 36 23.791 36 24.0801 35.9426C25.2713 35.7063 26.2025 34.7751 26.4389 33.5838C26.4962 33.2947 26.4962 32.9471 26.4962 32.2519V32C26.4962 31.07 26.4962 30.605 26.394 30.2235C26.1166 29.1883 25.308 28.3796 24.2727 28.1022C23.8912 28 23.4262 28 22.4962 28H19Z" stroke="white" stroke-width="1.5"/>
<path d="M37.0001 20C30.1286 21.3333 29.5039 28 29.5039 28M29.5039 28V32.2519C29.5039 32.9471 29.5039 33.2947 29.5613 33.5838C29.7976 34.7751 30.7288 35.7063 31.9201 35.9426C32.2092 36 32.5568 36 33.252 36C33.9473 36 34.2949 36 34.584 35.9426C35.7752 35.7063 36.7064 34.7751 36.9428 33.5838C37.0001 33.2947 37.0001 32.9471 37.0001 32.2519V32C37.0001 31.07 37.0001 30.605 36.8979 30.2235C36.6205 29.1883 35.8119 28.3796 34.7766 28.1022C34.3951 28 33.9301 28 33.0001 28H29.5039Z" stroke="white" stroke-width="1.5"/>
</g>
<defs>
<clipPath id="clip0_2_423">
<rect width="56" height="56" fill="white"/>
</clipPath>
</defs>
</svg>
