<svg width="32" height="30" viewBox="0 0 32 30" fill="none" xmlns="http://www.w3.org/2000/svg">
<path d="M31.9524 9.50973L29.7462 1.78471C29.5978 1.27224 29.2876 0.821525 28.862 0.499862C28.4363 0.1782 27.9182 0.00285082 27.3846 0H4.61538C4.0819 0.00285082 3.56366 0.1782 3.13802 0.499862C2.71239 0.821525 2.40223 1.27224 2.25385 1.78471L0.0476922 9.50973C0.0161534 9.61926 0.000100286 9.73268 0 9.84667V12.3083C0 13.2637 0.222431 14.206 0.649679 15.0606C1.07693 15.915 1.69726 16.6585 2.46154 17.2317V28.3092C2.46154 28.6356 2.59121 28.9487 2.82202 29.1795C3.05284 29.4103 3.36588 29.54 3.69231 29.54H28.3077C28.6341 29.54 28.9472 29.4103 29.178 29.1795C29.4087 28.9487 29.5385 28.6356 29.5385 28.3092V17.2317C30.3028 16.6585 30.9231 15.915 31.3503 15.0606C31.7776 14.206 32 13.2637 32 12.3083V9.84667C31.9999 9.73268 31.9839 9.61926 31.9524 9.50973ZM9.84615 12.3083C9.84593 12.9433 9.68198 13.5675 9.37014 14.1206C9.0583 14.6736 8.60911 15.137 8.06594 15.4658C7.52278 15.7947 6.904 15.9778 6.26938 15.9978C5.63477 16.0176 5.00575 15.8734 4.44308 15.5793C4.35746 15.5127 4.26329 15.4578 4.16308 15.4162C3.64165 15.0824 3.21254 14.6228 2.91521 14.0798C2.61787 13.5366 2.46187 12.9274 2.46154 12.3083V11.0775H9.84615V12.3083ZM19.6923 12.3083C19.6923 13.2876 19.3033 14.2268 18.6108 14.9193C17.9184 15.6118 16.9792 16.0008 16 16.0008C15.0208 16.0008 14.0816 15.6118 13.3892 14.9193C12.6967 14.2268 12.3077 13.2876 12.3077 12.3083V11.0775H19.6923V12.3083ZM29.5385 12.3083C29.538 12.9277 29.3818 13.5368 29.0841 14.08C28.7865 14.623 28.357 15.0825 27.8353 15.4162C27.7365 15.4579 27.6434 15.5122 27.5585 15.5777C26.9958 15.8722 26.3668 16.0167 25.7321 15.997C25.0974 15.9774 24.4784 15.7944 23.9351 15.4658C23.3918 15.137 22.9424 14.6737 22.6304 14.1207C22.3183 13.5676 22.1542 12.9434 22.1538 12.3083V11.0775H29.5385V12.3083Z" fill="white"/>
</svg>
