<svg width="334" height="247" viewBox="0 0 334 247" fill="none" xmlns="http://www.w3.org/2000/svg">
<g clip-path="url(#clip0_2_1608)">
<path opacity="0.5" d="M313.357 0H6.74378C3.01929 0 0 3.0194 0 6.74402V240.256C0 243.981 3.01929 247 6.74378 247H313.357C317.081 247 320.101 243.981 320.101 240.256V6.74402C320.101 3.0194 317.081 0 313.357 0Z" fill="#F1F0EE"/>
<path opacity="0.3" d="M49.3982 130.91L46.2597 132.957C40.86 136.479 36.4062 141.27 33.2882 146.913C29.6194 153.552 27.9856 161.124 28.5904 168.685L28.7302 170.432C29.8545 184.486 40.1092 196.118 53.9117 198.993L66.1936 201.552M66.1936 201.552L64.2177 198.094M66.1936 201.552L62.2418 204.516" stroke="#333333" stroke-width="1.3" stroke-linecap="round" stroke-dasharray="4 4"/>
<path d="M239.087 176.852H87.9288C81.3812 176.852 76.0733 182.16 76.0733 188.708V210.444C76.0733 216.992 81.3812 222.3 87.9288 222.3H239.087C245.635 222.3 250.943 216.992 250.943 210.444V188.708C250.943 182.16 245.635 176.852 239.087 176.852Z" fill="#8082EF"/>
<path d="M157.173 196.754C156.549 196.754 155.968 196.64 155.431 196.41C154.901 196.181 154.439 195.865 154.043 195.462C153.656 195.051 153.352 194.569 153.131 194.015C152.909 193.462 152.799 192.854 152.799 192.19C152.799 191.534 152.905 190.929 153.119 190.376C153.34 189.815 153.648 189.332 154.043 188.929C154.439 188.518 154.901 188.202 155.431 187.981C155.96 187.752 156.541 187.637 157.173 187.637C157.798 187.637 158.355 187.744 158.845 187.957C159.343 188.17 159.762 188.451 160.102 188.799C160.442 189.139 160.687 189.51 160.837 189.913L159.58 190.506C159.39 190.032 159.086 189.649 158.667 189.356C158.256 189.056 157.758 188.906 157.173 188.906C156.588 188.906 156.071 189.044 155.62 189.321C155.17 189.597 154.818 189.98 154.565 190.471C154.32 190.961 154.198 191.534 154.198 192.19C154.198 192.846 154.32 193.423 154.565 193.921C154.818 194.411 155.17 194.794 155.62 195.071C156.071 195.339 156.588 195.474 157.173 195.474C157.758 195.474 158.256 195.328 158.667 195.035C159.086 194.743 159.39 194.359 159.58 193.885L160.837 194.478C160.687 194.873 160.442 195.245 160.102 195.592C159.762 195.94 159.343 196.221 158.845 196.434C158.355 196.648 157.798 196.754 157.173 196.754ZM164.433 196.754C163.951 196.754 163.528 196.648 163.164 196.434C162.801 196.213 162.516 195.908 162.311 195.521C162.113 195.126 162.014 194.672 162.014 194.158V190.198H163.354V194.039C163.354 194.332 163.413 194.589 163.532 194.81C163.65 195.031 163.816 195.205 164.03 195.331C164.243 195.45 164.488 195.509 164.765 195.509C165.049 195.509 165.298 195.446 165.512 195.32C165.725 195.193 165.891 195.015 166.01 194.786C166.136 194.557 166.199 194.288 166.199 193.98V190.198H167.527V196.612H166.259V195.355L166.401 195.521C166.251 195.916 166.002 196.221 165.654 196.434C165.306 196.648 164.899 196.754 164.433 196.754ZM171.865 196.683C171.194 196.683 170.672 196.493 170.3 196.114C169.929 195.735 169.743 195.201 169.743 194.513V191.407H168.617V190.198H168.795C169.095 190.198 169.328 190.111 169.494 189.937C169.66 189.763 169.743 189.526 169.743 189.226V188.728H171.083V190.198H172.541V191.407H171.083V194.454C171.083 194.675 171.118 194.865 171.19 195.023C171.261 195.173 171.375 195.292 171.533 195.379C171.692 195.458 171.897 195.497 172.15 195.497C172.213 195.497 172.284 195.494 172.363 195.486C172.442 195.478 172.517 195.47 172.589 195.462V196.612C172.478 196.628 172.355 196.644 172.221 196.659C172.087 196.675 171.968 196.683 171.865 196.683ZM176.099 196.612V187.779H177.498V191.668H181.588V187.779H182.975V196.612H181.588V192.913H177.498V196.612H176.099ZM187.687 196.754C187.046 196.754 186.477 196.608 185.979 196.316C185.489 196.015 185.106 195.612 184.829 195.106C184.553 194.592 184.415 194.019 184.415 193.387C184.415 192.739 184.553 192.166 184.829 191.668C185.114 191.17 185.493 190.779 185.968 190.494C186.442 190.202 186.979 190.056 187.58 190.056C188.062 190.056 188.493 190.139 188.872 190.305C189.252 190.471 189.572 190.7 189.833 190.992C190.093 191.277 190.291 191.605 190.425 191.976C190.568 192.348 190.639 192.743 190.639 193.162C190.639 193.265 190.635 193.371 190.627 193.482C190.619 193.593 190.603 193.695 190.579 193.79H185.47V192.723H189.821L189.18 193.209C189.259 192.822 189.232 192.478 189.097 192.178C188.971 191.87 188.773 191.628 188.505 191.455C188.244 191.273 187.936 191.182 187.58 191.182C187.224 191.182 186.908 191.273 186.632 191.455C186.355 191.628 186.141 191.881 185.991 192.213C185.841 192.537 185.782 192.933 185.813 193.399C185.774 193.834 185.833 194.213 185.991 194.537C186.157 194.861 186.386 195.114 186.679 195.296C186.979 195.478 187.319 195.569 187.699 195.569C188.086 195.569 188.414 195.482 188.683 195.308C188.959 195.134 189.177 194.909 189.335 194.632L190.425 195.166C190.299 195.466 190.101 195.739 189.833 195.984C189.572 196.221 189.256 196.41 188.884 196.553C188.52 196.687 188.121 196.754 187.687 196.754ZM191.946 196.612V187.637H193.285V196.612H191.946ZM194.852 198.983V190.198H196.133V191.526L195.979 191.217C196.216 190.854 196.532 190.569 196.927 190.364C197.322 190.158 197.773 190.056 198.279 190.056C198.887 190.056 199.433 190.202 199.915 190.494C200.405 190.787 200.788 191.186 201.065 191.692C201.349 192.198 201.491 192.767 201.491 193.399C201.491 194.031 201.349 194.6 201.065 195.106C200.788 195.612 200.409 196.015 199.927 196.316C199.444 196.608 198.895 196.754 198.279 196.754C197.781 196.754 197.326 196.651 196.915 196.446C196.512 196.24 196.2 195.944 195.979 195.557L196.192 195.308V198.983H194.852ZM198.148 195.509C198.528 195.509 198.863 195.418 199.156 195.237C199.448 195.055 199.678 194.806 199.844 194.49C200.017 194.166 200.104 193.802 200.104 193.399C200.104 192.996 200.017 192.636 199.844 192.32C199.678 192.004 199.448 191.755 199.156 191.573C198.863 191.391 198.528 191.3 198.148 191.3C197.777 191.3 197.441 191.391 197.14 191.573C196.848 191.755 196.615 192.004 196.441 192.32C196.275 192.636 196.192 192.996 196.192 193.399C196.192 193.802 196.275 194.166 196.441 194.49C196.615 194.806 196.848 195.055 197.14 195.237C197.441 195.418 197.777 195.509 198.148 195.509ZM202.996 193.992V192.806H207.738V193.992H202.996ZM212.474 196.754C211.857 196.754 211.304 196.608 210.814 196.316C210.332 196.015 209.948 195.612 209.664 195.106C209.387 194.6 209.249 194.031 209.249 193.399C209.249 192.767 209.391 192.198 209.676 191.692C209.96 191.186 210.344 190.787 210.826 190.494C211.308 190.202 211.853 190.056 212.462 190.056C212.976 190.056 213.43 190.158 213.825 190.364C214.22 190.569 214.533 190.854 214.762 191.217L214.56 191.526V187.637H215.888V196.612H214.62V195.308L214.774 195.557C214.552 195.944 214.236 196.24 213.825 196.446C213.414 196.651 212.964 196.754 212.474 196.754ZM212.604 195.509C212.976 195.509 213.308 195.418 213.6 195.237C213.9 195.055 214.133 194.806 214.299 194.49C214.473 194.166 214.56 193.802 214.56 193.399C214.56 192.996 214.473 192.636 214.299 192.32C214.133 192.004 213.9 191.755 213.6 191.573C213.308 191.391 212.976 191.3 212.604 191.3C212.233 191.3 211.897 191.391 211.596 191.573C211.296 191.755 211.063 192.004 210.897 192.32C210.731 192.636 210.648 192.996 210.648 193.399C210.648 193.802 210.731 194.166 210.897 194.49C211.063 194.806 211.292 195.055 211.585 195.237C211.885 195.418 212.225 195.509 212.604 195.509ZM220.463 196.754C219.823 196.754 219.254 196.608 218.756 196.316C218.266 196.015 217.883 195.612 217.606 195.106C217.33 194.592 217.191 194.019 217.191 193.387C217.191 192.739 217.33 192.166 217.606 191.668C217.891 191.17 218.27 190.779 218.744 190.494C219.219 190.202 219.756 190.056 220.357 190.056C220.839 190.056 221.27 190.139 221.649 190.305C222.028 190.471 222.348 190.7 222.609 190.992C222.87 191.277 223.068 191.605 223.202 191.976C223.344 192.348 223.415 192.743 223.415 193.162C223.415 193.265 223.411 193.371 223.404 193.482C223.396 193.593 223.38 193.695 223.356 193.79H218.246V192.723H222.597L221.957 193.209C222.036 192.822 222.009 192.478 221.874 192.178C221.748 191.87 221.55 191.628 221.281 191.455C221.021 191.273 220.712 191.182 220.357 191.182C220.001 191.182 219.685 191.273 219.408 191.455C219.132 191.628 218.918 191.881 218.768 192.213C218.618 192.537 218.559 192.933 218.59 193.399C218.551 193.834 218.61 194.213 218.768 194.537C218.934 194.861 219.163 195.114 219.456 195.296C219.756 195.478 220.096 195.569 220.475 195.569C220.863 195.569 221.191 195.482 221.459 195.308C221.736 195.134 221.953 194.909 222.111 194.632L223.202 195.166C223.076 195.466 222.878 195.739 222.609 195.984C222.348 196.221 222.032 196.41 221.661 196.553C221.297 196.687 220.898 196.754 220.463 196.754ZM227.094 196.754C226.438 196.754 225.861 196.592 225.363 196.268C224.873 195.944 224.529 195.509 224.331 194.964L225.363 194.478C225.537 194.841 225.774 195.13 226.074 195.343C226.382 195.557 226.722 195.663 227.094 195.663C227.41 195.663 227.667 195.592 227.864 195.45C228.062 195.308 228.161 195.114 228.161 194.869C228.161 194.711 228.117 194.585 228.03 194.49C227.943 194.387 227.833 194.304 227.698 194.241C227.572 194.178 227.441 194.13 227.307 194.098L226.299 193.814C225.746 193.656 225.331 193.419 225.054 193.103C224.786 192.779 224.651 192.403 224.651 191.976C224.651 191.589 224.75 191.253 224.948 190.968C225.145 190.676 225.418 190.451 225.766 190.293C226.114 190.135 226.505 190.056 226.939 190.056C227.524 190.056 228.046 190.202 228.504 190.494C228.963 190.779 229.287 191.178 229.477 191.692L228.445 192.178C228.319 191.87 228.117 191.625 227.841 191.443C227.572 191.261 227.267 191.17 226.928 191.17C226.635 191.17 226.402 191.241 226.228 191.383C226.054 191.518 225.967 191.696 225.967 191.917C225.967 192.067 226.007 192.194 226.086 192.296C226.165 192.391 226.268 192.47 226.394 192.533C226.521 192.589 226.651 192.636 226.785 192.676L227.829 192.984C228.358 193.134 228.765 193.371 229.05 193.695C229.334 194.012 229.477 194.391 229.477 194.834C229.477 195.213 229.374 195.549 229.168 195.841C228.971 196.126 228.694 196.351 228.338 196.517C227.983 196.675 227.568 196.754 227.094 196.754ZM230.79 196.612V187.637H232.129V193.648L231.608 193.518L234.82 190.198H236.492L234.074 192.771L236.599 196.612H235.058L232.805 193.209L233.599 193.103L231.702 195.118L232.129 194.229V196.612H230.79ZM154.707 210.444L152.277 201.611H153.759L155.727 209.258H155.359L157.399 201.611H158.857L160.896 209.258H160.517L162.497 201.611H163.967L161.548 210.444H159.971L157.92 202.915H158.335L156.272 210.444H154.707ZM167.555 210.586C166.938 210.586 166.373 210.44 165.86 210.148C165.354 209.855 164.951 209.456 164.65 208.95C164.35 208.444 164.2 207.871 164.2 207.231C164.2 206.583 164.35 206.01 164.65 205.512C164.951 205.006 165.354 204.611 165.86 204.326C166.365 204.034 166.93 203.888 167.555 203.888C168.187 203.888 168.752 204.034 169.25 204.326C169.756 204.611 170.155 205.006 170.448 205.512C170.748 206.01 170.898 206.583 170.898 207.231C170.898 207.879 170.748 208.456 170.448 208.962C170.147 209.468 169.744 209.867 169.238 210.159C168.733 210.444 168.171 210.586 167.555 210.586ZM167.555 209.341C167.934 209.341 168.27 209.25 168.563 209.069C168.855 208.887 169.084 208.638 169.25 208.322C169.424 207.998 169.511 207.634 169.511 207.231C169.511 206.828 169.424 206.468 169.25 206.152C169.084 205.836 168.855 205.587 168.563 205.405C168.27 205.223 167.934 205.132 167.555 205.132C167.183 205.132 166.848 205.223 166.547 205.405C166.255 205.587 166.022 205.836 165.848 206.152C165.682 206.468 165.599 206.828 165.599 207.231C165.599 207.634 165.682 207.998 165.848 208.322C166.022 208.638 166.255 208.887 166.547 209.069C166.848 209.25 167.183 209.341 167.555 209.341ZM172.206 210.444V204.03H173.487V205.322L173.368 205.132C173.51 204.714 173.74 204.413 174.056 204.231C174.372 204.042 174.751 203.947 175.194 203.947H175.585V205.168H175.028C174.585 205.168 174.226 205.306 173.949 205.583C173.68 205.852 173.546 206.239 173.546 206.745V210.444H172.206ZM176.501 210.444V201.469H177.841V207.48L177.319 207.35L180.532 204.03H182.203L179.785 206.603L182.31 210.444H180.769L178.516 207.041L179.311 206.935L177.414 208.95L177.841 208.061V210.444H176.501ZM183.228 210.444V201.469H184.568V210.444H183.228ZM189.228 210.586C188.611 210.586 188.046 210.44 187.533 210.148C187.027 209.855 186.624 209.456 186.323 208.95C186.023 208.444 185.873 207.871 185.873 207.231C185.873 206.583 186.023 206.01 186.323 205.512C186.624 205.006 187.027 204.611 187.533 204.326C188.038 204.034 188.603 203.888 189.228 203.888C189.86 203.888 190.425 204.034 190.923 204.326C191.429 204.611 191.828 205.006 192.121 205.512C192.421 206.01 192.571 206.583 192.571 207.231C192.571 207.879 192.421 208.456 192.121 208.962C191.82 209.468 191.417 209.867 190.911 210.159C190.406 210.444 189.844 210.586 189.228 210.586ZM189.228 209.341C189.607 209.341 189.943 209.25 190.236 209.069C190.528 208.887 190.757 208.638 190.923 208.322C191.097 207.998 191.184 207.634 191.184 207.231C191.184 206.828 191.097 206.468 190.923 206.152C190.757 205.836 190.528 205.587 190.236 205.405C189.943 205.223 189.607 205.132 189.228 205.132C188.856 205.132 188.52 205.223 188.22 205.405C187.928 205.587 187.695 205.836 187.521 206.152C187.355 206.468 187.272 206.828 187.272 207.231C187.272 207.634 187.355 207.998 187.521 208.322C187.695 208.638 187.928 208.887 188.22 209.069C188.52 209.25 188.856 209.341 189.228 209.341ZM195.8 210.586C195.365 210.586 194.982 210.511 194.65 210.361C194.326 210.203 194.073 209.989 193.891 209.721C193.709 209.444 193.618 209.12 193.618 208.749C193.618 208.401 193.693 208.089 193.844 207.812C194.002 207.535 194.243 207.302 194.567 207.112C194.891 206.923 195.298 206.788 195.788 206.709L198.017 206.342V207.397L196.049 207.741C195.693 207.804 195.432 207.919 195.266 208.085C195.1 208.243 195.017 208.448 195.017 208.701C195.017 208.946 195.108 209.148 195.29 209.306C195.48 209.456 195.721 209.531 196.013 209.531C196.377 209.531 196.693 209.452 196.962 209.294C197.238 209.136 197.452 208.926 197.602 208.666C197.752 208.397 197.827 208.1 197.827 207.776V206.128C197.827 205.812 197.709 205.555 197.471 205.358C197.242 205.152 196.934 205.049 196.547 205.049C196.191 205.049 195.879 205.144 195.61 205.334C195.349 205.516 195.156 205.753 195.029 206.045L193.915 205.488C194.033 205.172 194.227 204.895 194.496 204.658C194.764 204.413 195.077 204.224 195.432 204.089C195.796 203.955 196.179 203.888 196.582 203.888C197.088 203.888 197.535 203.982 197.922 204.172C198.317 204.362 198.621 204.627 198.835 204.966C199.056 205.298 199.167 205.686 199.167 206.128V210.444H197.886V209.282L198.159 209.318C198.009 209.578 197.815 209.804 197.578 209.993C197.349 210.183 197.084 210.329 196.784 210.432C196.491 210.535 196.163 210.586 195.8 210.586ZM203.698 210.586C203.081 210.586 202.528 210.44 202.038 210.148C201.556 209.847 201.172 209.444 200.888 208.938C200.611 208.432 200.473 207.863 200.473 207.231C200.473 206.599 200.615 206.03 200.9 205.524C201.184 205.018 201.568 204.619 202.05 204.326C202.532 204.034 203.077 203.888 203.686 203.888C204.2 203.888 204.654 203.99 205.049 204.196C205.444 204.401 205.757 204.686 205.986 205.049L205.784 205.358V201.469H207.112V210.444H205.843V209.14L205.998 209.389C205.776 209.776 205.46 210.072 205.049 210.278C204.638 210.483 204.188 210.586 203.698 210.586ZM203.828 209.341C204.2 209.341 204.531 209.25 204.824 209.069C205.124 208.887 205.357 208.638 205.523 208.322C205.697 207.998 205.784 207.634 205.784 207.231C205.784 206.828 205.697 206.468 205.523 206.152C205.357 205.836 205.124 205.587 204.824 205.405C204.531 205.223 204.2 205.132 203.828 205.132C203.457 205.132 203.121 205.223 202.82 205.405C202.52 205.587 202.287 205.836 202.121 206.152C201.955 206.468 201.872 206.828 201.872 207.231C201.872 207.634 201.955 207.998 202.121 208.322C202.287 208.638 202.516 208.887 202.808 209.069C203.109 209.25 203.449 209.341 203.828 209.341Z" fill="white"/>
<path d="M94.8413 208.468V204.674H87.0166V201.592L94.6042 190.803H98.5165V201.592H101.244V204.674H98.5165V208.468H94.8413ZM89.696 202.92L89.0084 201.592H94.8413V193.648L95.766 193.933L89.696 202.92ZM110.256 208.753C108.849 208.753 107.608 208.373 106.533 207.615C105.474 206.856 104.644 205.789 104.044 204.414C103.443 203.038 103.143 201.442 103.143 199.624C103.143 197.79 103.435 196.193 104.02 194.834C104.621 193.474 105.45 192.415 106.51 191.656C107.584 190.898 108.825 190.518 110.232 190.518C111.671 190.518 112.919 190.898 113.979 191.656C115.053 192.415 115.883 193.482 116.468 194.858C117.069 196.217 117.369 197.806 117.369 199.624C117.369 201.442 117.069 203.038 116.468 204.414C115.883 205.773 115.053 206.84 113.979 207.615C112.919 208.373 111.679 208.753 110.256 208.753ZM110.28 205.433C111.007 205.433 111.623 205.204 112.129 204.746C112.635 204.287 113.022 203.623 113.291 202.754C113.56 201.884 113.694 200.841 113.694 199.624C113.694 198.407 113.56 197.371 113.291 196.517C113.022 195.648 112.627 194.984 112.105 194.526C111.6 194.067 110.975 193.838 110.232 193.838C109.505 193.838 108.889 194.067 108.383 194.526C107.877 194.984 107.49 195.648 107.221 196.517C106.952 197.371 106.818 198.407 106.818 199.624C106.818 200.825 106.952 201.861 107.221 202.73C107.49 203.599 107.877 204.271 108.383 204.746C108.904 205.204 109.537 205.433 110.28 205.433ZM122.306 208.468L136.58 190.803H140.232L125.958 208.468H122.306ZM125.128 199.766C124.243 199.766 123.444 199.56 122.733 199.149C122.037 198.723 121.484 198.161 121.073 197.466C120.662 196.77 120.457 195.996 120.457 195.142C120.457 194.289 120.662 193.514 121.073 192.818C121.484 192.107 122.037 191.546 122.733 191.135C123.444 190.724 124.243 190.518 125.128 190.518C126.013 190.518 126.803 190.724 127.499 191.135C128.194 191.546 128.748 192.107 129.159 192.818C129.57 193.514 129.775 194.289 129.775 195.142C129.775 195.996 129.57 196.77 129.159 197.466C128.748 198.161 128.194 198.723 127.499 199.149C126.803 199.56 126.013 199.766 125.128 199.766ZM125.128 197.158C125.555 197.158 125.91 197.063 126.195 196.873C126.479 196.668 126.693 196.415 126.835 196.114C126.977 195.798 127.048 195.474 127.048 195.142C127.048 194.794 126.977 194.47 126.835 194.17C126.693 193.87 126.479 193.625 126.195 193.435C125.91 193.229 125.555 193.127 125.128 193.127C124.701 193.127 124.345 193.229 124.061 193.435C123.776 193.625 123.555 193.87 123.397 194.17C123.255 194.47 123.183 194.794 123.183 195.142C123.183 195.474 123.255 195.798 123.397 196.114C123.555 196.415 123.776 196.668 124.061 196.873C124.345 197.063 124.701 197.158 125.128 197.158ZM137.386 208.753C136.501 208.753 135.703 208.547 134.992 208.136C134.296 207.71 133.743 207.148 133.332 206.453C132.921 205.757 132.715 204.983 132.715 204.129C132.715 203.275 132.921 202.501 133.332 201.805C133.743 201.094 134.296 200.533 134.992 200.122C135.703 199.711 136.501 199.505 137.386 199.505C138.272 199.505 139.062 199.711 139.758 200.122C140.453 200.533 141.006 201.094 141.417 201.805C141.828 202.501 142.034 203.275 142.034 204.129C142.034 204.983 141.828 205.757 141.417 206.453C141.006 207.148 140.453 207.71 139.758 208.136C139.062 208.547 138.272 208.753 137.386 208.753ZM137.386 206.145C137.813 206.145 138.169 206.05 138.453 205.86C138.738 205.654 138.951 205.402 139.094 205.101C139.236 204.785 139.307 204.461 139.307 204.129C139.307 203.781 139.236 203.457 139.094 203.157C138.951 202.856 138.738 202.611 138.453 202.422C138.169 202.216 137.813 202.113 137.386 202.113C136.975 202.113 136.62 202.216 136.319 202.422C136.035 202.611 135.814 202.856 135.656 203.157C135.513 203.457 135.442 203.781 135.442 204.129C135.442 204.461 135.513 204.785 135.656 205.101C135.814 205.402 136.035 205.654 136.319 205.86C136.62 206.05 136.975 206.145 137.386 206.145Z" fill="white"/>
<g filter="url(#filter0_d_2_1608)">
<path d="M248.967 105.716H78.0492C65.4995 105.716 55.326 115.89 55.326 128.44C55.326 140.99 65.4995 151.164 78.0492 151.164H248.967C261.517 151.164 271.69 140.99 271.69 128.44C271.69 115.89 261.517 105.716 248.967 105.716Z" fill="white"/>
<path d="M248.967 106.457H78.0492C65.9088 106.457 56.067 116.3 56.067 128.44C56.067 140.581 65.9088 150.423 78.0492 150.423H248.967C261.108 150.423 270.949 140.581 270.949 128.44C270.949 116.3 261.108 106.457 248.967 106.457Z" stroke="url(#paint0_linear_2_1608)" stroke-width="1.5"/>
</g>
<path d="M109.463 132.392L112.463 124.19H114.033L117.032 132.392H115.545L113.236 125.83L110.928 132.392H109.463ZM110.799 130.459L111.174 129.345H115.217L115.591 130.459H110.799ZM120.191 132.533C119.714 132.533 119.304 132.439 118.96 132.252C118.624 132.056 118.366 131.767 118.187 131.385C118.008 130.994 117.918 130.513 117.918 129.943V126.487H119.323V129.803C119.323 130.311 119.429 130.697 119.64 130.963C119.859 131.221 120.187 131.349 120.624 131.349C120.905 131.349 121.155 131.283 121.374 131.15C121.601 131.017 121.777 130.826 121.901 130.576C122.034 130.319 122.101 130.006 122.101 129.639V126.487H123.507V132.392H122.265L122.159 131.408C121.979 131.752 121.717 132.025 121.374 132.228C121.038 132.432 120.643 132.533 120.191 132.533ZM127.637 132.392C127.239 132.392 126.891 132.33 126.594 132.205C126.305 132.08 126.078 131.873 125.914 131.584C125.75 131.295 125.668 130.904 125.668 130.412V127.67H124.66V126.487H125.668L125.832 124.928H127.075V126.487H128.68V127.67H127.075V130.412C127.075 130.709 127.137 130.916 127.262 131.033C127.395 131.143 127.614 131.197 127.918 131.197H128.645V132.392H127.637ZM132.608 132.533C132.046 132.533 131.538 132.404 131.084 132.146C130.639 131.881 130.288 131.517 130.03 131.057C129.78 130.588 129.655 130.053 129.655 129.451C129.655 128.835 129.784 128.295 130.042 127.834C130.299 127.365 130.651 127.002 131.096 126.744C131.55 126.479 132.056 126.346 132.62 126.346C133.182 126.346 133.686 126.479 134.131 126.744C134.584 127.002 134.935 127.361 135.185 127.823C135.443 128.283 135.572 128.823 135.572 129.439C135.572 130.057 135.443 130.595 135.185 131.057C134.927 131.517 134.572 131.881 134.119 132.146C133.674 132.404 133.17 132.533 132.608 132.533ZM132.608 131.326C132.889 131.326 133.142 131.256 133.369 131.115C133.604 130.975 133.791 130.763 133.932 130.483C134.072 130.201 134.143 129.853 134.143 129.439C134.143 129.025 134.072 128.681 133.932 128.409C133.799 128.127 133.615 127.916 133.381 127.775C133.154 127.635 132.9 127.565 132.62 127.565C132.346 127.565 132.092 127.635 131.858 127.775C131.624 127.916 131.436 128.127 131.296 128.409C131.154 128.681 131.084 129.025 131.084 129.439C131.084 129.853 131.154 130.201 131.296 130.483C131.436 130.763 131.62 130.975 131.846 131.115C132.08 131.256 132.334 131.326 132.608 131.326ZM136.949 132.392V126.487H138.191L138.307 127.295C138.495 126.998 138.741 126.768 139.046 126.604C139.358 126.432 139.714 126.346 140.112 126.346C140.409 126.346 140.674 126.385 140.909 126.463C141.151 126.541 141.362 126.659 141.542 126.815C141.73 126.971 141.882 127.166 141.998 127.401C142.218 127.073 142.502 126.815 142.854 126.627C143.206 126.44 143.588 126.346 144.002 126.346C144.494 126.346 144.912 126.448 145.256 126.651C145.599 126.846 145.861 127.139 146.041 127.529C146.221 127.913 146.311 128.385 146.311 128.947V132.392H144.916V129.087C144.916 128.588 144.815 128.205 144.611 127.939C144.408 127.674 144.108 127.541 143.709 127.541C143.436 127.541 143.194 127.607 142.983 127.741C142.78 127.873 142.62 128.069 142.502 128.327C142.386 128.577 142.326 128.885 142.326 129.252V132.392H140.932V129.087C140.932 128.588 140.831 128.205 140.628 127.939C140.424 127.674 140.12 127.541 139.714 127.541C139.456 127.541 139.221 127.607 139.011 127.741C138.807 127.873 138.647 128.069 138.531 128.327C138.413 128.577 138.355 128.885 138.355 129.252V132.392H136.949ZM149.765 132.533C149.281 132.533 148.877 132.451 148.557 132.287C148.237 132.123 147.999 131.904 147.843 131.631C147.687 131.357 147.609 131.061 147.609 130.74C147.609 130.365 147.703 130.041 147.89 129.767C148.085 129.495 148.371 129.283 148.745 129.135C149.121 128.979 149.581 128.901 150.128 128.901H151.616C151.616 128.588 151.573 128.331 151.487 128.127C151.401 127.916 151.268 127.76 151.089 127.659C150.909 127.557 150.679 127.506 150.397 127.506C150.077 127.506 149.803 127.58 149.577 127.729C149.351 127.869 149.21 128.088 149.155 128.385H147.773C147.819 127.963 147.96 127.604 148.195 127.307C148.429 127.002 148.737 126.768 149.121 126.604C149.511 126.432 149.937 126.346 150.397 126.346C150.952 126.346 151.424 126.444 151.815 126.639C152.206 126.826 152.502 127.1 152.706 127.459C152.916 127.811 153.022 128.237 153.022 128.737V132.392H151.827L151.686 131.443C151.608 131.599 151.506 131.744 151.382 131.877C151.264 132.01 151.128 132.127 150.971 132.228C150.815 132.322 150.635 132.396 150.433 132.451C150.237 132.506 150.015 132.533 149.765 132.533ZM150.081 131.42C150.307 131.42 150.507 131.381 150.679 131.303C150.858 131.217 151.01 131.099 151.135 130.951C151.268 130.795 151.37 130.623 151.44 130.435C151.51 130.248 151.557 130.049 151.581 129.838V129.815H150.28C150.007 129.815 149.78 129.849 149.601 129.92C149.421 129.991 149.292 130.088 149.213 130.213C149.135 130.33 149.097 130.471 149.097 130.635C149.097 130.799 149.135 130.939 149.213 131.057C149.292 131.174 149.405 131.263 149.553 131.326C149.702 131.389 149.878 131.42 150.081 131.42ZM156.999 132.392C156.6 132.392 156.253 132.33 155.956 132.205C155.667 132.08 155.441 131.873 155.277 131.584C155.113 131.295 155.031 130.904 155.031 130.412V127.67H154.023V126.487H155.031L155.195 124.928H156.436V126.487H158.042V127.67H156.436V130.412C156.436 130.709 156.499 130.916 156.624 131.033C156.756 131.143 156.976 131.197 157.28 131.197H158.006V132.392H156.999ZM161.981 132.533C161.395 132.533 160.879 132.408 160.435 132.158C159.989 131.9 159.641 131.541 159.391 131.08C159.141 130.619 159.017 130.088 159.017 129.487C159.017 128.861 159.137 128.315 159.38 127.846C159.63 127.377 159.977 127.01 160.423 126.744C160.875 126.479 161.399 126.346 161.993 126.346C162.571 126.346 163.075 126.475 163.504 126.733C163.934 126.991 164.266 127.338 164.5 127.775C164.734 128.205 164.852 128.689 164.852 129.229C164.852 129.307 164.852 129.393 164.852 129.487C164.852 129.581 164.844 129.677 164.828 129.779H160.025V128.877H163.434C163.418 128.447 163.274 128.111 163 127.869C162.727 127.619 162.387 127.495 161.981 127.495C161.692 127.495 161.427 127.561 161.185 127.693C160.943 127.827 160.751 128.025 160.611 128.291C160.469 128.549 160.399 128.877 160.399 129.275V129.615C160.399 129.983 160.465 130.299 160.599 130.565C160.739 130.83 160.927 131.033 161.161 131.174C161.403 131.307 161.673 131.373 161.969 131.373C162.297 131.373 162.567 131.303 162.778 131.162C162.996 131.021 163.157 130.834 163.258 130.599H164.688C164.578 130.967 164.398 131.299 164.148 131.596C163.898 131.885 163.59 132.115 163.223 132.287C162.856 132.451 162.442 132.533 161.981 132.533ZM168.775 132.533C168.228 132.533 167.74 132.4 167.31 132.134C166.88 131.869 166.544 131.502 166.302 131.033C166.068 130.565 165.951 130.033 165.951 129.439C165.951 128.845 166.072 128.319 166.314 127.857C166.556 127.389 166.892 127.022 167.322 126.756C167.759 126.483 168.251 126.346 168.798 126.346C169.243 126.346 169.63 126.432 169.958 126.604C170.294 126.768 170.559 127.002 170.755 127.307V123.956H172.161V132.392H170.895L170.755 131.537C170.63 131.709 170.477 131.873 170.298 132.029C170.119 132.178 169.903 132.298 169.653 132.392C169.403 132.486 169.111 132.533 168.775 132.533ZM169.068 131.314C169.403 131.314 169.701 131.236 169.958 131.08C170.216 130.916 170.415 130.693 170.555 130.412C170.697 130.131 170.767 129.807 170.767 129.439C170.767 129.073 170.697 128.749 170.555 128.467C170.415 128.185 170.216 127.967 169.958 127.811C169.701 127.655 169.403 127.577 169.068 127.577C168.747 127.577 168.458 127.655 168.2 127.811C167.943 127.967 167.74 128.185 167.592 128.467C167.45 128.749 167.38 129.073 167.38 129.439C167.38 129.807 167.45 130.131 167.592 130.412C167.74 130.693 167.943 130.916 168.2 131.08C168.458 131.236 168.747 131.314 169.068 131.314ZM176.632 132.392V124.19H179.843C180.421 124.19 180.901 124.28 181.285 124.46C181.675 124.64 181.967 124.889 182.163 125.21C182.359 125.522 182.456 125.885 182.456 126.299C182.456 126.713 182.367 127.061 182.187 127.342C182.007 127.623 181.769 127.838 181.471 127.987C181.183 128.135 180.867 128.225 180.523 128.256L180.699 128.127C181.065 128.135 181.393 128.233 181.683 128.42C181.979 128.607 182.214 128.853 182.385 129.159C182.557 129.455 182.643 129.787 182.643 130.155C182.643 130.584 182.538 130.971 182.327 131.314C182.124 131.65 181.823 131.916 181.425 132.111C181.027 132.298 180.539 132.392 179.96 132.392H176.632ZM178.038 131.244H179.749C180.21 131.244 180.569 131.135 180.827 130.916C181.085 130.697 181.214 130.393 181.214 130.002C181.214 129.611 181.081 129.303 180.815 129.077C180.55 128.841 180.187 128.725 179.726 128.725H178.038V131.244ZM178.038 127.659H179.644C180.097 127.659 180.441 127.557 180.675 127.354C180.909 127.143 181.027 126.854 181.027 126.487C181.027 126.127 180.909 125.846 180.675 125.643C180.441 125.432 180.093 125.326 179.632 125.326H178.038V127.659ZM186.697 132.533C186.135 132.533 185.627 132.404 185.173 132.146C184.729 131.881 184.377 131.517 184.119 131.057C183.869 130.588 183.744 130.053 183.744 129.451C183.744 128.835 183.873 128.295 184.131 127.834C184.389 127.365 184.741 127.002 185.185 126.744C185.639 126.479 186.146 126.346 186.709 126.346C187.271 126.346 187.775 126.479 188.22 126.744C188.674 127.002 189.024 127.361 189.274 127.823C189.532 128.283 189.662 128.823 189.662 129.439C189.662 130.057 189.532 130.595 189.274 131.057C189.017 131.517 188.662 131.881 188.208 132.146C187.763 132.404 187.259 132.533 186.697 132.533ZM186.697 131.326C186.978 131.326 187.232 131.256 187.459 131.115C187.693 130.975 187.88 130.763 188.021 130.483C188.162 130.201 188.232 129.853 188.232 129.439C188.232 129.025 188.162 128.681 188.021 128.409C187.888 128.127 187.705 127.916 187.47 127.775C187.244 127.635 186.99 127.565 186.709 127.565C186.435 127.565 186.181 127.635 185.947 127.775C185.713 127.916 185.525 128.127 185.385 128.409C185.243 128.681 185.173 129.025 185.173 129.439C185.173 129.853 185.243 130.201 185.385 130.483C185.525 130.763 185.709 130.975 185.935 131.115C186.169 131.256 186.423 131.326 186.697 131.326ZM193.375 132.392C192.976 132.392 192.63 132.33 192.332 132.205C192.044 132.08 191.816 131.873 191.652 131.584C191.488 131.295 191.406 130.904 191.406 130.412V127.67H190.399V126.487H191.406L191.57 124.928H192.812V126.487H194.418V127.67H192.812V130.412C192.812 130.709 192.876 130.916 193 131.033C193.132 131.143 193.352 131.197 193.656 131.197H194.383V132.392H193.375ZM198.648 132.392V124.19H201.589C202.237 124.19 202.773 124.304 203.195 124.53C203.625 124.748 203.941 125.046 204.143 125.42C204.355 125.788 204.46 126.205 204.46 126.674C204.46 127.111 204.359 127.518 204.155 127.893C203.953 128.267 203.635 128.569 203.207 128.795C202.777 129.021 202.226 129.135 201.554 129.135H200.054V132.392H198.648ZM202.925 132.392L201.203 128.771H202.726L204.531 132.392H202.925ZM200.054 128.092H201.496C202.019 128.092 202.401 127.967 202.644 127.717C202.893 127.459 203.019 127.123 203.019 126.709C203.019 126.303 202.897 125.979 202.655 125.737C202.413 125.487 202.027 125.362 201.496 125.362H200.054V128.092ZM208.278 132.533C207.692 132.533 207.176 132.408 206.732 132.158C206.286 131.9 205.938 131.541 205.688 131.08C205.438 130.619 205.314 130.088 205.314 129.487C205.314 128.861 205.435 128.315 205.677 127.846C205.927 127.377 206.274 127.01 206.72 126.744C207.172 126.479 207.696 126.346 208.29 126.346C208.868 126.346 209.372 126.475 209.801 126.733C210.231 126.991 210.563 127.338 210.797 127.775C211.031 128.205 211.149 128.689 211.149 129.229C211.149 129.307 211.149 129.393 211.149 129.487C211.149 129.581 211.141 129.677 211.125 129.779H206.322V128.877H209.731C209.715 128.447 209.571 128.111 209.297 127.869C209.024 127.619 208.684 127.495 208.278 127.495C207.989 127.495 207.724 127.561 207.482 127.693C207.24 127.827 207.048 128.025 206.908 128.291C206.766 128.549 206.696 128.877 206.696 129.275V129.615C206.696 129.983 206.762 130.299 206.896 130.565C207.036 130.83 207.224 131.033 207.458 131.174C207.7 131.307 207.97 131.373 208.266 131.373C208.594 131.373 208.864 131.303 209.075 131.162C209.294 131.021 209.454 130.834 209.555 130.599H210.985C210.875 130.967 210.695 131.299 210.445 131.596C210.196 131.885 209.887 132.115 209.52 132.287C209.153 132.451 208.739 132.533 208.278 132.533ZM214.802 132.533C214.279 132.533 213.821 132.451 213.431 132.287C213.049 132.115 212.743 131.881 212.517 131.584C212.299 131.279 212.169 130.931 212.131 130.541H213.537C213.575 130.705 213.646 130.857 213.747 130.998C213.849 131.131 213.985 131.236 214.157 131.314C214.337 131.392 214.549 131.431 214.791 131.431C215.025 131.431 215.216 131.4 215.365 131.338C215.513 131.267 215.622 131.178 215.693 131.068C215.763 130.959 215.798 130.842 215.798 130.717C215.798 130.529 215.747 130.385 215.646 130.283C215.544 130.181 215.396 130.103 215.201 130.049C215.013 129.987 214.787 129.927 214.521 129.873C214.239 129.819 213.967 129.752 213.701 129.673C213.443 129.588 213.209 129.483 212.997 129.357C212.795 129.233 212.631 129.073 212.505 128.877C212.389 128.681 212.33 128.443 212.33 128.163C212.33 127.819 212.419 127.51 212.599 127.237C212.787 126.963 213.053 126.748 213.397 126.592C213.747 126.428 214.165 126.346 214.65 126.346C215.337 126.346 215.884 126.506 216.29 126.826C216.704 127.139 216.946 127.58 217.016 128.151H215.681C215.642 127.932 215.533 127.764 215.353 127.647C215.173 127.522 214.935 127.459 214.638 127.459C214.333 127.459 214.099 127.518 213.935 127.635C213.779 127.745 213.701 127.893 213.701 128.081C213.701 128.205 213.747 128.315 213.841 128.409C213.943 128.502 214.087 128.585 214.275 128.655C214.463 128.717 214.693 128.779 214.966 128.841C215.404 128.927 215.79 129.029 216.126 129.147C216.462 129.263 216.728 129.435 216.923 129.662C217.118 129.889 217.216 130.209 217.216 130.623C217.224 130.998 217.126 131.33 216.923 131.619C216.728 131.908 216.45 132.134 216.091 132.298C215.732 132.455 215.302 132.533 214.802 132.533ZM218.58 134.97V126.487H219.834L219.986 127.342C220.112 127.17 220.26 127.01 220.432 126.862C220.612 126.705 220.826 126.58 221.076 126.487C221.334 126.393 221.626 126.346 221.955 126.346C222.51 126.346 222.998 126.483 223.419 126.756C223.849 127.029 224.185 127.401 224.427 127.869C224.669 128.331 224.791 128.857 224.791 129.451C224.791 130.045 224.665 130.576 224.415 131.045C224.173 131.506 223.837 131.869 223.408 132.134C222.986 132.4 222.502 132.533 221.955 132.533C221.51 132.533 221.119 132.451 220.784 132.287C220.455 132.115 220.19 131.873 219.986 131.56V134.97H218.58ZM221.662 131.314C221.99 131.314 222.283 131.236 222.541 131.08C222.798 130.924 222.998 130.705 223.138 130.424C223.287 130.143 223.361 129.819 223.361 129.451C223.361 129.077 223.287 128.749 223.138 128.467C222.998 128.185 222.798 127.967 222.541 127.811C222.283 127.655 221.99 127.577 221.662 127.577C221.326 127.577 221.03 127.655 220.772 127.811C220.522 127.967 220.322 128.185 220.174 128.467C220.033 128.749 219.963 129.073 219.963 129.439C219.963 129.815 220.033 130.143 220.174 130.424C220.322 130.697 220.522 130.916 220.772 131.08C221.03 131.236 221.326 131.314 221.662 131.314ZM228.909 132.533C228.346 132.533 227.839 132.404 227.385 132.146C226.941 131.881 226.589 131.517 226.331 131.057C226.081 130.588 225.957 130.053 225.957 129.451C225.957 128.835 226.085 128.295 226.343 127.834C226.601 127.365 226.952 127.002 227.397 126.744C227.85 126.479 228.358 126.346 228.92 126.346C229.483 126.346 229.986 126.479 230.432 126.744C230.885 127.002 231.236 127.361 231.486 127.823C231.744 128.283 231.873 128.823 231.873 129.439C231.873 130.057 231.744 130.595 231.486 131.057C231.229 131.517 230.874 131.881 230.42 132.146C229.976 132.404 229.472 132.533 228.909 132.533ZM228.909 131.326C229.19 131.326 229.444 131.256 229.67 131.115C229.904 130.975 230.092 130.763 230.232 130.483C230.374 130.201 230.444 129.853 230.444 129.439C230.444 129.025 230.374 128.681 230.232 128.409C230.1 128.127 229.916 127.916 229.682 127.775C229.456 127.635 229.202 127.565 228.92 127.565C228.647 127.565 228.393 127.635 228.159 127.775C227.925 127.916 227.737 128.127 227.597 128.409C227.456 128.681 227.385 129.025 227.385 129.439C227.385 129.853 227.456 130.201 227.597 130.483C227.737 130.763 227.921 130.975 228.147 131.115C228.382 131.256 228.636 131.326 228.909 131.326ZM233.25 132.392V126.487H234.492L234.597 127.471C234.777 127.127 235.035 126.854 235.371 126.651C235.707 126.448 236.105 126.346 236.565 126.346C237.042 126.346 237.449 126.448 237.784 126.651C238.12 126.846 238.378 127.135 238.558 127.518C238.745 127.901 238.839 128.377 238.839 128.947V132.392H237.433V129.077C237.433 128.584 237.323 128.205 237.105 127.939C236.886 127.674 236.561 127.541 236.133 127.541C235.851 127.541 235.597 127.607 235.371 127.741C235.152 127.873 234.976 128.069 234.843 128.327C234.718 128.577 234.656 128.881 234.656 129.241V132.392H233.25ZM242.677 132.533C242.153 132.533 241.696 132.451 241.306 132.287C240.923 132.115 240.618 131.881 240.392 131.584C240.172 131.279 240.044 130.931 240.004 130.541H241.411C241.45 130.705 241.52 130.857 241.622 130.998C241.723 131.131 241.86 131.236 242.032 131.314C242.212 131.392 242.423 131.431 242.665 131.431C242.899 131.431 243.091 131.4 243.239 131.338C243.387 131.267 243.497 131.178 243.567 131.068C243.637 130.959 243.673 130.842 243.673 130.717C243.673 130.529 243.621 130.385 243.52 130.283C243.419 130.181 243.27 130.103 243.075 130.049C242.887 129.987 242.661 129.927 242.395 129.873C242.114 129.819 241.841 129.752 241.575 129.673C241.317 129.588 241.083 129.483 240.872 129.357C240.669 129.233 240.505 129.073 240.38 128.877C240.262 128.681 240.204 128.443 240.204 128.163C240.204 127.819 240.294 127.51 240.474 127.237C240.661 126.963 240.926 126.748 241.27 126.592C241.622 126.428 242.04 126.346 242.524 126.346C243.211 126.346 243.759 126.506 244.165 126.826C244.579 127.139 244.821 127.58 244.891 128.151H243.555C243.517 127.932 243.407 127.764 243.227 127.647C243.047 127.522 242.809 127.459 242.513 127.459C242.208 127.459 241.973 127.518 241.809 127.635C241.653 127.745 241.575 127.893 241.575 128.081C241.575 128.205 241.622 128.315 241.716 128.409C241.817 128.502 241.962 128.585 242.149 128.655C242.337 128.717 242.567 128.779 242.841 128.841C243.278 128.927 243.665 129.029 244.001 129.147C244.337 129.263 244.602 129.435 244.797 129.662C244.993 129.889 245.09 130.209 245.09 130.623C245.098 130.998 245.001 131.33 244.797 131.619C244.602 131.908 244.325 132.134 243.965 132.298C243.606 132.455 243.177 132.533 242.677 132.533ZM249.22 132.533C248.634 132.533 248.119 132.408 247.673 132.158C247.227 131.9 246.881 131.541 246.631 131.08C246.381 130.619 246.255 130.088 246.255 129.487C246.255 128.861 246.377 128.315 246.619 127.846C246.869 127.377 247.217 127.01 247.661 126.744C248.115 126.479 248.638 126.346 249.231 126.346C249.81 126.346 250.314 126.475 250.743 126.733C251.172 126.991 251.504 127.338 251.739 127.775C251.974 128.205 252.09 128.689 252.09 129.229C252.09 129.307 252.09 129.393 252.09 129.487C252.09 129.581 252.082 129.677 252.067 129.779H247.263V128.877H250.672C250.657 128.447 250.512 128.111 250.239 127.869C249.966 127.619 249.626 127.495 249.22 127.495C248.931 127.495 248.665 127.561 248.423 127.693C248.181 127.827 247.989 128.025 247.849 128.291C247.709 128.549 247.638 128.877 247.638 129.275V129.615C247.638 129.983 247.705 130.299 247.837 130.565C247.977 130.83 248.165 131.033 248.399 131.174C248.642 131.307 248.911 131.373 249.208 131.373C249.536 131.373 249.806 131.303 250.016 131.162C250.235 131.021 250.396 130.834 250.497 130.599H251.926C251.818 130.967 251.638 131.299 251.388 131.596C251.138 131.885 250.829 132.115 250.462 132.287C250.094 132.451 249.681 132.533 249.22 132.533Z" fill="#333333"/>
<g filter="url(#filter1_d_2_1608)">
<g filter="url(#filter2_d_2_1608)">
<path d="M60.2659 128.29C60.2659 118.006 68.6029 109.668 78.8871 109.668C89.1714 109.668 97.5085 118.006 97.5085 128.29C97.5085 138.575 89.1714 146.912 78.8871 146.912C68.6029 146.912 60.2659 138.575 60.2659 128.29Z" fill="#333333"/>
</g>
<mask id="mask0_2_1608" style="mask-type:luminance" maskUnits="userSpaceOnUse" x="69" y="118" width="19" height="19">
<path d="M87.3539 118.56H69.1575V136.722H87.3539V118.56Z" fill="white"/>
</mask>
<g mask="url(#mask0_2_1608)">
<path fill-rule="evenodd" clip-rule="evenodd" d="M78.0811 118.567L81.7346 118.564C85.3384 118.56 85.3915 118.564 85.6363 118.635C85.7711 118.678 85.9946 118.766 86.1329 118.837C86.2996 118.922 86.4734 119.057 86.6685 119.252C86.8955 119.475 86.9877 119.599 87.1048 119.838C87.1864 120.004 87.275 120.249 87.3034 120.387C87.3459 120.589 87.3566 121.04 87.3566 122.834C87.3566 124.629 87.3459 125.08 87.3034 125.282C87.275 125.417 87.1864 125.665 87.1048 125.832C86.9877 126.07 86.892 126.193 86.6685 126.421C86.4414 126.644 86.3174 126.74 86.0797 126.857C85.913 126.938 85.6647 127.027 85.5299 127.056C85.3242 127.098 84.7567 127.109 78.9501 127.109L77.8861 127.641C77.1234 128.024 76.7865 128.173 76.6977 128.173C76.6304 128.173 76.5097 128.141 76.4318 128.102C76.3371 128.055 76.2662 127.984 76.2189 127.889C76.1479 127.75 76.1479 127.676 76.1479 124.19C76.1479 121.206 76.1586 120.596 76.2012 120.387C76.2295 120.249 76.3183 120.004 76.3998 119.838C76.5168 119.599 76.6091 119.475 76.8361 119.252C77.017 119.071 77.2085 118.922 77.354 118.844C77.4817 118.776 77.6945 118.687 77.8328 118.645L78.0811 118.567ZM78.5777 121.344C78.4997 121.391 78.4074 121.484 78.3755 121.547C78.3436 121.611 78.3152 121.717 78.3117 121.781C78.3117 121.845 78.3436 121.955 78.3791 122.029C78.4181 122.104 78.5032 122.196 78.5812 122.238L78.7196 122.32C84.6963 122.32 84.7708 122.32 84.9091 122.249C85.0038 122.202 85.0747 122.131 85.122 122.037C85.1609 121.959 85.193 121.848 85.193 121.788C85.193 121.732 85.1609 121.618 85.122 121.54C85.0747 121.445 85.0038 121.374 84.9091 121.327C84.7708 121.259 84.6963 121.256 81.7417 121.256H78.7196L78.5777 121.344ZM78.5777 123.473C78.4997 123.523 78.4074 123.615 78.3755 123.679C78.3436 123.742 78.3152 123.846 78.3117 123.909C78.3117 123.973 78.3436 124.087 78.3791 124.158C78.4181 124.236 78.5032 124.324 78.5812 124.37L78.7196 124.449C84.6963 124.452 84.7708 124.449 84.9091 124.381C85.0038 124.334 85.0747 124.263 85.122 124.168C85.1609 124.09 85.193 123.976 85.193 123.92C85.193 123.86 85.1609 123.75 85.122 123.672C85.0747 123.577 85.0038 123.506 84.9091 123.459C84.7708 123.387 84.6963 123.387 81.7417 123.387H78.7196L78.5777 123.473ZM75.0626 124.995L75.0839 126.506C75.1016 127.989 75.1016 128.017 75.1867 128.209C75.2293 128.319 75.3108 128.468 75.3676 128.546C75.4208 128.624 75.5414 128.758 75.6372 128.84C75.733 128.925 75.882 129.028 75.9706 129.07C76.0593 129.11 76.2083 129.166 76.3076 129.191C76.4033 129.216 76.5559 129.237 76.6446 129.237C76.7332 129.237 76.9 129.22 77.017 129.195C77.1624 129.166 77.5455 128.996 79.1984 128.173L85.1042 128.191L85.1468 128.475C85.1752 128.666 85.1894 129.429 85.1894 130.833C85.193 132.521 85.1823 132.976 85.1397 133.263C85.1078 133.458 85.0369 133.759 84.98 133.93C84.9198 134.1 84.8241 134.338 84.7637 134.462C84.6999 134.582 84.5687 134.803 84.4728 134.948C84.3735 135.097 84.1572 135.352 83.9905 135.519C83.8202 135.689 83.5578 135.909 83.4017 136.016C83.2456 136.119 82.9902 136.264 82.8341 136.338C82.6781 136.409 82.4049 136.509 82.2311 136.555C82.0538 136.605 81.8374 136.661 81.7417 136.683C81.6246 136.711 80.5995 136.721 78.2762 136.721C75.9529 136.721 74.9278 136.711 74.8072 136.683C74.715 136.661 74.4951 136.605 74.3213 136.555C74.1439 136.509 73.8743 136.409 73.7182 136.338C73.5621 136.264 73.3068 136.119 73.1508 136.012C72.9947 135.909 72.7286 135.686 72.5619 135.519C72.3952 135.352 72.1753 135.097 72.0795 134.948C71.9802 134.803 71.8525 134.582 71.7886 134.462C71.7284 134.338 71.6325 134.1 71.5723 133.93C71.5156 133.759 71.4446 133.469 71.4162 133.281C71.3701 133.005 71.3595 132.568 71.3595 130.851C71.3595 129.135 71.3701 128.698 71.4162 128.421C71.4446 128.237 71.5156 127.946 71.5723 127.776C71.6325 127.605 71.7284 127.364 71.7886 127.244C71.8525 127.119 71.9802 126.903 72.0795 126.755C72.1788 126.608 72.3952 126.353 72.5619 126.183C72.7286 126.016 72.9875 125.8 73.133 125.7C73.2784 125.604 73.4983 125.474 73.6189 125.414C73.743 125.35 73.9807 125.254 74.151 125.196C74.3247 125.136 74.5979 125.069 74.7646 125.041L75.0626 124.995ZM75.1442 129.532C75.0945 129.628 75.0839 129.755 75.0839 130.295C75.0803 130.862 75.0909 130.961 75.1477 131.075C75.1867 131.153 75.2754 131.241 75.3534 131.287C75.4279 131.33 75.5414 131.366 75.6052 131.369C75.6691 131.369 75.7826 131.337 75.8606 131.298C75.9553 131.251 76.0262 131.18 76.0734 131.085C76.1374 130.957 76.1444 130.873 76.1444 130.304C76.1444 129.737 76.1374 129.648 76.0734 129.525C76.0262 129.43 75.9553 129.359 75.8606 129.311C75.7826 129.273 75.6691 129.24 75.6052 129.24C75.5414 129.24 75.4244 129.28 75.3463 129.326C75.2683 129.376 75.1796 129.468 75.1442 129.532ZM80.4648 129.532C80.4151 129.628 80.4044 129.755 80.4044 130.295C80.4008 130.862 80.4115 130.961 80.4683 131.075C80.5072 131.153 80.596 131.241 80.674 131.287C80.7485 131.33 80.862 131.366 80.9258 131.369C80.9897 131.369 81.1032 131.337 81.1812 131.298C81.2758 131.251 81.3467 131.18 81.394 131.085C81.4579 130.957 81.465 130.873 81.465 130.304C81.465 129.737 81.4579 129.648 81.394 129.525C81.3467 129.43 81.2758 129.359 81.1812 129.311C81.1032 129.273 80.9897 129.24 80.9258 129.24C80.862 129.24 80.7449 129.28 80.6669 129.326C80.5888 129.376 80.5002 129.468 80.4648 129.532ZM76.9425 132.519C76.8645 132.568 76.7758 132.66 76.7403 132.724C76.7084 132.788 76.6801 132.894 76.6801 132.954C76.6765 133.018 76.7084 133.132 76.7439 133.203C76.7829 133.281 76.8715 133.369 76.9496 133.416C77.0809 133.494 77.1128 133.494 78.2655 133.498C79.3758 133.498 79.4538 133.494 79.5851 133.426C79.6796 133.379 79.7506 133.308 79.7979 133.213C79.8369 133.135 79.8688 133.022 79.8688 132.965C79.8688 132.905 79.8369 132.795 79.7979 132.717C79.7506 132.622 79.6796 132.551 79.5851 132.504C79.4538 132.437 79.3723 132.434 78.2655 132.434H77.0844L76.9425 132.519ZM70.3131 128.247C70.3308 128.247 70.3415 128.272 70.3308 128.308C70.3202 128.343 70.306 129.39 70.3024 130.638C70.2953 131.887 70.3024 133.025 70.3167 133.168C70.3344 133.309 70.3344 133.423 70.3202 133.423C70.306 133.423 70.2032 133.38 70.0932 133.327C69.9797 133.273 69.8165 133.164 69.7278 133.086C69.6391 133.005 69.515 132.862 69.4547 132.767C69.3908 132.671 69.3092 132.486 69.2668 132.358C69.1957 132.142 69.1923 132.053 69.1923 130.851C69.1923 129.918 69.2064 129.528 69.2419 129.396C69.2668 129.301 69.3235 129.142 69.3696 129.042C69.4156 128.946 69.5505 128.769 69.671 128.651C69.7881 128.535 69.9726 128.397 70.079 128.343C70.1889 128.29 70.2918 128.247 70.3131 128.247ZM86.2145 128.244C86.2358 128.244 86.3457 128.29 86.4557 128.343C86.5656 128.397 86.7287 128.506 86.821 128.584C86.9096 128.666 87.0338 128.808 87.0941 128.903C87.1545 128.999 87.2395 129.184 87.2821 129.309C87.3495 129.528 87.3566 129.617 87.353 130.815C87.353 131.756 87.3425 132.142 87.3069 132.27C87.2821 132.369 87.2041 132.55 87.1402 132.675C87.0729 132.802 86.9381 132.976 86.8387 133.065C86.7394 133.157 86.5656 133.273 86.4557 133.327C86.3457 133.38 86.2429 133.423 86.2286 133.423C86.2145 133.423 86.2145 133.309 86.2286 133.168C86.2464 133.025 86.2534 131.887 86.2464 130.638C86.2393 129.39 86.2215 128.343 86.2038 128.308C86.1825 128.265 86.1861 128.244 86.2145 128.244ZM70.799 121.792C70.8913 121.792 71.0508 121.806 71.1538 121.83C71.2566 121.852 71.4269 121.908 71.5333 121.959C71.6468 122.011 71.8206 122.14 71.9447 122.267C72.0654 122.388 72.1966 122.565 72.2497 122.675C72.2994 122.785 72.3597 122.955 72.381 123.058C72.4023 123.161 72.4201 123.32 72.4201 123.413C72.4201 123.505 72.3987 123.661 72.3739 123.757C72.3491 123.856 72.2888 124.016 72.2427 124.112C72.193 124.21 72.0583 124.388 71.9412 124.505C71.8241 124.622 71.6468 124.757 71.3559 124.892V125.921L71.1644 126.204C71.0615 126.36 70.9125 126.612 70.838 126.764C70.7104 127.016 70.689 127.038 70.5578 127.07C70.4798 127.091 70.3876 127.116 70.3557 127.127C70.2953 127.145 70.2918 127.077 70.2918 124.892L70.0577 124.768C69.9159 124.697 69.7526 124.573 69.6569 124.466C69.5682 124.367 69.4547 124.207 69.4086 124.112C69.3625 124.016 69.3022 123.856 69.2773 123.757C69.249 123.661 69.2277 123.505 69.2277 123.413C69.2277 123.32 69.2454 123.161 69.2668 123.058C69.2916 122.955 69.3483 122.785 69.398 122.675C69.4511 122.561 69.5789 122.392 69.7065 122.267C69.8236 122.149 70.0009 122.015 70.0968 121.969C70.196 121.923 70.3557 121.863 70.4514 121.841C70.5507 121.816 70.7068 121.795 70.799 121.792Z" fill="white"/>
</g>
</g>
<path opacity="0.3" d="M270.211 70.1925C288.606 76.8611 294.67 99.8574 281.953 114.729L279.1 118.066M279.1 118.066L280.088 112.138M279.1 118.066H285.028" stroke="#333333" stroke-width="1.3" stroke-linecap="round" stroke-dasharray="4 4"/>
<path opacity="0.3" d="M167.459 51.7523H138.316M167.459 51.7523C168.282 49.2823 170.917 43.9471 174.869 42.3663M167.459 51.7523C168.611 55.0456 171.806 61.8299 175.363 62.6203" stroke="#333333" stroke-width="1.3" stroke-linecap="round" stroke-dasharray="4 4"/>
<g filter="url(#filter3_d_2_1608)">
<path d="M276.658 24.7001H189.662C183.402 24.7001 178.328 29.7747 178.328 36.0345C178.328 42.2943 183.402 47.3689 189.662 47.3689H276.658C282.917 47.3689 287.992 42.2943 287.992 36.0345C287.992 29.7747 282.917 24.7001 276.658 24.7001Z" fill="white"/>
<path d="M190.273 44.765C195.179 44.765 199.157 40.7876 199.157 35.8813C199.157 30.9749 195.179 26.9976 190.273 26.9976C185.367 26.9976 181.39 30.9749 181.39 35.8813C181.39 40.7876 185.367 44.765 190.273 44.765Z" fill="#ECECEC"/>
<path fill-rule="evenodd" clip-rule="evenodd" d="M187.363 34.6561C187.363 33.9248 187.653 33.2236 188.171 32.7065C188.688 32.1895 189.389 31.899 190.12 31.899C190.851 31.899 191.553 32.1895 192.07 32.7065C192.586 33.2236 192.877 33.9248 192.877 34.6561C192.877 35.3873 192.586 36.0886 192.07 36.6056C191.553 37.1226 190.851 37.4131 190.12 37.4131C189.389 37.4131 188.688 37.1226 188.171 36.6056C187.653 36.0886 187.363 35.3873 187.363 34.6561ZM185.066 43.2978C185.086 41.971 185.628 40.7056 186.573 39.7747C187.519 38.8437 188.793 38.3219 190.12 38.3219C191.447 38.3219 192.721 38.8437 193.666 39.7747C194.612 40.7056 195.153 41.971 195.174 43.2978C195.176 43.3871 195.151 43.4749 195.104 43.5506C195.056 43.6262 194.987 43.6864 194.906 43.7236C193.404 44.4118 191.772 45.0733 190.12 45.0715C188.413 45.0715 186.792 44.3926 185.333 43.7236C185.252 43.6864 185.184 43.6262 185.137 43.5506C185.089 43.4749 185.065 43.3871 185.066 43.2978Z" fill="white"/>
<path opacity="0.5" d="M202.221 33.3068C202.221 32.4595 202.907 31.7726 203.755 31.7726H278.492C279.34 31.7726 280.027 32.4595 280.027 33.3068C280.027 34.1543 279.34 34.8411 278.492 34.8411H203.755C202.907 34.8411 202.221 34.1543 202.221 33.3068Z" fill="#D9D9D9"/>
<path opacity="0.5" d="M202.221 38.7621C202.221 37.9148 202.907 37.2278 203.755 37.2278H251.336C252.184 37.2278 252.871 37.9148 252.871 38.7621C252.871 39.6095 252.184 40.2964 251.336 40.2964H203.755C202.907 40.2964 202.221 39.6095 202.221 38.7621Z" fill="#D9D9D9"/>
<path d="M281.076 53.3521H190.183C183.908 53.3521 178.822 58.439 178.822 64.7141C178.822 70.9892 183.908 76.0761 190.183 76.0761H281.076C287.351 76.0761 292.438 70.9892 292.438 64.7141C292.438 58.439 287.351 53.3521 281.076 53.3521Z" fill="white"/>
<path d="M190.767 73.4447C195.674 73.4447 199.651 69.4673 199.651 64.561C199.651 59.6546 195.674 55.6772 190.767 55.6772C185.861 55.6772 181.884 59.6546 181.884 64.561C181.884 69.4673 185.861 73.4447 190.767 73.4447Z" fill="#BFBFBF"/>
<path fill-rule="evenodd" clip-rule="evenodd" d="M187.857 63.3355C187.857 62.6042 188.147 61.903 188.665 61.3859C189.182 60.8689 189.883 60.5784 190.614 60.5784C191.345 60.5784 192.047 60.8689 192.564 61.3859C193.08 61.903 193.371 62.6042 193.371 63.3355C193.371 64.0667 193.08 64.7679 192.564 65.285C192.047 65.802 191.345 66.0925 190.614 66.0925C189.883 66.0925 189.182 65.802 188.665 65.285C188.147 64.7679 187.857 64.0667 187.857 63.3355ZM185.56 71.9771C185.58 70.6504 186.122 69.385 187.067 68.454C188.013 67.5231 189.287 67.0013 190.614 67.0013C191.941 67.0013 193.215 67.5231 194.16 68.454C195.106 69.385 195.647 70.6504 195.668 71.9771C195.67 72.0665 195.645 72.1544 195.598 72.2299C195.55 72.3056 195.481 72.3657 195.4 72.4029C193.898 73.0911 192.266 73.7527 190.614 73.7509C188.907 73.7509 187.286 73.072 185.827 72.4029C185.746 72.3657 185.678 72.3056 185.631 72.2299C185.583 72.1544 185.559 72.0665 185.56 71.9771Z" fill="white"/>
<path opacity="0.5" d="M202.715 61.9866C202.715 61.1392 203.401 60.4522 204.249 60.4522H266.204C267.052 60.4522 267.739 61.1392 267.739 61.9866C267.739 62.8339 267.052 63.5209 266.204 63.5209H204.249C203.401 63.5209 202.715 62.8339 202.715 61.9866Z" fill="#D9D9D9"/>
<path opacity="0.5" d="M202.715 67.4415C202.715 66.5941 203.401 65.9072 204.249 65.9072H243.51C244.357 65.9072 245.044 66.5941 245.044 67.4415C245.044 68.2888 244.357 68.9758 243.51 68.9758H204.249C203.401 68.9758 202.715 68.2888 202.715 67.4415Z" fill="#D9D9D9"/>
<path opacity="0.5" fill-rule="evenodd" clip-rule="evenodd" d="M275.75 59.7787L279.614 59.7752C283.426 59.7715 282.494 59.7752 282.753 59.8481C282.896 59.8918 283.133 59.9829 283.279 60.0559C283.455 60.1434 283.638 60.282 283.845 60.4826C284.085 60.7124 284.183 60.8399 284.306 61.0843C284.393 61.2557 284.487 61.5073 284.517 61.6495C284.562 61.8574 284.573 62.3205 284.573 64.1658C284.573 66.011 284.562 66.4742 284.517 66.6821C284.487 66.8207 284.393 67.0759 284.306 67.2473C284.183 67.4916 284.082 67.6193 283.845 67.8527C283.605 68.0825 283.473 68.1809 283.222 68.3012C283.046 68.3851 282.784 68.4763 282.64 68.5054C282.423 68.5492 282.811 68.5602 276.669 68.5602L275.543 69.1071C274.736 69.501 274.381 69.6542 274.287 69.6542C274.216 69.6542 274.087 69.6214 274.005 69.5813C273.905 69.5327 273.83 69.4596 273.78 69.3624C273.705 69.2202 273.705 69.1437 273.705 65.5589C273.705 62.492 273.716 61.8647 273.761 61.6495C273.791 61.5073 273.885 61.2557 273.972 61.0843C274.095 60.8399 274.193 60.7124 274.433 60.4826C274.624 60.2966 274.827 60.1434 274.98 60.0632C275.116 59.9939 275.341 59.9027 275.487 59.8589L275.75 59.7787ZM276.275 62.6341C276.193 62.6816 276.095 62.7764 276.061 62.842C276.028 62.9077 275.997 63.0171 275.994 63.0827C275.994 63.1484 276.028 63.2614 276.065 63.338C276.106 63.4146 276.197 63.5094 276.279 63.5532L276.425 63.6371C282.747 63.6371 281.838 63.6371 281.984 63.564C282.084 63.5154 282.159 63.4425 282.21 63.3453C282.25 63.2651 282.285 63.152 282.285 63.09C282.285 63.0317 282.25 62.9149 282.21 62.8347C282.159 62.7375 282.084 62.6646 281.984 62.616C281.838 62.5466 282.747 62.543 279.622 62.543H276.425L276.275 62.6341ZM276.275 64.8223C276.193 64.8732 276.095 64.9681 276.061 65.0337C276.028 65.0994 275.997 65.2051 275.994 65.2708C275.994 65.3364 276.028 65.4531 276.065 65.526C276.106 65.6062 276.197 65.6974 276.279 65.7449L276.425 65.8251C282.747 65.8287 281.838 65.8251 281.984 65.7558C282.084 65.7072 282.159 65.6342 282.21 65.537C282.25 65.4568 282.285 65.3401 282.285 65.2817C282.285 65.2197 282.25 65.1067 282.21 65.0265C282.159 64.9292 282.084 64.8562 281.984 64.8076C281.838 64.7347 282.747 64.7347 279.622 64.7347H276.425L276.275 64.8223Z" fill="#808080"/>
<path d="M281.076 24.7001H190.183C183.908 24.7001 178.822 29.787 178.822 36.0621C178.822 42.3371 183.908 47.4241 190.183 47.4241H281.076C287.351 47.4241 292.438 42.3371 292.438 36.0621C292.438 29.787 287.351 24.7001 281.076 24.7001Z" fill="white"/>
<path d="M190.767 44.7927C195.674 44.7927 199.651 40.8153 199.651 35.9089C199.651 31.0026 195.674 27.0252 190.767 27.0252C185.861 27.0252 181.884 31.0026 181.884 35.9089C181.884 40.8153 185.861 44.7927 190.767 44.7927Z" fill="#BFBFBF"/>
<path fill-rule="evenodd" clip-rule="evenodd" d="M187.857 34.6837C187.857 33.9525 188.147 33.2512 188.665 32.7342C189.182 32.2171 189.883 31.9267 190.614 31.9267C191.345 31.9267 192.047 32.2171 192.564 32.7342C193.08 33.2512 193.371 33.9525 193.371 34.6837C193.371 35.4149 193.08 36.1161 192.564 36.6332C192.047 37.1502 191.345 37.4407 190.614 37.4407C189.883 37.4407 189.182 37.1502 188.665 36.6332C188.147 36.1161 187.857 35.4149 187.857 34.6837ZM185.56 43.3253C185.58 41.9986 186.122 40.7332 187.067 39.8022C188.013 38.8713 189.287 38.3496 190.614 38.3496C191.941 38.3496 193.215 38.8713 194.16 39.8022C195.106 40.7332 195.647 41.9986 195.668 43.3253C195.67 43.4147 195.645 43.5026 195.598 43.5782C195.55 43.6538 195.481 43.7139 195.4 43.7512C193.898 44.4393 192.266 45.101 190.614 45.0991C188.907 45.0991 187.286 44.4202 185.827 43.7512C185.746 43.7139 185.678 43.6538 185.631 43.5782C185.583 43.5026 185.559 43.4147 185.56 43.3253Z" fill="white"/>
<path opacity="0.5" d="M202.715 33.3346C202.715 32.4872 203.401 31.8002 204.249 31.8002H266.204C267.052 31.8002 267.739 32.4872 267.739 33.3346C267.739 34.1819 267.052 34.8688 266.204 34.8688H204.249C203.401 34.8688 202.715 34.1819 202.715 33.3346Z" fill="#D9D9D9"/>
<path opacity="0.5" d="M202.715 38.7897C202.715 37.9423 203.401 37.2554 204.249 37.2554H243.51C244.357 37.2554 245.044 37.9423 245.044 38.7897C245.044 39.637 244.357 40.324 243.51 40.324H204.249C203.401 40.324 202.715 39.637 202.715 38.7897Z" fill="#D9D9D9"/>
<path opacity="0.5" fill-rule="evenodd" clip-rule="evenodd" d="M275.75 31.1267L279.614 31.1231C283.426 31.1195 282.494 31.1231 282.753 31.1961C282.896 31.2398 283.133 31.3309 283.279 31.4039C283.455 31.4914 283.638 31.63 283.845 31.8305C284.085 32.0604 284.183 32.1879 284.306 32.4322C284.393 32.6037 284.487 32.8553 284.517 32.9975C284.562 33.2054 284.573 33.6685 284.573 35.5138C284.573 37.359 284.562 37.8222 284.517 38.0301C284.487 38.1687 284.393 38.4239 284.306 38.5953C284.183 38.8396 284.082 38.9673 283.845 39.2006C283.605 39.4304 283.473 39.5289 283.222 39.6492C283.046 39.7331 282.784 39.8243 282.64 39.8534C282.423 39.8972 282.811 39.9081 276.669 39.9081L275.543 40.4551C274.736 40.849 274.381 41.0022 274.287 41.0022C274.216 41.0022 274.087 40.9694 274.005 40.9292C273.905 40.8806 273.83 40.8076 273.78 40.7104C273.705 40.5682 273.705 40.4917 273.705 36.9069C273.705 33.8399 273.716 33.2127 273.761 32.9975C273.791 32.8553 273.885 32.6037 273.972 32.4322C274.095 32.1879 274.193 32.0604 274.433 31.8305C274.624 31.6446 274.827 31.4914 274.98 31.4111C275.116 31.3419 275.341 31.2507 275.487 31.2069L275.75 31.1267ZM276.275 33.9821C276.193 34.0295 276.095 34.1244 276.061 34.19C276.028 34.2557 275.997 34.3651 275.994 34.4307C275.994 34.4964 276.028 34.6094 276.065 34.686C276.106 34.7625 276.197 34.8574 276.279 34.9012L276.425 34.985C282.747 34.985 281.838 34.985 281.984 34.912C282.084 34.8634 282.159 34.7905 282.21 34.6933C282.25 34.6131 282.285 34.5 282.285 34.438C282.285 34.3797 282.25 34.2629 282.21 34.1827C282.159 34.0855 282.084 34.0125 281.984 33.9639C281.838 33.8946 282.747 33.891 279.622 33.891H276.425L276.275 33.9821ZM276.275 36.1702C276.193 36.2212 276.095 36.3161 276.061 36.3817C276.028 36.4474 275.997 36.5531 275.994 36.6188C275.994 36.6844 276.028 36.8011 276.065 36.874C276.106 36.9542 276.197 37.0454 276.279 37.0928L276.425 37.1731C282.747 37.1767 281.838 37.1731 281.984 37.1038C282.084 37.0552 282.159 36.9822 282.21 36.885C282.25 36.8047 282.285 36.6881 282.285 36.6297C282.285 36.5677 282.25 36.4547 282.21 36.3745C282.159 36.2771 282.084 36.2042 281.984 36.1556C281.838 36.0827 282.747 36.0827 279.622 36.0827H276.425L276.275 36.1702Z" fill="#808080"/>
</g>
<path d="M28.651 44.4601C28.651 39.0035 33.0744 34.5801 38.5307 34.5801H144.243C149.699 34.5801 154.123 39.0035 154.123 44.4601V55.3281C154.123 60.7846 149.699 65.2081 144.243 65.2081H38.5307C33.0744 65.2081 28.651 60.7846 28.651 55.3281V44.4601Z" fill="#333333"/>
<path fill-rule="evenodd" clip-rule="evenodd" d="M41.5634 45.4527L45.4279 45.4491C49.2399 45.4455 48.3082 45.4491 48.5671 45.5221C48.7097 45.5658 48.9461 45.6569 49.0924 45.7299C49.2688 45.8174 49.4526 45.956 49.659 46.1566C49.8991 46.3864 49.9967 46.5139 50.1205 46.7582C50.2067 46.9297 50.3006 47.1813 50.3305 47.3235C50.3756 47.5314 50.3868 47.9945 50.3868 49.8398C50.3868 51.685 50.3756 52.1482 50.3305 52.3561C50.3006 52.4947 50.2067 52.7499 50.1205 52.9213C49.9967 53.1656 49.8953 53.2933 49.659 53.5266C49.4189 53.7565 49.2875 53.8549 49.0361 53.9752C48.8598 54.0591 48.5971 54.1503 48.4546 54.1794C48.237 54.2232 48.6247 54.2342 42.4826 54.2342L41.3571 54.7811C40.5504 55.175 40.1939 55.3282 40.1001 55.3282C40.0289 55.3282 39.9012 55.2954 39.8187 55.2553C39.7187 55.2066 39.6437 55.1336 39.5936 55.0364C39.5186 54.8942 39.5186 54.8177 39.5186 51.2329C39.5186 48.166 39.5298 47.5387 39.5749 47.3235C39.6048 47.1813 39.6987 46.9297 39.7849 46.7582C39.9087 46.5139 40.0064 46.3864 40.2465 46.1566C40.4378 45.9706 40.6404 45.8174 40.7942 45.7371C40.9293 45.6679 41.1544 45.5767 41.3008 45.5329L41.5634 45.4527ZM42.0887 48.3081C42.0061 48.3555 41.9086 48.4504 41.8748 48.516C41.841 48.5817 41.8111 48.6911 41.8073 48.7567C41.8073 48.8224 41.841 48.9354 41.8786 49.012C41.9199 49.0885 42.0099 49.1834 42.0925 49.2272L42.2388 49.311C48.5609 49.311 47.6516 49.311 47.7979 49.238C47.898 49.1894 47.9731 49.1165 48.0231 49.0193C48.0644 48.9391 48.0981 48.826 48.0981 48.764C48.0981 48.7057 48.0644 48.5889 48.0231 48.5087C47.9731 48.4115 47.898 48.3386 47.7979 48.2899C47.6516 48.2206 48.5609 48.217 45.4355 48.217H42.2388L42.0887 48.3081ZM42.0887 50.4963C42.0061 50.5472 41.9086 50.6421 41.8748 50.7077C41.841 50.7734 41.8111 50.8791 41.8073 50.9448C41.8073 51.0104 41.841 51.1271 41.8786 51.2C41.9199 51.2802 42.0099 51.3714 42.0925 51.4188L42.2388 51.4991C48.5609 51.5027 47.6516 51.4991 47.7979 51.4298C47.898 51.3812 47.9731 51.3082 48.0231 51.211C48.0644 51.1307 48.0981 51.0141 48.0981 50.9557C48.0981 50.8937 48.0644 50.7807 48.0231 50.7005C47.9731 50.6032 47.898 50.5302 47.7979 50.4816C47.6516 50.4087 48.5609 50.4087 45.4355 50.4087H42.2388L42.0887 50.4963Z" fill="white"/>
<path d="M58.1091 53.4731C57.5701 53.4731 57.0716 53.3754 56.6134 53.18C56.162 52.9846 55.7644 52.7117 55.4208 52.3613C55.0839 52.0109 54.8211 51.5999 54.6324 51.1282C54.4438 50.6565 54.3494 50.1411 54.3494 49.5818C54.3494 49.0226 54.4404 48.5071 54.6223 48.0355C54.811 47.557 55.0737 47.146 55.4106 46.8023C55.7543 46.452 56.1551 46.1825 56.6134 45.9938C57.0716 45.7983 57.5701 45.7006 58.1091 45.7006C58.6482 45.7006 59.13 45.7916 59.5544 45.9735C59.9857 46.1555 60.3495 46.3981 60.6459 46.7013C60.9424 46.9978 61.1547 47.3245 61.2827 47.6817L60.0497 48.2578C59.9082 47.8805 59.669 47.5705 59.3321 47.328C58.9952 47.0786 58.5876 46.9539 58.1091 46.9539C57.6375 46.9539 57.2198 47.0652 56.8559 47.2875C56.4988 47.5099 56.2192 47.8164 56.017 48.2073C55.8217 48.598 55.724 49.0563 55.724 49.5818C55.724 50.1074 55.8217 50.569 56.017 50.9665C56.2192 51.3573 56.4988 51.6639 56.8559 51.8863C57.2198 52.1086 57.6375 52.2197 58.1091 52.2197C58.5876 52.2197 58.9952 52.0985 59.3321 51.856C59.669 51.6066 59.9082 51.2933 60.0497 50.916L61.2827 51.4921C61.1547 51.8492 60.9424 52.1793 60.6459 52.4826C60.3495 52.7791 59.9857 53.0183 59.5544 53.2002C59.13 53.3821 58.6482 53.4731 58.1091 53.4731ZM64.2481 53.4731C63.8237 53.4731 63.4531 53.3788 63.1364 53.1901C62.8265 53.0015 62.5873 52.7386 62.4188 52.4017C62.2571 52.0648 62.1763 51.6706 62.1763 51.2192V47.8535H63.5003V51.1081C63.5003 51.3371 63.5441 51.5392 63.6317 51.7145C63.726 51.8828 63.8574 52.0176 64.0259 52.1187C64.201 52.213 64.3964 52.2603 64.612 52.2603C64.8277 52.2603 65.0197 52.213 65.1881 52.1187C65.3565 52.0176 65.4879 51.8795 65.5823 51.7043C65.6766 51.5291 65.7238 51.3203 65.7238 51.0777V47.8535H67.0477V53.3518H65.7945V52.2703L65.9058 52.4624C65.7777 52.7993 65.5654 53.0519 65.269 53.2204C64.9792 53.3889 64.639 53.4731 64.2481 53.4731ZM70.3707 53.4731C69.7844 53.4731 69.2723 53.335 68.8344 53.0587C68.4031 52.7757 68.1067 52.395 67.945 51.9165L68.9354 51.4415C69.0769 51.7515 69.2723 51.9941 69.5216 52.1693C69.7777 52.3444 70.0606 52.4321 70.3707 52.4321C70.6132 52.4321 70.8053 52.3781 70.9467 52.2703C71.0882 52.1625 71.159 52.0211 71.159 51.8458C71.159 51.738 71.1286 51.6505 71.068 51.5831C71.0141 51.5089 70.9366 51.4483 70.8355 51.4011C70.7413 51.3472 70.6368 51.3034 70.5222 51.2697L69.6227 51.0171C69.1578 50.8823 68.804 50.6768 68.5615 50.4005C68.3257 50.1242 68.2078 49.7975 68.2078 49.4202C68.2078 49.0832 68.292 48.7901 68.4604 48.5408C68.6356 48.2847 68.8748 48.086 69.178 47.9445C69.4879 47.803 69.8417 47.7323 70.2393 47.7323C70.758 47.7323 71.2163 47.8568 71.6137 48.1062C72.0113 48.3555 72.2943 48.7058 72.4628 49.1573L71.4521 49.6324C71.3577 49.383 71.1994 49.1843 70.9771 49.036C70.7547 48.8878 70.5054 48.8137 70.2291 48.8137C70.0068 48.8137 69.8316 48.8642 69.7036 48.9653C69.5755 49.0663 69.5115 49.1978 69.5115 49.3595C69.5115 49.4606 69.5385 49.5481 69.5924 49.6223C69.6463 49.6964 69.7204 49.7571 69.8147 49.8042C69.9158 49.8513 70.0304 49.8952 70.1584 49.9356L71.0376 50.1984C71.4891 50.3332 71.8361 50.5353 72.0787 50.8048C72.328 51.0744 72.4526 51.4045 72.4526 51.7953C72.4526 52.1255 72.3651 52.4185 72.1899 52.6746C72.0146 52.9239 71.7721 53.1193 71.4622 53.2608C71.1522 53.4023 70.7884 53.4731 70.3707 53.4731ZM75.9766 53.4125C75.3567 53.4125 74.875 53.244 74.5313 52.9071C74.1944 52.5635 74.0259 52.0816 74.0259 51.4618V49.036H73.0759V47.8535H73.177C73.4465 47.8535 73.6554 47.7827 73.8036 47.6413C73.9518 47.4998 74.0259 47.2943 74.0259 47.0247V46.6002H75.35V47.8535H76.6133V49.036H75.35V51.391C75.35 51.5729 75.3803 51.7279 75.4409 51.856C75.5083 51.9839 75.6094 52.0816 75.7441 52.149C75.8857 52.2164 76.0642 52.2501 76.2798 52.2501C76.327 52.2501 76.3809 52.2467 76.4415 52.24C76.5089 52.2333 76.5729 52.2266 76.6336 52.2197V53.3518C76.5392 53.3652 76.4314 53.3788 76.3101 53.3922C76.1889 53.4057 76.0776 53.4125 75.9766 53.4125ZM80.2842 53.4731C79.7452 53.4731 79.2533 53.3484 78.8086 53.0992C78.3706 52.8498 78.0202 52.5095 77.7575 52.0783C77.5014 51.6471 77.3734 51.1552 77.3734 50.6027C77.3734 50.0501 77.5014 49.5583 77.7575 49.127C78.0202 48.6957 78.3706 48.3555 78.8086 48.1062C79.2465 47.8568 79.7384 47.7323 80.2842 47.7323C80.8231 47.7323 81.3117 47.8568 81.7497 48.1062C82.1876 48.3555 82.5346 48.6957 82.7907 49.127C83.0535 49.5515 83.1848 50.0434 83.1848 50.6027C83.1848 51.1552 83.0535 51.6471 82.7907 52.0783C82.5279 52.5095 82.1775 52.8498 81.7396 53.0992C81.3016 53.3484 80.8164 53.4731 80.2842 53.4731ZM80.2842 52.2603C80.5806 52.2603 80.84 52.1895 81.0624 52.0479C81.2914 51.9065 81.4701 51.711 81.598 51.4618C81.7328 51.2057 81.8001 50.9193 81.8001 50.6027C81.8001 50.2792 81.7328 49.9963 81.598 49.7536C81.4701 49.5043 81.2914 49.3089 81.0624 49.1674C80.84 49.0192 80.5806 48.945 80.2842 48.945C79.981 48.945 79.7148 49.0192 79.4857 49.1674C79.2566 49.3089 79.0747 49.5043 78.94 49.7536C78.8119 49.9963 78.7479 50.2792 78.7479 50.6027C78.7479 50.9193 78.8119 51.2057 78.94 51.4618C79.0747 51.711 79.2566 51.9065 79.4857 52.0479C79.7148 52.1895 79.981 52.2603 80.2842 52.2603ZM84.1888 53.3518V47.8535H85.432V49.127L85.2905 48.9148C85.3916 48.5172 85.5937 48.2207 85.8969 48.0253C86.2001 47.8299 86.5572 47.7323 86.9683 47.7323C87.4197 47.7323 87.8172 47.8501 88.1609 48.086C88.5045 48.3218 88.7269 48.6317 88.8279 49.0159L88.454 49.0461C88.6224 48.6081 88.8751 48.2814 89.2119 48.0657C89.5488 47.8434 89.9362 47.7323 90.3742 47.7323C90.765 47.7323 91.112 47.8198 91.4152 47.995C91.7251 48.1702 91.9678 48.4161 92.143 48.7328C92.3181 49.0427 92.4057 49.4033 92.4057 49.8143V53.3518H91.0817V50.1277C91.0817 49.885 91.0379 49.6761 90.9504 49.501C90.8627 49.3258 90.7414 49.191 90.5865 49.0967C90.4315 48.9956 90.2429 48.945 90.0205 48.945C89.8116 48.945 89.6263 48.9956 89.4647 49.0967C89.3029 49.191 89.1783 49.3258 89.0906 49.501C89.0031 49.6761 88.9593 49.885 88.9593 50.1277V53.3518H87.6353V50.1277C87.6353 49.885 87.5915 49.6761 87.5039 49.501C87.4163 49.3258 87.2916 49.191 87.1299 49.0967C86.975 48.9956 86.7897 48.945 86.5741 48.945C86.3652 48.945 86.1799 48.9956 86.0182 49.0967C85.8565 49.191 85.7318 49.3258 85.6442 49.501C85.5567 49.6761 85.5128 49.885 85.5128 50.1277V53.3518H84.1888ZM96.1334 53.4731C95.5674 53.4731 95.0722 53.3451 94.6477 53.089C94.2232 52.833 93.893 52.4859 93.6572 52.0479C93.4214 51.61 93.3035 51.1248 93.3035 50.5925C93.3035 50.04 93.4214 49.5515 93.6572 49.127C93.8997 48.6957 94.2266 48.3555 94.6376 48.1062C95.0554 47.8568 95.5202 47.7323 96.0324 47.7323C96.4635 47.7323 96.8408 47.803 97.1643 47.9445C97.4945 48.086 97.774 48.2814 98.0032 48.5307C98.2323 48.78 98.4074 49.0663 98.5287 49.3898C98.65 49.7065 98.7106 50.0501 98.7106 50.4207C98.7106 50.5151 98.7039 50.6128 98.6904 50.7138C98.6837 50.8149 98.6669 50.9025 98.6399 50.9766H94.395V49.9659H97.892L97.2653 50.441C97.326 50.131 97.3091 49.8547 97.2149 49.6121C97.1272 49.3696 96.979 49.1775 96.7701 49.036C96.5679 48.8945 96.322 48.8238 96.0324 48.8238C95.756 48.8238 95.5101 48.8945 95.2946 49.036C95.0789 49.1708 94.9138 49.3729 94.7993 49.6425C94.6915 49.9053 94.6511 50.2253 94.678 50.6027C94.6511 50.9396 94.6949 51.2394 94.8094 51.5022C94.9307 51.7583 95.1059 51.957 95.335 52.0985C95.5708 52.24 95.8403 52.3107 96.1435 52.3107C96.4467 52.3107 96.7027 52.2467 96.9117 52.1187C97.1272 51.9907 97.2957 51.8189 97.417 51.6032L98.4883 52.1289C98.3805 52.3917 98.212 52.624 97.9829 52.8262C97.7539 53.0283 97.4809 53.1867 97.1643 53.3013C96.8544 53.4158 96.5107 53.4731 96.1334 53.4731ZM99.7143 53.3518V47.8535H100.957V49.0764L100.856 48.8945C100.985 48.4835 101.183 48.1971 101.453 48.0355C101.729 47.8737 102.059 47.7928 102.443 47.7928H102.766V48.9653H102.292C101.915 48.9653 101.611 49.0832 101.382 49.3191C101.153 49.5481 101.038 49.8716 101.038 50.2893V53.3518H99.7143ZM109.111 53.4731C108.559 53.4731 108.043 53.3754 107.565 53.18C107.087 52.9846 106.669 52.7117 106.312 52.3613C105.954 52.0109 105.675 51.5999 105.473 51.1282C105.278 50.6498 105.18 50.1344 105.18 49.5818C105.18 49.0226 105.278 48.5071 105.473 48.0355C105.668 47.5638 105.944 47.1527 106.301 46.8023C106.659 46.452 107.077 46.1825 107.555 45.9938C108.033 45.7983 108.552 45.7006 109.111 45.7006C109.67 45.7006 110.19 45.7983 110.668 45.9938C111.146 46.1892 111.564 46.4621 111.921 46.8124C112.278 47.156 112.554 47.5638 112.75 48.0355C112.952 48.5071 113.053 49.0226 113.053 49.5818C113.053 50.1344 112.952 50.6498 112.75 51.1282C112.548 51.5999 112.267 52.0109 111.911 52.3613C111.554 52.7117 111.136 52.9846 110.658 53.18C110.186 53.3754 109.67 53.4731 109.111 53.4731ZM109.111 52.2197C109.481 52.2197 109.822 52.1558 110.132 52.0278C110.442 51.893 110.711 51.7077 110.941 51.4718C111.177 51.236 111.355 50.9564 111.476 50.6329C111.604 50.3096 111.669 49.9592 111.669 49.5818C111.669 49.2045 111.604 48.8575 111.476 48.5408C111.355 48.2174 111.177 47.9378 110.941 47.7019C110.711 47.4593 110.442 47.274 110.132 47.146C109.822 47.0179 109.481 46.9539 109.111 46.9539C108.747 46.9539 108.41 47.0179 108.1 47.146C107.791 47.274 107.517 47.4593 107.282 47.7019C107.053 47.9378 106.874 48.2174 106.747 48.5408C106.618 48.8575 106.554 49.2045 106.554 49.5818C106.554 49.9592 106.618 50.3096 106.747 50.6329C106.874 50.9564 107.053 51.236 107.282 51.4718C107.517 51.7077 107.791 51.893 108.1 52.0278C108.41 52.1558 108.747 52.2197 109.111 52.2197ZM110.85 54.2615L108.505 50.3399H109.94L112.315 54.2615H110.85ZM116.124 53.4731C115.701 53.4731 115.329 53.3788 115.013 53.1901C114.703 53.0015 114.464 52.7386 114.296 52.4017C114.134 52.0648 114.053 51.6706 114.053 51.2192V47.8535H115.377V51.1081C115.377 51.3371 115.421 51.5392 115.508 51.7145C115.603 51.8828 115.734 52.0176 115.902 52.1187C116.077 52.213 116.273 52.2603 116.488 52.2603C116.704 52.2603 116.896 52.213 117.065 52.1187C117.233 52.0176 117.364 51.8795 117.459 51.7043C117.553 51.5291 117.6 51.3203 117.6 51.0777V47.8535H118.924V53.3518H117.671V52.2703L117.782 52.4624C117.654 52.7993 117.441 53.0519 117.145 53.2204C116.856 53.3889 116.516 53.4731 116.124 53.4731ZM122.763 53.4731C122.196 53.4731 121.701 53.3451 121.277 53.089C120.852 52.833 120.522 52.4859 120.287 52.0479C120.051 51.61 119.933 51.1248 119.933 50.5925C119.933 50.04 120.051 49.5515 120.287 49.127C120.529 48.6957 120.856 48.3555 121.267 48.1062C121.685 47.8568 122.149 47.7323 122.662 47.7323C123.093 47.7323 123.47 47.803 123.793 47.9445C124.124 48.086 124.404 48.2814 124.632 48.5307C124.861 48.78 125.037 49.0663 125.157 49.3898C125.279 49.7065 125.34 50.0501 125.34 50.4207C125.34 50.5151 125.333 50.6128 125.319 50.7138C125.312 50.8149 125.296 50.9025 125.269 50.9766H121.024V49.9659H124.521L123.895 50.441C123.955 50.131 123.938 49.8547 123.844 49.6121C123.756 49.3696 123.608 49.1775 123.399 49.036C123.197 48.8945 122.951 48.8238 122.662 48.8238C122.385 48.8238 122.139 48.8945 121.924 49.036C121.708 49.1708 121.543 49.3729 121.429 49.6425C121.32 49.9053 121.281 50.2253 121.307 50.6027C121.281 50.9396 121.324 51.2394 121.439 51.5022C121.56 51.7583 121.735 51.957 121.964 52.0985C122.199 52.24 122.469 52.3107 122.772 52.3107C123.076 52.3107 123.332 52.2467 123.541 52.1187C123.756 51.9907 123.924 51.8189 124.046 51.6032L125.118 52.1289C125.009 52.3917 124.841 52.624 124.612 52.8262C124.383 53.0283 124.11 53.1867 123.793 53.3013C123.484 53.4158 123.14 53.4731 122.763 53.4731ZM126.343 53.3518V47.8535H127.587V49.0764L127.485 48.8945C127.613 48.4835 127.812 48.1971 128.082 48.0355C128.358 47.8737 128.688 47.7928 129.073 47.7928H129.396V48.9653H128.921C128.543 48.9653 128.24 49.0832 128.011 49.3191C127.782 49.5481 127.668 49.8716 127.668 50.2893V53.3518H126.343ZM130.124 53.3518V47.8535H131.448V53.3518H130.124ZM130.124 47.237V45.822H131.448V47.237H130.124ZM135.277 53.4731C134.712 53.4731 134.216 53.3451 133.792 53.089C133.367 52.833 133.037 52.4859 132.801 52.0479C132.565 51.61 132.448 51.1248 132.448 50.5925C132.448 50.04 132.565 49.5515 132.801 49.127C133.044 48.6957 133.37 48.3555 133.781 48.1062C134.199 47.8568 134.665 47.7323 135.176 47.7323C135.608 47.7323 135.985 47.803 136.309 47.9445C136.639 48.086 136.918 48.2814 137.147 48.5307C137.377 48.78 137.551 49.0663 137.673 49.3898C137.794 49.7065 137.855 50.0501 137.855 50.4207C137.855 50.5151 137.848 50.6128 137.835 50.7138C137.828 50.8149 137.811 50.9025 137.784 50.9766H133.539V49.9659H137.036L136.409 50.441C136.471 50.131 136.454 49.8547 136.359 49.6121C136.271 49.3696 136.123 49.1775 135.914 49.036C135.712 48.8945 135.466 48.8238 135.176 48.8238C134.901 48.8238 134.655 48.8945 134.438 49.036C134.223 49.1708 134.058 49.3729 133.943 49.6425C133.836 49.9053 133.795 50.2253 133.822 50.6027C133.795 50.9396 133.839 51.2394 133.953 51.5022C134.075 51.7583 134.25 51.957 134.479 52.0985C134.715 52.24 134.985 52.3107 135.288 52.3107C135.591 52.3107 135.847 52.2467 136.056 52.1187C136.271 51.9907 136.44 51.8189 136.561 51.6032L137.632 52.1289C137.525 52.3917 137.356 52.624 137.128 52.8262C136.898 53.0283 136.625 53.1867 136.309 53.3013C135.998 53.4158 135.655 53.4731 135.277 53.4731ZM140.951 53.4731C140.364 53.4731 139.852 53.335 139.415 53.0587C138.983 52.7757 138.687 52.395 138.525 51.9165L139.515 51.4415C139.657 51.7515 139.852 51.9941 140.101 52.1693C140.357 52.3444 140.641 52.4321 140.951 52.4321C141.193 52.4321 141.385 52.3781 141.527 52.2703C141.668 52.1625 141.739 52.0211 141.739 51.8458C141.739 51.738 141.709 51.6505 141.647 51.5831C141.594 51.5089 141.516 51.4483 141.415 51.4011C141.321 51.3472 141.217 51.3034 141.102 51.2697L140.203 51.0171C139.738 50.8823 139.384 50.6768 139.141 50.4005C138.906 50.1242 138.787 49.7975 138.787 49.4202C138.787 49.0832 138.872 48.7901 139.04 48.5408C139.215 48.2847 139.455 48.086 139.758 47.9445C140.068 47.803 140.421 47.7323 140.82 47.7323C141.338 47.7323 141.796 47.8568 142.194 48.1062C142.591 48.3555 142.875 48.7058 143.043 49.1573L142.032 49.6324C141.938 49.383 141.779 49.1843 141.557 49.036C141.334 48.8878 141.085 48.8137 140.809 48.8137C140.586 48.8137 140.412 48.8642 140.283 48.9653C140.156 49.0663 140.091 49.1978 140.091 49.3595C140.091 49.4606 140.118 49.5481 140.172 49.6223C140.226 49.6964 140.3 49.7571 140.395 49.8042C140.496 49.8513 140.61 49.8952 140.739 49.9356L141.618 50.1984C142.069 50.3332 142.416 50.5353 142.658 50.8048C142.908 51.0744 143.033 51.4045 143.033 51.7953C143.033 52.1255 142.945 52.4185 142.77 52.6746C142.595 52.9239 142.352 53.1193 142.042 53.2608C141.732 53.4023 141.368 53.4731 140.951 53.4731Z" fill="white"/>
</g>
<defs>
<filter id="filter0_d_2_1608" x="12.4577" y="91.0984" width="302.101" height="131.185" filterUnits="userSpaceOnUse" color-interpolation-filters="sRGB">
<feFlood flood-opacity="0" result="BackgroundImageFix"/>
<feColorMatrix in="SourceAlpha" type="matrix" values="0 0 0 0 0 0 0 0 0 0 0 0 0 0 0 0 0 0 127 0" result="hardAlpha"/>
<feOffset dy="28.1976"/>
<feGaussianBlur stdDeviation="21.389"/>
<feComposite in2="hardAlpha" operator="out"/>
<feColorMatrix type="matrix" values="0 0 0 0 0 0 0 0 0 0 0 0 0 0 0 0 0 0 0.1 0"/>
<feBlend mode="normal" in2="BackgroundImageFix" result="effect1_dropShadow_2_1608"/>
<feBlend mode="normal" in="SourceGraphic" in2="effect1_dropShadow_2_1608" result="shape"/>
</filter>
<filter id="filter1_d_2_1608" x="40.6966" y="92.4852" width="76.3811" height="76.3822" filterUnits="userSpaceOnUse" color-interpolation-filters="sRGB">
<feFlood flood-opacity="0" result="BackgroundImageFix"/>
<feColorMatrix in="SourceAlpha" type="matrix" values="0 0 0 0 0 0 0 0 0 0 0 0 0 0 0 0 0 0 127 0" result="hardAlpha"/>
<feOffset dy="2.38205"/>
<feGaussianBlur stdDeviation="9.7664"/>
<feComposite in2="hardAlpha" operator="out"/>
<feColorMatrix type="matrix" values="0 0 0 0 1 0 0 0 0 0.380392 0 0 0 0 0.278431 0 0 0 0.05 0"/>
<feBlend mode="normal" in2="BackgroundImageFix" result="effect1_dropShadow_2_1608"/>
<feBlend mode="normal" in="SourceGraphic" in2="effect1_dropShadow_2_1608" result="shape"/>
</filter>
<filter id="filter2_d_2_1608" x="34.1654" y="100.772" width="89.4435" height="89.4446" filterUnits="userSpaceOnUse" color-interpolation-filters="sRGB">
<feFlood flood-opacity="0" result="BackgroundImageFix"/>
<feColorMatrix in="SourceAlpha" type="matrix" values="0 0 0 0 0 0 0 0 0 0 0 0 0 0 0 0 0 0 127 0" result="hardAlpha"/>
<feOffset dy="17.1724"/>
<feGaussianBlur stdDeviation="13.0259"/>
<feComposite in2="hardAlpha" operator="out"/>
<feColorMatrix type="matrix" values="0 0 0 0 0 0 0 0 0 0 0 0 0 0 0 0 0 0 0.1 0"/>
<feBlend mode="normal" in2="BackgroundImageFix" result="effect1_dropShadow_2_1608"/>
<feBlend mode="normal" in="SourceGraphic" in2="effect1_dropShadow_2_1608" result="shape"/>
</filter>
<filter id="filter3_d_2_1608" x="136.249" y="10.6739" width="198.267" height="135.533" filterUnits="userSpaceOnUse" color-interpolation-filters="sRGB">
<feFlood flood-opacity="0" result="BackgroundImageFix"/>
<feColorMatrix in="SourceAlpha" type="matrix" values="0 0 0 0 0 0 0 0 0 0 0 0 0 0 0 0 0 0 127 0" result="hardAlpha"/>
<feOffset dy="28"/>
<feGaussianBlur stdDeviation="21"/>
<feComposite in2="hardAlpha" operator="out"/>
<feColorMatrix type="matrix" values="0 0 0 0 0 0 0 0 0 0 0 0 0 0 0 0 0 0 0.1 0"/>
<feBlend mode="normal" in2="BackgroundImageFix" result="effect1_dropShadow_2_1608"/>
<feBlend mode="normal" in="SourceGraphic" in2="effect1_dropShadow_2_1608" result="shape"/>
</filter>
<linearGradient id="paint0_linear_2_1608" x1="66.804" y1="108.872" x2="81.6721" y2="51.4004" gradientUnits="userSpaceOnUse">
<stop stop-color="#FF7860"/>
<stop offset="0.273855" stop-color="#E9A183"/>
<stop offset="0.532302" stop-color="#AE5EE1"/>
<stop offset="0.779838" stop-color="#AE5EE1"/>
<stop offset="1" stop-color="#F41D51"/>
</linearGradient>
<clipPath id="clip0_2_1608">
<rect width="333.31" height="246.54" fill="white" transform="scale(1.00187)"/>
</clipPath>
</defs>
</svg>
