<svg width="16" height="16" viewBox="0 0 16 16" fill="none" xmlns="http://www.w3.org/2000/svg">
<g clip-path="url(#clip0_2_141)">
<path d="M6.10714 0.183162C6.27467 0.146605 6.57622 0.0917684 6.77725 0.0613036C7.03311 0.0216994 7.32552 0.00342052 7.75195 0.000374037C8.21495 -0.00267244 8.46167 0.0125599 8.77845 0.0582571C9.00994 0.0917684 9.33281 0.149652 9.49421 0.183162C9.65873 0.21972 9.96329 0.301976 10.1735 0.368998C10.3836 0.436021 10.7127 0.560926 10.9046 0.643181C11.0964 0.725435 11.3858 0.865574 11.5442 0.956969C11.7026 1.04532 11.9584 1.20069 12.1077 1.29817C12.2569 1.39871 12.5189 1.59064 12.6864 1.72468C12.8539 1.86177 13.1464 2.12681 13.3321 2.3157C13.521 2.50762 13.7677 2.77876 13.8804 2.92195C13.9961 3.06513 14.1789 3.31799 14.2917 3.48554C14.4013 3.6531 14.5566 3.90596 14.6359 4.04914C14.715 4.19233 14.849 4.4726 14.9404 4.67368C15.0287 4.87474 15.1567 5.20985 15.2237 5.42006C15.2907 5.63027 15.3729 5.93187 15.4064 6.09029C15.443 6.2487 15.4978 6.57467 15.5313 6.8123C15.577 7.11999 15.5953 7.40331 15.5953 7.77193C15.5953 8.07049 15.5739 8.45739 15.5496 8.66456C15.5222 8.86563 15.4674 9.19768 15.4278 9.40181C15.3851 9.60894 15.2816 9.98673 15.1993 10.2396C15.1141 10.4955 14.9465 10.9098 14.8247 11.1626C14.7029 11.4125 14.514 11.7567 14.4104 11.9243C14.3038 12.0919 14.1241 12.3539 14.0114 12.5032C13.8956 12.6524 13.6946 12.8931 13.5637 13.0362C13.4327 13.1795 13.2011 13.411 13.052 13.5512C12.9027 13.6912 12.6468 13.9045 12.4884 14.0233C12.3301 14.1421 12.0742 14.3188 11.9249 14.4103C11.7756 14.5047 11.5351 14.6418 11.3919 14.7179C11.2488 14.7911 11.002 14.9098 10.8436 14.9768C10.6852 15.0439 10.3836 15.1566 10.1735 15.2236C9.96329 15.2906 9.65873 15.3729 9.49421 15.4094C9.33281 15.443 9.00994 15.5009 8.77845 15.5344C8.47994 15.577 8.19972 15.5953 7.79765 15.5953C7.3834 15.5953 7.12144 15.58 6.80771 15.5313C6.57318 15.4978 6.2503 15.443 6.09192 15.4064C5.93352 15.3729 5.59542 15.2785 5.34566 15.1962C5.09284 15.1109 4.68164 14.9433 4.43187 14.8215C4.17905 14.6997 3.85009 14.5229 3.70084 14.4315C3.54854 14.3371 3.30182 14.1695 3.15256 14.0537C3.00026 13.9411 2.8236 13.8009 2.75659 13.7431C2.68958 13.6852 2.4855 13.4932 2.30579 13.3135C2.12303 13.1368 1.87022 12.8596 1.73924 12.7012C1.61131 12.5427 1.41637 12.2746 1.30367 12.1071C1.19401 11.9395 1.03562 11.6776 0.953384 11.5283C0.868097 11.379 0.743213 11.1231 0.67011 10.9646C0.600054 10.8062 0.475169 10.4772 0.395975 10.2335C0.313734 9.98974 0.222355 9.6608 0.188849 9.50231C0.152297 9.34392 0.0974701 9.01795 0.0639651 8.77728C0.0182758 8.47263 0 8.18931 0 7.82068C0 7.52213 0.0213217 7.13523 0.0456893 6.92807C0.073103 6.72699 0.12793 6.39493 0.167528 6.18777C0.210171 5.98365 0.310687 5.61503 0.392928 5.36826C0.475169 5.11846 0.606145 4.7742 0.68534 4.59751C0.764535 4.42081 0.910741 4.13445 1.01126 3.95775C1.11177 3.78105 1.28539 3.50687 1.39809 3.34845C1.50775 3.19003 1.69659 2.94328 1.81539 2.80008C1.93418 2.6569 2.17481 2.401 2.34843 2.2304C2.52205 2.05979 2.78096 1.82521 2.92411 1.7125C3.06728 1.59672 3.32009 1.41394 3.48762 1.30122C3.65514 1.19155 3.9171 1.03313 4.06635 0.950871C4.2156 0.865574 4.47146 0.740668 4.62985 0.667553C4.78824 0.597483 5.1172 0.472578 5.36088 0.393369C5.60456 0.311114 5.93961 0.216674 6.10714 0.183162Z" fill="#8082EF"/>
<path d="M4.98962 5.64217C4.08802 4.32915 3.35394 3.24155 3.35394 3.22632C3.35394 3.205 3.79866 3.19891 5.9887 3.21108L7.13702 4.88055C7.77058 5.79755 8.29449 6.55003 8.30363 6.55612C8.30972 6.55917 8.9646 5.80973 11.2003 3.21108L11.5628 3.20195C11.7638 3.19891 11.9375 3.205 11.9466 3.21718C11.9587 3.23241 11.6237 3.6376 11.2065 4.12503C10.7861 4.60942 10.0429 5.47766 8.65391 7.09535L10.2713 9.44723C11.1607 10.742 11.9771 11.9301 12.2786 12.3657L9.61342 12.3688L8.39501 10.5988C7.72489 9.62699 7.17053 8.83184 7.16139 8.83184C7.15225 8.83489 6.46691 9.62699 4.12762 12.3505L3.32349 12.3657L6.82024 8.29871L6.72277 8.16162C6.66795 8.08545 5.88818 6.95216 4.98962 5.64217Z" fill="white"/>
<path d="M9.98337 11.8017L7.19023 7.80167L4.39709 3.80469L5.61852 3.81992L8.39948 7.79558C9.9285 9.98297 11.1805 11.7803 11.1805 11.7926C11.1805 11.8078 10.9093 11.8138 9.98337 11.8017Z" fill="#8082EF"/>
</g>
<defs>
<clipPath id="clip0_2_141">
<rect width="16" height="16" fill="white"/>
</clipPath>
</defs>
</svg>
