<svg width="10" height="21" viewBox="0 0 10 21" fill="none" xmlns="http://www.w3.org/2000/svg">
<path d="M0.936828 4.55542H8.4641C8.72256 4.55542 8.93787 4.65232 9.11024 4.84612C9.28251 5.0184 9.3687 5.23383 9.3687 5.49231C9.3687 5.72926 9.28251 5.93387 9.11024 6.10616C8.93787 6.27844 8.72256 6.36463 8.4641 6.36463H0.936828C0.678473 6.36463 0.452247 6.27844 0.258456 6.10616C0.0861851 5.91235 0 5.69692 0 5.45997C0 5.2015 0.0861851 4.98617 0.258456 4.81379C0.452247 4.64151 0.678473 4.55542 0.936828 4.55542ZM4.26433 0C4.54431 0 4.77043 0.0969019 4.94281 0.290706C5.1366 0.484612 5.23349 0.71075 5.23349 0.969224V17.1878C5.23349 17.7908 5.30887 18.2431 5.45972 18.5446C5.63199 18.8462 5.8473 19.0508 6.10576 19.1585C6.36421 19.2446 6.62267 19.2877 6.88113 19.2877C7.0534 19.2877 7.20415 19.2662 7.33338 19.2231C7.48413 19.1585 7.64568 19.1262 7.81795 19.1262C8.01185 19.1262 8.17331 19.2016 8.30254 19.3524C8.45329 19.5031 8.52866 19.6969 8.52866 19.9339C8.52866 20.2354 8.35639 20.4939 8.01185 20.7093C7.66721 20.9031 7.258 21 6.78423 21C6.59034 21 6.29965 20.9893 5.91197 20.9678C5.52428 20.9246 5.12588 20.8062 4.71668 20.6124C4.30747 20.397 3.96283 20.0308 3.68285 19.5139C3.4244 18.997 3.29517 18.2539 3.29517 17.2847V0.969224C3.29517 0.71075 3.38135 0.484612 3.55362 0.290706C3.74752 0.0969019 3.98435 0 4.26433 0Z" fill="black"/>
</svg>
