<svg width="38" height="38" viewBox="0 0 38 38" fill="none" xmlns="http://www.w3.org/2000/svg">
<g clip-path="url(#clip0_2_170)">
<path d="M38 19C38 29.4934 29.4934 38 19 38C8.50659 38 0 29.4934 0 19C0 8.50659 8.50659 0 19 0C29.4934 0 38 8.50659 38 19Z" fill="#8082EF" fill-opacity="0.2"/>
<path d="M19 19.4752C18.3701 19.4752 17.766 19.225 17.3206 18.7796C16.8752 18.3341 16.625 17.73 16.625 17.1002C16.625 16.4703 16.8752 15.8662 17.3206 15.4208C17.766 14.9754 18.3701 14.7252 19 14.7252C19.6298 14.7252 20.2339 14.9754 20.6794 15.4208C21.1247 15.8662 21.375 16.4703 21.375 17.1002C21.375 17.4121 21.3135 17.7209 21.1942 18.0091C21.0749 18.2972 20.8999 18.559 20.6794 18.7796C20.4588 19.0001 20.197 19.1751 19.9088 19.2944C19.6207 19.4137 19.3119 19.4752 19 19.4752ZM19 10.4502C17.2363 10.4502 15.5448 11.1508 14.2978 12.398C13.0506 13.645 12.35 15.3365 12.35 17.1002C12.35 22.0877 19 29.4502 19 29.4502C19 29.4502 25.65 22.0877 25.65 17.1002C25.65 15.3365 24.9494 13.645 23.7022 12.398C22.4551 11.1508 20.7637 10.4502 19 10.4502Z" fill="#8082EF"/>
</g>
<defs>
<clipPath id="clip0_2_170">
<rect width="38" height="38" fill="white"/>
</clipPath>
</defs>
</svg>
