<svg width="16" height="16" viewBox="0 0 16 16" fill="none" xmlns="http://www.w3.org/2000/svg">
<g clip-path="url(#clip0_2_147)">
<path d="M3.95318 2.2835C3.95296 2.70812 3.78418 3.11527 3.48398 3.41538C3.18377 3.71548 2.77672 3.88396 2.35238 3.88375C1.92802 3.88353 1.52114 3.71465 1.22124 3.41424C0.921328 3.11383 0.752961 2.70652 0.753174 2.28189C0.753386 1.85727 0.92216 1.45012 1.22237 1.15001C1.52258 0.849905 1.92962 0.681429 2.35398 0.681641C2.77832 0.681854 3.1852 0.850738 3.48511 1.15114C3.78502 1.45155 3.95338 1.85887 3.95318 2.2835ZM4.00118 5.06933H0.801176V15.0919H4.00118V5.06933ZM9.05717 5.06933H5.87318V15.0919H9.02517V9.83246C9.02517 6.90253 12.8412 6.63035 12.8412 9.83246V15.0919H16.0012V8.74374C16.0012 3.8045 10.3532 3.98862 9.02517 6.41421L9.05717 5.06933Z" fill="#8B8B8B"/>
</g>
<defs>
<clipPath id="clip0_2_147">
<rect width="16" height="15.21" fill="white"/>
</clipPath>
</defs>
</svg>
