<svg width="30" height="26" viewBox="0 0 30 26" fill="none" xmlns="http://www.w3.org/2000/svg">
<g clip-path="url(#clip0_2_938)">
<path d="M28.9665 23.9994H27.0002V9.99941C27.0002 9.46898 26.7895 8.96027 26.4145 8.5852C26.0394 8.21013 25.5307 7.99941 25.0002 7.99941H19.5002C19.3676 7.99941 19.2405 8.05209 19.1467 8.14586C19.0529 8.23963 19.0002 8.3668 19.0002 8.49941V23.9994H17.0002V2.05066C17.0036 1.73914 16.9359 1.43094 16.8025 1.14941C16.6691 0.867877 16.4734 0.620382 16.2302 0.425663C15.8987 0.167209 15.4942 0.0197703 15.0742 0.00428744C14.6541 -0.0111955 14.2399 0.106064 13.8902 0.339412L3.89024 6.99941C3.61592 7.18244 3.39111 7.43046 3.23583 7.72139C3.08055 8.01232 2.99962 8.33713 3.00024 8.66691V23.9994H1.03399C0.775577 23.9956 0.5253 24.0898 0.333511 24.263C0.141721 24.4362 0.0226482 24.6757 0.000244055 24.9332C-0.00883835 25.0699 0.0103009 25.2071 0.0564729 25.3362C0.102645 25.4653 0.174864 25.5835 0.268643 25.6835C0.362423 25.7835 0.47576 25.8631 0.601616 25.9175C0.727471 25.9718 0.863156 25.9997 1.00024 25.9994H29.0002C29.1373 25.9997 29.273 25.9718 29.3989 25.9175C29.5247 25.8631 29.6381 25.7835 29.7318 25.6835C29.8256 25.5835 29.8978 25.4653 29.944 25.3362C29.9902 25.2071 30.0093 25.0699 30.0002 24.9332C29.9778 24.6757 29.8588 24.4362 29.667 24.263C29.4752 24.0898 29.2249 23.9956 28.9665 23.9994ZM8.50024 20.9994C8.50055 21.1365 8.47266 21.2722 8.41831 21.398C8.36397 21.5239 8.28432 21.6372 8.18433 21.731C8.08434 21.8248 7.96613 21.897 7.83705 21.9432C7.70797 21.9893 7.57078 22.0085 7.43399 21.9994C7.1763 21.977 6.93668 21.8577 6.76342 21.6657C6.59015 21.4736 6.49611 21.223 6.50024 20.9644V19.0332C6.49672 18.7748 6.59101 18.5247 6.76419 18.333C6.93737 18.1412 7.17663 18.0221 7.43399 17.9994C7.57078 17.9903 7.70797 18.0095 7.83705 18.0556C7.96613 18.1018 8.08434 18.174 8.18433 18.2678C8.28432 18.3616 8.36397 18.4749 8.41831 18.6008C8.47266 18.7266 8.50055 18.8623 8.50024 18.9994V20.9994ZM8.50024 13.9994C8.50055 14.1365 8.47266 14.2722 8.41831 14.398C8.36397 14.5239 8.28432 14.6372 8.18433 14.731C8.08434 14.8248 7.96613 14.897 7.83705 14.9432C7.70797 14.9893 7.57078 15.0085 7.43399 14.9994C7.17641 14.9767 6.93697 14.8574 6.76376 14.6654C6.59055 14.4734 6.4964 14.223 6.50024 13.9644V12.0332C6.49672 11.7748 6.59101 11.5247 6.76419 11.333C6.93737 11.1412 7.17663 11.0221 7.43399 10.9994C7.57078 10.9903 7.70797 11.0095 7.83705 11.0556C7.96613 11.1018 8.08434 11.174 8.18433 11.2678C8.28432 11.3616 8.36397 11.4749 8.41831 11.6008C8.47266 11.7266 8.50055 11.8623 8.50024 11.9994V13.9994ZM13.5002 20.9994C13.5005 21.1365 13.4727 21.2722 13.4183 21.398C13.364 21.5239 13.2843 21.6372 13.1843 21.731C13.0843 21.8248 12.9661 21.897 12.8371 21.9432C12.708 21.9893 12.5708 22.0085 12.434 21.9994C12.1767 21.977 11.9375 21.8581 11.7643 21.6666C11.5911 21.4751 11.4967 21.2251 11.5002 20.9669V19.0332C11.497 18.775 11.5915 18.5252 11.7646 18.3338C11.9378 18.1423 12.1769 18.0233 12.434 18.0007C12.5708 17.9916 12.708 18.0107 12.8371 18.0569C12.9661 18.103 13.0843 18.1753 13.1843 18.2691C13.2843 18.3628 13.364 18.4762 13.4183 18.602C13.4727 18.7279 13.5005 18.8636 13.5002 19.0007V20.9994ZM13.5002 13.9994C13.5005 14.1365 13.4727 14.2722 13.4183 14.398C13.364 14.5239 13.2843 14.6372 13.1843 14.731C13.0843 14.8248 12.9661 14.897 12.8371 14.9432C12.708 14.9893 12.5708 15.0085 12.434 14.9994C12.1769 14.9767 11.9378 14.8577 11.7646 14.6663C11.5915 14.4748 11.497 14.225 11.5002 13.9669V12.0332C11.497 11.775 11.5915 11.5252 11.7646 11.3338C11.9378 11.1423 12.1769 11.0233 12.434 11.0007C12.5708 10.9916 12.708 11.0107 12.8371 11.0569C12.9661 11.1031 13.0843 11.1753 13.1843 11.2691C13.2843 11.3628 13.364 11.4762 13.4183 11.602C13.4727 11.7279 13.5005 11.8636 13.5002 12.0007V13.9994Z" fill="white"/>
</g>
<defs>
<clipPath id="clip0_2_938">
<rect width="30" height="26" fill="white"/>
</clipPath>
</defs>
</svg>
