<svg width="334" height="250" viewBox="0 0 334 250" fill="none" xmlns="http://www.w3.org/2000/svg">
<g clip-path="url(#clip0_2_731)">
<path opacity="0.5" d="M326.841 0H7.15991C3.39006 0 0.333984 3.05607 0.333984 6.82593V243.174C0.333984 246.944 3.39006 250 7.15991 250H326.841C330.611 250 333.667 246.944 333.667 243.174V6.82593C333.667 3.05607 330.611 0 326.841 0Z" fill="#F1F0EE"/>
<mask id="mask0_2_731" style="mask-type:luminance" maskUnits="userSpaceOnUse" x="23" y="30" width="272" height="189">
<path d="M295 30.8867H23V218.887H295V30.8867Z" fill="white"/>
</mask>
<g mask="url(#mask0_2_731)">
<path opacity="0.3" d="M173.576 31.9783V32.8621M173.576 31.9783C234.957 31.9783 257.465 31.9783 265.573 31.9784C268.026 31.9784 270.001 26.2047 270.001 28.6579C270.001 30.9737 270.001 39.5409 270.001 39.5409M173.576 31.9783L73.4439 31.9785C70.9907 31.9786 69.002 33.9673 69.002 36.4204V39.5411M173.575 149.401V203.998M173.576 106V115.884M173.576 106C234.957 106 257.465 106 265.573 106C268.026 106 270.001 104.001 270.001 101.548C270.001 91.124 270.001 91.5629 270.001 91.5629M173.576 106H73.4439C70.9907 106 69.002 104.011 69.002 101.558V91.5631" stroke="#333333" stroke-width="1.15489" stroke-linecap="round" stroke-dasharray="3.55 3.55"/>
</g>
<g filter="url(#filter0_d_2_731)">
<g filter="url(#filter1_d_2_731)">
<path d="M148 25.165C148 18.9988 152.999 14 159.165 14H182.835C189.001 14 194 18.9988 194 25.165V48.835C194 55.0012 189.001 60 182.835 60H159.165C152.999 60 148 55.0012 148 48.8349V25.165Z" fill="#333333"/>
</g>
<path d="M182.964 33.0824L181.31 27.3292C181.198 26.9475 180.966 26.6118 180.646 26.3723C180.327 26.1327 179.939 26.0021 179.538 26H162.462C162.061 26.0021 161.673 26.1327 161.354 26.3723C161.034 26.6118 160.802 26.9475 160.69 27.3292L159.036 33.0824C159.012 33.164 159 33.2484 159 33.3333V35.1667C159 35.8782 159.167 36.58 159.487 37.2164C159.808 37.8528 160.273 38.4064 160.846 38.8333V47.0833C160.846 47.3264 160.943 47.5596 161.117 47.7315C161.29 47.9034 161.524 48 161.769 48H180.231C180.476 48 180.71 47.9034 180.883 47.7315C181.057 47.5596 181.154 47.3264 181.154 47.0833V38.8333C181.727 38.4064 182.192 37.8528 182.513 37.2164C182.833 36.58 183 35.8782 183 35.1667V33.3333C183 33.2484 182.988 33.164 182.964 33.0824ZM166.385 35.1667C166.384 35.6396 166.261 36.1044 166.028 36.5163C165.794 36.9283 165.457 37.2733 165.049 37.5182C164.642 37.7631 164.178 37.8996 163.702 37.9144C163.226 37.9292 162.754 37.8218 162.332 37.6027C162.268 37.5531 162.197 37.5122 162.122 37.4812C161.731 37.2326 161.409 36.8904 161.186 36.4859C160.963 36.0814 160.846 35.6278 160.846 35.1667V34.25H166.385V35.1667ZM173.769 35.1667C173.769 35.896 173.477 36.5955 172.958 37.1112C172.439 37.6269 171.734 37.9167 171 37.9167C170.266 37.9167 169.561 37.6269 169.042 37.1112C168.523 36.5955 168.231 35.896 168.231 35.1667V34.25H173.769V35.1667ZM181.154 35.1667C181.153 35.6279 181.036 36.0816 180.813 36.4861C180.59 36.8905 180.268 37.2328 179.877 37.4812C179.802 37.5123 179.733 37.5527 179.669 37.6016C179.247 37.8209 178.775 37.9285 178.299 37.9138C177.823 37.8992 177.359 37.763 176.951 37.5182C176.544 37.2734 176.207 36.9284 175.973 36.5164C175.739 36.1045 175.616 35.6396 175.615 35.1667V34.25H181.154V35.1667Z" fill="white"/>
</g>
<path d="M184.527 119.527H160.473C153.584 119.527 148 125.112 148 132V132C148 138.889 153.584 144.473 160.473 144.473H184.527C191.416 144.473 197 138.889 197 132V132C197 125.112 191.416 119.527 184.527 119.527Z" fill="#8082EF"/>
<path d="M184.527 141.8C189.939 141.8 194.327 137.413 194.327 132C194.327 126.588 189.939 122.2 184.527 122.2C179.115 122.2 174.727 126.588 174.727 132C174.727 137.413 179.115 141.8 184.527 141.8Z" fill="white"/>
<path d="M261 204.75H78C69.5777 204.75 62.75 211.578 62.75 220C62.75 228.422 69.5777 235.25 78 235.25H261C269.422 235.25 276.25 228.422 276.25 220C276.25 211.578 269.422 204.75 261 204.75Z" fill="white" stroke="#BDBCBC" stroke-width="1.5"/>
<path d="M92.2411 213.775C92.3677 213.81 92.486 213.87 92.5893 213.951C92.6927 214.032 92.779 214.133 92.8434 214.248C92.9078 214.362 92.949 214.488 92.9646 214.619C92.9802 214.749 92.97 214.882 92.9345 215.008L89.9805 225.533C89.9088 225.788 89.7387 226.005 89.5075 226.135C89.2762 226.265 89.0029 226.297 88.7475 226.226C88.492 226.154 88.2756 225.984 88.1456 225.753C88.0156 225.522 87.9828 225.248 88.0545 224.993L91.0085 214.467C91.0439 214.34 91.104 214.222 91.1852 214.119C91.2663 214.015 91.3671 213.929 91.4816 213.865C91.5962 213.801 91.7222 213.759 91.8527 213.744C91.9831 213.728 92.1153 213.739 92.2418 213.774L92.2411 213.775ZM87.5345 216.465C87.7217 216.652 87.8269 216.906 87.8269 217.171C87.8269 217.436 87.7217 217.691 87.5345 217.878L85.4145 220L87.5358 222.121C87.7233 222.309 87.8286 222.563 87.8285 222.829C87.8285 223.094 87.723 223.348 87.5355 223.536C87.3479 223.723 87.0935 223.829 86.8282 223.829C86.563 223.828 86.3086 223.723 86.1211 223.535L83.2925 220.707C83.1052 220.519 83 220.265 83 220C83 219.735 83.1052 219.481 83.2925 219.293L86.1205 216.465C86.2133 216.372 86.3236 216.298 86.445 216.248C86.5663 216.198 86.6964 216.172 86.8278 216.172C86.9592 216.172 87.0893 216.198 87.2106 216.248C87.332 216.298 87.4416 216.372 87.5345 216.465ZM93.4545 217.878C93.3562 217.787 93.2774 217.676 93.2227 217.553C93.1681 217.431 93.1387 217.298 93.1363 217.164C93.134 217.03 93.1587 216.896 93.209 216.772C93.2593 216.647 93.3341 216.534 93.4291 216.439C93.524 216.344 93.6371 216.27 93.7617 216.219C93.8862 216.169 94.0195 216.144 94.1538 216.147C94.2881 216.149 94.4205 216.178 94.5432 216.233C94.6658 216.288 94.7762 216.367 94.8678 216.465L97.6965 219.293C97.8839 219.48 97.9892 219.735 97.9892 220C97.9892 220.265 97.8839 220.519 97.6965 220.707L94.8685 223.535C94.7756 223.628 94.6654 223.702 94.5441 223.752C94.4227 223.803 94.2927 223.828 94.1614 223.829C94.03 223.829 93.9 223.803 93.7786 223.752C93.6573 223.702 93.547 223.629 93.4541 223.536C93.3612 223.443 93.2875 223.333 93.2373 223.211C93.187 223.09 93.1611 222.96 93.161 222.829C93.161 222.697 93.1868 222.567 93.2371 222.446C93.2873 222.325 93.3609 222.214 93.4538 222.121L95.5751 220L93.4545 217.878Z" fill="#333333"/>
<path d="M105.276 223V216H106.476L109.846 221.06V216H111.046V223H109.846L106.476 217.95V223H105.276ZM114.764 223.12C114.284 223.12 113.851 223.01 113.464 222.79C113.084 222.563 112.784 222.253 112.564 221.86C112.351 221.46 112.244 221.003 112.244 220.49C112.244 219.963 112.354 219.503 112.574 219.11C112.794 218.71 113.094 218.4 113.474 218.18C113.861 217.953 114.294 217.84 114.774 217.84C115.254 217.84 115.684 217.953 116.064 218.18C116.451 218.4 116.751 218.707 116.964 219.1C117.184 219.493 117.294 219.953 117.294 220.48C117.294 221.007 117.184 221.467 116.964 221.86C116.744 222.253 116.441 222.563 116.054 222.79C115.674 223.01 115.244 223.12 114.764 223.12ZM114.764 222.09C115.004 222.09 115.221 222.03 115.414 221.91C115.614 221.79 115.774 221.61 115.894 221.37C116.014 221.13 116.074 220.833 116.074 220.48C116.074 220.127 116.014 219.833 115.894 219.6C115.781 219.36 115.624 219.18 115.424 219.06C115.231 218.94 115.014 218.88 114.774 218.88C114.541 218.88 114.324 218.94 114.124 219.06C113.924 219.18 113.764 219.36 113.644 219.6C113.524 219.833 113.464 220.127 113.464 220.48C113.464 220.833 113.524 221.13 113.644 221.37C113.764 221.61 113.921 221.79 114.114 221.91C114.314 222.03 114.531 222.09 114.764 222.09ZM123.3 223.12C122.807 223.12 122.364 223.01 121.97 222.79C121.584 222.563 121.28 222.253 121.06 221.86C120.847 221.46 120.74 221.007 120.74 220.5C120.74 219.973 120.847 219.513 121.06 219.12C121.28 218.72 121.584 218.407 121.97 218.18C122.364 217.953 122.81 217.84 123.31 217.84C123.937 217.84 124.464 218.007 124.89 218.34C125.317 218.667 125.59 219.117 125.71 219.69H124.45C124.384 219.437 124.244 219.237 124.03 219.09C123.824 218.943 123.577 218.87 123.29 218.87C123.044 218.87 122.817 218.933 122.61 219.06C122.41 219.187 122.25 219.37 122.13 219.61C122.017 219.85 121.96 220.14 121.96 220.48C121.96 220.74 121.994 220.97 122.06 221.17C122.127 221.37 122.22 221.54 122.34 221.68C122.467 221.813 122.61 221.917 122.77 221.99C122.93 222.063 123.104 222.1 123.29 222.1C123.484 222.1 123.657 222.07 123.81 222.01C123.97 221.943 124.104 221.847 124.21 221.72C124.324 221.593 124.404 221.443 124.45 221.27H125.71C125.59 221.83 125.317 222.28 124.89 222.62C124.464 222.953 123.934 223.12 123.3 223.12ZM129.217 223.12C128.737 223.12 128.304 223.01 127.917 222.79C127.537 222.563 127.237 222.253 127.017 221.86C126.804 221.46 126.697 221.003 126.697 220.49C126.697 219.963 126.807 219.503 127.027 219.11C127.247 218.71 127.547 218.4 127.927 218.18C128.314 217.953 128.747 217.84 129.227 217.84C129.707 217.84 130.137 217.953 130.517 218.18C130.904 218.4 131.204 218.707 131.417 219.1C131.637 219.493 131.747 219.953 131.747 220.48C131.747 221.007 131.637 221.467 131.417 221.86C131.197 222.253 130.894 222.563 130.507 222.79C130.127 223.01 129.697 223.12 129.217 223.12ZM129.217 222.09C129.457 222.09 129.674 222.03 129.867 221.91C130.067 221.79 130.227 221.61 130.347 221.37C130.467 221.13 130.527 220.833 130.527 220.48C130.527 220.127 130.467 219.833 130.347 219.6C130.234 219.36 130.077 219.18 129.877 219.06C129.684 218.94 129.467 218.88 129.227 218.88C128.994 218.88 128.777 218.94 128.577 219.06C128.377 219.18 128.217 219.36 128.097 219.6C127.977 219.833 127.917 220.127 127.917 220.48C127.917 220.833 127.977 221.13 128.097 221.37C128.217 221.61 128.374 221.79 128.567 221.91C128.767 222.03 128.984 222.09 129.217 222.09ZM135.162 223.12C134.695 223.12 134.279 223.007 133.912 222.78C133.545 222.553 133.259 222.24 133.052 221.84C132.852 221.44 132.752 220.987 132.752 220.48C132.752 219.973 132.855 219.523 133.062 219.13C133.269 218.73 133.555 218.417 133.922 218.19C134.295 217.957 134.715 217.84 135.182 217.84C135.562 217.84 135.892 217.913 136.172 218.06C136.459 218.2 136.685 218.4 136.852 218.66V215.8H138.052V223H136.972L136.852 222.27C136.745 222.417 136.615 222.557 136.462 222.69C136.309 222.817 136.125 222.92 135.912 223C135.699 223.08 135.449 223.12 135.162 223.12ZM135.412 222.08C135.699 222.08 135.952 222.013 136.172 221.88C136.392 221.74 136.562 221.55 136.682 221.31C136.802 221.07 136.862 220.793 136.862 220.48C136.862 220.167 136.802 219.89 136.682 219.65C136.562 219.41 136.392 219.223 136.172 219.09C135.952 218.957 135.699 218.89 135.412 218.89C135.139 218.89 134.892 218.957 134.672 219.09C134.452 219.223 134.279 219.41 134.152 219.65C134.032 219.89 133.972 220.167 133.972 220.48C133.972 220.793 134.032 221.07 134.152 221.31C134.279 221.55 134.452 221.74 134.672 221.88C134.892 222.013 135.139 222.08 135.412 222.08ZM139.437 223V217.96H140.637V223H139.437ZM140.037 217.16C139.817 217.16 139.633 217.093 139.487 216.96C139.347 216.82 139.277 216.65 139.277 216.45C139.277 216.243 139.347 216.077 139.487 215.95C139.633 215.817 139.817 215.75 140.037 215.75C140.257 215.75 140.437 215.817 140.577 215.95C140.723 216.077 140.797 216.243 140.797 216.45C140.797 216.65 140.723 216.82 140.577 216.96C140.437 217.093 140.257 217.16 140.037 217.16ZM142.024 223V217.96H143.084L143.174 218.8C143.327 218.507 143.547 218.273 143.834 218.1C144.12 217.927 144.46 217.84 144.854 217.84C145.26 217.84 145.607 217.927 145.894 218.1C146.18 218.267 146.4 218.513 146.554 218.84C146.714 219.167 146.794 219.573 146.794 220.06V223H145.594V220.17C145.594 219.75 145.5 219.427 145.314 219.2C145.127 218.973 144.85 218.86 144.484 218.86C144.244 218.86 144.027 218.917 143.834 219.03C143.647 219.143 143.497 219.31 143.384 219.53C143.277 219.743 143.224 220.003 143.224 220.31V223H142.024ZM150.179 225.32C149.705 225.32 149.289 225.26 148.929 225.14C148.575 225.027 148.299 224.85 148.099 224.61C147.905 224.377 147.809 224.083 147.809 223.73C147.809 223.523 147.859 223.32 147.959 223.12C148.065 222.927 148.222 222.747 148.429 222.58C148.642 222.407 148.912 222.257 149.239 222.13L149.769 222.71C149.449 222.823 149.225 222.96 149.099 223.12C148.972 223.28 148.909 223.443 148.909 223.61C148.909 223.783 148.962 223.927 149.069 224.04C149.182 224.16 149.332 224.25 149.519 224.31C149.712 224.37 149.929 224.4 150.169 224.4C150.402 224.4 150.605 224.367 150.779 224.3C150.952 224.24 151.085 224.153 151.179 224.04C151.279 223.927 151.329 223.79 151.329 223.63C151.329 223.43 151.259 223.267 151.119 223.14C150.979 223.02 150.702 222.947 150.289 222.92C149.935 222.893 149.625 222.857 149.359 222.81C149.092 222.757 148.862 222.697 148.669 222.63C148.482 222.563 148.322 222.49 148.189 222.41C148.055 222.323 147.945 222.237 147.859 222.15V221.92L148.909 220.82L149.799 221.11L148.619 222.26L148.929 221.68C148.995 221.727 149.062 221.77 149.129 221.81C149.202 221.85 149.292 221.887 149.399 221.92C149.512 221.947 149.659 221.973 149.839 222C150.019 222.027 150.252 222.053 150.539 222.08C150.985 222.113 151.349 222.193 151.629 222.32C151.909 222.447 152.115 222.617 152.249 222.83C152.382 223.043 152.449 223.3 152.449 223.6C152.449 223.893 152.365 224.17 152.199 224.43C152.039 224.69 151.792 224.903 151.459 225.07C151.125 225.237 150.699 225.32 150.179 225.32ZM150.179 221.49C149.759 221.49 149.395 221.41 149.089 221.25C148.789 221.083 148.559 220.863 148.399 220.59C148.239 220.31 148.159 220.003 148.159 219.67C148.159 219.33 148.239 219.023 148.399 218.75C148.559 218.477 148.789 218.257 149.089 218.09C149.395 217.923 149.759 217.84 150.179 217.84C150.599 217.84 150.959 217.923 151.259 218.09C151.559 218.257 151.789 218.477 151.949 218.75C152.109 219.023 152.189 219.33 152.189 219.67C152.189 220.003 152.109 220.31 151.949 220.59C151.789 220.863 151.559 221.083 151.259 221.25C150.959 221.41 150.599 221.49 150.179 221.49ZM150.179 220.56C150.465 220.56 150.695 220.483 150.869 220.33C151.042 220.177 151.129 219.957 151.129 219.67C151.129 219.383 151.042 219.167 150.869 219.02C150.695 218.867 150.465 218.79 150.179 218.79C149.892 218.79 149.659 218.867 149.479 219.02C149.299 219.167 149.209 219.383 149.209 219.67C149.209 219.957 149.299 220.177 149.479 220.33C149.659 220.483 149.892 220.56 150.179 220.56ZM151.009 218.84L150.779 217.96H152.849V218.72L151.009 218.84ZM156.35 223V217.96H157.41L157.5 218.8C157.653 218.507 157.873 218.273 158.16 218.1C158.446 217.927 158.786 217.84 159.18 217.84C159.586 217.84 159.933 217.927 160.22 218.1C160.506 218.267 160.726 218.513 160.88 218.84C161.04 219.167 161.12 219.573 161.12 220.06V223H159.92V220.17C159.92 219.75 159.826 219.427 159.64 219.2C159.453 218.973 159.176 218.86 158.81 218.86C158.57 218.86 158.353 218.917 158.16 219.03C157.973 219.143 157.823 219.31 157.71 219.53C157.603 219.743 157.55 220.003 157.55 220.31V223H156.35ZM164.745 223.12C164.245 223.12 163.805 223.013 163.425 222.8C163.045 222.58 162.748 222.273 162.535 221.88C162.322 221.487 162.215 221.033 162.215 220.52C162.215 219.987 162.318 219.52 162.525 219.12C162.738 218.72 163.035 218.407 163.415 218.18C163.802 217.953 164.248 217.84 164.755 217.84C165.248 217.84 165.678 217.95 166.045 218.17C166.412 218.39 166.695 218.687 166.895 219.06C167.095 219.427 167.195 219.84 167.195 220.3C167.195 220.367 167.195 220.44 167.195 220.52C167.195 220.6 167.188 220.683 167.175 220.77H163.075V220H165.985C165.972 219.633 165.848 219.347 165.615 219.14C165.382 218.927 165.092 218.82 164.745 218.82C164.498 218.82 164.272 218.877 164.065 218.99C163.858 219.103 163.695 219.273 163.575 219.5C163.455 219.72 163.395 220 163.395 220.34V220.63C163.395 220.943 163.452 221.213 163.565 221.44C163.685 221.667 163.845 221.84 164.045 221.96C164.252 222.073 164.482 222.13 164.735 222.13C165.015 222.13 165.245 222.07 165.425 221.95C165.612 221.83 165.748 221.67 165.835 221.47H167.055C166.962 221.783 166.808 222.067 166.595 222.32C166.382 222.567 166.118 222.763 165.805 222.91C165.492 223.05 165.138 223.12 164.745 223.12ZM170.663 223.12C170.163 223.12 169.723 223.013 169.343 222.8C168.963 222.58 168.666 222.273 168.453 221.88C168.239 221.487 168.133 221.033 168.133 220.52C168.133 219.987 168.236 219.52 168.443 219.12C168.656 218.72 168.953 218.407 169.333 218.18C169.719 217.953 170.166 217.84 170.673 217.84C171.166 217.84 171.596 217.95 171.963 218.17C172.329 218.39 172.613 218.687 172.813 219.06C173.013 219.427 173.113 219.84 173.113 220.3C173.113 220.367 173.113 220.44 173.113 220.52C173.113 220.6 173.106 220.683 173.093 220.77H168.993V220H171.903C171.889 219.633 171.766 219.347 171.533 219.14C171.299 218.927 171.009 218.82 170.663 218.82C170.416 218.82 170.189 218.877 169.983 218.99C169.776 219.103 169.613 219.273 169.493 219.5C169.373 219.72 169.313 220 169.313 220.34V220.63C169.313 220.943 169.369 221.213 169.483 221.44C169.603 221.667 169.763 221.84 169.963 221.96C170.169 222.073 170.399 222.13 170.653 222.13C170.933 222.13 171.163 222.07 171.343 221.95C171.529 221.83 171.666 221.67 171.753 221.47H172.973C172.879 221.783 172.726 222.067 172.513 222.32C172.299 222.567 172.036 222.763 171.723 222.91C171.409 223.05 171.056 223.12 170.663 223.12ZM176.461 223.12C175.994 223.12 175.577 223.007 175.211 222.78C174.844 222.553 174.557 222.24 174.351 221.84C174.151 221.44 174.051 220.987 174.051 220.48C174.051 219.973 174.154 219.523 174.361 219.13C174.567 218.73 174.854 218.417 175.221 218.19C175.594 217.957 176.014 217.84 176.481 217.84C176.861 217.84 177.191 217.913 177.471 218.06C177.757 218.2 177.984 218.4 178.151 218.66V215.8H179.351V223H178.271L178.151 222.27C178.044 222.417 177.914 222.557 177.761 222.69C177.607 222.817 177.424 222.92 177.211 223C176.997 223.08 176.747 223.12 176.461 223.12ZM176.711 222.08C176.997 222.08 177.251 222.013 177.471 221.88C177.691 221.74 177.861 221.55 177.981 221.31C178.101 221.07 178.161 220.793 178.161 220.48C178.161 220.167 178.101 219.89 177.981 219.65C177.861 219.41 177.691 219.223 177.471 219.09C177.251 218.957 176.997 218.89 176.711 218.89C176.437 218.89 176.191 218.957 175.971 219.09C175.751 219.223 175.577 219.41 175.451 219.65C175.331 219.89 175.271 220.167 175.271 220.48C175.271 220.793 175.331 221.07 175.451 221.31C175.577 221.55 175.751 221.74 175.971 221.88C176.191 222.013 176.437 222.08 176.711 222.08ZM183.046 223.12C182.546 223.12 182.106 223.013 181.726 222.8C181.346 222.58 181.049 222.273 180.836 221.88C180.622 221.487 180.516 221.033 180.516 220.52C180.516 219.987 180.619 219.52 180.826 219.12C181.039 218.72 181.336 218.407 181.716 218.18C182.102 217.953 182.549 217.84 183.056 217.84C183.549 217.84 183.979 217.95 184.346 218.17C184.712 218.39 184.996 218.687 185.196 219.06C185.396 219.427 185.496 219.84 185.496 220.3C185.496 220.367 185.496 220.44 185.496 220.52C185.496 220.6 185.489 220.683 185.476 220.77H181.376V220H184.286C184.272 219.633 184.149 219.347 183.916 219.14C183.682 218.927 183.392 218.82 183.046 218.82C182.799 218.82 182.572 218.877 182.366 218.99C182.159 219.103 181.996 219.273 181.876 219.5C181.756 219.72 181.696 220 181.696 220.34V220.63C181.696 220.943 181.752 221.213 181.866 221.44C181.986 221.667 182.146 221.84 182.346 221.96C182.552 222.073 182.782 222.13 183.036 222.13C183.316 222.13 183.546 222.07 183.726 221.95C183.912 221.83 184.049 221.67 184.136 221.47H185.356C185.262 221.783 185.109 222.067 184.896 222.32C184.682 222.567 184.419 222.763 184.106 222.91C183.792 223.05 183.439 223.12 183.046 223.12ZM188.844 223.12C188.377 223.12 187.96 223.007 187.594 222.78C187.227 222.553 186.94 222.24 186.734 221.84C186.534 221.44 186.434 220.987 186.434 220.48C186.434 219.973 186.537 219.523 186.744 219.13C186.95 218.73 187.237 218.417 187.604 218.19C187.977 217.957 188.397 217.84 188.864 217.84C189.244 217.84 189.574 217.913 189.854 218.06C190.14 218.2 190.367 218.4 190.534 218.66V215.8H191.734V223H190.654L190.534 222.27C190.427 222.417 190.297 222.557 190.144 222.69C189.99 222.817 189.807 222.92 189.594 223C189.38 223.08 189.13 223.12 188.844 223.12ZM189.094 222.08C189.38 222.08 189.634 222.013 189.854 221.88C190.074 221.74 190.244 221.55 190.364 221.31C190.484 221.07 190.544 220.793 190.544 220.48C190.544 220.167 190.484 219.89 190.364 219.65C190.244 219.41 190.074 219.223 189.854 219.09C189.634 218.957 189.38 218.89 189.094 218.89C188.82 218.89 188.574 218.957 188.354 219.09C188.134 219.223 187.96 219.41 187.834 219.65C187.714 219.89 187.654 220.167 187.654 220.48C187.654 220.793 187.714 221.07 187.834 221.31C187.96 221.55 188.134 221.74 188.354 221.88C188.574 222.013 188.82 222.08 189.094 222.08ZM193.588 223.05C193.362 223.05 193.178 222.98 193.038 222.84C192.898 222.7 192.828 222.533 192.828 222.34C192.828 222.133 192.898 221.96 193.038 221.82C193.178 221.68 193.362 221.61 193.588 221.61C193.808 221.61 193.988 221.68 194.128 221.82C194.268 221.96 194.338 222.133 194.338 222.34C194.338 222.533 194.268 222.7 194.128 222.84C193.988 222.98 193.808 223.05 193.588 223.05ZM197.913 223V216H199.113V223H197.913ZM200.481 223V217.96H201.541L201.631 218.8C201.784 218.507 202.004 218.273 202.291 218.1C202.577 217.927 202.917 217.84 203.311 217.84C203.717 217.84 204.064 217.927 204.351 218.1C204.637 218.267 204.857 218.513 205.011 218.84C205.171 219.167 205.251 219.573 205.251 220.06V223H204.051V220.17C204.051 219.75 203.957 219.427 203.771 219.2C203.584 218.973 203.307 218.86 202.941 218.86C202.701 218.86 202.484 218.917 202.291 219.03C202.104 219.143 201.954 219.31 201.841 219.53C201.734 219.743 201.681 220.003 201.681 220.31V223H200.481ZM208.526 223.12C208.079 223.12 207.689 223.05 207.356 222.91C207.029 222.763 206.769 222.563 206.576 222.31C206.389 222.05 206.279 221.753 206.246 221.42H207.446C207.479 221.56 207.539 221.69 207.626 221.81C207.712 221.923 207.829 222.013 207.976 222.08C208.129 222.147 208.309 222.18 208.516 222.18C208.716 222.18 208.879 222.153 209.006 222.1C209.132 222.04 209.226 221.963 209.286 221.87C209.346 221.777 209.376 221.677 209.376 221.57C209.376 221.41 209.332 221.287 209.246 221.2C209.159 221.113 209.032 221.047 208.866 221C208.706 220.947 208.512 220.897 208.286 220.85C208.046 220.803 207.812 220.747 207.586 220.68C207.366 220.607 207.166 220.517 206.986 220.41C206.812 220.303 206.672 220.167 206.566 220C206.466 219.833 206.416 219.63 206.416 219.39C206.416 219.097 206.492 218.833 206.646 218.6C206.806 218.367 207.032 218.183 207.326 218.05C207.626 217.91 207.982 217.84 208.396 217.84C208.982 217.84 209.449 217.977 209.796 218.25C210.149 218.517 210.356 218.893 210.416 219.38H209.276C209.242 219.193 209.149 219.05 208.996 218.95C208.842 218.843 208.639 218.79 208.386 218.79C208.126 218.79 207.926 218.84 207.786 218.94C207.652 219.033 207.586 219.16 207.586 219.32C207.586 219.427 207.626 219.52 207.706 219.6C207.792 219.68 207.916 219.75 208.076 219.81C208.236 219.863 208.432 219.917 208.666 219.97C209.039 220.043 209.369 220.13 209.656 220.23C209.942 220.33 210.169 220.477 210.336 220.67C210.502 220.863 210.586 221.137 210.586 221.49C210.592 221.81 210.509 222.093 210.336 222.34C210.169 222.587 209.932 222.78 209.626 222.92C209.319 223.053 208.952 223.12 208.526 223.12ZM213.774 223C213.434 223 213.137 222.947 212.884 222.84C212.637 222.733 212.444 222.557 212.304 222.31C212.164 222.063 212.094 221.73 212.094 221.31V218.97H211.234V217.96H212.094L212.234 216.63H213.294V217.96H214.664V218.97H213.294V221.31C213.294 221.563 213.347 221.74 213.454 221.84C213.567 221.933 213.754 221.98 214.014 221.98H214.634V223H213.774ZM217.473 223.12C217.06 223.12 216.716 223.05 216.443 222.91C216.17 222.77 215.966 222.583 215.833 222.35C215.7 222.117 215.633 221.863 215.633 221.59C215.633 221.27 215.713 220.993 215.873 220.76C216.04 220.527 216.283 220.347 216.603 220.22C216.923 220.087 217.316 220.02 217.783 220.02H219.053C219.053 219.753 219.016 219.533 218.943 219.36C218.87 219.18 218.756 219.047 218.603 218.96C218.45 218.873 218.253 218.83 218.013 218.83C217.74 218.83 217.506 218.893 217.313 219.02C217.12 219.14 217 219.327 216.953 219.58H215.773C215.813 219.22 215.933 218.913 216.133 218.66C216.333 218.4 216.596 218.2 216.923 218.06C217.256 217.913 217.62 217.84 218.013 217.84C218.486 217.84 218.89 217.923 219.223 218.09C219.556 218.25 219.81 218.483 219.983 218.79C220.163 219.09 220.253 219.453 220.253 219.88V223H219.233L219.113 222.19C219.046 222.323 218.96 222.447 218.853 222.56C218.753 222.673 218.636 222.773 218.503 222.86C218.37 222.94 218.216 223.003 218.043 223.05C217.876 223.097 217.686 223.12 217.473 223.12ZM217.743 222.17C217.936 222.17 218.106 222.137 218.253 222.07C218.406 221.997 218.536 221.897 218.643 221.77C218.756 221.637 218.843 221.49 218.903 221.33C218.963 221.17 219.003 221 219.023 220.82V220.8H217.913C217.68 220.8 217.486 220.83 217.333 220.89C217.18 220.95 217.07 221.033 217.003 221.14C216.936 221.24 216.903 221.36 216.903 221.5C216.903 221.64 216.936 221.76 217.003 221.86C217.07 221.96 217.166 222.037 217.293 222.09C217.42 222.143 217.57 222.17 217.743 222.17ZM221.535 223V217.96H222.595L222.685 218.8C222.839 218.507 223.059 218.273 223.345 218.1C223.632 217.927 223.972 217.84 224.365 217.84C224.772 217.84 225.119 217.927 225.405 218.1C225.692 218.267 225.912 218.513 226.065 218.84C226.225 219.167 226.305 219.573 226.305 220.06V223H225.105V220.17C225.105 219.75 225.012 219.427 224.825 219.2C224.639 218.973 224.362 218.86 223.995 218.86C223.755 218.86 223.539 218.917 223.345 219.03C223.159 219.143 223.009 219.31 222.895 219.53C222.789 219.743 222.735 220.003 222.735 220.31V223H221.535ZM229.76 223C229.42 223 229.124 222.947 228.87 222.84C228.624 222.733 228.43 222.557 228.29 222.31C228.15 222.063 228.08 221.73 228.08 221.31V218.97H227.22V217.96H228.08L228.22 216.63H229.28V217.96H230.65V218.97H229.28V221.31C229.28 221.563 229.334 221.74 229.44 221.84C229.554 221.933 229.74 221.98 230 221.98H230.62V223H229.76ZM236.231 223.12C235.784 223.12 235.394 223.05 235.061 222.91C234.734 222.763 234.474 222.563 234.281 222.31C234.094 222.05 233.984 221.753 233.951 221.42H235.151C235.184 221.56 235.244 221.69 235.331 221.81C235.417 221.923 235.534 222.013 235.681 222.08C235.834 222.147 236.014 222.18 236.221 222.18C236.421 222.18 236.584 222.153 236.711 222.1C236.837 222.04 236.931 221.963 236.991 221.87C237.051 221.777 237.081 221.677 237.081 221.57C237.081 221.41 237.037 221.287 236.951 221.2C236.864 221.113 236.737 221.047 236.571 221C236.411 220.947 236.217 220.897 235.991 220.85C235.751 220.803 235.517 220.747 235.291 220.68C235.071 220.607 234.871 220.517 234.691 220.41C234.517 220.303 234.377 220.167 234.271 220C234.171 219.833 234.121 219.63 234.121 219.39C234.121 219.097 234.197 218.833 234.351 218.6C234.511 218.367 234.737 218.183 235.031 218.05C235.331 217.91 235.687 217.84 236.101 217.84C236.687 217.84 237.154 217.977 237.501 218.25C237.854 218.517 238.061 218.893 238.121 219.38H236.981C236.947 219.193 236.854 219.05 236.701 218.95C236.547 218.843 236.344 218.79 236.091 218.79C235.831 218.79 235.631 218.84 235.491 218.94C235.357 219.033 235.291 219.16 235.291 219.32C235.291 219.427 235.331 219.52 235.411 219.6C235.497 219.68 235.621 219.75 235.781 219.81C235.941 219.863 236.137 219.917 236.371 219.97C236.744 220.043 237.074 220.13 237.361 220.23C237.647 220.33 237.874 220.477 238.041 220.67C238.207 220.863 238.291 221.137 238.291 221.49C238.297 221.81 238.214 222.093 238.041 222.34C237.874 222.587 237.637 222.78 237.331 222.92C237.024 223.053 236.657 223.12 236.231 223.12ZM239.811 225.2L241.041 222.44H240.741L238.731 217.96H240.041L241.541 221.38L242.961 217.96H244.231L241.081 225.2H239.811ZM245.1 223V217.96H246.16L246.25 218.8C246.403 218.507 246.623 218.273 246.91 218.1C247.196 217.927 247.536 217.84 247.93 217.84C248.336 217.84 248.683 217.927 248.97 218.1C249.256 218.267 249.476 218.513 249.63 218.84C249.79 219.167 249.87 219.573 249.87 220.06V223H248.67V220.17C248.67 219.75 248.576 219.427 248.39 219.2C248.203 218.973 247.926 218.86 247.56 218.86C247.32 218.86 247.103 218.917 246.91 219.03C246.723 219.143 246.573 219.31 246.46 219.53C246.353 219.743 246.3 220.003 246.3 220.31V223H245.1ZM253.525 223.12C253.032 223.12 252.588 223.01 252.195 222.79C251.808 222.563 251.505 222.253 251.285 221.86C251.072 221.46 250.965 221.007 250.965 220.5C250.965 219.973 251.072 219.513 251.285 219.12C251.505 218.72 251.808 218.407 252.195 218.18C252.588 217.953 253.035 217.84 253.535 217.84C254.162 217.84 254.688 218.007 255.115 218.34C255.542 218.667 255.815 219.117 255.935 219.69H254.675C254.608 219.437 254.468 219.237 254.255 219.09C254.048 218.943 253.802 218.87 253.515 218.87C253.268 218.87 253.042 218.933 252.835 219.06C252.635 219.187 252.475 219.37 252.355 219.61C252.242 219.85 252.185 220.14 252.185 220.48C252.185 220.74 252.218 220.97 252.285 221.17C252.352 221.37 252.445 221.54 252.565 221.68C252.692 221.813 252.835 221.917 252.995 221.99C253.155 222.063 253.328 222.1 253.515 222.1C253.708 222.1 253.882 222.07 254.035 222.01C254.195 221.943 254.328 221.847 254.435 221.72C254.548 221.593 254.628 221.443 254.675 221.27H255.935C255.815 221.83 255.542 222.28 255.115 222.62C254.688 222.953 254.158 223.12 253.525 223.12Z" fill="#333333"/>
<g filter="url(#filter2_d_2_731)">
<path d="M210 159H133C123.611 159 116 166.611 116 176C116 185.389 123.611 193 133 193H210C219.389 193 227 185.389 227 176C227 166.611 219.389 159 210 159Z" fill="white"/>
<path d="M210 159.461H133C123.866 159.461 116.461 166.866 116.461 176C116.461 185.134 123.866 192.539 133 192.539H210C219.134 192.539 226.539 185.134 226.539 176C226.539 166.866 219.134 159.461 210 159.461Z" stroke="url(#paint0_linear_2_731)" stroke-width="0.922018"/>
</g>
<path d="M140.617 181.528C140.233 182.367 138.954 184.322 135.359 184.322C135.179 184.322 135.006 184.25 134.878 184.122C134.751 183.995 134.679 183.822 134.679 183.642C134.679 180.047 136.634 178.767 137.472 178.384C137.554 178.347 137.642 178.326 137.731 178.323C137.82 178.32 137.909 178.334 137.993 178.366C138.076 178.397 138.153 178.444 138.218 178.505C138.284 178.566 138.336 178.639 138.374 178.721C138.411 178.802 138.431 178.89 138.434 178.979C138.438 179.068 138.423 179.157 138.392 179.241C138.361 179.325 138.313 179.401 138.252 179.467C138.191 179.532 138.118 179.585 138.037 179.622C137.49 179.871 136.284 180.672 136.072 182.929C138.328 182.717 139.132 181.511 139.379 180.964C139.416 180.883 139.469 180.81 139.534 180.749C139.6 180.688 139.676 180.64 139.76 180.609C139.844 180.578 139.933 180.563 140.022 180.566C140.111 180.57 140.199 180.59 140.28 180.627C140.361 180.664 140.435 180.717 140.496 180.782C140.556 180.848 140.604 180.924 140.635 181.008C140.666 181.092 140.681 181.181 140.678 181.27C140.675 181.359 140.654 181.447 140.617 181.528ZM150.987 169.288C150.967 168.956 150.827 168.643 150.592 168.408C150.357 168.173 150.044 168.033 149.712 168.013C148.643 167.949 145.91 168.047 143.643 170.314L139.44 174.521C139.376 174.584 139.301 174.634 139.219 174.668C139.136 174.703 139.048 174.72 138.959 174.72C138.778 174.72 138.605 174.649 138.477 174.521C138.35 174.394 138.278 174.221 138.278 174.04C138.277 173.86 138.349 173.687 138.476 173.559L140.734 171.301C140.781 171.253 140.814 171.193 140.827 171.127C140.84 171.061 140.833 170.993 140.807 170.931C140.782 170.869 140.738 170.816 140.683 170.779C140.627 170.741 140.561 170.721 140.494 170.721H138.279C138.1 170.72 137.922 170.755 137.757 170.823C137.591 170.891 137.441 170.992 137.314 171.119L134.399 174.036C134.22 174.215 134.094 174.44 134.036 174.686C133.978 174.932 133.99 175.189 134.07 175.429C134.15 175.669 134.295 175.881 134.49 176.043C134.684 176.205 134.919 176.309 135.17 176.345L138.44 176.801L142.198 180.559L142.654 183.831C142.69 184.081 142.794 184.317 142.956 184.511C143.118 184.705 143.331 184.85 143.571 184.929C143.711 184.976 143.857 185 144.004 185C144.183 185 144.359 184.965 144.524 184.897C144.689 184.829 144.839 184.729 144.965 184.602L147.882 181.686C148.009 181.56 148.109 181.409 148.177 181.244C148.246 181.078 148.281 180.901 148.28 180.722V178.506C148.28 178.439 148.26 178.374 148.222 178.318C148.185 178.262 148.132 178.218 148.07 178.193C148.008 178.167 147.939 178.16 147.873 178.174C147.807 178.187 147.747 178.219 147.699 178.267L145.441 180.524C145.375 180.591 145.296 180.642 145.209 180.677C145.122 180.711 145.029 180.727 144.935 180.723C144.842 180.72 144.75 180.698 144.666 180.657C144.582 180.617 144.507 180.559 144.445 180.489C144.334 180.354 144.277 180.182 144.287 180.007C144.296 179.832 144.371 179.667 144.496 179.545L148.685 175.357C150.953 173.089 151.051 170.356 150.987 169.286V169.288Z" fill="#333333"/>
<path d="M162.644 181.168C161.72 181.168 160.908 180.958 160.208 180.538C159.517 180.118 158.981 179.535 158.598 178.788C158.215 178.032 158.024 177.15 158.024 176.142C158.024 175.143 158.22 174.261 158.612 173.496C159.004 172.721 159.564 172.119 160.292 171.69C161.029 171.251 161.902 171.032 162.91 171.032C164.049 171.032 164.991 171.307 165.738 171.858C166.494 172.399 166.984 173.155 167.208 174.126H165.318C165.178 173.641 164.903 173.263 164.492 172.992C164.081 172.721 163.549 172.586 162.896 172.586C162.233 172.586 161.664 172.731 161.188 173.02C160.721 173.3 160.362 173.711 160.11 174.252C159.867 174.784 159.746 175.419 159.746 176.156C159.746 176.893 159.867 177.528 160.11 178.06C160.362 178.592 160.717 178.998 161.174 179.278C161.631 179.549 162.168 179.684 162.784 179.684C163.699 179.684 164.389 179.427 164.856 178.914C165.323 178.401 165.598 177.733 165.682 176.912H163.148V175.638H167.376V181H165.836L165.696 179.656C165.481 179.973 165.234 180.249 164.954 180.482C164.674 180.706 164.343 180.879 163.96 181C163.587 181.112 163.148 181.168 162.644 181.168ZM173.654 181.168C172.712 181.168 171.876 180.958 171.148 180.538C170.43 180.109 169.865 179.516 169.454 178.76C169.044 177.995 168.838 177.108 168.838 176.1C168.838 175.101 169.044 174.224 169.454 173.468C169.865 172.703 170.43 172.105 171.148 171.676C171.876 171.247 172.712 171.032 173.654 171.032C174.616 171.032 175.46 171.247 176.188 171.676C176.916 172.105 177.481 172.703 177.882 173.468C178.284 174.224 178.484 175.101 178.484 176.1C178.484 177.108 178.284 177.995 177.882 178.76C177.481 179.516 176.916 180.109 176.188 180.538C175.46 180.958 174.616 181.168 173.654 181.168ZM173.668 179.656C174.294 179.656 174.84 179.516 175.306 179.236C175.773 178.947 176.132 178.536 176.384 178.004C176.636 177.472 176.762 176.837 176.762 176.1C176.762 175.363 176.636 174.728 176.384 174.196C176.132 173.664 175.773 173.258 175.306 172.978C174.84 172.689 174.294 172.544 173.668 172.544C173.043 172.544 172.497 172.689 172.03 172.978C171.564 173.258 171.2 173.664 170.938 174.196C170.686 174.728 170.56 175.363 170.56 176.1C170.56 176.837 170.686 177.472 170.938 178.004C171.2 178.536 171.564 178.947 172.03 179.236C172.497 179.516 173.043 179.656 173.668 179.656ZM183.544 181V171.2H185.224V179.684H189.592V181H183.544ZM191.241 181V173.944H192.921V181H191.241ZM192.081 172.824C191.773 172.824 191.517 172.731 191.311 172.544C191.115 172.348 191.017 172.11 191.017 171.83C191.017 171.541 191.115 171.307 191.311 171.13C191.517 170.943 191.773 170.85 192.081 170.85C192.389 170.85 192.641 170.943 192.837 171.13C193.043 171.307 193.145 171.541 193.145 171.83C193.145 172.11 193.043 172.348 192.837 172.544C192.641 172.731 192.389 172.824 192.081 172.824ZM196.795 181L194.191 173.944H195.955L197.817 179.404L199.679 173.944H201.415L198.811 181H196.795ZM205.577 181.168C204.877 181.168 204.261 181.019 203.729 180.72C203.197 180.412 202.782 179.983 202.483 179.432C202.184 178.881 202.035 178.247 202.035 177.528C202.035 176.781 202.18 176.128 202.469 175.568C202.768 175.008 203.183 174.569 203.715 174.252C204.256 173.935 204.882 173.776 205.591 173.776C206.282 173.776 206.884 173.93 207.397 174.238C207.91 174.546 208.307 174.961 208.587 175.484C208.867 175.997 209.007 176.576 209.007 177.22C209.007 177.313 209.007 177.416 209.007 177.528C209.007 177.64 208.998 177.757 208.979 177.878H203.239V176.8H207.313C207.294 176.287 207.122 175.885 206.795 175.596C206.468 175.297 206.062 175.148 205.577 175.148C205.232 175.148 204.914 175.227 204.625 175.386C204.336 175.545 204.107 175.783 203.939 176.1C203.771 176.408 203.687 176.8 203.687 177.276V177.682C203.687 178.121 203.766 178.499 203.925 178.816C204.093 179.133 204.317 179.376 204.597 179.544C204.886 179.703 205.208 179.782 205.563 179.782C205.955 179.782 206.277 179.698 206.529 179.53C206.79 179.362 206.982 179.138 207.103 178.858H208.811C208.68 179.297 208.466 179.693 208.167 180.048C207.868 180.393 207.5 180.669 207.061 180.874C206.622 181.07 206.128 181.168 205.577 181.168Z" fill="#333333"/>
<path d="M38.4308 86L41.5148 77.06H43.6268L46.7108 86H44.9348L44.2988 84.08H40.8428L40.1948 86H38.4308ZM41.3108 82.64H43.8308L42.3428 78.188H42.7988L41.3108 82.64ZM50.3754 86.144C49.7434 86.144 49.1794 85.996 48.6834 85.7C48.1874 85.396 47.7954 84.984 47.5074 84.464C47.2194 83.944 47.0754 83.368 47.0754 82.736C47.0754 82.096 47.2194 81.52 47.5074 81.008C47.7954 80.496 48.1874 80.088 48.6834 79.784C49.1874 79.48 49.7474 79.328 50.3634 79.328C50.8594 79.328 51.2994 79.428 51.6834 79.628C52.0754 79.82 52.3834 80.092 52.6074 80.444L52.3674 80.768V76.916H53.9394V86H52.4514V84.74L52.6194 85.052C52.3954 85.404 52.0834 85.676 51.6834 85.868C51.2834 86.052 50.8474 86.144 50.3754 86.144ZM50.5434 84.704C50.9034 84.704 51.2194 84.62 51.4914 84.452C51.7634 84.284 51.9754 84.052 52.1274 83.756C52.2874 83.46 52.3674 83.12 52.3674 82.736C52.3674 82.36 52.2874 82.024 52.1274 81.728C51.9754 81.424 51.7634 81.188 51.4914 81.02C51.2194 80.852 50.9034 80.768 50.5434 80.768C50.1914 80.768 49.8754 80.856 49.5954 81.032C49.3154 81.2 49.0954 81.432 48.9354 81.728C48.7834 82.016 48.7074 82.352 48.7074 82.736C48.7074 83.12 48.7834 83.46 48.9354 83.756C49.0954 84.052 49.3154 84.284 49.5954 84.452C49.8754 84.62 50.1914 84.704 50.5434 84.704ZM55.4019 86V79.472H56.8779V80.984L56.7099 80.732C56.8299 80.26 57.0699 79.908 57.4299 79.676C57.7899 79.444 58.2139 79.328 58.7019 79.328C59.2379 79.328 59.7099 79.468 60.1179 79.748C60.5259 80.028 60.7899 80.396 60.9099 80.852L60.4659 80.888C60.6659 80.368 60.9659 79.98 61.3659 79.724C61.7659 79.46 62.2259 79.328 62.7459 79.328C63.2099 79.328 63.6219 79.432 63.9819 79.64C64.3499 79.848 64.6379 80.14 64.8459 80.516C65.0539 80.884 65.1579 81.312 65.1579 81.8V86H63.5859V82.172C63.5859 81.884 63.5339 81.636 63.4299 81.428C63.3259 81.22 63.1819 81.06 62.9979 80.948C62.8139 80.828 62.5899 80.768 62.3259 80.768C62.0779 80.768 61.8579 80.828 61.6659 80.948C61.4739 81.06 61.3259 81.22 61.2219 81.428C61.1179 81.636 61.0659 81.884 61.0659 82.172V86H59.4939V82.172C59.4939 81.884 59.4419 81.636 59.3379 81.428C59.2339 81.22 59.0859 81.06 58.8939 80.948C58.7099 80.828 58.4899 80.768 58.2339 80.768C57.9859 80.768 57.7659 80.828 57.5739 80.948C57.3819 81.06 57.2339 81.22 57.1299 81.428C57.0259 81.636 56.9739 81.884 56.9739 82.172V86H55.4019ZM66.4879 86V79.472H68.0599V86H66.4879ZM66.4879 78.74V77.06H68.0599V78.74H66.4879ZM69.5113 86V79.472H70.9873V80.756L70.8673 80.528C71.0193 80.136 71.2673 79.84 71.6113 79.64C71.9633 79.432 72.3713 79.328 72.8353 79.328C73.3153 79.328 73.7393 79.432 74.1073 79.64C74.4833 79.848 74.7753 80.14 74.9833 80.516C75.1913 80.884 75.2953 81.312 75.2953 81.8V86H73.7233V82.172C73.7233 81.884 73.6673 81.636 73.5553 81.428C73.4433 81.22 73.2873 81.06 73.0873 80.948C72.8953 80.828 72.6673 80.768 72.4033 80.768C72.1473 80.768 71.9193 80.828 71.7193 80.948C71.5193 81.06 71.3633 81.22 71.2513 81.428C71.1393 81.636 71.0833 81.884 71.0833 82.172V86H69.5113ZM78.1574 86L81.2414 77.06H83.3534L86.4374 86H84.6614L84.0254 84.08H80.5694L79.9214 86H78.1574ZM81.0374 82.64H83.5574L82.0694 78.188H82.5254L81.0374 82.64ZM87.4324 86V77.06H90.7684C91.3764 77.06 91.9124 77.172 92.3764 77.396C92.8484 77.612 93.2164 77.932 93.4804 78.356C93.7444 78.772 93.8764 79.28 93.8764 79.88C93.8764 80.472 93.7404 80.98 93.4684 81.404C93.2044 81.82 92.8404 82.14 92.3764 82.364C91.9124 82.588 91.3764 82.7 90.7684 82.7H89.0644V86H87.4324ZM89.0644 81.26H90.7924C91.0884 81.26 91.3444 81.204 91.5604 81.092C91.7764 80.972 91.9444 80.808 92.0644 80.6C92.1844 80.392 92.2444 80.152 92.2444 79.88C92.2444 79.6 92.1844 79.36 92.0644 79.16C91.9444 78.952 91.7764 78.792 91.5604 78.68C91.3444 78.56 91.0884 78.5 90.7924 78.5H89.0644V81.26ZM95.2136 86V77.06H96.8456V86H95.2136Z" fill="#333333"/>
<path d="M38.4308 86L41.5148 77.06H43.6268L46.7108 86H44.9348L44.2988 84.08H40.8428L40.1948 86H38.4308ZM41.3108 82.64H43.8308L42.3428 78.188H42.7988L41.3108 82.64ZM50.3754 86.144C49.7434 86.144 49.1794 85.996 48.6834 85.7C48.1874 85.396 47.7954 84.984 47.5074 84.464C47.2194 83.944 47.0754 83.368 47.0754 82.736C47.0754 82.096 47.2194 81.52 47.5074 81.008C47.7954 80.496 48.1874 80.088 48.6834 79.784C49.1874 79.48 49.7474 79.328 50.3634 79.328C50.8594 79.328 51.2994 79.428 51.6834 79.628C52.0754 79.82 52.3834 80.092 52.6074 80.444L52.3674 80.768V76.916H53.9394V86H52.4514V84.74L52.6194 85.052C52.3954 85.404 52.0834 85.676 51.6834 85.868C51.2834 86.052 50.8474 86.144 50.3754 86.144ZM50.5434 84.704C50.9034 84.704 51.2194 84.62 51.4914 84.452C51.7634 84.284 51.9754 84.052 52.1274 83.756C52.2874 83.46 52.3674 83.12 52.3674 82.736C52.3674 82.36 52.2874 82.024 52.1274 81.728C51.9754 81.424 51.7634 81.188 51.4914 81.02C51.2194 80.852 50.9034 80.768 50.5434 80.768C50.1914 80.768 49.8754 80.856 49.5954 81.032C49.3154 81.2 49.0954 81.432 48.9354 81.728C48.7834 82.016 48.7074 82.352 48.7074 82.736C48.7074 83.12 48.7834 83.46 48.9354 83.756C49.0954 84.052 49.3154 84.284 49.5954 84.452C49.8754 84.62 50.1914 84.704 50.5434 84.704ZM55.4019 86V79.472H56.8779V80.984L56.7099 80.732C56.8299 80.26 57.0699 79.908 57.4299 79.676C57.7899 79.444 58.2139 79.328 58.7019 79.328C59.2379 79.328 59.7099 79.468 60.1179 79.748C60.5259 80.028 60.7899 80.396 60.9099 80.852L60.4659 80.888C60.6659 80.368 60.9659 79.98 61.3659 79.724C61.7659 79.46 62.2259 79.328 62.7459 79.328C63.2099 79.328 63.6219 79.432 63.9819 79.64C64.3499 79.848 64.6379 80.14 64.8459 80.516C65.0539 80.884 65.1579 81.312 65.1579 81.8V86H63.5859V82.172C63.5859 81.884 63.5339 81.636 63.4299 81.428C63.3259 81.22 63.1819 81.06 62.9979 80.948C62.8139 80.828 62.5899 80.768 62.3259 80.768C62.0779 80.768 61.8579 80.828 61.6659 80.948C61.4739 81.06 61.3259 81.22 61.2219 81.428C61.1179 81.636 61.0659 81.884 61.0659 82.172V86H59.4939V82.172C59.4939 81.884 59.4419 81.636 59.3379 81.428C59.2339 81.22 59.0859 81.06 58.8939 80.948C58.7099 80.828 58.4899 80.768 58.2339 80.768C57.9859 80.768 57.7659 80.828 57.5739 80.948C57.3819 81.06 57.2339 81.22 57.1299 81.428C57.0259 81.636 56.9739 81.884 56.9739 82.172V86H55.4019ZM66.4879 86V79.472H68.0599V86H66.4879ZM66.4879 78.74V77.06H68.0599V78.74H66.4879ZM69.5113 86V79.472H70.9873V80.756L70.8673 80.528C71.0193 80.136 71.2673 79.84 71.6113 79.64C71.9633 79.432 72.3713 79.328 72.8353 79.328C73.3153 79.328 73.7393 79.432 74.1073 79.64C74.4833 79.848 74.7753 80.14 74.9833 80.516C75.1913 80.884 75.2953 81.312 75.2953 81.8V86H73.7233V82.172C73.7233 81.884 73.6673 81.636 73.5553 81.428C73.4433 81.22 73.2873 81.06 73.0873 80.948C72.8953 80.828 72.6673 80.768 72.4033 80.768C72.1473 80.768 71.9193 80.828 71.7193 80.948C71.5193 81.06 71.3633 81.22 71.2513 81.428C71.1393 81.636 71.0833 81.884 71.0833 82.172V86H69.5113ZM78.1574 86L81.2414 77.06H83.3534L86.4374 86H84.6614L84.0254 84.08H80.5694L79.9214 86H78.1574ZM81.0374 82.64H83.5574L82.0694 78.188H82.5254L81.0374 82.64ZM87.4324 86V77.06H90.7684C91.3764 77.06 91.9124 77.172 92.3764 77.396C92.8484 77.612 93.2164 77.932 93.4804 78.356C93.7444 78.772 93.8764 79.28 93.8764 79.88C93.8764 80.472 93.7404 80.98 93.4684 81.404C93.2044 81.82 92.8404 82.14 92.3764 82.364C91.9124 82.588 91.3764 82.7 90.7684 82.7H89.0644V86H87.4324ZM89.0644 81.26H90.7924C91.0884 81.26 91.3444 81.204 91.5604 81.092C91.7764 80.972 91.9444 80.808 92.0644 80.6C92.1844 80.392 92.2444 80.152 92.2444 79.88C92.2444 79.6 92.1844 79.36 92.0644 79.16C91.9444 78.952 91.7764 78.792 91.5604 78.68C91.3444 78.56 91.0884 78.5 90.7924 78.5H89.0644V81.26ZM95.2136 86V77.06H96.8456V86H95.2136Z" fill="#858585"/>
<mask id="mask1_2_731" style="mask-type:luminance" maskUnits="userSpaceOnUse" x="54" y="45" width="28" height="28">
<path d="M82 45H54V73H82V45Z" fill="white"/>
</mask>
<g mask="url(#mask1_2_731)">
<path d="M71.0311 52.6705C71.8107 52.3998 72.6303 52.2617 73.4556 52.262C74.288 52.262 75.0885 52.4007 75.8356 52.6553M75.8356 52.6553C75.4296 49.0649 72.3483 46.2725 68.6065 46.2725C64.5898 46.2725 61.3342 49.49 61.3342 53.4596C61.3338 54.3123 61.4864 55.158 61.7847 55.9567M75.8356 52.6553C76.6943 52.9484 77.4904 53.3999 78.1825 53.9865M61.7847 55.9567C61.4366 55.8894 61.0829 55.8553 60.7283 55.8549C57.7158 55.8562 55.2734 58.2693 55.2734 61.2462C55.2734 64.2231 57.7158 66.6362 60.7283 66.6362H61.6371M61.7847 55.9567C62.4888 56.0938 63.1591 56.368 63.7574 56.7636" stroke="#808080" stroke-width="1.90909" stroke-linecap="round"/>
<path d="M72.751 59.156C72.7624 59.113 72.7822 59.0727 72.8093 59.0374C72.8363 59.002 72.87 58.9724 72.9085 58.9501C73.0888 58.8568 73.5105 58.708 74.3779 58.708C75.2448 58.708 75.6671 58.8562 75.8473 58.9501C75.8858 58.9724 75.9196 59.002 75.9466 59.0374C75.9736 59.0727 75.9934 59.113 76.0048 59.156C76.0713 59.3631 76.209 59.8041 76.3683 60.381C76.7638 60.5503 77.1363 60.7693 77.4766 61.0326C77.8934 60.9241 78.3123 60.8238 78.7331 60.7316C78.8197 60.7082 78.912 60.7202 78.9898 60.7648C79.1613 60.8745 79.5008 61.1656 79.9348 61.9163C80.3676 62.6677 80.4504 63.1069 80.4598 63.3105C80.4597 63.4002 80.424 63.4863 80.3606 63.5497C80.2066 63.7183 79.8718 64.0817 79.4232 64.5355C79.4617 64.922 79.4562 65.3116 79.4068 65.6969C79.7316 66.0248 80.0495 66.3593 80.3606 66.7003C80.424 66.7637 80.4597 66.8497 80.4598 66.9394C80.451 67.1424 80.3682 67.5823 79.9348 68.3336C79.5013 69.0838 79.1618 69.3754 78.9903 69.4845C78.9126 69.5294 78.8203 69.5415 78.7337 69.5183C78.2598 69.4142 77.7882 69.3 77.3191 69.1759C77.037 69.3772 76.735 69.549 76.4178 69.6887C76.2903 70.1598 76.1526 70.6282 76.0048 71.0933C75.9934 71.1363 75.9736 71.1766 75.9466 71.212C75.9196 71.2473 75.8858 71.277 75.8473 71.2993C75.6665 71.3926 75.2448 71.5413 74.3773 71.5413C73.5105 71.5413 73.0882 71.3932 72.9085 71.2993C72.87 71.277 72.8363 71.2473 72.8093 71.212C72.7822 71.1766 72.7624 71.1363 72.751 71.0933C72.6775 70.8647 72.5177 70.3525 72.3374 69.6875C72.0207 69.5481 71.7191 69.3767 71.4373 69.1759C70.7753 69.3509 70.2555 69.4676 70.0216 69.5183C69.935 69.5417 69.8427 69.5298 69.7649 69.4851C69.5934 69.3754 69.2539 69.0838 68.8199 68.333C68.3871 67.5823 68.3043 67.143 68.2949 66.9394C68.295 66.895 68.3039 66.851 68.321 66.8099C68.3381 66.7689 68.3631 66.7316 68.3947 66.7003C68.7061 66.3589 69.0245 66.024 69.3496 65.6958C69.3004 65.3114 69.295 64.9228 69.3333 64.5373C69.0139 64.2143 68.7011 63.8849 68.3953 63.5491C68.3637 63.5177 68.3387 63.4805 68.3216 63.4394C68.3045 63.3984 68.2956 63.3544 68.2955 63.3099C68.3043 63.1069 68.3871 62.6671 68.8205 61.9163C69.2539 61.1656 69.5934 60.8739 69.7649 60.7648C69.8427 60.7202 69.935 60.7082 70.0216 60.7316C70.2368 60.7783 70.693 60.8809 71.2793 61.0326C71.6194 60.7695 71.9917 60.5508 72.387 60.3816C72.5468 59.8047 72.6845 59.3637 72.751 59.156Z" stroke="#808080" stroke-width="1.52727" stroke-linecap="round" stroke-linejoin="round"/>
<path d="M72.4728 65.0456C72.4728 65.5498 72.673 66.0333 73.0296 66.3899C73.3861 66.7464 73.8696 66.9467 74.3738 66.9467C74.878 66.9467 75.3616 66.7464 75.7181 66.3899C76.0746 66.0333 76.2749 65.5498 76.2749 65.0456C76.2749 64.5414 76.0746 64.0579 75.7181 63.7013C75.3616 63.3448 74.878 63.1445 74.3738 63.1445C73.8696 63.1445 73.3861 63.3448 73.0296 63.7013C72.673 64.0579 72.4728 64.5414 72.4728 65.0456Z" stroke="#808080" stroke-width="1.43182" stroke-linecap="round" stroke-linejoin="round"/>
</g>
<path d="M231.367 86.144C230.799 86.144 230.271 86.04 229.783 85.832C229.303 85.624 228.887 85.336 228.535 84.968C228.191 84.592 227.939 84.156 227.779 83.66L229.135 83.072C229.351 83.584 229.663 83.988 230.071 84.284C230.479 84.572 230.939 84.716 231.451 84.716C231.739 84.716 231.987 84.672 232.195 84.584C232.411 84.488 232.575 84.36 232.687 84.2C232.807 84.04 232.867 83.848 232.867 83.624C232.867 83.36 232.787 83.144 232.627 82.976C232.475 82.8 232.243 82.664 231.931 82.568L230.215 82.016C229.519 81.8 228.995 81.476 228.643 81.044C228.291 80.612 228.115 80.104 228.115 79.52C228.115 79.008 228.239 78.556 228.487 78.164C228.743 77.772 229.095 77.468 229.543 77.252C229.999 77.028 230.519 76.916 231.103 76.916C231.639 76.916 232.131 77.012 232.579 77.204C233.027 77.388 233.411 77.648 233.731 77.984C234.059 78.312 234.303 78.7 234.463 79.148L233.119 79.748C232.943 79.3 232.679 78.956 232.327 78.716C231.975 78.468 231.567 78.344 231.103 78.344C230.831 78.344 230.591 78.392 230.383 78.488C230.175 78.576 230.011 78.704 229.891 78.872C229.779 79.032 229.723 79.224 229.723 79.448C229.723 79.696 229.803 79.916 229.963 80.108C230.123 80.292 230.367 80.436 230.695 80.54L232.339 81.056C233.051 81.288 233.583 81.608 233.935 82.016C234.295 82.424 234.475 82.928 234.475 83.528C234.475 84.04 234.343 84.492 234.079 84.884C233.815 85.276 233.451 85.584 232.987 85.808C232.523 86.032 231.983 86.144 231.367 86.144ZM238.788 86.072C238.052 86.072 237.48 85.872 237.072 85.472C236.672 85.064 236.472 84.492 236.472 83.756V80.876H235.344V79.472H235.464C235.784 79.472 236.032 79.388 236.208 79.22C236.384 79.052 236.472 78.808 236.472 78.488V77.984H238.044V79.472H239.544V80.876H238.044V83.672C238.044 83.888 238.08 84.072 238.152 84.224C238.232 84.376 238.352 84.492 238.512 84.572C238.68 84.652 238.892 84.692 239.148 84.692C239.204 84.692 239.268 84.688 239.34 84.68C239.42 84.672 239.496 84.664 239.568 84.656V86C239.456 86.016 239.328 86.032 239.184 86.048C239.04 86.064 238.908 86.072 238.788 86.072ZM243.903 86.144C243.263 86.144 242.679 85.996 242.151 85.7C241.631 85.404 241.215 85 240.903 84.488C240.599 83.976 240.447 83.392 240.447 82.736C240.447 82.08 240.599 81.496 240.903 80.984C241.215 80.472 241.631 80.068 242.151 79.772C242.671 79.476 243.255 79.328 243.903 79.328C244.543 79.328 245.123 79.476 245.643 79.772C246.163 80.068 246.575 80.472 246.879 80.984C247.191 81.488 247.347 82.072 247.347 82.736C247.347 83.392 247.191 83.976 246.879 84.488C246.567 85 246.151 85.404 245.631 85.7C245.111 85.996 244.535 86.144 243.903 86.144ZM243.903 84.704C244.255 84.704 244.563 84.62 244.827 84.452C245.099 84.284 245.311 84.052 245.463 83.756C245.623 83.452 245.703 83.112 245.703 82.736C245.703 82.352 245.623 82.016 245.463 81.728C245.311 81.432 245.099 81.2 244.827 81.032C244.563 80.856 244.255 80.768 243.903 80.768C243.543 80.768 243.227 80.856 242.955 81.032C242.683 81.2 242.467 81.432 242.307 81.728C242.155 82.016 242.079 82.352 242.079 82.736C242.079 83.112 242.155 83.452 242.307 83.756C242.467 84.052 242.683 84.284 242.955 84.452C243.227 84.62 243.543 84.704 243.903 84.704ZM248.539 86V79.472H250.015V80.924L249.895 80.708C250.047 80.22 250.283 79.88 250.603 79.688C250.931 79.496 251.323 79.4 251.779 79.4H252.163V80.792H251.599C251.151 80.792 250.791 80.932 250.519 81.212C250.247 81.484 250.111 81.868 250.111 82.364V86H248.539ZM256.123 86.144C255.451 86.144 254.863 85.992 254.359 85.688C253.855 85.384 253.463 84.972 253.183 84.452C252.903 83.932 252.763 83.356 252.763 82.724C252.763 82.068 252.903 81.488 253.183 80.984C253.471 80.472 253.859 80.068 254.347 79.772C254.843 79.476 255.395 79.328 256.003 79.328C256.515 79.328 256.963 79.412 257.347 79.58C257.739 79.748 258.071 79.98 258.343 80.276C258.615 80.572 258.823 80.912 258.967 81.296C259.111 81.672 259.183 82.08 259.183 82.52C259.183 82.632 259.175 82.748 259.159 82.868C259.151 82.988 259.131 83.092 259.099 83.18H254.059V81.98H258.211L257.467 82.544C257.539 82.176 257.519 81.848 257.407 81.56C257.303 81.272 257.127 81.044 256.879 80.876C256.639 80.708 256.347 80.624 256.003 80.624C255.675 80.624 255.383 80.708 255.127 80.876C254.871 81.036 254.675 81.276 254.539 81.596C254.411 81.908 254.363 82.288 254.395 82.736C254.363 83.136 254.415 83.492 254.551 83.804C254.695 84.108 254.903 84.344 255.175 84.512C255.455 84.68 255.775 84.764 256.135 84.764C256.495 84.764 256.799 84.688 257.047 84.536C257.303 84.384 257.503 84.18 257.647 83.924L258.919 84.548C258.791 84.86 258.591 85.136 258.319 85.376C258.047 85.616 257.723 85.804 257.347 85.94C256.979 86.076 256.571 86.144 256.123 86.144ZM261.131 86V80.876H259.979V79.472H261.131V79.256C261.131 78.76 261.231 78.34 261.431 77.996C261.639 77.644 261.927 77.376 262.295 77.192C262.663 77.008 263.099 76.916 263.603 76.916C263.699 76.916 263.803 76.924 263.915 76.94C264.035 76.948 264.135 76.96 264.215 76.976V78.332C264.135 78.316 264.059 78.308 263.987 78.308C263.923 78.3 263.863 78.296 263.807 78.296C263.455 78.296 263.183 78.376 262.991 78.536C262.799 78.688 262.703 78.928 262.703 79.256V79.472H264.155V80.876H262.703V86H261.131ZM265.226 86V79.472H266.702V80.924L266.582 80.708C266.734 80.22 266.97 79.88 267.29 79.688C267.618 79.496 268.01 79.4 268.466 79.4H268.85V80.792H268.286C267.838 80.792 267.478 80.932 267.206 81.212C266.934 81.484 266.798 81.868 266.798 82.364V86H265.226ZM272.906 86.144C272.266 86.144 271.682 85.996 271.154 85.7C270.634 85.404 270.218 85 269.906 84.488C269.602 83.976 269.45 83.392 269.45 82.736C269.45 82.08 269.602 81.496 269.906 80.984C270.218 80.472 270.634 80.068 271.154 79.772C271.674 79.476 272.258 79.328 272.906 79.328C273.546 79.328 274.126 79.476 274.646 79.772C275.166 80.068 275.578 80.472 275.882 80.984C276.194 81.488 276.35 82.072 276.35 82.736C276.35 83.392 276.194 83.976 275.882 84.488C275.57 85 275.154 85.404 274.634 85.7C274.114 85.996 273.538 86.144 272.906 86.144ZM272.906 84.704C273.258 84.704 273.566 84.62 273.83 84.452C274.102 84.284 274.314 84.052 274.466 83.756C274.626 83.452 274.706 83.112 274.706 82.736C274.706 82.352 274.626 82.016 274.466 81.728C274.314 81.432 274.102 81.2 273.83 81.032C273.566 80.856 273.258 80.768 272.906 80.768C272.546 80.768 272.23 80.856 271.958 81.032C271.686 81.2 271.47 81.432 271.31 81.728C271.158 82.016 271.082 82.352 271.082 82.736C271.082 83.112 271.158 83.452 271.31 83.756C271.47 84.052 271.686 84.284 271.958 84.452C272.23 84.62 272.546 84.704 272.906 84.704ZM277.543 86V79.472H279.019V80.756L278.899 80.528C279.051 80.136 279.299 79.84 279.643 79.64C279.995 79.432 280.403 79.328 280.867 79.328C281.347 79.328 281.771 79.432 282.139 79.64C282.515 79.848 282.807 80.14 283.015 80.516C283.223 80.884 283.327 81.312 283.327 81.8V86H281.755V82.172C281.755 81.884 281.699 81.636 281.587 81.428C281.475 81.22 281.319 81.06 281.119 80.948C280.927 80.828 280.699 80.768 280.435 80.768C280.179 80.768 279.951 80.828 279.751 80.948C279.551 81.06 279.395 81.22 279.283 81.428C279.171 81.636 279.115 81.884 279.115 82.172V86H277.543ZM287.632 86.072C286.896 86.072 286.324 85.872 285.916 85.472C285.516 85.064 285.316 84.492 285.316 83.756V80.876H284.188V79.472H284.308C284.628 79.472 284.876 79.388 285.052 79.22C285.228 79.052 285.316 78.808 285.316 78.488V77.984H286.888V79.472H288.388V80.876H286.888V83.672C286.888 83.888 286.924 84.072 286.996 84.224C287.076 84.376 287.196 84.492 287.356 84.572C287.524 84.652 287.736 84.692 287.992 84.692C288.048 84.692 288.112 84.688 288.184 84.68C288.264 84.672 288.34 84.664 288.412 84.656V86C288.3 86.016 288.172 86.032 288.028 86.048C287.884 86.064 287.752 86.072 287.632 86.072ZM291.146 86L294.23 77.06H296.342L299.426 86H297.65L297.014 84.08H293.558L292.91 86H291.146ZM294.026 82.64H296.546L295.058 78.188H295.514L294.026 82.64ZM300.421 86V77.06H303.757C304.365 77.06 304.901 77.172 305.365 77.396C305.837 77.612 306.205 77.932 306.469 78.356C306.733 78.772 306.865 79.28 306.865 79.88C306.865 80.472 306.729 80.98 306.457 81.404C306.193 81.82 305.829 82.14 305.365 82.364C304.901 82.588 304.365 82.7 303.757 82.7H302.053V86H300.421ZM302.053 81.26H303.781C304.077 81.26 304.333 81.204 304.549 81.092C304.765 80.972 304.933 80.808 305.053 80.6C305.173 80.392 305.233 80.152 305.233 79.88C305.233 79.6 305.173 79.36 305.053 79.16C304.933 78.952 304.765 78.792 304.549 78.68C304.333 78.56 304.077 78.5 303.781 78.5H302.053V81.26ZM308.202 86V77.06H309.834V86H308.202Z" fill="#333333"/>
<path d="M231.367 86.144C230.799 86.144 230.271 86.04 229.783 85.832C229.303 85.624 228.887 85.336 228.535 84.968C228.191 84.592 227.939 84.156 227.779 83.66L229.135 83.072C229.351 83.584 229.663 83.988 230.071 84.284C230.479 84.572 230.939 84.716 231.451 84.716C231.739 84.716 231.987 84.672 232.195 84.584C232.411 84.488 232.575 84.36 232.687 84.2C232.807 84.04 232.867 83.848 232.867 83.624C232.867 83.36 232.787 83.144 232.627 82.976C232.475 82.8 232.243 82.664 231.931 82.568L230.215 82.016C229.519 81.8 228.995 81.476 228.643 81.044C228.291 80.612 228.115 80.104 228.115 79.52C228.115 79.008 228.239 78.556 228.487 78.164C228.743 77.772 229.095 77.468 229.543 77.252C229.999 77.028 230.519 76.916 231.103 76.916C231.639 76.916 232.131 77.012 232.579 77.204C233.027 77.388 233.411 77.648 233.731 77.984C234.059 78.312 234.303 78.7 234.463 79.148L233.119 79.748C232.943 79.3 232.679 78.956 232.327 78.716C231.975 78.468 231.567 78.344 231.103 78.344C230.831 78.344 230.591 78.392 230.383 78.488C230.175 78.576 230.011 78.704 229.891 78.872C229.779 79.032 229.723 79.224 229.723 79.448C229.723 79.696 229.803 79.916 229.963 80.108C230.123 80.292 230.367 80.436 230.695 80.54L232.339 81.056C233.051 81.288 233.583 81.608 233.935 82.016C234.295 82.424 234.475 82.928 234.475 83.528C234.475 84.04 234.343 84.492 234.079 84.884C233.815 85.276 233.451 85.584 232.987 85.808C232.523 86.032 231.983 86.144 231.367 86.144ZM238.788 86.072C238.052 86.072 237.48 85.872 237.072 85.472C236.672 85.064 236.472 84.492 236.472 83.756V80.876H235.344V79.472H235.464C235.784 79.472 236.032 79.388 236.208 79.22C236.384 79.052 236.472 78.808 236.472 78.488V77.984H238.044V79.472H239.544V80.876H238.044V83.672C238.044 83.888 238.08 84.072 238.152 84.224C238.232 84.376 238.352 84.492 238.512 84.572C238.68 84.652 238.892 84.692 239.148 84.692C239.204 84.692 239.268 84.688 239.34 84.68C239.42 84.672 239.496 84.664 239.568 84.656V86C239.456 86.016 239.328 86.032 239.184 86.048C239.04 86.064 238.908 86.072 238.788 86.072ZM243.903 86.144C243.263 86.144 242.679 85.996 242.151 85.7C241.631 85.404 241.215 85 240.903 84.488C240.599 83.976 240.447 83.392 240.447 82.736C240.447 82.08 240.599 81.496 240.903 80.984C241.215 80.472 241.631 80.068 242.151 79.772C242.671 79.476 243.255 79.328 243.903 79.328C244.543 79.328 245.123 79.476 245.643 79.772C246.163 80.068 246.575 80.472 246.879 80.984C247.191 81.488 247.347 82.072 247.347 82.736C247.347 83.392 247.191 83.976 246.879 84.488C246.567 85 246.151 85.404 245.631 85.7C245.111 85.996 244.535 86.144 243.903 86.144ZM243.903 84.704C244.255 84.704 244.563 84.62 244.827 84.452C245.099 84.284 245.311 84.052 245.463 83.756C245.623 83.452 245.703 83.112 245.703 82.736C245.703 82.352 245.623 82.016 245.463 81.728C245.311 81.432 245.099 81.2 244.827 81.032C244.563 80.856 244.255 80.768 243.903 80.768C243.543 80.768 243.227 80.856 242.955 81.032C242.683 81.2 242.467 81.432 242.307 81.728C242.155 82.016 242.079 82.352 242.079 82.736C242.079 83.112 242.155 83.452 242.307 83.756C242.467 84.052 242.683 84.284 242.955 84.452C243.227 84.62 243.543 84.704 243.903 84.704ZM248.539 86V79.472H250.015V80.924L249.895 80.708C250.047 80.22 250.283 79.88 250.603 79.688C250.931 79.496 251.323 79.4 251.779 79.4H252.163V80.792H251.599C251.151 80.792 250.791 80.932 250.519 81.212C250.247 81.484 250.111 81.868 250.111 82.364V86H248.539ZM256.123 86.144C255.451 86.144 254.863 85.992 254.359 85.688C253.855 85.384 253.463 84.972 253.183 84.452C252.903 83.932 252.763 83.356 252.763 82.724C252.763 82.068 252.903 81.488 253.183 80.984C253.471 80.472 253.859 80.068 254.347 79.772C254.843 79.476 255.395 79.328 256.003 79.328C256.515 79.328 256.963 79.412 257.347 79.58C257.739 79.748 258.071 79.98 258.343 80.276C258.615 80.572 258.823 80.912 258.967 81.296C259.111 81.672 259.183 82.08 259.183 82.52C259.183 82.632 259.175 82.748 259.159 82.868C259.151 82.988 259.131 83.092 259.099 83.18H254.059V81.98H258.211L257.467 82.544C257.539 82.176 257.519 81.848 257.407 81.56C257.303 81.272 257.127 81.044 256.879 80.876C256.639 80.708 256.347 80.624 256.003 80.624C255.675 80.624 255.383 80.708 255.127 80.876C254.871 81.036 254.675 81.276 254.539 81.596C254.411 81.908 254.363 82.288 254.395 82.736C254.363 83.136 254.415 83.492 254.551 83.804C254.695 84.108 254.903 84.344 255.175 84.512C255.455 84.68 255.775 84.764 256.135 84.764C256.495 84.764 256.799 84.688 257.047 84.536C257.303 84.384 257.503 84.18 257.647 83.924L258.919 84.548C258.791 84.86 258.591 85.136 258.319 85.376C258.047 85.616 257.723 85.804 257.347 85.94C256.979 86.076 256.571 86.144 256.123 86.144ZM261.131 86V80.876H259.979V79.472H261.131V79.256C261.131 78.76 261.231 78.34 261.431 77.996C261.639 77.644 261.927 77.376 262.295 77.192C262.663 77.008 263.099 76.916 263.603 76.916C263.699 76.916 263.803 76.924 263.915 76.94C264.035 76.948 264.135 76.96 264.215 76.976V78.332C264.135 78.316 264.059 78.308 263.987 78.308C263.923 78.3 263.863 78.296 263.807 78.296C263.455 78.296 263.183 78.376 262.991 78.536C262.799 78.688 262.703 78.928 262.703 79.256V79.472H264.155V80.876H262.703V86H261.131ZM265.226 86V79.472H266.702V80.924L266.582 80.708C266.734 80.22 266.97 79.88 267.29 79.688C267.618 79.496 268.01 79.4 268.466 79.4H268.85V80.792H268.286C267.838 80.792 267.478 80.932 267.206 81.212C266.934 81.484 266.798 81.868 266.798 82.364V86H265.226ZM272.906 86.144C272.266 86.144 271.682 85.996 271.154 85.7C270.634 85.404 270.218 85 269.906 84.488C269.602 83.976 269.45 83.392 269.45 82.736C269.45 82.08 269.602 81.496 269.906 80.984C270.218 80.472 270.634 80.068 271.154 79.772C271.674 79.476 272.258 79.328 272.906 79.328C273.546 79.328 274.126 79.476 274.646 79.772C275.166 80.068 275.578 80.472 275.882 80.984C276.194 81.488 276.35 82.072 276.35 82.736C276.35 83.392 276.194 83.976 275.882 84.488C275.57 85 275.154 85.404 274.634 85.7C274.114 85.996 273.538 86.144 272.906 86.144ZM272.906 84.704C273.258 84.704 273.566 84.62 273.83 84.452C274.102 84.284 274.314 84.052 274.466 83.756C274.626 83.452 274.706 83.112 274.706 82.736C274.706 82.352 274.626 82.016 274.466 81.728C274.314 81.432 274.102 81.2 273.83 81.032C273.566 80.856 273.258 80.768 272.906 80.768C272.546 80.768 272.23 80.856 271.958 81.032C271.686 81.2 271.47 81.432 271.31 81.728C271.158 82.016 271.082 82.352 271.082 82.736C271.082 83.112 271.158 83.452 271.31 83.756C271.47 84.052 271.686 84.284 271.958 84.452C272.23 84.62 272.546 84.704 272.906 84.704ZM277.543 86V79.472H279.019V80.756L278.899 80.528C279.051 80.136 279.299 79.84 279.643 79.64C279.995 79.432 280.403 79.328 280.867 79.328C281.347 79.328 281.771 79.432 282.139 79.64C282.515 79.848 282.807 80.14 283.015 80.516C283.223 80.884 283.327 81.312 283.327 81.8V86H281.755V82.172C281.755 81.884 281.699 81.636 281.587 81.428C281.475 81.22 281.319 81.06 281.119 80.948C280.927 80.828 280.699 80.768 280.435 80.768C280.179 80.768 279.951 80.828 279.751 80.948C279.551 81.06 279.395 81.22 279.283 81.428C279.171 81.636 279.115 81.884 279.115 82.172V86H277.543ZM287.632 86.072C286.896 86.072 286.324 85.872 285.916 85.472C285.516 85.064 285.316 84.492 285.316 83.756V80.876H284.188V79.472H284.308C284.628 79.472 284.876 79.388 285.052 79.22C285.228 79.052 285.316 78.808 285.316 78.488V77.984H286.888V79.472H288.388V80.876H286.888V83.672C286.888 83.888 286.924 84.072 286.996 84.224C287.076 84.376 287.196 84.492 287.356 84.572C287.524 84.652 287.736 84.692 287.992 84.692C288.048 84.692 288.112 84.688 288.184 84.68C288.264 84.672 288.34 84.664 288.412 84.656V86C288.3 86.016 288.172 86.032 288.028 86.048C287.884 86.064 287.752 86.072 287.632 86.072ZM291.146 86L294.23 77.06H296.342L299.426 86H297.65L297.014 84.08H293.558L292.91 86H291.146ZM294.026 82.64H296.546L295.058 78.188H295.514L294.026 82.64ZM300.421 86V77.06H303.757C304.365 77.06 304.901 77.172 305.365 77.396C305.837 77.612 306.205 77.932 306.469 78.356C306.733 78.772 306.865 79.28 306.865 79.88C306.865 80.472 306.729 80.98 306.457 81.404C306.193 81.82 305.829 82.14 305.365 82.364C304.901 82.588 304.365 82.7 303.757 82.7H302.053V86H300.421ZM302.053 81.26H303.781C304.077 81.26 304.333 81.204 304.549 81.092C304.765 80.972 304.933 80.808 305.053 80.6C305.173 80.392 305.233 80.152 305.233 79.88C305.233 79.6 305.173 79.36 305.053 79.16C304.933 78.952 304.765 78.792 304.549 78.68C304.333 78.56 304.077 78.5 303.781 78.5H302.053V81.26ZM308.202 86V77.06H309.834V86H308.202Z" fill="#858585"/>
<mask id="mask2_2_731" style="mask-type:luminance" maskUnits="userSpaceOnUse" x="255" y="45" width="28" height="28">
<path d="M283 45H255V73H283V45Z" fill="white"/>
</mask>
<g mask="url(#mask2_2_731)">
<path d="M272.031 52.6705C272.811 52.3998 273.63 52.2617 274.456 52.262C275.288 52.262 276.089 52.4007 276.836 52.6553M276.836 52.6553C276.43 49.0649 273.348 46.2725 269.607 46.2725C265.59 46.2725 262.334 49.49 262.334 53.4596C262.334 54.3123 262.486 55.158 262.785 55.9567M276.836 52.6553C277.694 52.9484 278.49 53.3999 279.183 53.9865M262.785 55.9567C262.437 55.8894 262.083 55.8553 261.728 55.8549C258.716 55.8562 256.273 58.2693 256.273 61.2462C256.273 64.2231 258.716 66.6362 261.728 66.6362H262.637M262.785 55.9567C263.489 56.0938 264.159 56.368 264.757 56.7636" stroke="#808080" stroke-width="1.90909" stroke-linecap="round"/>
<path d="M273.751 59.156C273.762 59.113 273.782 59.0727 273.809 59.0374C273.836 59.002 273.87 58.9724 273.909 58.9501C274.089 58.8568 274.511 58.708 275.378 58.708C276.245 58.708 276.667 58.8562 276.847 58.9501C276.886 58.9724 276.92 59.002 276.947 59.0374C276.974 59.0727 276.993 59.113 277.005 59.156C277.071 59.3631 277.209 59.8041 277.368 60.381C277.764 60.5503 278.136 60.7693 278.477 61.0326C278.893 60.9241 279.312 60.8238 279.733 60.7316C279.82 60.7082 279.912 60.7202 279.99 60.7648C280.161 60.8745 280.501 61.1656 280.935 61.9163C281.368 62.6677 281.45 63.1069 281.46 63.3105C281.46 63.4002 281.424 63.4863 281.361 63.5497C281.207 63.7183 280.872 64.0817 280.423 64.5355C280.462 64.922 280.456 65.3116 280.407 65.6969C280.732 66.0248 281.05 66.3593 281.361 66.7003C281.424 66.7637 281.46 66.8497 281.46 66.9394C281.451 67.1424 281.368 67.5823 280.935 68.3336C280.501 69.0838 280.162 69.3754 279.99 69.4845C279.913 69.5294 279.82 69.5415 279.734 69.5183C279.26 69.4142 278.788 69.3 278.319 69.1759C278.037 69.3772 277.735 69.549 277.418 69.6887C277.29 70.1598 277.153 70.6282 277.005 71.0933C276.993 71.1363 276.974 71.1766 276.947 71.212C276.92 71.2473 276.886 71.277 276.847 71.2993C276.667 71.3926 276.245 71.5413 275.377 71.5413C274.511 71.5413 274.088 71.3932 273.909 71.2993C273.87 71.277 273.836 71.2473 273.809 71.212C273.782 71.1766 273.762 71.1363 273.751 71.0933C273.678 70.8647 273.518 70.3525 273.337 69.6875C273.021 69.5481 272.719 69.3767 272.437 69.1759C271.775 69.3509 271.256 69.4676 271.022 69.5183C270.935 69.5417 270.843 69.5298 270.765 69.4851C270.593 69.3754 270.254 69.0838 269.82 68.333C269.387 67.5823 269.304 67.143 269.295 66.9394C269.295 66.895 269.304 66.851 269.321 66.8099C269.338 66.7689 269.363 66.7316 269.395 66.7003C269.706 66.3589 270.024 66.024 270.35 65.6958C270.3 65.3114 270.295 64.9228 270.333 64.5373C270.014 64.2143 269.701 63.8849 269.395 63.5491C269.364 63.5177 269.339 63.4805 269.322 63.4394C269.304 63.3984 269.296 63.3544 269.296 63.3099C269.304 63.1069 269.387 62.6671 269.821 61.9163C270.254 61.1656 270.593 60.8739 270.765 60.7648C270.843 60.7202 270.935 60.7082 271.022 60.7316C271.237 60.7783 271.693 60.8809 272.279 61.0326C272.619 60.7695 272.992 60.5508 273.387 60.3816C273.547 59.8047 273.685 59.3637 273.751 59.156Z" stroke="#808080" stroke-width="1.52727" stroke-linecap="round" stroke-linejoin="round"/>
<path d="M273.473 65.0456C273.473 65.5498 273.673 66.0333 274.029 66.3899C274.386 66.7464 274.87 66.9467 275.374 66.9467C275.878 66.9467 276.361 66.7464 276.718 66.3899C277.075 66.0333 277.275 65.5498 277.275 65.0456C277.275 64.5414 277.075 64.0579 276.718 63.7013C276.361 63.3448 275.878 63.1445 275.374 63.1445C274.87 63.1445 274.386 63.3448 274.029 63.7013C273.673 64.0579 273.473 64.5414 273.473 65.0456Z" stroke="#808080" stroke-width="1.43182" stroke-linecap="round" stroke-linejoin="round"/>
</g>
<g filter="url(#filter3_d_2_731)">
<path d="M212.123 134.922L198.341 128.198C197.6 127.836 196.764 128.476 196.92 129.286L199.924 144.876C200.1 145.788 201.317 145.988 201.776 145.18L205.378 138.835C205.51 138.601 205.732 138.43 205.992 138.361L211.94 136.788C212.836 136.551 212.955 135.328 212.123 134.922Z" fill="#1D1D1D"/>
<path d="M212.123 134.922L198.341 128.198C197.6 127.836 196.764 128.476 196.92 129.286L199.924 144.876C200.1 145.788 201.317 145.988 201.776 145.18L205.378 138.835C205.51 138.601 205.732 138.43 205.992 138.361L211.94 136.788C212.836 136.551 212.955 135.328 212.123 134.922Z" stroke="white" stroke-width="1.5"/>
</g>
</g>
<defs>
<filter id="filter0_d_2_731" x="133.676" y="1.4228" width="74.6481" height="74.6481" filterUnits="userSpaceOnUse" color-interpolation-filters="sRGB">
<feFlood flood-opacity="0" result="BackgroundImageFix"/>
<feColorMatrix in="SourceAlpha" type="matrix" values="0 0 0 0 0 0 0 0 0 0 0 0 0 0 0 0 0 0 127 0" result="hardAlpha"/>
<feOffset dy="1.74684"/>
<feGaussianBlur stdDeviation="7.16202"/>
<feComposite in2="hardAlpha" operator="out"/>
<feColorMatrix type="matrix" values="0 0 0 0 1 0 0 0 0 0.380392 0 0 0 0 0.278431 0 0 0 0.05 0"/>
<feBlend mode="normal" in2="BackgroundImageFix" result="effect1_dropShadow_2_731"/>
<feBlend mode="normal" in="SourceGraphic" in2="effect1_dropShadow_2_731" result="shape"/>
</filter>
<filter id="filter1_d_2_731" x="128.895" y="7.48838" width="84.2094" height="84.2094" filterUnits="userSpaceOnUse" color-interpolation-filters="sRGB">
<feFlood flood-opacity="0" result="BackgroundImageFix"/>
<feColorMatrix in="SourceAlpha" type="matrix" values="0 0 0 0 0 0 0 0 0 0 0 0 0 0 0 0 0 0 127 0" result="hardAlpha"/>
<feOffset dy="12.5931"/>
<feGaussianBlur stdDeviation="9.55236"/>
<feComposite in2="hardAlpha" operator="out"/>
<feColorMatrix type="matrix" values="0 0 0 0 0 0 0 0 0 0 0 0 0 0 0 0 0 0 0.1 0"/>
<feBlend mode="normal" in2="BackgroundImageFix" result="effect1_dropShadow_2_731"/>
<feBlend mode="normal" in="SourceGraphic" in2="effect1_dropShadow_2_731" result="shape"/>
</filter>
<filter id="filter2_d_2_731" x="89.7051" y="150.038" width="163.59" height="86.5896" filterUnits="userSpaceOnUse" color-interpolation-filters="sRGB">
<feFlood flood-opacity="0" result="BackgroundImageFix"/>
<feColorMatrix in="SourceAlpha" type="matrix" values="0 0 0 0 0 0 0 0 0 0 0 0 0 0 0 0 0 0 127 0" result="hardAlpha"/>
<feOffset dy="17.3325"/>
<feGaussianBlur stdDeviation="13.1474"/>
<feComposite in2="hardAlpha" operator="out"/>
<feColorMatrix type="matrix" values="0 0 0 0 0 0 0 0 0 0 0 0 0 0 0 0 0 0 0.1 0"/>
<feBlend mode="normal" in2="BackgroundImageFix" result="effect1_dropShadow_2_731"/>
<feBlend mode="normal" in="SourceGraphic" in2="effect1_dropShadow_2_731" result="shape"/>
</filter>
<filter id="filter3_d_2_731" x="192.15" y="127.343" width="25.2843" height="27.0947" filterUnits="userSpaceOnUse" color-interpolation-filters="sRGB">
<feFlood flood-opacity="0" result="BackgroundImageFix"/>
<feColorMatrix in="SourceAlpha" type="matrix" values="0 0 0 0 0 0 0 0 0 0 0 0 0 0 0 0 0 0 127 0" result="hardAlpha"/>
<feOffset dy="4"/>
<feGaussianBlur stdDeviation="2"/>
<feComposite in2="hardAlpha" operator="out"/>
<feColorMatrix type="matrix" values="0 0 0 0 0 0 0 0 0 0 0 0 0 0 0 0 0 0 0.25 0"/>
<feBlend mode="normal" in2="BackgroundImageFix" result="effect1_dropShadow_2_731"/>
<feBlend mode="normal" in="SourceGraphic" in2="effect1_dropShadow_2_731" result="shape"/>
</filter>
<linearGradient id="paint0_linear_2_731" x1="121.888" y1="161.361" x2="137.038" y2="121.203" gradientUnits="userSpaceOnUse">
<stop stop-color="#FF7860"/>
<stop offset="0.273855" stop-color="#E9A183"/>
<stop offset="0.532302" stop-color="#AE5EE1"/>
<stop offset="0.779838" stop-color="#AE5EE1"/>
<stop offset="1" stop-color="#F41D51"/>
</linearGradient>
<clipPath id="clip0_2_731">
<rect width="334" height="250" fill="white"/>
</clipPath>
</defs>
</svg>
