<svg width="17" height="22" viewBox="0 0 17 22" fill="none" xmlns="http://www.w3.org/2000/svg">
<path d="M9.64717 0C11.5745 0 13.0305 0.471425 14.0151 1.41427C15.0207 2.35712 15.5235 3.72952 15.5235 5.53148C15.5235 6.47433 15.293 7.33333 14.8321 8.10859C14.3922 8.86291 13.7323 9.46005 12.8524 9.90002C11.9935 10.34 10.9146 10.5705 9.61572 10.5914L9.67862 9.42859C10.3699 9.42859 11.1136 9.52286 11.9097 9.71149C12.7267 9.90002 13.4913 10.2248 14.2037 10.6857C14.9159 11.1467 15.5025 11.7753 15.9634 12.5715C16.4242 13.3467 16.6547 14.321 16.6547 15.4943C16.6547 16.7724 16.4453 17.841 16.0262 18.7C15.6072 19.5382 15.0521 20.1981 14.3607 20.6801C13.6694 21.1619 12.9048 21.5076 12.0668 21.7172C11.2497 21.9057 10.4432 22.0001 9.64717 22.0001H1.60257C1.16267 22.0001 0.785558 21.8533 0.471353 21.56C0.157149 21.2458 0 20.8581 0 20.3972V1.6029C0 1.1419 0.157149 0.764738 0.471353 0.471424C0.785558 0.157174 1.16267 0 1.60257 0H9.64717ZM9.20726 3.07999H3.01674L3.39374 2.57711V9.33433L3.04809 8.98863H9.27006C10.0243 8.96769 10.6841 8.71625 11.2497 8.23431C11.8364 7.73143 12.1296 6.99814 12.1296 6.03426C12.1296 5.04953 11.8678 4.31625 11.3441 3.83431C10.8204 3.33143 10.108 3.07999 9.20726 3.07999ZM9.42721 12.0686H3.17379L3.39374 11.8486V19.2657L3.14234 18.9829H9.61572C10.7051 18.9829 11.585 18.7 12.2553 18.1343C12.9257 17.5477 13.261 16.6677 13.261 15.4943C13.261 14.5096 13.0619 13.7762 12.6639 13.2944C12.2659 12.8124 11.7735 12.4876 11.1869 12.3201C10.6004 12.1524 10.0138 12.0686 9.42721 12.0686Z" fill="black"/>
</svg>
