<svg width="38" height="38" viewBox="0 0 38 38" fill="none" xmlns="http://www.w3.org/2000/svg">
<g clip-path="url(#clip0_2_156)">
<path d="M38 19C38 29.4934 29.4934 38 19 38C8.50659 38 0 29.4934 0 19C0 8.50659 8.50659 0 19 0C29.4934 0 38 8.50659 38 19Z" fill="#8082EF" fill-opacity="0.2"/>
<path d="M23.9875 11.1621H14.0125C12.8157 11.1621 11.6679 11.6375 10.8216 12.4837C9.97538 13.33 9.5 14.4778 9.5 15.6746V24.2246C9.5 24.8172 9.61675 25.404 9.84352 25.9514C10.0703 26.4989 10.4027 26.9964 10.8216 27.4155C11.6679 28.2617 12.8157 28.7371 14.0125 28.7371H23.9875C25.1835 28.7346 26.3298 28.2584 27.1755 27.4126C28.0213 26.5669 28.4975 25.4207 28.5 24.2246V15.6746C28.4975 14.4786 28.0213 13.3323 27.1755 12.4866C26.3298 11.6408 25.1835 11.1646 23.9875 11.1621ZM20.52 19.0661C20.0526 19.3327 19.5238 19.4728 18.9858 19.4728C18.4477 19.4728 17.9189 19.3327 17.4515 19.0661L10.944 15.3326C11.0282 14.5776 11.3877 13.8802 11.9538 13.3737C12.5199 12.8672 13.2529 12.5871 14.0125 12.5871H23.9875C24.7465 12.5892 25.4784 12.8699 26.0441 13.3761C26.6098 13.8822 26.9698 14.5785 27.056 15.3326L20.52 19.0661Z" fill="#8082EF"/>
</g>
<defs>
<clipPath id="clip0_2_156">
<rect width="38" height="38" fill="white"/>
</clipPath>
</defs>
</svg>
