<svg width="311" height="180" viewBox="0 0 311 180" fill="none" xmlns="http://www.w3.org/2000/svg">
<g clip-path="url(#clip0_2_1046)">
<mask id="mask0_2_1046" style="mask-type:luminance" maskUnits="userSpaceOnUse" x="0" y="0" width="311" height="180">
<path d="M310.5 0H0V180H310.5V0Z" fill="white"/>
</mask>
<g mask="url(#mask0_2_1046)">
<mask id="mask1_2_1046" style="mask-type:luminance" maskUnits="userSpaceOnUse" x="-114" y="16" width="425" height="164">
<path d="M299.252 16.4365H-102.25C-108.464 16.4365 -113.5 21.4733 -113.5 27.6865V168.687C-113.5 174.9 -108.464 179.937 -102.25 179.937H299.252C305.465 179.937 310.502 174.9 310.502 168.687V27.6865C310.502 21.4733 305.465 16.4365 299.252 16.4365Z" fill="white"/>
</mask>
<g mask="url(#mask1_2_1046)">
<path opacity="0.4" d="M270.798 158.747C270.798 155.86 273.138 153.52 276.025 153.52C278.911 153.52 281.252 155.86 281.252 158.747V167.377C281.252 170.264 278.911 172.604 276.025 172.604C273.138 172.604 270.798 170.264 270.798 167.377V158.747ZM250.199 172.964C250.199 175.851 252.539 178.191 255.425 178.191C258.312 178.191 260.652 175.851 260.652 172.964V153.159C260.652 150.272 258.312 147.932 255.425 147.932C252.539 147.932 250.199 150.272 250.199 153.159V172.964ZM229.945 188.616C229.945 191.503 232.285 193.843 235.172 193.843C238.058 193.843 240.398 191.503 240.398 188.616V163.062V137.507C240.398 134.621 238.058 132.281 235.172 132.281C232.285 132.281 229.945 134.621 229.945 137.507V188.616ZM210.692 205.9C210.692 205.911 210.701 205.92 210.712 205.92H215.918C218.804 205.92 221.145 203.58 221.145 200.693V125.993C221.145 123.107 218.804 120.767 215.918 120.767C213.032 120.767 210.692 123.107 210.692 125.993V205.9ZM190.079 179.898C190.079 182.785 192.419 185.125 195.305 185.125C198.192 185.125 200.532 182.785 200.532 179.898V146.225C200.532 143.339 198.192 140.999 195.305 140.999C192.419 140.999 190.079 143.339 190.079 146.225V179.898ZM169.139 218.515H173.593C176.906 218.515 179.593 215.828 179.593 212.515V110.964C179.593 108.068 177.245 105.721 174.35 105.721C171.454 105.721 169.106 108.068 169.106 110.964V218.482C169.106 218.5 169.121 218.515 169.139 218.515ZM148.533 229.46C148.533 232.346 150.873 234.687 153.76 234.687C156.647 234.687 158.987 232.346 158.987 229.46V96.6638C158.987 93.777 156.647 91.437 153.76 91.437C150.873 91.437 148.533 93.777 148.533 96.6638V229.46ZM128.279 207.344C128.279 210.231 130.619 212.571 133.506 212.571C136.393 212.571 138.733 210.231 138.733 207.344V118.778C138.733 115.892 136.393 113.552 133.506 113.552C130.619 113.552 128.279 115.892 128.279 118.778V207.344ZM107.327 179.225C107.327 182.111 109.667 184.452 112.554 184.452C115.441 184.452 117.781 182.111 117.781 179.225V147.941C117.781 145.055 115.441 142.715 112.554 142.715C109.667 142.715 107.327 145.055 107.327 147.941V179.225ZM87.0743 174.54C87.0743 174.519 87.0908 174.502 87.1118 174.502H92.301C95.1878 174.502 97.5278 172.162 97.5278 169.275V156.812C97.5278 153.925 95.1878 151.585 92.301 151.585C89.4143 151.585 87.0743 153.925 87.0743 156.812V174.54ZM66.8204 186.779C66.8204 186.77 66.8272 186.763 66.8357 186.763H72.0471C74.9338 186.763 77.274 184.423 77.274 181.536V144.571C77.274 141.684 74.9338 139.344 72.0471 139.344C69.1604 139.344 66.8204 141.684 66.8204 144.571V186.779ZM46.8941 209.734C46.8938 209.725 46.901 209.717 46.9102 209.717H52.2137C55.0487 209.717 57.347 207.419 57.347 204.584V118.919C57.347 116.033 55.007 113.693 52.1205 113.693C49.234 113.693 46.8941 116.033 46.8941 118.919V209.734ZM26.6405 195.064C26.6405 195.055 26.6477 195.047 26.6567 195.047H31.8672C34.7539 195.047 37.094 192.707 37.094 189.821V135.478C37.094 132.591 34.7539 130.251 31.8672 130.251C28.9805 130.251 26.6405 132.592 26.6405 135.478V195.064ZM6.00146 172.964C6.00146 175.851 8.34158 178.191 11.2283 178.191C14.1149 178.191 16.455 175.851 16.455 172.964V153.159C16.455 150.272 14.1149 147.932 11.2283 147.932C8.34158 147.932 6.00146 150.272 6.00146 153.159V172.964Z" fill="white"/>
<g filter="url(#filter0_d_2_1046)">
<path d="M142.501 45.6865H106.501C99.0456 45.6865 93.0015 51.7307 93.0015 59.1865C93.0015 66.6424 99.0456 72.6865 106.501 72.6865H142.501C149.957 72.6865 156.001 66.6424 156.001 59.1865C156.001 51.7307 149.957 45.6865 142.501 45.6865Z" fill="#1D1D1D"/>
</g>
<path d="M107.401 62.9364V54.5364H110.149C110.806 54.5364 111.346 54.6484 111.769 54.8724C112.201 55.0884 112.517 55.3804 112.717 55.7484C112.925 56.1164 113.029 56.5364 113.029 57.0084C113.029 57.4644 112.925 57.8804 112.717 58.2564C112.517 58.6244 112.205 58.9204 111.781 59.1444C111.358 59.3604 110.813 59.4684 110.149 59.4684H108.409V62.9364H107.401ZM108.409 58.6164H110.125C110.797 58.6164 111.277 58.4724 111.565 58.1844C111.853 57.8884 111.997 57.4964 111.997 57.0084C111.997 56.4884 111.853 56.0884 111.565 55.8084C111.277 55.5204 110.797 55.3764 110.125 55.3764H108.409V58.6164ZM114.302 62.9364V54.2964H115.31V62.9364H114.302ZM118.942 63.0804C118.454 63.0804 118.046 62.9964 117.718 62.8284C117.39 62.6524 117.146 62.4244 116.986 62.1444C116.826 61.8564 116.746 61.5444 116.746 61.2084C116.746 60.8004 116.85 60.4564 117.058 60.1764C117.274 59.8884 117.574 59.6724 117.958 59.5284C118.35 59.3764 118.81 59.3004 119.338 59.3004H120.934C120.934 58.9244 120.874 58.6124 120.754 58.3644C120.642 58.1084 120.474 57.9164 120.25 57.7884C120.034 57.6604 119.762 57.5964 119.434 57.5964C119.05 57.5964 118.718 57.6924 118.438 57.8844C118.158 58.0764 117.986 58.3604 117.922 58.7364H116.89C116.938 58.3044 117.082 57.9444 117.322 57.6564C117.57 57.3604 117.882 57.1364 118.258 56.9844C118.634 56.8244 119.026 56.7444 119.434 56.7444C119.994 56.7444 120.458 56.8484 120.826 57.0564C121.202 57.2564 121.482 57.5404 121.666 57.9084C121.85 58.2684 121.942 58.6964 121.942 59.1924V62.9364H121.042L120.982 61.8684C120.902 62.0364 120.798 62.1964 120.67 62.3484C120.55 62.4924 120.406 62.6204 120.238 62.7324C120.078 62.8364 119.89 62.9204 119.674 62.9844C119.458 63.0484 119.214 63.0804 118.942 63.0804ZM119.098 62.2284C119.378 62.2284 119.63 62.1724 119.854 62.0604C120.086 61.9404 120.282 61.7804 120.442 61.5804C120.602 61.3724 120.722 61.1444 120.802 60.8964C120.89 60.6484 120.934 60.3884 120.934 60.1164V60.0804H119.422C119.03 60.0804 118.714 60.1284 118.474 60.2244C118.234 60.3124 118.062 60.4404 117.958 60.6084C117.854 60.7684 117.802 60.9524 117.802 61.1604C117.802 61.3764 117.85 61.5644 117.946 61.7244C118.05 61.8844 118.198 62.0084 118.39 62.0964C118.59 62.1844 118.826 62.2284 119.098 62.2284ZM123.985 65.5764L125.461 62.2644H125.113L122.737 56.8884H123.829L125.797 61.5084L127.873 56.8884H128.917L125.041 65.5764H123.985ZM130.33 62.9364V55.9524C130.33 55.5684 130.393 55.2564 130.522 55.0164C130.65 54.7684 130.837 54.5884 131.086 54.4764C131.341 54.3564 131.653 54.2964 132.022 54.2964H132.706V55.1604H132.178C131.881 55.1604 131.665 55.2204 131.53 55.3404C131.401 55.4604 131.338 55.6724 131.338 55.9764V62.9364H130.33ZM129.406 57.7404V56.8884H132.862V57.7404H129.406ZM136.268 63.0804C135.804 63.0804 135.396 62.9884 135.044 62.8044C134.7 62.6204 134.432 62.3364 134.24 61.9524C134.056 61.5684 133.964 61.0884 133.964 60.5124V56.8884H134.972V60.4044C134.972 61.0044 135.104 61.4564 135.368 61.7604C135.632 62.0644 136.004 62.2164 136.484 62.2164C136.82 62.2164 137.124 62.1364 137.396 61.9764C137.668 61.8084 137.88 61.5724 138.032 61.2684C138.192 60.9564 138.272 60.5724 138.272 60.1164V56.8884H139.28V62.9364H138.368L138.308 61.8804C138.124 62.2564 137.852 62.5524 137.492 62.7684C137.132 62.9764 136.724 63.0804 136.268 63.0804ZM140.95 62.9364V54.2964H141.958V62.9364H140.95Z" fill="white"/>
<g filter="url(#filter1_d_2_1046)">
<path d="M68.2515 74.9365H32.2515C24.7956 74.9365 18.7515 80.9807 18.7515 88.4365C18.7515 95.8924 24.7956 101.937 32.2515 101.937H68.2515C75.7073 101.937 81.7515 95.8924 81.7515 88.4365C81.7515 80.9807 75.7073 74.9365 68.2515 74.9365Z" fill="#1D1D1D"/>
</g>
<path d="M36.7635 92.3309C35.9795 92.3309 35.2915 92.1509 34.6995 91.7909C34.1075 91.4226 33.6475 90.9149 33.3195 90.2669C32.9915 89.6189 32.8275 88.8629 32.8275 87.9989C32.8275 87.1424 32.9915 86.3864 33.3195 85.7309C33.6555 85.0746 34.1275 84.5624 34.7355 84.1949C35.3515 83.8266 36.0755 83.6429 36.9075 83.6429C37.8515 83.6429 38.6395 83.8709 39.2715 84.3269C39.9035 84.7746 40.3075 85.4024 40.4835 86.2109H39.3195C39.2075 85.7069 38.9435 85.3064 38.5275 85.0109C38.1115 84.7146 37.5715 84.5669 36.9075 84.5669C36.2915 84.5669 35.7515 84.7064 35.2875 84.9869C34.8315 85.2584 34.4795 85.6506 34.2315 86.1629C33.9835 86.6744 33.8595 87.2864 33.8595 87.9989C33.8595 88.7106 33.9835 89.3264 34.2315 89.8469C34.4795 90.3584 34.8235 90.7506 35.2635 91.0229C35.7115 91.2944 36.2235 91.4309 36.7995 91.4309C37.6955 91.4309 38.3715 91.1669 38.8275 90.6389C39.2835 90.1109 39.5435 89.3946 39.6075 88.4909H37.1835V87.6989H40.6395V92.1869H39.7155L39.6315 90.8069C39.4315 91.1346 39.1995 91.4144 38.9355 91.6469C38.6795 91.8704 38.3755 92.0429 38.0235 92.1629C37.6715 92.2746 37.2515 92.3309 36.7635 92.3309ZM44.8373 92.3309C44.2772 92.3309 43.7772 92.1989 43.3373 91.9349C42.8972 91.6709 42.5532 91.3026 42.3053 90.8309C42.0572 90.3509 41.9333 89.7944 41.9333 89.1629C41.9333 88.5224 42.0533 87.9666 42.2933 87.4949C42.5412 87.0224 42.8852 86.6549 43.3253 86.3909C43.7732 86.1269 44.2853 85.9949 44.8613 85.9949C45.4532 85.9949 45.9572 86.1269 46.3733 86.3909C46.7892 86.6549 47.1053 87.0029 47.3213 87.4349C47.5452 87.8586 47.6573 88.3266 47.6573 88.8389C47.6573 88.9184 47.6573 89.0024 47.6573 89.0909C47.6573 89.1786 47.6532 89.2784 47.6453 89.3909H42.6893V88.6109H46.6613C46.6373 88.0589 46.4532 87.6269 46.1093 87.3149C45.7733 87.0029 45.3492 86.8469 44.8373 86.8469C44.5013 86.8469 44.1852 86.9264 43.8893 87.0869C43.5932 87.2384 43.3572 87.4664 43.1813 87.7709C43.0052 88.0664 42.9173 88.4384 42.9173 88.8869V89.2229C42.9173 89.7186 43.0052 90.1349 43.1813 90.4709C43.3652 90.8069 43.6013 91.0589 43.8893 91.2269C44.1852 91.3949 44.5013 91.4789 44.8373 91.4789C45.2612 91.4789 45.6092 91.3866 45.8813 91.2029C46.1612 91.0109 46.3652 90.7506 46.4933 90.4229H47.4893C47.3852 90.7904 47.2133 91.1189 46.9733 91.4069C46.7333 91.6866 46.4333 91.9109 46.0733 92.0789C45.7212 92.2469 45.3092 92.3309 44.8373 92.3309ZM49.0055 92.1869V86.1389H49.9175L49.9655 87.1949C50.1575 86.8184 50.4296 86.5266 50.7815 86.3189C51.1415 86.1029 51.5495 85.9949 52.0055 85.9949C52.4775 85.9949 52.8855 86.0909 53.2295 86.2829C53.5736 86.4666 53.8415 86.7509 54.0335 87.1349C54.2255 87.5106 54.3215 87.9906 54.3215 88.5749V92.1869H53.3135V88.6829C53.3135 88.0746 53.1776 87.6186 52.9055 87.3149C52.6415 87.0104 52.2656 86.8589 51.7775 86.8589C51.4415 86.8589 51.1415 86.9429 50.8775 87.1109C50.6135 87.2706 50.4015 87.5069 50.2415 87.8189C50.0895 88.1226 50.0135 88.5029 50.0135 88.9589V92.1869H49.0055ZM58.2722 92.1869C57.9122 92.1869 57.6002 92.1306 57.3362 92.0189C57.0722 91.9064 56.8682 91.7189 56.7242 91.4549C56.5882 91.1826 56.5202 90.8189 56.5202 90.3629V86.9909H55.4642V86.1389H56.5202L56.6522 84.6749H57.5282V86.1389H59.2802V86.9909H57.5282V90.3629C57.5282 90.7386 57.6041 90.9944 57.7562 91.1309C57.9082 91.2584 58.1762 91.3229 58.5602 91.3229H59.2082V92.1869H58.2722ZM60.5954 92.1869V83.5469H61.6034V92.1869H60.5954ZM65.9192 92.3309C65.3593 92.3309 64.8593 92.1989 64.4192 91.9349C63.9793 91.6709 63.6353 91.3026 63.3872 90.8309C63.1393 90.3509 63.0152 89.7944 63.0152 89.1629C63.0152 88.5224 63.1352 87.9666 63.3752 87.4949C63.6233 87.0224 63.9673 86.6549 64.4072 86.3909C64.8553 86.1269 65.3672 85.9949 65.9432 85.9949C66.5353 85.9949 67.0393 86.1269 67.4552 86.3909C67.8713 86.6549 68.1872 87.0029 68.4032 87.4349C68.6273 87.8586 68.7392 88.3266 68.7392 88.8389C68.7392 88.9184 68.7392 89.0024 68.7392 89.0909C68.7392 89.1786 68.7353 89.2784 68.7272 89.3909H63.7712V88.6109H67.7432C67.7192 88.0589 67.5353 87.6269 67.1912 87.3149C66.8552 87.0029 66.4313 86.8469 65.9192 86.8469C65.5832 86.8469 65.2673 86.9264 64.9712 87.0869C64.6753 87.2384 64.4393 87.4664 64.2632 87.7709C64.0873 88.0664 63.9992 88.4384 63.9992 88.8869V89.2229C63.9992 89.7186 64.0873 90.1349 64.2632 90.4709C64.4473 90.8069 64.6832 91.0589 64.9712 91.2269C65.2673 91.3949 65.5832 91.4789 65.9192 91.4789C66.3433 91.4789 66.6913 91.3866 66.9632 91.2029C67.2433 91.0109 67.4473 90.7506 67.5752 90.4229H68.5712C68.4673 90.7904 68.2952 91.1189 68.0552 91.4069C67.8152 91.6866 67.5152 91.9109 67.1552 92.0789C66.8033 92.2469 66.3913 92.3309 65.9192 92.3309Z" fill="white"/>
<g filter="url(#filter2_d_2_1046)">
<path d="M279.751 77.187H243.751C236.296 77.187 230.251 83.2312 230.251 90.687C230.251 98.1429 236.296 104.187 243.751 104.187H279.751C287.207 104.187 293.251 98.1429 293.251 90.687C293.251 83.2312 287.207 77.187 279.751 77.187Z" fill="#1D1D1D"/>
</g>
<path d="M244.651 94.4369V86.0369H249.763V86.8649H245.659V89.8169H249.151V90.6329H245.659V94.4369H244.651ZM253.456 94.5809C252.895 94.5809 252.391 94.4526 251.944 94.1969C251.495 93.9329 251.143 93.5646 250.888 93.0929C250.631 92.6129 250.504 92.0564 250.504 91.4249C250.504 90.7769 250.631 90.2166 250.888 89.7449C251.152 89.2649 251.507 88.8966 251.956 88.6409C252.412 88.3769 252.919 88.2449 253.48 88.2449C254.056 88.2449 254.563 88.3769 255.004 88.6409C255.451 88.8966 255.803 89.2649 256.06 89.7449C256.324 90.2166 256.456 90.7724 256.456 91.4129C256.456 92.0526 256.324 92.6129 256.06 93.0929C255.796 93.5646 255.44 93.9329 254.992 94.1969C254.543 94.4526 254.032 94.5809 253.456 94.5809ZM253.468 93.7169C253.811 93.7169 254.131 93.6329 254.428 93.4649C254.723 93.2886 254.963 93.0284 255.148 92.6849C255.331 92.3406 255.424 91.9169 255.424 91.4129C255.424 90.9006 255.331 90.4769 255.148 90.1409C254.971 89.7966 254.735 89.5409 254.44 89.3729C254.152 89.1966 253.831 89.1089 253.48 89.1089C253.144 89.1089 252.823 89.1966 252.52 89.3729C252.223 89.5409 251.983 89.7966 251.8 90.1409C251.623 90.4769 251.536 90.9006 251.536 91.4129C251.536 91.9169 251.623 92.3406 251.8 92.6849C251.983 93.0284 252.22 93.2886 252.508 93.4649C252.803 93.6329 253.123 93.7169 253.468 93.7169ZM257.869 94.4369V88.3889H258.781L258.853 89.5409C258.988 89.2686 259.161 89.0369 259.369 88.8449C259.585 88.6529 259.84 88.5044 260.137 88.4009C260.44 88.2966 260.785 88.2449 261.169 88.2449V89.3009H260.797C260.541 89.3009 260.296 89.3369 260.065 89.4089C259.833 89.4726 259.624 89.5806 259.441 89.7329C259.264 89.8844 259.125 90.0929 259.021 90.3569C258.925 90.6126 258.877 90.9329 258.877 91.3169V94.4369H257.869ZM262.31 94.4369V88.3889H263.222L263.282 89.2529C263.474 88.9409 263.73 88.6964 264.05 88.5209C264.378 88.3364 264.734 88.2449 265.118 88.2449C265.43 88.2449 265.71 88.2884 265.958 88.3769C266.214 88.4564 266.438 88.5846 266.63 88.7609C266.83 88.9289 266.987 89.1449 267.098 89.4089C267.306 89.0406 267.594 88.7564 267.962 88.5569C268.33 88.3484 268.718 88.2449 269.126 88.2449C269.598 88.2449 270.006 88.3409 270.35 88.5329C270.694 88.7166 270.962 89.0009 271.154 89.3849C271.346 89.7606 271.442 90.2406 271.442 90.8249V94.4369H270.446V90.9329C270.446 90.3246 270.322 89.8686 270.074 89.5649C269.826 89.2604 269.474 89.1089 269.018 89.1089C268.706 89.1089 268.427 89.1929 268.178 89.3609C267.93 89.5206 267.734 89.7569 267.59 90.0689C267.446 90.3809 267.374 90.7649 267.374 91.2209V94.4369H266.366V90.9329C266.366 90.3246 266.242 89.8686 265.994 89.5649C265.746 89.2604 265.398 89.1089 264.95 89.1089C264.646 89.1089 264.37 89.1929 264.122 89.3609C263.874 89.5206 263.678 89.7569 263.534 90.0689C263.39 90.3809 263.318 90.7649 263.318 91.2209V94.4369H262.31ZM274.966 94.5809C274.477 94.5809 274.07 94.4969 273.742 94.3289C273.414 94.1526 273.169 93.9246 273.01 93.6449C272.85 93.3569 272.77 93.0449 272.77 92.7089C272.77 92.3009 272.874 91.9566 273.082 91.6769C273.298 91.3889 273.598 91.1729 273.982 91.0289C274.374 90.8766 274.834 90.8009 275.362 90.8009H276.958C276.958 90.4244 276.898 90.1124 276.778 89.8649C276.666 89.6084 276.498 89.4164 276.274 89.2889C276.058 89.1606 275.785 89.0969 275.458 89.0969C275.074 89.0969 274.741 89.1929 274.462 89.3849C274.182 89.5769 274.009 89.8604 273.946 90.2369H272.914C272.962 89.8049 273.106 89.4449 273.346 89.1569C273.594 88.8606 273.906 88.6364 274.282 88.4849C274.658 88.3244 275.05 88.2449 275.458 88.2449C276.018 88.2449 276.481 88.3484 276.85 88.5569C277.225 88.7564 277.506 89.0406 277.69 89.4089C277.873 89.7689 277.966 90.1964 277.966 90.6929V94.4369H277.066L277.006 93.3689C276.925 93.5369 276.822 93.6966 276.694 93.8489C276.574 93.9929 276.43 94.1204 276.262 94.2329C276.102 94.3364 275.914 94.4204 275.698 94.4849C275.482 94.5486 275.238 94.5809 274.966 94.5809ZM275.122 93.7289C275.402 93.7289 275.653 93.6726 275.878 93.5609C276.109 93.4409 276.306 93.2804 276.466 93.0809C276.625 92.8724 276.746 92.6444 276.826 92.3969C276.914 92.1486 276.958 91.8884 276.958 91.6169V91.5809H275.446C275.053 91.5809 274.738 91.6289 274.498 91.7249C274.258 91.8126 274.086 91.9409 273.982 92.1089C273.877 92.2686 273.826 92.4524 273.826 92.6609C273.826 92.8769 273.874 93.0644 273.97 93.2249C274.074 93.3846 274.222 93.5084 274.414 93.5969C274.614 93.6846 274.85 93.7289 275.122 93.7289ZM279.525 94.4369V85.7969H280.533V94.4369H279.525Z" fill="white"/>
<g filter="url(#filter3_d_2_1046)">
<path d="M206.251 134.937H162.001C154.546 134.937 148.501 140.981 148.501 148.437C148.501 155.893 154.546 161.937 162.001 161.937H206.251C213.707 161.937 219.751 155.893 219.751 148.437C219.751 140.981 213.707 134.937 206.251 134.937Z" fill="#1D1D1D"/>
</g>
<path d="M162.901 152.187V143.787H168.013V144.615H163.909V147.567H167.401V148.383H163.909V152.187H162.901ZM169.263 152.187V146.139H170.175L170.247 147.291C170.383 147.019 170.555 146.787 170.763 146.595C170.979 146.403 171.235 146.254 171.531 146.151C171.835 146.047 172.179 145.995 172.563 145.995V147.051H172.191C171.935 147.051 171.691 147.087 171.459 147.159C171.227 147.223 171.019 147.331 170.835 147.483C170.659 147.634 170.519 147.843 170.415 148.107C170.319 148.363 170.271 148.683 170.271 149.067V152.187H169.263ZM173.8 152.187V146.139H174.808V152.187H173.8ZM174.304 144.855C174.105 144.855 173.937 144.79 173.8 144.663C173.673 144.526 173.608 144.358 173.608 144.159C173.608 143.959 173.673 143.799 173.8 143.679C173.937 143.551 174.105 143.487 174.304 143.487C174.496 143.487 174.661 143.551 174.796 143.679C174.933 143.799 175 143.959 175 144.159C175 144.358 174.933 144.526 174.796 144.663C174.661 144.79 174.496 144.855 174.304 144.855ZM179.239 152.331C178.679 152.331 178.18 152.199 177.739 151.935C177.299 151.671 176.956 151.303 176.707 150.831C176.459 150.351 176.335 149.794 176.335 149.163C176.335 148.522 176.455 147.967 176.695 147.495C176.944 147.022 177.287 146.655 177.727 146.391C178.175 146.127 178.687 145.995 179.263 145.995C179.855 145.995 180.359 146.127 180.775 146.391C181.192 146.655 181.507 147.003 181.723 147.435C181.948 147.859 182.059 148.327 182.059 148.839C182.059 148.918 182.059 149.002 182.059 149.091C182.059 149.179 182.056 149.278 182.047 149.391H177.091V148.611H181.063C181.039 148.059 180.856 147.627 180.511 147.315C180.175 147.003 179.752 146.847 179.239 146.847C178.903 146.847 178.588 146.926 178.291 147.087C177.995 147.238 177.76 147.466 177.583 147.771C177.407 148.066 177.319 148.438 177.319 148.887V149.223C177.319 149.719 177.407 150.135 177.583 150.471C177.767 150.807 178.003 151.059 178.291 151.227C178.588 151.395 178.903 151.479 179.239 151.479C179.663 151.479 180.011 151.387 180.283 151.203C180.563 151.011 180.767 150.751 180.895 150.423H181.891C181.787 150.79 181.615 151.119 181.375 151.407C181.135 151.687 180.835 151.911 180.475 152.079C180.124 152.247 179.711 152.331 179.239 152.331ZM183.408 152.187V146.139H184.32L184.368 147.195C184.56 146.818 184.831 146.527 185.184 146.319C185.544 146.103 185.952 145.995 186.408 145.995C186.88 145.995 187.288 146.091 187.632 146.283C187.975 146.467 188.244 146.751 188.436 147.135C188.628 147.511 188.724 147.991 188.724 148.575V152.187H187.716V148.683C187.716 148.075 187.579 147.619 187.308 147.315C187.044 147.01 186.667 146.859 186.18 146.859C185.844 146.859 185.544 146.943 185.28 147.111C185.016 147.271 184.804 147.507 184.644 147.819C184.492 148.123 184.416 148.503 184.416 148.959V152.187H183.408ZM192.974 152.331C192.391 152.331 191.875 152.194 191.426 151.923C190.987 151.642 190.646 151.263 190.406 150.783C190.166 150.303 190.046 149.758 190.046 149.151C190.046 148.543 190.166 148.003 190.406 147.531C190.646 147.051 190.987 146.674 191.426 146.403C191.875 146.131 192.394 145.995 192.986 145.995C193.474 145.995 193.903 146.095 194.27 146.295C194.647 146.494 194.938 146.775 195.146 147.135V143.547H196.154V152.187H195.242L195.146 151.191C195.019 151.39 194.854 151.579 194.654 151.755C194.455 151.923 194.215 152.062 193.934 152.175C193.663 152.278 193.343 152.331 192.974 152.331ZM193.082 151.455C193.483 151.455 193.835 151.359 194.138 151.167C194.443 150.975 194.678 150.711 194.846 150.375C195.023 150.031 195.11 149.626 195.11 149.163C195.11 148.707 195.023 148.306 194.846 147.963C194.678 147.619 194.443 147.351 194.138 147.159C193.835 146.967 193.483 146.871 193.082 146.871C192.698 146.871 192.35 146.967 192.038 147.159C191.734 147.351 191.498 147.619 191.33 147.963C191.162 148.306 191.078 148.707 191.078 149.163C191.078 149.626 191.162 150.031 191.33 150.375C191.498 150.711 191.734 150.975 192.038 151.167C192.35 151.359 192.698 151.455 193.082 151.455ZM197.822 152.187V143.547H198.83V152.187H197.822ZM201.154 154.827L202.63 151.515H202.282L199.906 146.139H200.998L202.966 150.759L205.042 146.139H206.086L202.21 154.827H201.154Z" fill="white"/>
<g filter="url(#filter4_d_2_1046)">
<path d="M172.501 87.687H139.501C132.046 87.687 126.001 93.7312 126.001 101.187C126.001 108.643 132.046 114.687 139.501 114.687H172.501C179.957 114.687 186.001 108.643 186.001 101.187C186.001 93.7312 179.957 87.687 172.501 87.687Z" fill="white"/>
</g>
<path d="M145.063 100.815V101.595H141.15V100.815H145.063ZM141.299 97.7068V104.937H140.341V97.7068H141.299ZM145.898 97.7068V104.937H144.944V97.7068H145.898ZM149.691 105.036C149.317 105.036 148.978 104.973 148.673 104.847C148.372 104.718 148.112 104.538 147.893 104.306C147.678 104.074 147.513 103.799 147.397 103.482C147.281 103.164 147.223 102.816 147.223 102.439V102.23C147.223 101.794 147.287 101.404 147.417 101.063C147.546 100.719 147.722 100.428 147.943 100.189C148.165 99.9508 148.417 99.7708 148.698 99.6478C148.979 99.5256 149.27 99.4641 149.572 99.4641C149.956 99.4641 150.287 99.5308 150.565 99.6628C150.846 99.7956 151.076 99.9808 151.255 100.219C151.434 100.454 151.566 100.732 151.652 101.053C151.739 101.371 151.781 101.719 151.781 102.096V102.508H147.77V101.758H150.863V101.689C150.85 101.451 150.8 101.219 150.714 100.994C150.631 100.768 150.499 100.583 150.317 100.438C150.134 100.292 149.886 100.219 149.572 100.219C149.363 100.219 149.171 100.264 148.996 100.354C148.82 100.439 148.67 100.568 148.544 100.741C148.418 100.912 148.321 101.123 148.251 101.371C148.181 101.62 148.147 101.906 148.147 102.23V102.439C148.147 102.694 148.181 102.934 148.251 103.159C148.324 103.381 148.428 103.576 148.564 103.745C148.703 103.914 148.87 104.046 149.066 104.142C149.264 104.238 149.489 104.286 149.741 104.286C150.065 104.286 150.34 104.22 150.565 104.087C150.79 103.955 150.987 103.778 151.156 103.556L151.712 103.998C151.596 104.173 151.449 104.341 151.27 104.5C151.091 104.659 150.871 104.788 150.61 104.887C150.351 104.986 150.045 105.036 149.691 105.036ZM153.852 97.3093V104.937H152.929V97.3093H153.852ZM156.245 100.597V107.002H155.322V99.5638H156.166L156.245 100.597ZM159.866 102.205V102.31C159.866 102.7 159.819 103.063 159.727 103.397C159.634 103.728 159.498 104.016 159.32 104.261C159.144 104.506 158.927 104.697 158.669 104.832C158.411 104.968 158.114 105.036 157.78 105.036C157.439 105.036 157.138 104.98 156.876 104.867C156.615 104.755 156.393 104.59 156.211 104.375C156.029 104.16 155.883 103.902 155.774 103.601C155.668 103.3 155.595 102.96 155.555 102.583V102.027C155.595 101.629 155.669 101.274 155.779 100.959C155.888 100.645 156.032 100.376 156.211 100.155C156.393 99.9298 156.613 99.7588 156.872 99.6433C157.13 99.5241 157.427 99.4641 157.765 99.4641C158.103 99.4641 158.402 99.5308 158.664 99.6628C158.925 99.7918 159.146 99.9778 159.324 100.219C159.503 100.461 159.637 100.75 159.727 101.088C159.819 101.422 159.866 101.795 159.866 102.205ZM158.942 102.31V102.205C158.942 101.938 158.914 101.686 158.858 101.451C158.801 101.212 158.714 101.004 158.594 100.825C158.479 100.643 158.33 100.501 158.147 100.398C157.965 100.292 157.748 100.239 157.497 100.239C157.265 100.239 157.064 100.279 156.891 100.358C156.722 100.438 156.578 100.546 156.459 100.681C156.34 100.813 156.242 100.966 156.166 101.138C156.093 101.307 156.039 101.482 156.002 101.664V102.95C156.068 103.182 156.161 103.4 156.281 103.606C156.4 103.807 156.558 103.972 156.757 104.098C156.956 104.22 157.205 104.281 157.507 104.281C157.755 104.281 157.969 104.23 158.147 104.127C158.33 104.021 158.479 103.877 158.594 103.695C158.714 103.513 158.801 103.304 158.858 103.069C158.914 102.831 158.942 102.578 158.942 102.31ZM162.408 104.937H161.489V98.9976C161.489 98.6106 161.559 98.2843 161.698 98.0196C161.84 97.7511 162.044 97.5493 162.308 97.4136C162.574 97.2748 162.888 97.2051 163.252 97.2051C163.358 97.2051 163.464 97.2118 163.57 97.2246C163.679 97.2381 163.785 97.2583 163.888 97.2846L163.838 98.0346C163.769 98.0181 163.689 98.0061 163.6 97.9993C163.514 97.9926 163.427 97.9896 163.342 97.9896C163.146 97.9896 162.977 98.0293 162.835 98.1088C162.696 98.1846 162.59 98.2971 162.517 98.4463C162.444 98.5956 162.408 98.7793 162.408 98.9976V104.937ZM163.55 99.5638V100.269H160.64V99.5638H163.55ZM167.86 103.695V99.5638H168.784V104.937H167.905L167.86 103.695ZM168.034 102.563L168.416 102.553C168.416 102.91 168.378 103.242 168.302 103.546C168.23 103.847 168.11 104.109 167.945 104.331C167.779 104.553 167.562 104.726 167.294 104.852C167.026 104.974 166.7 105.036 166.316 105.036C166.055 105.036 165.815 104.998 165.596 104.922C165.38 104.845 165.195 104.728 165.04 104.569C164.884 104.41 164.763 104.203 164.678 103.948C164.594 103.693 164.553 103.387 164.553 103.03V99.5638H165.472V103.039C165.472 103.282 165.498 103.482 165.551 103.64C165.608 103.796 165.682 103.92 165.775 104.013C165.871 104.102 165.977 104.165 166.092 104.202C166.211 104.238 166.334 104.256 166.46 104.256C166.85 104.256 167.16 104.182 167.389 104.033C167.617 103.88 167.781 103.677 167.88 103.422C167.983 103.164 168.034 102.877 168.034 102.563ZM171.182 97.3093V104.937H170.258V97.3093H171.182Z" fill="#5E5E5E"/>
<g filter="url(#filter5_d_2_1046)">
<path d="M93.0015 128.187H51.7515C44.2956 128.187 38.2515 134.231 38.2515 141.687C38.2515 149.143 44.2956 155.187 51.7515 155.187H93.0015C100.457 155.187 106.501 149.143 106.501 141.687C106.501 134.231 100.457 128.187 93.0015 128.187Z" fill="#8082EF"/>
</g>
<path d="M58.3092 146.331C57.4932 146.331 56.7852 146.151 56.1852 145.791C55.5932 145.423 55.1372 144.915 54.8172 144.267C54.4972 143.611 54.3372 142.851 54.3372 141.987C54.3372 141.123 54.4972 140.367 54.8172 139.719C55.1372 139.063 55.5932 138.555 56.1852 138.195C56.7852 137.827 57.4932 137.643 58.3092 137.643C59.2692 137.643 60.0492 137.871 60.6492 138.327C61.2492 138.783 61.6332 139.426 61.8012 140.259H60.6852C60.5572 139.738 60.2972 139.323 59.9052 139.011C59.5132 138.691 58.9812 138.531 58.3092 138.531C57.7172 138.531 57.1972 138.67 56.7492 138.951C56.3092 139.222 55.9692 139.618 55.7292 140.139C55.4892 140.65 55.3692 141.267 55.3692 141.987C55.3692 142.707 55.4892 143.326 55.7292 143.847C55.9692 144.358 56.3092 144.754 56.7492 145.035C57.1972 145.306 57.7172 145.443 58.3092 145.443C58.9812 145.443 59.5132 145.291 59.9052 144.987C60.2972 144.675 60.5572 144.262 60.6852 143.751H61.8012C61.6332 144.559 61.2492 145.191 60.6492 145.647C60.0492 146.103 59.2692 146.331 58.3092 146.331ZM65.1708 146.331C64.6827 146.331 64.2747 146.247 63.9468 146.079C63.6188 145.903 63.3747 145.675 63.2148 145.395C63.0548 145.107 62.9748 144.795 62.9748 144.459C62.9748 144.051 63.0788 143.707 63.2868 143.427C63.5028 143.139 63.8028 142.923 64.1868 142.779C64.5788 142.627 65.0388 142.551 65.5668 142.551H67.1628C67.1628 142.174 67.1028 141.862 66.9828 141.615C66.8708 141.358 66.7028 141.166 66.4788 141.039C66.2628 140.911 65.9907 140.847 65.6628 140.847C65.2788 140.847 64.9467 140.943 64.6668 141.135C64.3868 141.327 64.2147 141.61 64.1508 141.987H63.1188C63.1668 141.555 63.3108 141.195 63.5508 140.907C63.7988 140.611 64.1108 140.386 64.4868 140.235C64.8627 140.074 65.2548 139.995 65.6628 139.995C66.2228 139.995 66.6867 140.098 67.0548 140.307C67.4307 140.506 67.7108 140.791 67.8948 141.159C68.0787 141.519 68.1708 141.946 68.1708 142.443V146.187H67.2708L67.2108 145.119C67.1307 145.287 67.0268 145.447 66.8988 145.599C66.7788 145.743 66.6348 145.87 66.4668 145.983C66.3068 146.086 66.1188 146.17 65.9028 146.235C65.6868 146.299 65.4428 146.331 65.1708 146.331ZM65.3268 145.479C65.6067 145.479 65.8587 145.423 66.0828 145.311C66.3147 145.191 66.5108 145.03 66.6708 144.831C66.8307 144.622 66.9507 144.394 67.0308 144.147C67.1187 143.899 67.1628 143.638 67.1628 143.367V143.331H65.6508C65.2587 143.331 64.9428 143.379 64.7028 143.475C64.4628 143.563 64.2908 143.691 64.1868 143.859C64.0827 144.019 64.0308 144.202 64.0308 144.411C64.0308 144.627 64.0788 144.814 64.1748 144.975C64.2788 145.135 64.4268 145.258 64.6188 145.347C64.8188 145.435 65.0547 145.479 65.3268 145.479ZM72.0101 146.331C71.5141 146.331 71.0781 146.247 70.7021 146.079C70.3261 145.911 70.0261 145.678 69.8021 145.383C69.5861 145.078 69.4541 144.723 69.4061 144.315H70.4381C70.4781 144.523 70.5621 144.715 70.6901 144.891C70.8181 145.066 70.9901 145.21 71.2061 145.323C71.4301 145.426 71.7021 145.479 72.0221 145.479C72.3021 145.479 72.5341 145.438 72.7181 145.359C72.9021 145.27 73.0381 145.155 73.1261 145.011C73.2221 144.867 73.2701 144.711 73.2701 144.543C73.2701 144.295 73.2101 144.106 73.0901 143.979C72.9781 143.851 72.8101 143.751 72.5861 143.679C72.3621 143.599 72.0901 143.53 71.7701 143.475C71.5061 143.427 71.2461 143.362 70.9901 143.283C70.7341 143.203 70.5061 143.098 70.3061 142.971C70.1061 142.834 69.9461 142.671 69.8261 142.479C69.7141 142.287 69.6581 142.051 69.6581 141.771C69.6581 141.427 69.7461 141.123 69.9221 140.859C70.1061 140.587 70.3621 140.374 70.6901 140.223C71.0181 140.071 71.4021 139.995 71.8421 139.995C72.4901 139.995 73.0141 140.151 73.4141 140.463C73.8141 140.775 74.0501 141.226 74.1221 141.819H73.1261C73.0861 141.514 72.9541 141.279 72.7301 141.111C72.5141 140.935 72.2141 140.847 71.8301 140.847C71.4541 140.847 71.1661 140.923 70.9661 141.075C70.7741 141.226 70.6781 141.427 70.6781 141.675C70.6781 141.835 70.7301 141.979 70.8341 142.107C70.9461 142.227 71.1101 142.33 71.3261 142.419C71.5421 142.507 71.8021 142.579 72.1061 142.635C72.5061 142.707 72.8701 142.803 73.1981 142.923C73.5261 143.043 73.7901 143.223 73.9901 143.463C74.1981 143.695 74.3021 144.027 74.3021 144.459C74.3021 144.835 74.2061 145.162 74.0141 145.443C73.8301 145.723 73.5661 145.942 73.2221 146.103C72.8781 146.254 72.4741 146.331 72.0101 146.331ZM77.9497 146.331C77.4855 146.331 77.0775 146.239 76.7257 146.055C76.3815 145.87 76.1137 145.587 75.9217 145.203C75.7372 144.819 75.6457 144.339 75.6457 143.763V140.139H76.6537V143.655C76.6537 144.255 76.7857 144.706 77.0497 145.011C77.3137 145.315 77.6857 145.467 78.1657 145.467C78.5017 145.467 78.8055 145.387 79.0777 145.227C79.3492 145.059 79.5615 144.823 79.7137 144.519C79.8735 144.207 79.9537 143.823 79.9537 143.367V140.139H80.9617V146.187H80.0497L79.9897 145.131C79.8052 145.507 79.5337 145.803 79.1737 146.019C78.8137 146.227 78.4057 146.331 77.9497 146.331ZM84.6007 146.331C84.1125 146.331 83.7045 146.247 83.3767 146.079C83.0482 145.903 82.8045 145.675 82.6447 145.395C82.4842 145.107 82.4047 144.795 82.4047 144.459C82.4047 144.051 82.5082 143.707 82.7167 143.427C82.9327 143.139 83.2327 142.923 83.6167 142.779C84.0082 142.627 84.4687 142.551 84.9967 142.551H86.5927C86.5927 142.174 86.5327 141.862 86.4127 141.615C86.3002 141.358 86.1322 141.166 85.9087 141.039C85.6927 140.911 85.4205 140.847 85.0927 140.847C84.7087 140.847 84.3765 140.943 84.0967 141.135C83.8162 141.327 83.6445 141.61 83.5807 141.987H82.5487C82.5967 141.555 82.7407 141.195 82.9807 140.907C83.2282 140.611 83.5402 140.386 83.9167 140.235C84.2925 140.074 84.6847 139.995 85.0927 139.995C85.6522 139.995 86.1165 140.098 86.4847 140.307C86.8605 140.506 87.1402 140.791 87.3247 141.159C87.5085 141.519 87.6007 141.946 87.6007 142.443V146.187H86.7007L86.6407 145.119C86.5605 145.287 86.4562 145.447 86.3287 145.599C86.2087 145.743 86.0647 145.87 85.8967 145.983C85.7362 146.086 85.5487 146.17 85.3327 146.235C85.1167 146.299 84.8722 146.331 84.6007 146.331ZM84.7567 145.479C85.0365 145.479 85.2885 145.423 85.5127 145.311C85.7445 145.191 85.9402 145.03 86.1007 144.831C86.2605 144.622 86.3805 144.394 86.4607 144.147C86.5485 143.899 86.5927 143.638 86.5927 143.367V143.331H85.0807C84.6885 143.331 84.3727 143.379 84.1327 143.475C83.8927 143.563 83.7202 143.691 83.6167 143.859C83.5125 144.019 83.4607 144.202 83.4607 144.411C83.4607 144.627 83.5087 144.814 83.6047 144.975C83.7082 145.135 83.8567 145.258 84.0487 145.347C84.2482 145.435 84.4845 145.479 84.7567 145.479ZM89.16 146.187V137.547H90.168V146.187H89.16Z" fill="white"/>
<g filter="url(#filter6_d_2_1046)">
<path d="M174.001 38.9365C174.001 31.4807 180.046 25.4365 187.501 25.4365H255.751C263.207 25.4365 269.251 31.4807 269.251 38.9365C269.251 46.3924 263.207 52.4365 255.751 52.4365H187.501C180.046 52.4365 174.001 46.3924 174.001 38.9365Z" fill="#8082EF"/>
</g>
<path d="M189.151 43.4363V35.0363H190.327L193.303 40.9043L196.267 35.0363H197.455V43.4363H196.447V36.8363L193.675 42.2603H192.92L190.159 36.8603V43.4363H189.151ZM201.893 43.5803C201.333 43.5803 200.829 43.4524 200.381 43.1963C199.933 42.9323 199.581 42.5644 199.325 42.0923C199.069 41.6123 198.941 41.0564 198.941 40.4243C198.941 39.7763 199.069 39.2164 199.325 38.7443C199.589 38.2643 199.945 37.8964 200.393 37.6403C200.849 37.3763 201.357 37.2443 201.917 37.2443C202.493 37.2443 203.001 37.3763 203.441 37.6403C203.889 37.8964 204.241 38.2643 204.497 38.7443C204.761 39.2164 204.893 39.7724 204.893 40.4123C204.893 41.0524 204.761 41.6123 204.497 42.0923C204.233 42.5644 203.877 42.9323 203.429 43.1963C202.981 43.4524 202.469 43.5803 201.893 43.5803ZM201.905 42.7163C202.249 42.7163 202.569 42.6323 202.865 42.4643C203.161 42.2884 203.401 42.0284 203.585 41.6843C203.769 41.3404 203.861 40.9163 203.861 40.4123C203.861 39.9004 203.769 39.4763 203.585 39.1403C203.409 38.7964 203.173 38.5403 202.877 38.3723C202.589 38.1964 202.269 38.1083 201.917 38.1083C201.581 38.1083 201.261 38.1964 200.957 38.3723C200.661 38.5403 200.421 38.7964 200.237 39.1403C200.061 39.4763 199.973 39.9004 199.973 40.4123C199.973 40.9163 200.061 41.3404 200.237 41.6843C200.421 42.0284 200.657 42.2884 200.945 42.4643C201.241 42.6323 201.561 42.7163 201.905 42.7163ZM208.448 43.4363C208.088 43.4363 207.776 43.3804 207.512 43.2683C207.248 43.1564 207.044 42.9683 206.9 42.7043C206.764 42.4324 206.696 42.0683 206.696 41.6123V38.2403H205.64V37.3883H206.696L206.828 35.9243H207.704V37.3883H209.456V38.2403H207.704V41.6123C207.704 41.9884 207.78 42.2444 207.932 42.3803C208.084 42.5084 208.352 42.5723 208.736 42.5723H209.384V43.4363H208.448ZM210.867 43.4363V37.3883H211.875V43.4363H210.867ZM211.371 36.1043C211.171 36.1043 211.003 36.0404 210.867 35.9123C210.739 35.7764 210.675 35.6084 210.675 35.4083C210.675 35.2084 210.739 35.0483 210.867 34.9283C211.003 34.8004 211.171 34.7363 211.371 34.7363C211.563 34.7363 211.727 34.8004 211.863 34.9283C211.999 35.0483 212.067 35.2084 212.067 35.4083C212.067 35.6084 211.999 35.7764 211.863 35.9123C211.727 36.0404 211.563 36.1043 211.371 36.1043ZM215.394 43.4363L213.102 37.3883H214.158L215.982 42.4643L217.818 37.3883H218.85L216.558 43.4363H215.394ZM221.645 43.5803C221.158 43.5803 220.75 43.4963 220.421 43.3283C220.093 43.1524 219.85 42.9244 219.689 42.6443C219.529 42.3563 219.449 42.0443 219.449 41.7083C219.449 41.3003 219.554 40.9564 219.761 40.6763C219.977 40.3883 220.277 40.1723 220.661 40.0283C221.053 39.8764 221.513 39.8003 222.041 39.8003H223.637C223.637 39.4244 223.577 39.1124 223.457 38.8643C223.345 38.6084 223.177 38.4164 222.953 38.2883C222.737 38.1604 222.466 38.0963 222.137 38.0963C221.753 38.0963 221.422 38.1923 221.141 38.3843C220.861 38.5763 220.69 38.8604 220.625 39.2363H219.593C219.641 38.8043 219.785 38.4443 220.025 38.1563C220.273 37.8604 220.585 37.6364 220.961 37.4843C221.338 37.3244 221.729 37.2443 222.137 37.2443C222.698 37.2443 223.162 37.3484 223.529 37.5563C223.906 37.7564 224.185 38.0404 224.369 38.4083C224.554 38.7683 224.645 39.1964 224.645 39.6923V43.4363H223.745L223.685 42.3683C223.606 42.5363 223.501 42.6964 223.373 42.8483C223.253 42.9923 223.109 43.1204 222.941 43.2323C222.781 43.3364 222.593 43.4204 222.377 43.4843C222.161 43.5484 221.917 43.5803 221.645 43.5803ZM221.801 42.7283C222.082 42.7283 222.334 42.6724 222.557 42.5603C222.79 42.4403 222.985 42.2804 223.145 42.0803C223.306 41.8724 223.426 41.6444 223.505 41.3963C223.594 41.1484 223.637 40.8884 223.637 40.6163V40.5803H222.125C221.734 40.5803 221.417 40.6283 221.177 40.7243C220.937 40.8124 220.765 40.9403 220.661 41.1083C220.558 41.2684 220.505 41.4524 220.505 41.6603C220.505 41.8763 220.553 42.0644 220.649 42.2243C220.753 42.3844 220.901 42.5084 221.093 42.5963C221.293 42.6844 221.53 42.7283 221.801 42.7283ZM228.417 43.4363C228.057 43.4363 227.745 43.3804 227.481 43.2683C227.217 43.1564 227.013 42.9683 226.869 42.7043C226.732 42.4324 226.665 42.0683 226.665 41.6123V38.2403H225.609V37.3883H226.665L226.797 35.9243H227.673V37.3883H229.425V38.2403H227.673V41.6123C227.673 41.9884 227.749 42.2444 227.901 42.3803C228.053 42.5084 228.321 42.5723 228.705 42.5723H229.353V43.4363H228.417ZM230.836 43.4363V37.3883H231.844V43.4363H230.836ZM231.34 36.1043C231.14 36.1043 230.972 36.0404 230.836 35.9123C230.708 35.7764 230.644 35.6084 230.644 35.4083C230.644 35.2084 230.708 35.0483 230.836 34.9283C230.972 34.8004 231.14 34.7363 231.34 34.7363C231.532 34.7363 231.696 34.8004 231.832 34.9283C231.968 35.0483 232.036 35.2084 232.036 35.4083C232.036 35.6084 231.968 35.7764 231.832 35.9123C231.696 36.0404 231.532 36.1043 231.34 36.1043ZM236.323 43.5803C235.762 43.5803 235.258 43.4524 234.811 43.1963C234.363 42.9323 234.01 42.5644 233.755 42.0923C233.499 41.6123 233.371 41.0564 233.371 40.4243C233.371 39.7763 233.499 39.2164 233.755 38.7443C234.019 38.2643 234.375 37.8964 234.823 37.6403C235.279 37.3763 235.786 37.2443 236.347 37.2443C236.923 37.2443 237.431 37.3763 237.871 37.6403C238.319 37.8964 238.671 38.2643 238.927 38.7443C239.191 39.2164 239.323 39.7724 239.323 40.4123C239.323 41.0524 239.191 41.6123 238.927 42.0923C238.663 42.5644 238.306 42.9323 237.859 43.1963C237.411 43.4524 236.899 43.5803 236.323 43.5803ZM236.335 42.7163C236.679 42.7163 236.998 42.6323 237.295 42.4643C237.591 42.2884 237.831 42.0284 238.015 41.6843C238.198 41.3404 238.291 40.9163 238.291 40.4123C238.291 39.9004 238.198 39.4763 238.015 39.1403C237.838 38.7964 237.603 38.5403 237.307 38.3723C237.019 38.1964 236.698 38.1083 236.347 38.1083C236.011 38.1083 235.69 38.1964 235.387 38.3723C235.09 38.5403 234.85 38.7964 234.667 39.1403C234.49 39.4763 234.403 39.9004 234.403 40.4123C234.403 40.9163 234.49 41.3404 234.667 41.6843C234.85 42.0284 235.087 42.2884 235.375 42.4643C235.671 42.6323 235.99 42.7163 236.335 42.7163ZM240.736 43.4363V37.3883H241.648L241.696 38.4443C241.888 38.0684 242.16 37.7764 242.512 37.5683C242.872 37.3523 243.28 37.2443 243.736 37.2443C244.208 37.2443 244.616 37.3403 244.96 37.5323C245.304 37.7164 245.572 38.0003 245.764 38.3843C245.956 38.7604 246.052 39.2404 246.052 39.8243V43.4363H245.044V39.9323C245.044 39.3244 244.908 38.8684 244.636 38.5643C244.372 38.2604 243.996 38.1083 243.508 38.1083C243.172 38.1083 242.872 38.1923 242.608 38.3603C242.344 38.5204 242.132 38.7563 241.972 39.0683C241.82 39.3724 241.744 39.7523 241.744 40.2083V43.4363H240.736ZM249.595 43.5803C249.106 43.5803 248.699 43.4963 248.371 43.3283C248.042 43.1524 247.798 42.9244 247.639 42.6443C247.478 42.3563 247.399 42.0443 247.399 41.7083C247.399 41.3003 247.502 40.9564 247.711 40.6763C247.927 40.3883 248.227 40.1723 248.611 40.0283C249.002 39.8764 249.463 39.8003 249.991 39.8003H251.587C251.587 39.4244 251.527 39.1124 251.407 38.8643C251.294 38.6084 251.126 38.4164 250.903 38.2883C250.687 38.1604 250.414 38.0963 250.087 38.0963C249.703 38.0963 249.37 38.1923 249.091 38.3843C248.81 38.5763 248.639 38.8604 248.575 39.2363H247.543C247.591 38.8043 247.735 38.4443 247.975 38.1563C248.222 37.8604 248.534 37.6364 248.911 37.4843C249.287 37.3244 249.679 37.2443 250.087 37.2443C250.646 37.2443 251.11 37.3484 251.479 37.5563C251.854 37.7564 252.134 38.0404 252.319 38.4083C252.502 38.7683 252.595 39.1964 252.595 39.6923V43.4363H251.695L251.635 42.3683C251.554 42.5363 251.45 42.6964 251.323 42.8483C251.203 42.9923 251.059 43.1204 250.891 43.2323C250.73 43.3364 250.543 43.4204 250.327 43.4843C250.111 43.5484 249.866 43.5803 249.595 43.5803ZM249.751 42.7283C250.03 42.7283 250.282 42.6724 250.507 42.5603C250.738 42.4403 250.934 42.2804 251.095 42.0803C251.254 41.8724 251.375 41.6444 251.455 41.3963C251.542 41.1484 251.587 40.8884 251.587 40.6163V40.5803H250.075C249.683 40.5803 249.367 40.6283 249.127 40.7243C248.887 40.8124 248.714 40.9403 248.611 41.1083C248.506 41.2684 248.455 41.4524 248.455 41.6603C248.455 41.8763 248.503 42.0644 248.599 42.2243C248.702 42.3844 248.851 42.5084 249.043 42.5963C249.242 42.6844 249.478 42.7283 249.751 42.7283ZM254.154 43.4363V34.7963H255.162V43.4363H254.154Z" fill="white"/>
</g>
</g>
</g>
<defs>
<filter id="filter0_d_2_1046" x="72.5015" y="30.1865" width="104" height="68" filterUnits="userSpaceOnUse" color-interpolation-filters="sRGB">
<feFlood flood-opacity="0" result="BackgroundImageFix"/>
<feColorMatrix in="SourceAlpha" type="matrix" values="0 0 0 0 0 0 0 0 0 0 0 0 0 0 0 0 0 0 127 0" result="hardAlpha"/>
<feOffset dy="5"/>
<feGaussianBlur stdDeviation="10.25"/>
<feComposite in2="hardAlpha" operator="out"/>
<feColorMatrix type="matrix" values="0 0 0 0 0.501961 0 0 0 0 0.509804 0 0 0 0 0.937255 0 0 0 0.1 0"/>
<feBlend mode="normal" in2="BackgroundImageFix" result="effect1_dropShadow_2_1046"/>
<feBlend mode="normal" in="SourceGraphic" in2="effect1_dropShadow_2_1046" result="shape"/>
</filter>
<filter id="filter1_d_2_1046" x="-1.74854" y="59.4365" width="104" height="68" filterUnits="userSpaceOnUse" color-interpolation-filters="sRGB">
<feFlood flood-opacity="0" result="BackgroundImageFix"/>
<feColorMatrix in="SourceAlpha" type="matrix" values="0 0 0 0 0 0 0 0 0 0 0 0 0 0 0 0 0 0 127 0" result="hardAlpha"/>
<feOffset dy="5"/>
<feGaussianBlur stdDeviation="10.25"/>
<feComposite in2="hardAlpha" operator="out"/>
<feColorMatrix type="matrix" values="0 0 0 0 0.501961 0 0 0 0 0.509804 0 0 0 0 0.937255 0 0 0 0.1 0"/>
<feBlend mode="normal" in2="BackgroundImageFix" result="effect1_dropShadow_2_1046"/>
<feBlend mode="normal" in="SourceGraphic" in2="effect1_dropShadow_2_1046" result="shape"/>
</filter>
<filter id="filter2_d_2_1046" x="209.751" y="61.687" width="104" height="68" filterUnits="userSpaceOnUse" color-interpolation-filters="sRGB">
<feFlood flood-opacity="0" result="BackgroundImageFix"/>
<feColorMatrix in="SourceAlpha" type="matrix" values="0 0 0 0 0 0 0 0 0 0 0 0 0 0 0 0 0 0 127 0" result="hardAlpha"/>
<feOffset dy="5"/>
<feGaussianBlur stdDeviation="10.25"/>
<feComposite in2="hardAlpha" operator="out"/>
<feColorMatrix type="matrix" values="0 0 0 0 0.501961 0 0 0 0 0.509804 0 0 0 0 0.937255 0 0 0 0.1 0"/>
<feBlend mode="normal" in2="BackgroundImageFix" result="effect1_dropShadow_2_1046"/>
<feBlend mode="normal" in="SourceGraphic" in2="effect1_dropShadow_2_1046" result="shape"/>
</filter>
<filter id="filter3_d_2_1046" x="128.001" y="119.437" width="112.25" height="68" filterUnits="userSpaceOnUse" color-interpolation-filters="sRGB">
<feFlood flood-opacity="0" result="BackgroundImageFix"/>
<feColorMatrix in="SourceAlpha" type="matrix" values="0 0 0 0 0 0 0 0 0 0 0 0 0 0 0 0 0 0 127 0" result="hardAlpha"/>
<feOffset dy="5"/>
<feGaussianBlur stdDeviation="10.25"/>
<feComposite in2="hardAlpha" operator="out"/>
<feColorMatrix type="matrix" values="0 0 0 0 0.501961 0 0 0 0 0.509804 0 0 0 0 0.937255 0 0 0 0.1 0"/>
<feBlend mode="normal" in2="BackgroundImageFix" result="effect1_dropShadow_2_1046"/>
<feBlend mode="normal" in="SourceGraphic" in2="effect1_dropShadow_2_1046" result="shape"/>
</filter>
<filter id="filter4_d_2_1046" x="105.501" y="72.187" width="101" height="68" filterUnits="userSpaceOnUse" color-interpolation-filters="sRGB">
<feFlood flood-opacity="0" result="BackgroundImageFix"/>
<feColorMatrix in="SourceAlpha" type="matrix" values="0 0 0 0 0 0 0 0 0 0 0 0 0 0 0 0 0 0 127 0" result="hardAlpha"/>
<feOffset dy="5"/>
<feGaussianBlur stdDeviation="10.25"/>
<feComposite in2="hardAlpha" operator="out"/>
<feColorMatrix type="matrix" values="0 0 0 0 0.501961 0 0 0 0 0.509804 0 0 0 0 0.937255 0 0 0 0.1 0"/>
<feBlend mode="normal" in2="BackgroundImageFix" result="effect1_dropShadow_2_1046"/>
<feBlend mode="normal" in="SourceGraphic" in2="effect1_dropShadow_2_1046" result="shape"/>
</filter>
<filter id="filter5_d_2_1046" x="17.7515" y="112.687" width="109.25" height="68" filterUnits="userSpaceOnUse" color-interpolation-filters="sRGB">
<feFlood flood-opacity="0" result="BackgroundImageFix"/>
<feColorMatrix in="SourceAlpha" type="matrix" values="0 0 0 0 0 0 0 0 0 0 0 0 0 0 0 0 0 0 127 0" result="hardAlpha"/>
<feOffset dy="5"/>
<feGaussianBlur stdDeviation="10.25"/>
<feComposite in2="hardAlpha" operator="out"/>
<feColorMatrix type="matrix" values="0 0 0 0 0.501961 0 0 0 0 0.509804 0 0 0 0 0.937255 0 0 0 0.1 0"/>
<feBlend mode="normal" in2="BackgroundImageFix" result="effect1_dropShadow_2_1046"/>
<feBlend mode="normal" in="SourceGraphic" in2="effect1_dropShadow_2_1046" result="shape"/>
</filter>
<filter id="filter6_d_2_1046" x="153.501" y="9.93652" width="136.25" height="68" filterUnits="userSpaceOnUse" color-interpolation-filters="sRGB">
<feFlood flood-opacity="0" result="BackgroundImageFix"/>
<feColorMatrix in="SourceAlpha" type="matrix" values="0 0 0 0 0 0 0 0 0 0 0 0 0 0 0 0 0 0 127 0" result="hardAlpha"/>
<feOffset dy="5"/>
<feGaussianBlur stdDeviation="10.25"/>
<feComposite in2="hardAlpha" operator="out"/>
<feColorMatrix type="matrix" values="0 0 0 0 0.501961 0 0 0 0 0.509804 0 0 0 0 0.937255 0 0 0 0.1 0"/>
<feBlend mode="normal" in2="BackgroundImageFix" result="effect1_dropShadow_2_1046"/>
<feBlend mode="normal" in="SourceGraphic" in2="effect1_dropShadow_2_1046" result="shape"/>
</filter>
<clipPath id="clip0_2_1046">
<rect width="310.5" height="180" fill="white"/>
</clipPath>
</defs>
</svg>
