<svg width="16" height="16" viewBox="0 0 16 16" fill="none" xmlns="http://www.w3.org/2000/svg">
<g clip-path="url(#clip0_2_145)">
<path fill-rule="evenodd" clip-rule="evenodd" d="M3.43889 0.554399L7.33917 0.551522C11.1963 0.548646 11.2424 0.551522 11.5416 0.609058C11.7086 0.643578 11.9734 0.715497 12.1318 0.770154C12.2901 0.824812 12.5175 0.922624 12.6354 0.985913C12.7535 1.0492 12.9406 1.16139 13.0528 1.23331C13.1622 1.30811 13.404 1.51523 13.5853 1.69934C13.7696 1.88057 13.9825 2.12797 14.0603 2.24592C14.1409 2.36387 14.2589 2.57099 14.328 2.7062C14.3942 2.84141 14.4892 3.06579 14.5352 3.20963C14.5813 3.35059 14.6475 3.60374 14.6791 3.77059C14.7368 4.06689 14.7368 4.13594 14.7281 7.99939C14.7194 11.9117 14.7194 11.9261 14.659 12.1851C14.6244 12.326 14.564 12.5332 14.5266 12.6453C14.4892 12.7547 14.4144 12.9358 14.3654 13.0481C14.3136 13.1573 14.1869 13.3789 14.0833 13.5371C13.9567 13.7327 13.7926 13.9254 13.5739 14.1413C13.3983 14.3167 13.1622 14.5181 13.0528 14.5929C12.9406 14.6648 12.7535 14.777 12.6354 14.8403C12.5175 14.9036 12.2901 15.0013 12.1318 15.056C11.9734 15.1107 11.7086 15.1826 11.5416 15.2172C11.2424 15.2747 11.1877 15.2775 3.49647 15.2775L3.16544 15.2085C2.9841 15.1682 2.74232 15.1049 2.63294 15.0676C2.52067 15.0301 2.33934 14.9553 2.22996 14.9064C2.1177 14.8547 1.89894 14.7281 1.74062 14.6245C1.55065 14.498 1.34628 14.3253 1.13615 14.1153C0.960575 13.9398 0.753324 13.6982 0.675606 13.5803C0.597889 13.4623 0.476994 13.2552 0.407912 13.12C0.341709 12.9848 0.24672 12.7575 0.200666 12.6165C0.15461 12.4727 0.0884066 12.2224 0.0567438 12.0556C-0.000824695 11.7593 -0.000824694 11.6902 0.0078106 7.82678C0.0135674 4.19635 0.0193243 3.88278 0.0653791 3.68429C0.0941631 3.56634 0.15461 3.35059 0.200666 3.20963C0.249598 3.06579 0.341709 2.84141 0.407912 2.7062C0.476994 2.57099 0.597889 2.36387 0.675606 2.24592C0.753324 2.12797 0.960575 1.88633 1.13615 1.71085C1.35204 1.49221 1.54489 1.32824 1.74062 1.20166C1.89894 1.0981 2.12634 0.96865 2.24435 0.913993C2.36237 0.859333 2.54946 0.787415 2.66173 0.750018C2.77111 0.712619 2.99274 0.652209 3.15105 0.617688L3.43889 0.554399ZM4.31106 3.29305C4.21032 3.33045 4.07215 3.38798 4.00019 3.42538C3.92823 3.46278 3.79294 3.54333 3.69795 3.60949C3.60296 3.67278 3.44753 3.80511 3.35254 3.90005C3.25468 3.99498 3.12227 4.15607 3.05031 4.25964C2.98123 4.3632 2.88049 4.53868 2.82867 4.64799C2.77686 4.76019 2.7049 4.95869 2.67035 5.09389L2.60415 5.33841V10.4877C2.7049 10.8675 2.77686 11.0689 2.82867 11.1781C2.88049 11.2904 2.98123 11.4629 3.05031 11.5666C3.12227 11.6701 3.26043 11.8341 3.3583 11.9348C3.45905 12.0325 3.63463 12.1765 3.74977 12.2512C3.86202 12.326 4.05488 12.4296 4.1729 12.4785C4.29091 12.5302 4.47801 12.5935 4.59026 12.6223C4.77737 12.6712 4.97598 12.6741 7.36795 12.6741H9.94417C10.3241 12.5734 10.5227 12.5015 10.635 12.4497C10.7444 12.398 10.9199 12.2973 11.0236 12.2282C11.1272 12.1591 11.2883 12.0239 11.3833 11.9261C11.4812 11.8312 11.6136 11.6701 11.6856 11.5666C11.7547 11.4629 11.8554 11.2904 11.9073 11.1781C11.959 11.0689 12.031 10.8675 12.0655 10.7323L12.1318 10.4877V5.33841C12.031 4.95869 11.959 4.76019 11.9073 4.64799C11.8554 4.53868 11.7547 4.3632 11.6856 4.25964C11.6136 4.15607 11.4812 3.99498 11.3833 3.90005C11.2883 3.80511 11.1272 3.6699 11.0236 3.59798C10.9199 3.52894 10.7444 3.42826 10.635 3.37648C10.5227 3.32469 10.3298 3.25277 10.2032 3.21826C9.97289 3.15209 9.97005 3.15209 7.4543 3.14634C5.37608 3.14346 4.89539 3.14922 4.71116 3.18373C4.59026 3.20675 4.40893 3.25565 4.30818 3.29305H4.31106ZM7.35644 4.00073C9.67645 4.00073 9.75125 4.00073 9.97583 4.05827C10.1025 4.09278 10.2838 4.15895 10.3788 4.21073C10.4795 4.26251 10.6436 4.39197 10.7674 4.51854C10.8941 4.64224 11.0236 4.80909 11.0754 4.9069C11.1272 5.00183 11.1933 5.18307 11.2279 5.30965C11.2855 5.53403 11.2855 5.6117 11.2855 7.91309C11.2855 10.2145 11.2855 10.2922 11.2279 10.5165C11.1933 10.6431 11.1272 10.8244 11.0754 10.9193C11.0236 11.0199 10.8941 11.1839 10.7674 11.3077C10.6436 11.4342 10.4795 11.5637 10.3788 11.6155C10.2838 11.6672 10.1025 11.7334 9.97583 11.7679C9.75125 11.8254 9.67361 11.8254 7.37083 11.8254C5.06809 11.8254 4.99037 11.8254 4.76585 11.7679C4.6392 11.7334 4.45786 11.6672 4.36287 11.6155C4.26212 11.5637 4.09805 11.4342 3.97428 11.3077C3.84763 11.1839 3.71811 11.0199 3.66629 10.9193C3.61448 10.8244 3.54827 10.6431 3.51374 10.5165C3.45617 10.2922 3.45617 10.2145 3.45617 7.91309C3.45617 5.6117 3.45617 5.53403 3.51374 5.30965C3.54827 5.18307 3.61448 5.00183 3.66629 4.9069C3.71811 4.80909 3.84763 4.64224 3.97428 4.51854C4.09805 4.39197 4.26501 4.26251 4.36287 4.21073C4.45786 4.15895 4.63344 4.09278 4.75146 4.06114C4.9587 4.00648 5.06809 4.0036 7.35644 4.00073ZM9.46629 5.24348C9.4404 5.29526 9.41737 5.38157 9.41452 5.43334C9.41452 5.48225 9.4404 5.57718 9.47207 5.64047C9.51049 5.71718 9.56803 5.77471 9.64479 5.81307C9.70812 5.84471 9.79733 5.87061 9.84624 5.87061C9.89231 5.87061 9.98446 5.84471 10.0478 5.81307C10.1245 5.77471 10.1821 5.71718 10.2205 5.64047C10.2522 5.57718 10.2781 5.488 10.2781 5.4391C10.2781 5.39307 10.2522 5.30101 10.2205 5.23773C10.1821 5.16102 10.1245 5.10348 10.0478 5.06512C9.98446 5.03348 9.88947 5.00758 9.84055 5.00758C9.7887 5.00758 9.69371 5.03923 9.63038 5.0795C9.56706 5.1169 9.49226 5.1917 9.46629 5.24348ZM6.53608 5.92526C6.43246 5.96842 6.27702 6.05184 6.19067 6.10938C6.10432 6.16979 5.95752 6.29062 5.86253 6.38267C5.77042 6.47184 5.64089 6.62431 5.57757 6.71925C5.51137 6.81418 5.42501 6.97527 5.38183 7.07884C5.33866 7.1824 5.28109 7.36651 5.25806 7.49021C5.23216 7.61103 5.21201 7.80377 5.21201 7.91309C5.21201 8.02528 5.23216 8.21515 5.25806 8.33885C5.28397 8.45967 5.33578 8.63803 5.37608 8.73296C5.41638 8.8279 5.49409 8.97752 5.54878 9.06374C5.60347 9.15005 5.73013 9.30543 5.82511 9.40614C5.92298 9.50677 6.08705 9.6449 6.19067 9.71103C6.2943 9.7801 6.45549 9.86641 6.55047 9.90668C6.64546 9.94694 6.82392 9.99877 6.9477 10.0246C7.06859 10.0505 7.25857 10.0707 7.37083 10.0707C7.48021 10.0707 7.67306 10.0505 7.79683 10.0246C7.91773 9.99877 8.09619 9.94694 8.19118 9.90668C8.28617 9.86641 8.44736 9.7801 8.55098 9.71103C8.65461 9.6449 8.8158 9.5097 8.91076 9.41183C9.00575 9.31406 9.12671 9.16739 9.17847 9.08392C9.23317 9.00339 9.30797 8.86241 9.34542 8.77611C9.38571 8.68981 9.43756 8.54022 9.46344 8.44529C9.49795 8.32734 9.51236 8.15761 9.51236 7.91309C9.51236 7.66857 9.49795 7.49884 9.46344 7.38089C9.43756 7.28597 9.38571 7.13637 9.34542 7.05007C9.30797 6.96377 9.23317 6.82568 9.17847 6.74226C9.12671 6.65884 9.00006 6.50637 8.89644 6.39993C8.79277 6.29637 8.61719 6.15541 8.50781 6.08637C8.39555 6.01732 8.24299 5.93678 8.1624 5.90513C8.08468 5.87349 7.91773 5.82746 7.79683 5.80157C7.67306 5.77567 7.47158 5.75554 7.35068 5.75841C7.22691 5.75841 7.03406 5.77855 6.92468 5.80445C6.81241 5.82746 6.63971 5.88212 6.53608 5.92526ZM7.34204 6.62143C7.414 6.61856 7.54066 6.63006 7.62413 6.64733C7.70473 6.66171 7.84865 6.71062 7.94076 6.75376C8.03863 6.7998 8.17391 6.90048 8.28042 7.00404C8.38404 7.11048 8.48479 7.24569 8.53084 7.34637C8.57401 7.43555 8.62295 7.59665 8.64309 7.70597C8.669 7.85556 8.669 7.94473 8.64309 8.1087C8.62295 8.2209 8.57401 8.39063 8.53084 8.48269C8.48479 8.57762 8.38116 8.71858 8.27753 8.82214C8.17391 8.9257 8.03863 9.02641 7.94076 9.07245C7.84865 9.11557 7.67882 9.16446 7.56656 9.18463C7.40249 9.2105 7.31326 9.2105 7.16358 9.18463C7.0542 9.16446 6.89301 9.11557 6.80378 9.07245C6.70592 9.02641 6.56487 8.92286 6.46125 8.81926C6.35762 8.7157 6.25688 8.58049 6.21083 8.48269C6.16764 8.39063 6.11871 8.2209 6.09856 8.1087C6.07266 7.94473 6.07266 7.85556 6.09856 7.70597C6.11871 7.59665 6.16764 7.43555 6.21083 7.34637C6.25688 7.24569 6.35762 7.11048 6.46125 7.00404C6.55911 6.90911 6.70303 6.7998 6.78075 6.76239C6.86135 6.725 6.99088 6.67897 7.06859 6.65884C7.14919 6.6387 7.27009 6.62143 7.34204 6.62143Z" fill="#8B8B8B"/>
</g>
<defs>
<clipPath id="clip0_2_145">
<rect width="15.12" height="16" fill="white"/>
</clipPath>
</defs>
</svg>
