<svg width="18" height="17" viewBox="0 0 18 17" fill="none" xmlns="http://www.w3.org/2000/svg">
<path d="M8.20639 0.0279805C9.67353 -0.0583994 10.9265 0.034486 12.4107 0.601811C15.4901 1.7792 16.4868 3.56385 17.2234 4.79099C17.4646 5.19366 17.999 6.54291 18 6.54521C16.0915 7.30802 17.8839 6.57574 16.2627 7.23785C15.8974 7.38178 15.8894 7.39069 15.8894 7.39069C15.9184 7.57717 15.9454 8.1503 15.9454 8.40503V8.45658C15.9404 9.19556 15.8353 9.91062 15.6432 10.589C15.433 11.3742 15.1018 12.1258 14.6604 12.816C13.9088 13.9892 12.862 14.944 11.6251 15.5843C10.3881 16.2246 9.00402 16.5279 7.61193 16.4639C6.22085 16.3997 4.8707 15.9704 3.69768 15.219C2.52467 14.4676 1.57002 13.4207 0.929824 12.1833C0.756189 11.8478 0.607478 11.5015 0.483981 11.1472C0.176442 10.3074 0.00610394 9.40155 9.92595e-05 8.45658L0 8.40503C0 4.01827 3.63333 0.324354 8.15235 0.0312833L8.20639 0.0279805ZM11.4649 3.0767C10.4632 2.69385 9.6305 2.60677 8.4746 2.66672L8.36152 2.67303C5.11739 2.8639 2.64917 5.50235 2.64917 8.40503C2.64917 11.3457 5.03262 13.7295 7.97321 13.7295C10.9125 13.7295 13.2964 11.3457 13.2964 8.40503C13.2964 8.34387 13.2924 8.18893 13.2824 8.01247C13.2783 7.92939 13.2733 7.85682 13.2693 7.80267C13.2683 7.78696 13.2673 7.77495 13.2663 7.76634L13.1402 6.965C13.0452 6.65221 12.9211 6.34753 12.77 6.05486L14.3352 5.24501C14.3462 5.237 14.3562 5.22929 14.3672 5.22199C14.1981 4.97976 14.0179 4.75295 13.7968 4.52514C13.3524 4.06892 12.6759 3.54824 11.52 3.09812L11.4649 3.0767Z" fill="black"/>
</svg>
