<svg width="13" height="17" viewBox="0 0 13 17" fill="none" xmlns="http://www.w3.org/2000/svg">
<path d="M0.255152 14.0975C0.0850833 13.8424 0 13.5979 0 13.364C0.0212459 13.1088 0.159492 12.9068 0.414645 12.758C0.584713 12.6091 0.77603 12.5453 0.988691 12.5665C1.2226 12.5879 1.43516 12.6941 1.62657 12.8855C2.20061 13.6297 2.89166 14.2357 3.69951 14.7036C4.52881 15.15 5.50682 15.3733 6.63366 15.3733C7.22905 15.3733 7.81367 15.2776 8.38782 15.0863C8.98311 14.8736 9.47217 14.5653 9.8549 14.1613C10.2375 13.736 10.4289 13.2045 10.4289 12.5665C10.4289 11.9075 10.2375 11.3759 9.8549 10.9719C9.47217 10.5679 8.97253 10.2489 8.3559 10.015C7.76061 9.78112 7.12273 9.57912 6.44235 9.40904C5.71939 9.21761 5.01777 9.00504 4.33739 8.77111C3.65702 8.51595 3.05106 8.20761 2.5195 7.8462C2.0092 7.46345 1.59465 7.00628 1.27576 6.47469C0.95677 5.94311 0.797374 5.29461 0.797374 4.5291C0.797374 3.63601 1.04185 2.84925 1.53081 2.16884C2.01987 1.48842 2.679 0.956834 3.50819 0.574181C4.35864 0.191427 5.31541 0 6.37851 0C6.91006 0 7.48421 0.0744158 8.10074 0.223348C8.71738 0.350832 9.32335 0.574181 9.91863 0.893092C10.5139 1.212 11.0455 1.64793 11.5133 2.20076C11.7046 2.39219 11.8004 2.61543 11.8004 2.8706C11.8004 3.10442 11.694 3.3171 11.4814 3.50842C11.3113 3.63601 11.1093 3.69985 10.8754 3.69985C10.6628 3.69985 10.4821 3.61476 10.3333 3.44468C9.82297 2.8706 9.21701 2.43468 8.51539 2.13702C7.81367 1.83935 7.05888 1.69042 6.25093 1.69042C5.6344 1.69042 5.04969 1.79676 4.49689 2.00943C3.96534 2.20076 3.51887 2.49842 3.15738 2.90242C2.7959 3.30643 2.61516 3.83801 2.61516 4.49718C2.65775 5.11386 2.87031 5.61352 3.25304 5.99627C3.65702 6.37903 4.178 6.69794 4.81578 6.95311C5.47491 7.20828 6.20845 7.4422 7.0164 7.65478C7.69677 7.82485 8.34522 8.02685 8.96186 8.26078C9.59974 8.4947 10.1525 8.79236 10.6202 9.15387C11.1093 9.49403 11.492 9.92995 11.7684 10.4615C12.0661 10.9931 12.2149 11.6629 12.2149 12.4709C12.2149 13.4065 11.9492 14.2145 11.4176 14.8949C10.9073 15.5753 10.2163 16.0963 9.34458 16.4577C8.4728 16.8192 7.50546 17 6.44235 17C5.29417 17 4.178 16.7767 3.09365 16.3301C2.03055 15.8836 1.08435 15.1395 0.255152 14.0975Z" fill="black"/>
</svg>
