
      <svg data-logo="logo" xmlns="http://www.w3.org/2000/svg" viewBox="0 0 199 43">
        <g id="logogram" transform="translate(0, 1) rotate(0) "><path d="M0.301758 30.08L0.301761 10.08L10.3018 15.6355V24.5799L18.3018 29.08L26.3018 24.5799V15.6355L36.3019 10.08V30.08L18.3018 40.08L0.301758 30.08Z" fill="#192657"/><path fill-rule="evenodd" clip-rule="evenodd" d="M5.30177 12.8578L0.301758 10.08L18.3018 0.0799561L36.3019 10.08L31.3018 12.8578V27.58L18.3018 35.08L5.30176 27.58L5.30177 12.8578ZM30.7602 13.1587L26.3018 15.6355V15.58L18.3018 11.0799L10.3018 15.58V15.6355L5.84343 13.1587V27.2723L18.3018 34.4598L30.7602 27.2723V13.1587Z" fill="url(#paint0_linear_5558_2243)"/></g>
        <g id="logotype" transform="translate(43, 1)"><path fill="#111111" d="M19.43 34.34L19.43 34.34Q16.05 34.34 13.37 32.80Q10.70 31.27 9.15 28.34Q7.61 25.42 7.61 21.29L7.61 21.29Q7.61 17.13 9.16 14.20Q10.72 11.27 13.40 9.73Q16.08 8.19 19.43 8.19L19.43 8.19Q21.60 8.19 23.47 8.80Q25.35 9.41 26.80 10.57Q28.25 11.73 29.17 13.42Q30.10 15.10 30.39 17.23L30.39 17.23L25.11 17.23Q24.94 16.19 24.45 15.38Q23.96 14.57 23.24 14.00Q22.51 13.42 21.57 13.12Q20.63 12.83 19.54 12.83L19.54 12.83Q17.55 12.83 16.05 13.82Q14.54 14.81 13.72 16.70Q12.90 18.58 12.90 21.29L12.90 21.29Q12.90 24.04 13.74 25.92Q14.58 27.80 16.07 28.75Q17.55 29.71 19.52 29.71L19.52 29.71Q20.61 29.71 21.54 29.41Q22.47 29.11 23.22 28.54Q23.96 27.97 24.45 27.15Q24.94 26.33 25.12 25.30L25.12 25.30L30.40 25.30Q30.20 27.06 29.35 28.69Q28.51 30.31 27.11 31.59Q25.70 32.87 23.77 33.61Q21.84 34.34 19.43 34.34ZM36.93 22.94L36.93 22.94L36.93 34L31.80 34L31.80 8.54L36.83 8.54L36.83 19.66L36.42 19.66Q37.17 17.27 38.70 15.96Q40.23 14.65 42.66 14.65L42.66 14.65Q44.64 14.65 46.12 15.52Q47.59 16.38 48.41 18.00Q49.22 19.61 49.22 21.85L49.22 21.85L49.22 34L44.09 34L44.09 22.74Q44.09 20.96 43.18 19.95Q42.26 18.94 40.64 18.94L40.64 18.94Q39.56 18.94 38.72 19.41Q37.87 19.88 37.40 20.77Q36.93 21.66 36.93 22.94ZM56.65 34.38L56.65 34.38Q54.84 34.38 53.39 33.74Q51.95 33.09 51.12 31.82Q50.29 30.55 50.29 28.65L50.29 28.65Q50.29 27.06 50.88 25.98Q51.47 24.91 52.49 24.26Q53.51 23.61 54.80 23.27Q56.09 22.93 57.50 22.79L57.50 22.79Q59.16 22.62 60.18 22.47Q61.20 22.33 61.67 22.01Q62.14 21.70 62.14 21.08L62.14 21.08L62.14 20.99Q62.14 20.17 61.79 19.61Q61.45 19.05 60.79 18.75Q60.12 18.45 59.15 18.45L59.15 18.45Q58.15 18.45 57.42 18.75Q56.68 19.05 56.22 19.54Q55.76 20.04 55.54 20.65L55.54 20.65L50.84 19.87Q51.34 18.21 52.48 17.05Q53.63 15.88 55.33 15.27Q57.03 14.65 59.15 14.65L59.15 14.65Q60.70 14.65 62.15 15.02Q63.61 15.39 64.76 16.16Q65.91 16.93 66.59 18.16Q67.26 19.39 67.26 21.13L67.26 21.13L67.26 34L62.41 34L62.41 31.35L62.24 31.35Q61.78 32.24 61.01 32.91Q60.24 33.59 59.15 33.98Q58.07 34.38 56.65 34.38ZM58.10 30.77L58.10 30.77Q59.32 30.77 60.23 30.29Q61.14 29.81 61.66 28.99Q62.17 28.17 62.17 27.16L62.17 27.16L62.17 25.10Q61.95 25.27 61.49 25.40Q61.03 25.54 60.46 25.64Q59.90 25.75 59.35 25.83Q58.80 25.92 58.38 25.97L58.38 25.97Q57.44 26.10 56.72 26.41Q56.00 26.72 55.61 27.22Q55.21 27.73 55.21 28.51L55.21 28.51Q55.21 29.25 55.59 29.75Q55.97 30.26 56.61 30.51Q57.25 30.77 58.10 30.77ZM67.52 14.89L78.85 14.89L78.85 18.81L67.52 18.81L67.52 14.89ZM70.15 28.86L70.15 10.35L75.28 10.35L75.28 28.41Q75.28 29.32 75.68 29.75Q76.08 30.19 77.02 30.19L77.02 30.19Q77.31 30.19 77.84 30.11Q78.37 30.04 78.64 29.97L78.64 29.97L79.38 33.81Q78.52 34.07 77.68 34.17Q76.83 34.27 76.06 34.27L76.06 34.27Q73.19 34.27 71.67 32.87Q70.15 31.47 70.15 28.86L70.15 28.86ZM78.06 14.89L89.39 14.89L89.39 18.81L78.06 18.81L78.06 14.89ZM80.69 28.86L80.69 10.35L85.82 10.35L85.82 28.41Q85.82 29.32 86.22 29.75Q86.62 30.19 87.56 30.19L87.56 30.19Q87.85 30.19 88.38 30.11Q88.91 30.04 89.19 29.97L89.19 29.97L89.92 33.81Q89.07 34.07 88.22 34.17Q87.37 34.27 86.60 34.27L86.60 34.27Q83.73 34.27 82.21 32.87Q80.69 31.47 80.69 28.86L80.69 28.86ZM95.57 34L90.45 34L90.45 14.89L95.57 14.89L95.57 34ZM93.01 12.40L93.01 12.40Q91.85 12.40 91.03 11.63Q90.21 10.86 90.21 9.77L90.21 9.77Q90.21 8.67 91.03 7.90Q91.85 7.13 93.01 7.13L93.01 7.13Q94.17 7.13 95.00 7.90Q95.83 8.66 95.83 9.77L95.83 9.77Q95.83 10.86 95.00 11.63Q94.17 12.40 93.01 12.40ZM102.78 41.14L97.66 41.14L97.66 14.89L102.70 14.89L102.70 18.11L102.94 18.11Q103.30 17.35 103.96 16.55Q104.61 15.75 105.69 15.20Q106.77 14.65 108.39 14.65L108.39 14.65Q110.51 14.65 112.27 15.75Q114.03 16.84 115.08 19.03Q116.13 21.22 116.13 24.48L116.13 24.48Q116.13 27.66 115.11 29.86Q114.08 32.05 112.32 33.19Q110.56 34.32 108.36 34.32L108.36 34.32Q106.80 34.32 105.72 33.79Q104.65 33.27 103.97 32.49Q103.30 31.71 102.94 30.94L102.94 30.94L102.78 30.94L102.78 41.14ZM106.78 30.21L106.78 30.21Q108.12 30.21 109.03 29.47Q109.95 28.74 110.42 27.44Q110.89 26.14 110.89 24.46L110.89 24.46Q110.89 22.79 110.42 21.51Q109.95 20.23 109.04 19.49Q108.13 18.76 106.78 18.76L106.78 18.76Q105.47 18.76 104.54 19.47Q103.62 20.17 103.14 21.45Q102.66 22.72 102.66 24.46L102.66 24.46Q102.66 26.19 103.15 27.48Q103.64 28.77 104.56 29.49Q105.48 30.21 106.78 30.21ZM122.57 22.94L122.57 22.94L122.57 34L117.45 34L117.45 8.54L122.47 8.54L122.47 19.66L122.06 19.66Q122.81 17.27 124.34 15.96Q125.87 14.65 128.30 14.65L128.30 14.65Q130.28 14.65 131.76 15.52Q133.24 16.38 134.05 18.00Q134.86 19.61 134.86 21.85L134.86 21.85L134.86 34L129.73 34L129.73 22.74Q129.73 20.96 128.82 19.95Q127.90 18.94 126.28 18.94L126.28 18.94Q125.20 18.94 124.36 19.41Q123.51 19.88 123.04 20.77Q122.57 21.66 122.57 22.94ZM136.82 40.77L136.82 40.77L138.00 36.91L138.63 37.06Q139.66 37.33 140.46 37.21Q141.27 37.09 141.75 36.56Q142.24 36.03 142.34 35.08L142.34 35.08L142.48 34.05L135.30 14.89L140.75 14.89L143.97 24.81Q144.55 26.69 144.92 28.57Q145.28 30.45 145.76 32.50L145.76 32.50L144.57 32.50Q145.03 30.45 145.49 28.56Q145.95 26.67 146.56 24.81L146.56 24.81L149.91 14.89L155.30 14.89L147.18 36.26Q146.60 37.79 145.69 38.92Q144.79 40.05 143.44 40.67Q142.09 41.28 140.17 41.28L140.17 41.28Q139.15 41.28 138.26 41.14Q137.37 40.99 136.82 40.77Z"/></g>
        <defs xmlns="http://www.w3.org/2000/svg">
<linearGradient id="paint0_linear_5558_2243" x1="5.30176" y1="7.85773" x2="32.3018" y2="7.85774" gradientUnits="userSpaceOnUse">
<stop stop-color="#64C2DB"/>
<stop offset="0.307292" stop-color="#7476ED"/>
<stop offset="0.604167" stop-color="#C994DF"/>
<stop offset="1" stop-color="#E56F8C"/>
</linearGradient>
</defs>
      </svg>
    